<svg id="OBJECTS" xmlns="http://www.w3.org/2000/svg" xmlns:xlink="http://www.w3.org/1999/xlink" viewBox="0 0 500 500"><defs><style>.cls-1,.cls-5{fill:none;}.cls-2{fill:#dcf9e7;}.cls-3{opacity:0.5;}.cls-4{clip-path:url(#clip-path);}.cls-5{stroke:#a7dbca;stroke-miterlimit:10;}.cls-6{fill:#ebfffd;}.cls-7{fill:#f8fffe;}.cls-8{fill:#c8e8e3;}.cls-9{fill:#edbfb0;}.cls-10{fill:#ffe3dc;}.cls-11{fill:#7cedab;}.cls-12{fill:#5fc187;}.cls-13{fill:#ebfffb;}.cls-14{fill:#b6e0d4;}.cls-15{fill:#b5c5e2;}.cls-16{fill:#d9f4ef;}.cls-17{fill:#2e4c46;}.cls-18{fill:#213330;}.cls-19{fill:#dbada1;}.cls-20{fill:#c4958c;}.cls-21{fill:#fff;}.cls-22{fill:#efa492;}.cls-23{fill:#47726a;}.cls-24{fill:#3c6059;}.cls-25{fill:#4baa71;}.cls-26{fill:#3a7c55;}.cls-27{fill:#35635a;}.cls-28{fill:#91c1b8;}.cls-29{fill:#4e7f77;}.cls-30{fill:#192825;}</style><clipPath id="clip-path"><path class="cls-1" d="M479.29,406.56A48.32,48.32,0,0,0,431,358.24H402.8a39.51,39.51,0,0,1,0-79h12.74a43.73,43.73,0,0,0,0-87.46H370.21a13.83,13.83,0,1,1,0-27.66h12.42a30.91,30.91,0,1,0,0-61.82H90.89a30.91,30.91,0,0,0,0,61.82h21.25a27.66,27.66,0,0,1,0,55.31H75.59a40.21,40.21,0,0,0,0,80.41h8.35a42,42,0,1,1,0,84.05H52.06a35.51,35.51,0,1,0,0,71H433.49v-.06A48.34,48.34,0,0,0,479.29,406.56Z"/></clipPath></defs><path class="cls-2" d="M479.29,406.56A48.32,48.32,0,0,0,431,358.24H402.8a39.51,39.51,0,0,1,0-79h12.74a43.73,43.73,0,0,0,0-87.46H370.21a13.83,13.83,0,1,1,0-27.66h12.42a30.91,30.91,0,1,0,0-61.82H90.89a30.91,30.91,0,0,0,0,61.82h21.25a27.66,27.66,0,0,1,0,55.31H75.59a40.21,40.21,0,0,0,0,80.41h8.35a42,42,0,1,1,0,84.05H52.06a35.51,35.51,0,1,0,0,71H433.49v-.06A48.34,48.34,0,0,0,479.29,406.56Z"/><g class="cls-3"><g class="cls-4"><rect class="cls-5" x="38.9" y="199.99" width="42.9" height="15.59"/><rect class="cls-5" x="124.71" y="199.99" width="42.9" height="15.59"/><rect class="cls-5" x="167.61" y="199.99" width="42.9" height="15.59"/><rect class="cls-5" x="210.51" y="199.99" width="42.9" height="15.59"/><rect class="cls-5" x="253.41" y="199.99" width="42.9" height="15.59"/><rect class="cls-5" x="296.32" y="199.99" width="42.9" height="15.59"/><rect class="cls-5" x="339.22" y="199.99" width="42.9" height="15.59"/><rect class="cls-5" x="382.12" y="199.99" width="42.9" height="15.59"/><rect class="cls-5" x="425.02" y="199.99" width="42.9" height="15.59"/><rect class="cls-5" x="81.81" y="199.99" width="42.9" height="15.59"/><rect class="cls-5" x="60.35" y="91.6" width="42.9" height="15.59"/><rect class="cls-5" x="146.16" y="91.6" width="42.9" height="15.59"/><rect class="cls-5" x="189.06" y="91.6" width="42.9" height="15.59"/><rect class="cls-5" x="231.96" y="91.6" width="42.9" height="15.59"/><rect class="cls-5" x="274.87" y="91.6" width="42.9" height="15.59"/><rect class="cls-5" x="317.77" y="91.6" width="42.9" height="15.59"/><rect class="cls-5" x="360.67" y="91.6" width="42.9" height="15.59"/><rect class="cls-5" x="403.57" y="91.6" width="42.9" height="15.59"/><rect class="cls-5" x="446.47" y="91.6" width="42.9" height="15.59"/><rect class="cls-5" x="103.26" y="91.6" width="42.9" height="15.59"/><rect class="cls-5" x="60.35" y="122.59" width="42.9" height="15.59"/><rect class="cls-5" x="146.16" y="122.59" width="42.9" height="15.59"/><rect class="cls-5" x="189.06" y="122.59" width="42.9" height="15.59"/><rect class="cls-5" x="231.96" y="122.59" width="42.9" height="15.59"/><rect class="cls-5" x="274.87" y="122.59" width="42.9" height="15.59"/><rect class="cls-5" x="317.77" y="122.59" width="42.9" height="15.59"/><rect class="cls-5" x="360.67" y="122.59" width="42.9" height="15.59"/><rect class="cls-5" x="403.57" y="122.59" width="42.9" height="15.59"/><rect class="cls-5" x="446.47" y="122.59" width="42.9" height="15.59"/><rect class="cls-5" x="103.26" y="122.59" width="42.9" height="15.59"/><rect class="cls-5" x="60.35" y="153.59" width="42.9" height="15.59"/><rect class="cls-5" x="146.16" y="153.59" width="42.9" height="15.59"/><rect class="cls-5" x="189.06" y="153.59" width="42.9" height="15.59"/><rect class="cls-5" x="231.96" y="153.59" width="42.9" height="15.59"/><rect class="cls-5" x="274.87" y="153.59" width="42.9" height="15.59"/><rect class="cls-5" x="317.77" y="153.59" width="42.9" height="15.59"/><rect class="cls-5" x="360.67" y="153.59" width="42.9" height="15.59"/><rect class="cls-5" x="403.57" y="153.59" width="42.9" height="15.59"/><rect class="cls-5" x="446.47" y="153.59" width="42.9" height="15.59"/><rect class="cls-5" x="103.26" y="153.59" width="42.9" height="15.59"/><rect class="cls-5" x="60.35" y="184.59" width="42.9" height="15.59"/><rect class="cls-5" x="146.16" y="184.59" width="42.9" height="15.59"/><rect class="cls-5" x="189.06" y="184.59" width="42.9" height="15.59"/><rect class="cls-5" x="231.96" y="184.59" width="42.9" height="15.59"/><rect class="cls-5" x="274.87" y="184.59" width="42.9" height="15.59"/><rect class="cls-5" x="317.77" y="184.59" width="42.9" height="15.59"/><rect class="cls-5" x="360.67" y="184.59" width="42.9" height="15.59"/><rect class="cls-5" x="403.57" y="184.59" width="42.9" height="15.59"/><rect class="cls-5" x="446.47" y="184.59" width="42.9" height="15.59"/><rect class="cls-5" x="103.26" y="184.59" width="42.9" height="15.59"/><rect class="cls-5" x="60.35" y="215.58" width="42.9" height="15.59"/><rect class="cls-5" x="146.16" y="215.58" width="42.9" height="15.59"/><rect class="cls-5" x="189.06" y="215.58" width="42.9" height="15.59"/><rect class="cls-5" x="231.96" y="215.58" width="42.9" height="15.59"/><rect class="cls-5" x="274.87" y="215.58" width="42.9" height="15.59"/><rect class="cls-5" x="317.77" y="215.58" width="42.9" height="15.59"/><rect class="cls-5" x="360.67" y="215.58" width="42.9" height="15.59"/><rect class="cls-5" x="403.57" y="215.58" width="42.9" height="15.59"/><rect class="cls-5" x="446.47" y="215.58" width="42.9" height="15.59"/><rect class="cls-5" x="103.26" y="215.58" width="42.9" height="15.59"/><rect class="cls-5" x="60.35" y="246.58" width="42.9" height="15.59"/><rect class="cls-5" x="146.16" y="246.58" width="42.9" height="15.59"/><rect class="cls-5" x="189.06" y="246.58" width="42.9" height="15.59"/><rect class="cls-5" x="231.96" y="246.58" width="42.9" height="15.59"/><rect class="cls-5" x="274.87" y="246.58" width="42.9" height="15.59"/><rect class="cls-5" x="317.77" y="246.58" width="42.9" height="15.59"/><rect class="cls-5" x="360.67" y="246.58" width="42.9" height="15.59"/><rect class="cls-5" x="403.57" y="246.58" width="42.9" height="15.59"/><rect class="cls-5" x="446.47" y="246.58" width="42.9" height="15.59"/><rect class="cls-5" x="103.26" y="246.58" width="42.9" height="15.59"/><rect class="cls-5" x="60.35" y="277.58" width="42.9" height="15.59"/><rect class="cls-5" x="146.16" y="277.58" width="42.9" height="15.59"/><rect class="cls-5" x="189.06" y="277.58" width="42.9" height="15.59"/><rect class="cls-5" x="231.96" y="277.58" width="42.9" height="15.59"/><rect class="cls-5" x="274.87" y="277.58" width="42.9" height="15.59"/><rect class="cls-5" x="317.77" y="277.58" width="42.9" height="15.59"/><rect class="cls-5" x="360.67" y="277.58" width="42.9" height="15.59"/><rect class="cls-5" x="403.57" y="277.58" width="42.9" height="15.59"/><rect class="cls-5" x="446.47" y="277.58" width="42.9" height="15.59"/><rect class="cls-5" x="103.26" y="277.58" width="42.9" height="15.59"/><rect class="cls-5" x="60.35" y="308.57" width="42.9" height="15.59"/><rect class="cls-5" x="146.16" y="308.57" width="42.9" height="15.59"/><rect class="cls-5" x="189.06" y="308.57" width="42.9" height="15.59"/><rect class="cls-5" x="231.96" y="308.57" width="42.9" height="15.59"/><rect class="cls-5" x="274.87" y="308.57" width="42.9" height="15.59"/><rect class="cls-5" x="317.77" y="308.57" width="42.9" height="15.59"/><rect class="cls-5" x="360.67" y="308.57" width="42.9" height="15.59"/><rect class="cls-5" x="403.57" y="308.57" width="42.9" height="15.59"/><rect class="cls-5" x="446.47" y="308.57" width="42.9" height="15.59"/><rect class="cls-5" x="103.26" y="308.57" width="42.9" height="15.59"/><rect class="cls-5" x="60.35" y="339.57" width="42.9" height="15.59"/><rect class="cls-5" x="146.16" y="339.57" width="42.9" height="15.59"/><rect class="cls-5" x="189.06" y="339.57" width="42.9" height="15.59"/><rect class="cls-5" x="231.96" y="339.57" width="42.9" height="15.59"/><rect class="cls-5" x="274.87" y="339.57" width="42.9" height="15.59"/><rect class="cls-5" x="317.77" y="339.57" width="42.9" height="15.59"/><rect class="cls-5" x="360.67" y="339.57" width="42.9" height="15.59"/><rect class="cls-5" x="403.57" y="339.57" width="42.9" height="15.59"/><rect class="cls-5" x="446.47" y="339.57" width="42.9" height="15.59"/><rect class="cls-5" x="103.26" y="339.57" width="42.9" height="15.59"/><rect class="cls-5" x="60.35" y="370.57" width="42.9" height="15.59"/><rect class="cls-5" x="146.16" y="370.57" width="42.9" height="15.59"/><rect class="cls-5" x="189.06" y="370.57" width="42.9" height="15.59"/><rect class="cls-5" x="231.96" y="370.57" width="42.9" height="15.59"/><rect class="cls-5" x="274.87" y="370.57" width="42.9" height="15.59"/><rect class="cls-5" x="317.77" y="370.57" width="42.9" height="15.59"/><rect class="cls-5" x="360.67" y="370.57" width="42.9" height="15.59"/><rect class="cls-5" x="403.57" y="370.57" width="42.9" height="15.59"/><rect class="cls-5" x="446.47" y="370.57" width="42.9" height="15.59"/><rect class="cls-5" x="103.26" y="370.57" width="42.9" height="15.59"/><rect class="cls-5" x="60.35" y="401.56" width="42.9" height="15.59"/><rect class="cls-5" x="146.16" y="401.56" width="42.9" height="15.59"/><rect class="cls-5" x="189.06" y="401.56" width="42.9" height="15.59"/><rect class="cls-5" x="231.96" y="401.56" width="42.9" height="15.59"/><rect class="cls-5" x="274.87" y="401.56" width="42.9" height="15.59"/><rect class="cls-5" x="317.77" y="401.56" width="42.9" height="15.59"/><rect class="cls-5" x="360.67" y="401.56" width="42.9" height="15.59"/><rect class="cls-5" x="403.57" y="401.56" width="42.9" height="15.59"/><rect class="cls-5" x="446.47" y="401.56" width="42.9" height="15.59"/><rect class="cls-5" x="103.26" y="401.56" width="42.9" height="15.59"/><rect class="cls-5" x="60.35" y="432.56" width="42.9" height="15.59"/><rect class="cls-5" x="146.16" y="432.56" width="42.9" height="15.59"/><rect class="cls-5" x="189.06" y="432.56" width="42.9" height="15.59"/><rect class="cls-5" x="231.96" y="432.56" width="42.9" height="15.59"/><rect class="cls-5" x="274.87" y="432.56" width="42.9" height="15.59"/><rect class="cls-5" x="317.77" y="432.56" width="42.9" height="15.59"/><rect class="cls-5" x="360.67" y="432.56" width="42.9" height="15.59"/><rect class="cls-5" x="403.57" y="432.56" width="42.9" height="15.59"/><rect class="cls-5" x="446.47" y="432.56" width="42.9" height="15.59"/><rect class="cls-5" x="103.26" y="432.56" width="42.9" height="15.59"/><rect class="cls-5" x="38.9" y="447.97" width="42.9" height="15.59"/><rect class="cls-5" x="124.71" y="447.97" width="42.9" height="15.59"/><rect class="cls-5" x="167.61" y="447.97" width="42.9" height="15.59"/><rect class="cls-5" x="210.51" y="447.97" width="42.9" height="15.59"/><rect class="cls-5" x="253.41" y="447.97" width="42.9" height="15.59"/><rect class="cls-5" x="296.32" y="447.97" width="42.9" height="15.59"/><rect class="cls-5" x="339.22" y="447.97" width="42.9" height="15.59"/><rect class="cls-5" x="382.12" y="447.97" width="42.9" height="15.59"/><rect class="cls-5" x="425.02" y="447.97" width="42.9" height="15.59"/><rect class="cls-5" x="81.81" y="447.97" width="42.9" height="15.59"/><rect class="cls-5" x="38.9" y="107" width="42.9" height="15.59"/><rect class="cls-5" x="124.71" y="107" width="42.9" height="15.59"/><rect class="cls-5" x="167.61" y="107" width="42.9" height="15.59"/><rect class="cls-5" x="210.51" y="107" width="42.9" height="15.59"/><rect class="cls-5" x="253.41" y="107" width="42.9" height="15.59"/><rect class="cls-5" x="296.32" y="107" width="42.9" height="15.59"/><rect class="cls-5" x="339.22" y="107" width="42.9" height="15.59"/><rect class="cls-5" x="382.12" y="107" width="42.9" height="15.59"/><rect class="cls-5" x="425.02" y="107" width="42.9" height="15.59"/><rect class="cls-5" x="81.81" y="107" width="42.9" height="15.59"/><rect class="cls-5" x="38.9" y="138" width="42.9" height="15.59"/><rect class="cls-5" x="124.71" y="138" width="42.9" height="15.59"/><rect class="cls-5" x="167.61" y="138" width="42.9" height="15.59"/><rect class="cls-5" x="210.51" y="138" width="42.9" height="15.59"/><rect class="cls-5" x="253.41" y="138" width="42.9" height="15.59"/><rect class="cls-5" x="296.32" y="138" width="42.9" height="15.59"/><rect class="cls-5" x="339.22" y="138" width="42.9" height="15.59"/><rect class="cls-5" x="382.12" y="138" width="42.9" height="15.59"/><rect class="cls-5" x="425.02" y="138" width="42.9" height="15.59"/><rect class="cls-5" x="81.81" y="138" width="42.9" height="15.59"/><rect class="cls-5" x="38.9" y="169" width="42.9" height="15.59"/><rect class="cls-5" x="124.71" y="169" width="42.9" height="15.59"/><rect class="cls-5" x="167.61" y="169" width="42.9" height="15.59"/><rect class="cls-5" x="210.51" y="169" width="42.9" height="15.59"/><rect class="cls-5" x="253.41" y="169" width="42.9" height="15.59"/><rect class="cls-5" x="296.32" y="169" width="42.9" height="15.59"/><rect class="cls-5" x="339.22" y="169" width="42.9" height="15.59"/><rect class="cls-5" x="382.12" y="169" width="42.9" height="15.59"/><rect class="cls-5" x="425.02" y="169" width="42.9" height="15.59"/><rect class="cls-5" x="81.81" y="169" width="42.9" height="15.59"/><rect class="cls-5" x="38.9" y="230.99" width="42.9" height="15.59"/><rect class="cls-5" x="124.71" y="230.99" width="42.9" height="15.59"/><rect class="cls-5" x="167.61" y="230.99" width="42.9" height="15.59"/><rect class="cls-5" x="210.51" y="230.99" width="42.9" height="15.59"/><rect class="cls-5" x="253.41" y="230.99" width="42.9" height="15.59"/><rect class="cls-5" x="296.32" y="230.99" width="42.9" height="15.59"/><rect class="cls-5" x="339.22" y="230.99" width="42.9" height="15.59"/><rect class="cls-5" x="382.12" y="230.99" width="42.9" height="15.59"/><rect class="cls-5" x="425.02" y="230.99" width="42.9" height="15.59"/><rect class="cls-5" x="81.81" y="230.99" width="42.9" height="15.59"/><rect class="cls-5" x="38.9" y="261.99" width="42.9" height="15.59"/><rect class="cls-5" x="124.71" y="261.99" width="42.9" height="15.59"/><rect class="cls-5" x="167.61" y="261.99" width="42.9" height="15.59"/><rect class="cls-5" x="210.51" y="261.99" width="42.9" height="15.59"/><rect class="cls-5" x="253.41" y="261.99" width="42.9" height="15.59"/><rect class="cls-5" x="296.32" y="261.99" width="42.9" height="15.59"/><rect class="cls-5" x="339.22" y="261.99" width="42.9" height="15.59"/><rect class="cls-5" x="382.12" y="261.99" width="42.9" height="15.59"/><rect class="cls-5" x="425.02" y="261.99" width="42.9" height="15.59"/><rect class="cls-5" x="81.81" y="261.99" width="42.9" height="15.59"/><rect class="cls-5" x="38.9" y="292.98" width="42.9" height="15.59"/><rect class="cls-5" x="124.71" y="292.98" width="42.9" height="15.59"/><rect class="cls-5" x="167.61" y="292.98" width="42.9" height="15.59"/><rect class="cls-5" x="210.51" y="292.98" width="42.9" height="15.59"/><rect class="cls-5" x="253.41" y="292.98" width="42.9" height="15.59"/><rect class="cls-5" x="296.32" y="292.98" width="42.9" height="15.59"/><rect class="cls-5" x="339.22" y="292.98" width="42.9" height="15.59"/><rect class="cls-5" x="382.12" y="292.98" width="42.9" height="15.59"/><rect class="cls-5" x="425.02" y="292.98" width="42.9" height="15.59"/><rect class="cls-5" x="81.81" y="292.98" width="42.9" height="15.59"/><rect class="cls-5" x="38.9" y="323.98" width="42.9" height="15.59"/><rect class="cls-5" x="124.71" y="323.98" width="42.9" height="15.59"/><rect class="cls-5" x="167.61" y="323.98" width="42.9" height="15.59"/><rect class="cls-5" x="210.51" y="323.98" width="42.9" height="15.59"/><rect class="cls-5" x="253.41" y="323.98" width="42.9" height="15.59"/><rect class="cls-5" x="296.32" y="323.98" width="42.9" height="15.59"/><rect class="cls-5" x="339.22" y="323.98" width="42.9" height="15.59"/><rect class="cls-5" x="382.12" y="323.98" width="42.9" height="15.59"/><rect class="cls-5" x="425.02" y="323.98" width="42.9" height="15.59"/><rect class="cls-5" x="81.81" y="323.98" width="42.9" height="15.59"/><rect class="cls-5" x="38.9" y="354.98" width="42.9" height="15.59"/><rect class="cls-5" x="124.71" y="354.98" width="42.9" height="15.59"/><rect class="cls-5" x="167.61" y="354.98" width="42.9" height="15.59"/><rect class="cls-5" x="210.51" y="354.98" width="42.9" height="15.59"/><rect class="cls-5" x="253.41" y="354.98" width="42.9" height="15.59"/><rect class="cls-5" x="296.32" y="354.98" width="42.9" height="15.59"/><rect class="cls-5" x="339.22" y="354.98" width="42.9" height="15.59"/><rect class="cls-5" x="382.12" y="354.98" width="42.9" height="15.59"/><rect class="cls-5" x="425.02" y="354.98" width="42.9" height="15.59"/><rect class="cls-5" x="81.81" y="354.98" width="42.9" height="15.59"/><rect class="cls-5" x="38.9" y="385.97" width="42.9" height="15.59"/><rect class="cls-5" x="124.71" y="385.97" width="42.9" height="15.59"/><rect class="cls-5" x="167.61" y="385.97" width="42.9" height="15.59"/><rect class="cls-5" x="210.51" y="385.97" width="42.9" height="15.59"/><rect class="cls-5" x="253.41" y="385.97" width="42.9" height="15.59"/><rect class="cls-5" x="296.32" y="385.97" width="42.9" height="15.59"/><rect class="cls-5" x="339.22" y="385.97" width="42.9" height="15.59"/><rect class="cls-5" x="382.12" y="385.97" width="42.9" height="15.59"/><rect class="cls-5" x="425.02" y="385.97" width="42.9" height="15.59"/><rect class="cls-5" x="81.81" y="385.97" width="42.9" height="15.59"/><rect class="cls-5" x="38.9" y="416.97" width="42.9" height="15.59"/><rect class="cls-5" x="124.71" y="416.97" width="42.9" height="15.59"/><rect class="cls-5" x="167.61" y="416.97" width="42.9" height="15.59"/><rect class="cls-5" x="210.51" y="416.97" width="42.9" height="15.59"/><rect class="cls-5" x="253.41" y="416.97" width="42.9" height="15.59"/><rect class="cls-5" x="296.32" y="416.97" width="42.9" height="15.59"/><rect class="cls-5" x="339.22" y="416.97" width="42.9" height="15.59"/><rect class="cls-5" x="382.12" y="416.97" width="42.9" height="15.59"/><rect class="cls-5" x="425.02" y="416.97" width="42.9" height="15.59"/><rect class="cls-5" x="81.81" y="416.97" width="42.9" height="15.59"/></g></g><g class="cls-4"><path class="cls-6" d="M216.11,202.71a67.35,67.35,0,0,0-134.7.06h.13V359.88H216.11V202.71Z"/><path class="cls-7" d="M216.11,202.71h0a67.07,67.07,0,0,0-13.65-40.59c-4,3.35-7.39,7.36-11,11.15-4.64,4.95-9.82,9.73-16.24,11.91C160,190.38,140.83,180,128,189.86c-10.82,8.29-10.66,27.06-23,32.92-4.44,2.12-9.57,2-14.45,2.53a47.42,47.42,0,0,0-9,2v55.55a49.17,49.17,0,0,1,13.95-5.58c5.67-1.29,11.72-1.62,16.78-4.48,12.21-6.88,12.93-24.11,21-35.59,6.32-9,17-14.07,27.79-16.48s21.87-2.56,32.8-4c7.66-1,15.42-2.81,22.28-6.23Z"/><path class="cls-7" d="M216.11,255.2V238.86c-3.19.28-6.4.46-9.58.68-9.59.67-19.67,2.06-27.26,8-19.7,15.28-12,50.76-31.72,66-5.31,4.09-11.91,6-17.82,9.19C116,330,107,344.54,105,359.88h38.49c4.12-13,12.92-24.52,24.85-31.15,8.36-4.65,18.43-7.43,23.94-15.26,8.47-12,2.25-30.62,11.71-41.9,3.2-3.81,7.45-6,12.15-7.45Z"/><path class="cls-8" d="M218.06,200.71a69.34,69.34,0,0,0-138.65,2.06h.13V361.88H218.11V200.71Zm-4,0H151V137.48A65.4,65.4,0,0,1,214.06,200.71ZM147,137.47v63.24H83.46A65.41,65.41,0,0,1,147,137.47ZM83.54,204.71H147v48.34H83.54Zm0,52.5H147v48.18H83.54Zm0,52.33H147v48.34H83.54Zm130.57,48.34H151V309.54h63.15Zm0-52.49H151V257.21h63.15ZM151,253.05V204.71h63.15v48.34Z"/></g><path class="cls-9" d="M169.69,341l-5.81-33.21a3.41,3.41,0,0,0-6.71,1.17l1.71,9.77-7-19.27a3.41,3.41,0,0,0-6.4,2.33l-1.29-3.55a3.41,3.41,0,0,0-6.4,2.33l1.29,3.54h0a3.4,3.4,0,1,0-6.39,2.33L134,310h0a3.4,3.4,0,1,0-6.39,2.33l15.72,43.28a3.41,3.41,0,0,0,6.4-2.33l-1.29-3.54h0a3.41,3.41,0,0,0,6.4-2.33l-1.29-3.54a3.42,3.42,0,0,0,4.36,2h0a3.42,3.42,0,0,0,2-4.36l1.28,3.55a3.41,3.41,0,0,0,6.51-.38A3.4,3.4,0,0,0,169.69,341Z"/><path class="cls-9" d="M169.69,341l-5.81-33.21a3.41,3.41,0,0,0-6.71,1.17l1.71,9.77-7-19.27a3.41,3.41,0,0,0-6.4,2.33l-1.29-3.55a3.41,3.41,0,0,0-6.4,2.33l7,19.26-5.71-15.72a3.4,3.4,0,1,0-6.39,2.33l15.72,43.28a3.41,3.41,0,0,0,6.4-2.33l-1.29-3.54a3.42,3.42,0,0,0,4.36,2h0a3.42,3.42,0,0,0,2-4.36l1.28,3.55a3.41,3.41,0,0,0,6.51-.38A3.4,3.4,0,0,0,169.69,341Z"/><path class="cls-9" d="M134,310a3.4,3.4,0,1,0-6.39,2.33l15.72,43.28a3.41,3.41,0,0,0,6.4-2.33Z"/><path class="cls-10" d="M152.11,331.68a.25.25,0,0,1-.24-.16,9.19,9.19,0,0,1,5.51-11.79.25.25,0,0,1,.17.47,8.68,8.68,0,0,0-5.21,11.15.25.25,0,0,1-.15.32Z"/><path class="cls-10" d="M137.2,324.45a.24.24,0,0,1-.23-.16.25.25,0,0,1,.15-.32l8.75-3.18a5.19,5.19,0,0,0,3.1-6.63.26.26,0,0,1,.15-.33.26.26,0,0,1,.32.16,5.68,5.68,0,0,1-3.4,7.27l-8.75,3.18Z"/><path class="cls-11" d="M281.06,319c-.35,0-.69,0-1,.05V319H198a19.91,19.91,0,0,0-19,14.43l-2.49,8.84-4.74-13a2.69,2.69,0,0,0-3.45-1.61l-32.19,11.69a2.7,2.7,0,0,0-1.62,3.46l25.26,69.53a19.89,19.89,0,0,0,25.4,11.86h0l.24-.1a19.83,19.83,0,0,0,13-13.47l5-17.85v10.82l57.79-5.46v9.71a19.82,19.82,0,0,0,39.64,0v-69A19.88,19.88,0,0,0,281.06,319Z"/><path class="cls-12" d="M300.88,338.81A19.88,19.88,0,0,0,281.06,319c-.35,0-.69,0-1,.05V319H241.55a80.3,80.3,0,0,1,24.1,49.49,79.27,79.27,0,0,1-4.41,34.3v5.05a19.82,19.82,0,0,0,39.64,0Z"/><rect class="cls-8" x="283.02" y="241.91" width="60.65" height="60.65"/><rect class="cls-13" x="287.02" y="245.91" width="52.65" height="52.65"/><polygon class="cls-14" points="343.67 241.91 339.67 245.91 339.67 298.56 343.67 302.56 343.67 241.91"/><polygon class="cls-15" points="283.02 241.91 287.02 245.91 287.02 298.56 283.02 302.56 283.02 241.91"/><path class="cls-16" d="M314.51,252.74c2.22.91,4.9,1,6.61,2.65,2.09,2.06,1.7,5.58.43,8.23s-3.24,5-4,7.8a9.35,9.35,0,0,0,2.56,9.26,8.14,8.14,0,0,0,9.38,1.05c2.76-1.65,4.61-5.13,7.82-5.38a5.46,5.46,0,0,1,2.37.4V245.91H309.21A9.19,9.19,0,0,0,314.51,252.74Z"/><path class="cls-16" d="M287,292.23a12,12,0,0,0,7.46,1.88c2.8-.29,5.66-2,6.45-4.67,1.08-3.66-1.89-7.64-.74-11.28.79-2.53,3.3-4,5.4-5.68s4.1-4.17,3.3-6.7-3.62-3.39-5.37-5.23c-3.75-3.9-1.91-9.71-2.42-14.64H287Z"/><path class="cls-16" d="M339.67,298.56V285a8.83,8.83,0,0,0-4.61.24c-2.39.79-4.31,2.55-6.4,4s-4.68,2.5-7.08,1.73c-3.66-1.18-5.46-6.25-9.3-6.41-3.25-.15-5.4,3.45-5.85,6.66a66.67,66.67,0,0,1-1,7.35Z"/><rect class="cls-8" x="292.17" y="159.2" width="45.88" height="69.76"/><rect class="cls-13" x="296.17" y="163.2" width="37.88" height="61.75"/><polygon class="cls-14" points="338.05 159.2 334.05 163.2 334.05 224.96 338.05 228.96 338.05 159.2"/><polygon class="cls-14" points="292.17 159.2 296.17 163.2 296.17 224.96 292.17 228.96 292.17 159.2"/><path class="cls-16" d="M334.05,183.61a12.06,12.06,0,0,0-4,0c-6.12,1.1-11,7.3-10.26,13.48.26,2.2,1.13,4.27,1.58,6.44s.45,4.6-.87,6.37c-1.89,2.54-5.67,2.73-8.72,1.89s-5.9-2.47-9.05-2.78a10.08,10.08,0,0,0-6.54,1.62V225h37.88Z"/><path class="cls-16" d="M296.17,195a19,19,0,0,1,3.17-.82c3.53-.6,7.27-.64,10.39-2.38,1.74-1,3.33-2.88,2.73-4.78-.85-2.73-5.44-3.22-5.65-6.07a3.51,3.51,0,0,1,1.49-2.86c.86-.71,1.9-1.18,2.81-1.82a9.57,9.57,0,0,0,2.41-12.69c-.09-.14-.2-.27-.3-.4H296.17Z"/><path class="cls-16" d="M320.71,164.13a6.87,6.87,0,0,1,.6,6.09c-.45,1.17-1.22,2.19-1.7,3.35a3.72,3.72,0,0,0,.1,3.58c1,1.32,3,1.3,4.46.47a15.07,15.07,0,0,0,3.43-3.47,6.26,6.26,0,0,1,4.06-2.52,6,6,0,0,1,2.39.48V163.2H320A6.3,6.3,0,0,1,320.71,164.13Z"/><rect class="cls-8" x="354.81" y="211.07" width="52.86" height="36.71"/><rect class="cls-13" x="358.81" y="215.07" width="44.86" height="28.7"/><polygon class="cls-14" points="407.67 211.07 403.67 215.07 403.67 243.78 407.67 247.78 407.67 211.07"/><polygon class="cls-14" points="354.81 211.07 358.81 215.07 358.81 243.78 354.81 247.78 354.81 211.07"/><path class="cls-16" d="M358.81,215.07v15.65a9,9,0,0,0,6.44-2.29c1.83-1.46,3.08-3.59,5.07-4.82,3.35-2.07,7.66-1,11.51-.16s8.49,1.16,11.09-1.8c1.5-1.71,1.9-4.1,2.23-6.35l0-.23Z"/><path class="cls-16" d="M391.94,234.27c-2.92-.36-5.9,1.82-8.68.86-3.18-1.11-4.07-5.67-7.24-6.81-2-.71-4.15.17-5.79,1.44s-3,2.92-4.68,4.11a10.89,10.89,0,0,1-6.74,1.89v8h37.58a8.74,8.74,0,0,0,.59-3.28C396.91,237.59,394.83,234.63,391.94,234.27Z"/><path class="cls-16" d="M396.84,221.53a5.69,5.69,0,0,0-1.79,2.43c-.44,2,2,3.35,3.41,4.93,2.09,2.39,1.74,6,1.63,9.12a12.47,12.47,0,0,0,1,5.77h2.58V215.07h-4.56C398.84,217.36,398.51,219.74,396.84,221.53Z"/><path class="cls-17" d="M281.87,217.91c-6.87-10.48-27.53-22-39.08-14-11.56-8-32.25,3.48-39.11,14s-13,43.48-12.24,72.76,44.32,16.89,51.33,16.88,50.58,12.37,51.34-16.88S288.73,228.39,281.87,217.91Z"/><path class="cls-18" d="M255.47,201.51a59.75,59.75,0,0,1,8.17,6.17c16.27,14.67,23,39.82,16.31,61.18s-26.29,37.69-47.77,39.75l1.45.17c4.26-.62,7.6-1.23,9.14-1.23,7,0,50.58,12.37,51.34-16.88s-5.38-62.28-12.24-72.76C277.13,210.68,265.82,203,255.47,201.51Z"/><path class="cls-9" d="M225.81,271.07,224.25,319a17.89,17.89,0,0,0,17.89,18.35h0A17.9,17.9,0,0,0,260.05,319l-1.56-47.92Z"/><path class="cls-19" d="M225,296.24l-.33,10c21.48,2.2,31.51,7.91,35.38,13.27,0-.18,0-.36,0-.54l-.74-22.75Z"/><circle class="cls-9" cx="197.89" cy="254.85" r="8.81" transform="translate(-95.73 388.63) rotate(-76.67)"/><path class="cls-19" d="M194.42,258.12a.35.35,0,0,1-.28-.13,4.89,4.89,0,0,1,2.31-7.81.38.38,0,0,1,.47.25.38.38,0,0,1-.25.47,4.1,4.1,0,0,0-2.92,3.95,4.18,4.18,0,0,0,1,2.66.38.38,0,0,1,0,.53A.44.44,0,0,1,194.42,258.12Z"/><circle class="cls-19" cx="287.66" cy="254.85" r="8.81" transform="translate(-57.5 423.85) rotate(-67.63)"/><path class="cls-20" d="M291.12,258.12a.36.36,0,0,1-.24-.09.37.37,0,0,1-.05-.52,4.18,4.18,0,0,0,1-2.66,4.1,4.1,0,0,0-2.92-3.95.38.38,0,0,1-.25-.47.38.38,0,0,1,.47-.25,4.85,4.85,0,0,1,3.45,4.67,4.92,4.92,0,0,1-1.13,3.14A.37.37,0,0,1,291.12,258.12Z"/><path class="cls-17" d="M286.37,239v37.67S294.55,255.87,286.37,239Z"/><path class="cls-17" d="M199.18,239v37.67S191,255.87,199.18,239Z"/><circle class="cls-17" cx="242.15" cy="195.94" r="22.5"/><rect class="cls-9" x="197.89" y="204.72" width="89.76" height="100.41" rx="44.88"/><path class="cls-18" d="M257.19,254.4c0,2.21,1.21,4,2.7,4s2.69-1.79,2.69-4-1.21-4-2.69-4S257.19,252.19,257.19,254.4Z"/><path class="cls-21" d="M249.48,285a1.36,1.36,0,0,1,1.36,1.61,8.23,8.23,0,0,1-16.13,0,1.36,1.36,0,0,1,1.35-1.61Z"/><path class="cls-10" d="M244.48,272h-1.63a3.2,3.2,0,0,1-3.08-4.06l1.5-5.29a.49.49,0,0,1,.61-.34.5.5,0,0,1,.35.61l-1.5,5.29a2.2,2.2,0,0,0,2.12,2.79h1.63a.5.5,0,1,1,0,1Z"/><ellipse class="cls-22" cx="266.19" cy="269.69" rx="6.37" ry="4.62"/><ellipse class="cls-22" cx="219.35" cy="269.69" rx="6.37" ry="4.62"/><path class="cls-18" d="M228.35,254.4c0,2.21-1.2,4-2.69,4s-2.69-1.79-2.69-4,1.21-4,2.69-4S228.35,252.19,228.35,254.4Z"/><path class="cls-18" d="M267.06,252.69a.38.38,0,0,1-.37-.3,7.07,7.07,0,0,0-6.67-5.46h-.09a.38.38,0,0,1,0-.75,7.75,7.75,0,0,1,7.5,6.06.38.38,0,0,1-.29.44Z"/><path class="cls-18" d="M218.49,252.69h-.08a.38.38,0,0,1-.29-.44,7.76,7.76,0,0,1,7.41-6.06h.09a.38.38,0,0,1,0,.75h-.08a7.08,7.08,0,0,0-6.68,5.46A.36.36,0,0,1,218.49,252.69Z"/><rect class="cls-18" x="165.08" y="434.51" width="152.21" height="7.05" rx="3.13"/><rect class="cls-23" x="46.67" y="441.57" width="392.22" height="13.32" rx="5.39"/><path class="cls-24" d="M438.88,449.5V447a5.39,5.39,0,0,0-5.39-5.4h-159a66.59,66.59,0,0,1,14,11.42c.58.62,1.14,1.26,1.69,1.9H433.49A5.39,5.39,0,0,0,438.88,449.5Z"/><path class="cls-25" d="M389.2,434.79a16,16,0,0,0-1.35-19.33c-1.8-2-4.08-3.45-6.09-5.22a27.26,27.26,0,0,1-8.85-23.57c1-7.93,5.55-15,7.69-22.67,1.48-5.3,1.36-11.64-1.17-16.27a2.69,2.69,0,0,1,3.4-3.74c7.56,2.89,13.15,10.29,12.38,18.69-.71,7.85-6.06,14.8-6.32,22.67-.23,6.93,3.51,13.29,7.06,19.24s7.17,12.42,6.67,19.33S395.84,436.79,389.2,434.79Z"/><path class="cls-26" d="M396.22,419.55l0-.08a36.35,36.35,0,0,0-2.74-6.06c-1.16-2.38.71-6.34,2.36-9.08-.13-.22-.26-.44-.4-.66-1.37,2.23-3,5.39-3,8-.46-.78-.92-1.56-1.38-2.31a52.65,52.65,0,0,1-5-9.75c-.81-2.52,1.68-6,3.63-8.24-.07-.27-.14-.53-.2-.8-1.53,1.7-3.54,4.29-4.1,6.74a32.53,32.53,0,0,1-.88-5.52.49.49,0,0,1,0-.12,44,44,0,0,1-.09-4.59c-.06-2.7,3.27-6.74,6.32-9.87.19-.51.37-1,.57-1.53-2.45,2.41-5.37,5.62-6.75,8.46.13-1.83.32-3.61.53-5.33h0c.11-.91.22-1.82.34-2.73.15-1.25.31-2.5.45-3.76h0s0-.05,0-.08c.06-.54.12-1.08.17-1.62.92-5.43,5.26-12.53,7.82-16.34-.11-.24-.22-.48-.34-.72a64.45,64.45,0,0,0-7.16,13.32c0-.09,0-.19,0-.29h0a.34.34,0,0,0,0-.1,44.69,44.69,0,0,0-.3-8.81c-.11-.79-.26-1.56-.43-2.32h0a34.91,34.91,0,0,1,.55-9.71l-.62-.38a44.82,44.82,0,0,0-.76,7.15,23.17,23.17,0,0,0-4.62-8,2.93,2.93,0,0,0-.46.47,24.51,24.51,0,0,1,5.68,12.9,39.46,39.46,0,0,1,.36,5.09,23,23,0,0,0-4.2-6.65c0,.36,0,.73,0,1.09,2.14,2.62,4.32,6.07,4.11,9.11-.07,1.37-.18,2.75-.32,4.11a11.8,11.8,0,0,0-.18,1.62c-.14,1.24-.29,2.47-.44,3.7-.85-3.22-3.18-6.46-5.1-8.72l-.27.75c2.41,2.89,5.35,7.22,5,10.88h0c-.32,2.66-.6,5.48-.67,8.36h0c0,.52,0,1,0,1.56-1.7-4.07-5.68-8.4-8.29-11-.09.23-.18.47-.26.7,3.22,3.21,8.31,8.93,8.66,13.32a1.79,1.79,0,0,0,0,.23c0,.1,0,.2,0,.3h0a31,31,0,0,0,1.54,7.55h0a31.07,31.07,0,0,0,1.51,3.52c-4-4.2-10.92-9.4-14.13-11.73,0,.3.05.59.08.89,4.23,3.1,13.34,10,15.73,14h0c.62,1.08,1.26,2.14,1.89,3.19.8,1.31,1.63,2.67,2.38,4,.45.8.85,1.58,1.22,2.35-3.51-4.06-9.07-5.65-12.76-6.27l.46.43.51.43c4.46.9,10.8,3.21,13.29,9.07a17.63,17.63,0,0,1,.89,8.77l.66.12a18.26,18.26,0,0,0-.9-9.08Z"/><path class="cls-18" d="M422,375.34c-4.45.86-7.88,3.05-8.34,5.16a17.36,17.36,0,0,0-4.89,3.08c.8-1.78,1.54-3.6,2.2-5.44h0c1.31-3.16,4.2-7.12,6.74-10.28a2.19,2.19,0,0,0,.72.67c2.1,1.15,5.81-1.6,8.29-6.13s2.79-9.14.69-10.29-5.82,1.59-8.3,6.13c-1.67,3.05-2.33,6.12-1.95,8.16-1.47,1.79-3.1,3.89-4.52,6,1.23-5.67,1.37-12.21-.69-18,1.57-1.57,1-5.81-1.41-9.94-2.62-4.45-6.42-7.08-8.49-5.86s-1.61,5.81,1,10.26c2.31,3.93,5.54,6.43,7.68,6.13a30.52,30.52,0,0,1,1.12,14.13,19.42,19.42,0,0,0-3.64-6.05c.36-2.1-1.2-5.45-4.15-8.39-3.65-3.65-8-5.24-9.68-3.54s-.1,6,3.55,9.68,7.88,5.19,9.62,3.59c2.32,2.87,4.33,6.61,3.17,10.08a2.5,2.5,0,0,1-.07.26,68.07,68.07,0,0,1-3.63,9.38,11.46,11.46,0,0,0-1.73-4.08c.83-2-.78-5.75-4-9-3.65-3.65-8-5.23-9.68-3.54s-.1,6,3.55,9.68c3.35,3.35,7.27,5,9.21,3.89,1.21,2,2.1,4.3,1.11,6.28h0c-.29.59-.58,1.18-.88,1.77v0h0c-.38.76-.76,1.52-1.15,2.27-1.26,2.5-2.56,5.06-3.75,7.67a15.73,15.73,0,0,0-1.85-4.39c1-1.91.07-5.71-2.38-9.32-2.9-4.27-6.86-6.65-8.84-5.31s-1.24,5.91,1.66,10.18c2.77,4.1,6.52,6.44,8.57,5.45,1.26,2.22,2.15,4.67,1.5,6.44a58.06,58.06,0,0,0-2.38,6.91,10.14,10.14,0,0,0-1.34-1.64c.21-2.11-1.62-5.34-4.8-8.05-3.94-3.34-8.39-4.58-9.94-2.75s.38,6,4.32,9.37,8.26,4.53,9.87,2.81c.91,1,1.49,2,1.28,2.8h0c-1.4,6.52-1.49,13.77,1.9,20.24l1.19-.63c-2.91-5.56-3.11-11.78-2.12-17.55h0c.59-2.37,2.72-3.65,4.77-4.35.88,2.06,5.12,3,9.88,2.05,5.07-1,8.81-3.68,8.36-6s-4.94-3.46-10-2.48c-4.38.85-7.76,3-8.31,5.06a10.9,10.9,0,0,0-3.89,2.05,56.66,56.66,0,0,1,2.47-7.3c.32-.76.65-1.51,1-2.27,1.07-2.54,3.65-3.83,6.1-4.49.58,2.28,5,3.34,10,2.37s8.82-3.69,8.36-6-4.94-3.46-10-2.48c-4.14.8-7.39,2.75-8.2,4.72a13.89,13.89,0,0,0-4.23,1.71q1-2.09,2.07-4.13c.38-.76.77-1.52,1.15-2.29a16.19,16.19,0,0,1,8-7.95c.94,2,5.14,2.91,9.85,2,5.07-1,8.81-3.69,8.36-6S427.11,374.36,422,375.34Z"/><path class="cls-27" d="M408.57,350.66a.22.22,0,0,1-.22-.13,33.65,33.65,0,0,0-4.66-8.55.2.2,0,0,1,0-.28.21.21,0,0,1,.29,0,33.94,33.94,0,0,1,4.71,8.65.2.2,0,0,1-.12.26Z"/><path class="cls-27" d="M420.26,364.92a.25.25,0,0,1-.12,0,.2.2,0,0,1-.09-.27,50,50,0,0,1,5.39-8.59.2.2,0,0,1,.32.25,49.47,49.47,0,0,0-5.35,8.51A.18.18,0,0,1,420.26,364.92Z"/><path class="cls-27" d="M404,361a.2.2,0,0,1-.17-.07L397.27,354a.19.19,0,0,1,0-.28.19.19,0,0,1,.28,0l6.56,6.92a.19.19,0,0,1,0,.28A.2.2,0,0,1,404,361Z"/><path class="cls-27" d="M426.23,379.36h0l-9.29,1.23a.22.22,0,0,1-.23-.18.2.2,0,0,1,.17-.22h0l9.29-1.23a.2.2,0,0,1,.23.17A.21.21,0,0,1,426.23,379.36Z"/><path class="cls-27" d="M401.35,377.58a.22.22,0,0,1-.17-.05l-6.55-6.18a.21.21,0,0,1,0-.29.21.21,0,0,1,.29,0l6.55,6.18a.21.21,0,0,1,0,.29A.17.17,0,0,1,401.35,377.58Z"/><path class="cls-27" d="M420.71,393.61h0l-9.94,1.32a.2.2,0,0,1-.22-.18.19.19,0,0,1,.17-.22h0l9.94-1.32a.2.2,0,0,1,.06.4Z"/><path class="cls-27" d="M394.15,391.12a.22.22,0,0,1-.21-.1,30.47,30.47,0,0,0-5-6.75.21.21,0,0,1,0-.29.22.22,0,0,1,.29,0,31.3,31.3,0,0,1,5.11,6.84.22.22,0,0,1-.08.28Z"/><path class="cls-27" d="M390.7,406.25a.22.22,0,0,1-.22-.13,11.61,11.61,0,0,0-8.12-6.92.21.21,0,0,1-.15-.24.21.21,0,0,1,.24-.15,12,12,0,0,1,8.41,7.16.21.21,0,0,1-.11.27Z"/><path class="cls-27" d="M404.12,408.48a.2.2,0,0,1-.22-.14.19.19,0,0,1,.12-.25,41.71,41.71,0,0,1,10.13-2,.21.21,0,0,1,.22.19.21.21,0,0,1-.19.21,41.36,41.36,0,0,0-10,2Z"/><rect class="cls-11" x="378.05" y="413.66" width="34.31" height="7.9" rx="2.7"/><polygon class="cls-11" points="405.11 441.64 385.29 441.64 381.25 421.56 409.15 421.56 405.11 441.64"/><path class="cls-12" d="M406.11,436.65l3-15.09h-27.9l.41,2C386.15,423.93,399,425.87,406.11,436.65Z"/><path class="cls-21" d="M293.1,254.14a2.53,2.53,0,1,0-3.49,2.33V261a.79.79,0,0,0,.79.8h.35a.79.79,0,0,0,.79-.8v-4.49A2.52,2.52,0,0,0,293.1,254.14Z"/><path class="cls-21" d="M251.12,352.48,251,352a16.74,16.74,0,0,0,11.62-14,32.89,32.89,0,0,0,0-4.76c-.06-1.26-.11-2.57-.05-3.85a25.14,25.14,0,0,1,5.56-14.09,61.21,61.21,0,0,1,8.11-8,52.92,52.92,0,0,0,8.91-9.1c3.51-5,5.49-11.65,5.72-19.25.11-3.77-.06-7.26-.24-10.95-.15-2.92-.3-5.94-.3-9.17h.5c0,3.21.15,6.23.29,9.15.19,3.7.36,7.19.25,11-.24,7.7-2.25,14.45-5.81,19.53-2.48,3.53-5.79,6.41-9,9.19a60.62,60.62,0,0,0-8,7.91,24.58,24.58,0,0,0-5.46,13.81c-.06,1.27,0,2.56.05,3.81a33.87,33.87,0,0,1,0,4.83A17.26,17.26,0,0,1,251.12,352.48Z"/><path class="cls-21" d="M191.18,254.14a2.53,2.53,0,1,1,3.5,2.33V261a.8.8,0,0,1-.8.8h-.34a.8.8,0,0,1-.8-.8v-4.49A2.53,2.53,0,0,1,191.18,254.14Z"/><path class="cls-21" d="M246.75,348.93c-4.05-.81-7.61-4.57-9.07-9.57a41,41,0,0,1-1.13-10.92c0-.88,0-1.76-.05-2.64-.13-4.22-.61-9-3.27-12.84-3-4.33-8.4-6.45-12.18-7.66-1.11-.36-2.25-.7-3.36-1a44.63,44.63,0,0,1-10.55-4.12c-6-3.62-10.44-10.18-12.48-18.46-1.87-7.55-1.57-15.64-1.15-22.62l.5,0c-.42,6.95-.72,15,1.13,22.48,2,8.14,6.37,14.59,12.26,18.14a44.3,44.3,0,0,0,10.43,4.07c1.11.33,2.26.67,3.37,1,3.85,1.24,9.33,3.4,12.44,7.85,2.73,3.91,3.23,8.82,3.36,13.12,0,.88,0,1.76.05,2.65a40.65,40.65,0,0,0,1.11,10.78c1.07,3.67,4,8.28,8.69,9.22Z"/><path class="cls-17" d="M313.49,434.51H170.57l-11.81-89.38a4.7,4.7,0,0,1,4.65-5.31H320.65a4.7,4.7,0,0,1,4.66,5.31Z"/><circle class="cls-23" cx="242.03" cy="387.17" r="12.61" transform="translate(-194.81 520.01) rotate(-74.9)"/><rect class="cls-12" x="238.15" width="4" height="76.13"/><circle class="cls-28" cx="240.15" cy="107.08" r="39.88"/><circle class="cls-29" cx="240.15" cy="107.08" r="30.95" transform="translate(82.16 317.27) rotate(-77.1)"/><path class="cls-11" d="M168.61,120.8a5.41,5.41,0,0,1-5.38-5.85,77.14,77.14,0,0,1,153.84,0,5.42,5.42,0,0,1-5.38,5.85Z"/><path class="cls-12" d="M243.83,120.8h67.86a5.42,5.42,0,0,0,5.38-5.85,77.15,77.15,0,0,0-76.92-71.29c-1.6,0-3.18.07-4.75.16a52.64,52.64,0,0,1,14.52,11.75c10.89,12.74,14.76,31.65,8.11,47.05A49,49,0,0,1,243.83,120.8Z"/><path class="cls-17" d="M129.24,414.64a2.7,2.7,0,0,1,2.7,2.7V431c0,5.82-4.42,10.57-9.83,10.57h-7.33c-5.4,0-9.82-4.75-9.82-10.57V417.34a2.69,2.69,0,0,1,2.69-2.7Z"/><path class="cls-18" d="M131.94,433.43a6.82,6.82,0,1,1,6.81-6.81A6.83,6.83,0,0,1,131.94,433.43Zm0-11.63a4.82,4.82,0,1,0,4.81,4.82A4.82,4.82,0,0,0,131.94,421.8Z"/><path class="cls-18" d="M129.24,414.64H115.66a31.07,31.07,0,0,1,4,6,18.25,18.25,0,0,1,1.7,12.22,14.4,14.4,0,0,1-6.25,8.64l-.06,0h7c5.41,0,9.83-4.75,9.83-10.57V417.34A2.7,2.7,0,0,0,129.24,414.64Z"/><path class="cls-21" d="M118.68,412.74a5.52,5.52,0,0,1-3-4.23,5.68,5.68,0,0,1,.29-2.75,16.15,16.15,0,0,1,1.14-2.32,15.37,15.37,0,0,0,2-4.21,3.87,3.87,0,0,0-1.26-4.07l.1-.18a3.59,3.59,0,0,1,1.73,1.83,5.33,5.33,0,0,1,.42,2.56,16.55,16.55,0,0,1-1.51,4.77,11.13,11.13,0,0,0-.67,2.16,10.22,10.22,0,0,0-.2,2,8.89,8.89,0,0,0,1.15,4.25Z"/><path class="cls-21" d="M124.35,411.23a3.46,3.46,0,0,1-2.4-2.74,3.41,3.41,0,0,1,.24-2,7.57,7.57,0,0,1,1-1.54c.71-.91,1.48-1.62,2-2.43a3.6,3.6,0,0,0,.79-2.78l.1.09-.26-.08,0-.2h.33l0,.09a4,4,0,0,1-.12,3.36c-.45,1.08-1.14,2-1.6,2.84a4.4,4.4,0,0,0-.47,1.29,8,8,0,0,0-.15,1.16,6.26,6.26,0,0,0,.55,2.77Z"/><path class="cls-21" d="M113.2,409.27a3.36,3.36,0,0,1-2.73-2,3.31,3.31,0,0,1-.32-1.78,5.26,5.26,0,0,1,.47-1.72c.44-1,1-1.79,1.39-2.61a2.51,2.51,0,0,0-.13-2.55l.13-.15a2.16,2.16,0,0,1,.89,1.32,3.94,3.94,0,0,1,.07,1.64c-.18,1.09-.65,2-.84,2.86a5.67,5.67,0,0,0,.22,2.3,8.51,8.51,0,0,0,1,2.49Z"/><path class="cls-30" d="M314.16,441.56a3.13,3.13,0,0,0,3.13-3.13v-.79a3.13,3.13,0,0,0-3.13-3.13H261.23a76.2,76.2,0,0,1-4.61,7.05Z"/><path class="cls-18" d="M320.65,339.82H245.52c15.68,14.48,25.59,35.28,25.86,56.63a74.67,74.67,0,0,1-10.15,38.06h52.26l11.82-89.38A4.7,4.7,0,0,0,320.65,339.82Z"/><path class="cls-19" d="M268.89,213.17c12.38,15,16.95,36.79,11.06,55.69a58.48,58.48,0,0,1-33.15,36.07,45,45,0,0,0,40.86-44.68V249.6A44.91,44.91,0,0,0,268.89,213.17Z"/><path class="cls-17" d="M289,243.32c-5.08-22.08-23.91-38.6-46.2-38.6h0c-22.29,0-41.12,16.52-46.2,38.6h19.17l6-16.1v16.1h28l4.36-11.9v11.9h20.17L273.29,232l5.18,11.37Z"/><path class="cls-18" d="M268.72,213a60.39,60.39,0,0,1,13.19,30.35H289A50.86,50.86,0,0,0,268.72,213Z"/><path class="cls-18" d="M262.09,206.35a22.5,22.5,0,1,0-41-18.42C235.7,191.94,250.48,196.6,262.09,206.35Z"/><path class="cls-19" d="M242.77,305.13a13.43,13.43,0,0,0,2.07-.26,26,26,0,0,0,7.21-2.42l-.48,2.68Z"/></svg>