<?xml version="1.0" encoding="utf-8"?>
<!-- Generator: Adobe Illustrator 24.1.2, SVG Export Plug-In . SVG Version: 6.00 Build 0)  -->
<svg version="1.1" id="Layer_1" xmlns="http://www.w3.org/2000/svg" xmlns:xlink="http://www.w3.org/1999/xlink" x="0px" y="0px"
	 viewBox="0 0 500 500" style="enable-background:new 0 0 500 500;" xml:space="preserve">
<style type="text/css">
	.st0{fill:#7CEDAB;}
	.st1{fill:#263238;}
	.st2{fill:#FFB573;}
	.st3{fill:#407BFF;}
	.st4{opacity:0.7;enable-background:new    ;}
	.st5{opacity:0.2;enable-background:new    ;}
	.st6{fill:#ED893E;}
	.st7{fill:#FFFFFF;}
	.st8{opacity:0.3;}
	.st9{opacity:0.4;fill:#FAFAFA;enable-background:new    ;}
	.st10{fill:#E0E0E0;}
	.st11{opacity:0.5;enable-background:new    ;}
	.st12{opacity:0.2;fill:#FAFAFA;enable-background:new    ;}
</style>
<g id="Layer_6">
	<rect class="st0" width="500" height="500"/>
</g>
<g id="Character_2">
	<path class="st1" d="M333.2,184.9c0.6-1.5,1.6-2.9,2.9-3.9c-1.8-3.5-0.5-7.9,3-9.7c0.1-0.1,0.2-0.1,0.3-0.2c-2.2-2.7-1.7-6.7,1-8.8
		c1.2-1,2.8-1.5,4.4-1.4c-0.1-0.7,0-1.4,0.2-2.1c0.9-3.1,4.2-4.9,7.3-4c-1.2-3,0.3-6.4,3.3-7.6c1.2-0.5,2.6-0.5,3.9-0.2l0.2,0.1
		c0-0.5,0.1-1.1,0.2-1.6c0.9-3.1,4.2-4.9,7.4-4c0.4,0.1,0.9,0.3,1.3,0.6c-0.3-2.8,1.7-5.3,4.6-5.6c1.8-0.2,3.5,0.6,4.6,2
		c1.1-2.6,4-3.9,6.6-2.8c1.2,0.5,2.1,1.3,2.7,2.5c1.5-1.1,3.7-0.8,4.9,0.7c0.3,0.4,0.5,0.9,0.6,1.5c0,0.3,0,0.6,0,0.8
		c0.8-0.8,1.9-1.3,3.1-1.5c3-0.4,5.8,1.7,6.2,4.7l0,0c0,0,0.3-0.1,0.4-0.1c3.4-0.5,6.6,1.9,7.1,5.3c0.1,0.6,0.1,1.3,0,1.9
		c0.1,0,0.2-0.1,0.3-0.1c3.4-0.5,6.6,1.9,7.1,5.4c0.2,1.4-0.1,2.8-0.8,4.1c3.4-0.4,6.6,2,7,5.5c0.2,1.5-0.2,3-1,4.2
		c3.5,0.4,5.9,3.5,5.5,7c-0.2,2-1.4,3.7-3.1,4.7c2.9,1.9,3.7,5.8,1.8,8.7c-0.5,0.7-1.1,1.4-1.9,1.9c1.2,1,2,2.4,2.2,4
		c0.5,3.4-1.9,6.6-5.4,7.1c-1.5,0.2-2.9-0.1-4.2-0.9c-0.8,3.4-4.1,5.5-7.5,4.8c-1.3-0.3-2.5-1-3.3-2c-1,3.4-4.4,5.3-7.8,4.3
		c-1.5-0.4-2.8-1.4-3.6-2.7c-2.2,2.7-6.1,3.1-8.8,1c-0.1-0.1-0.2-0.2-0.3-0.3l0,0c-1.1,3.3-4.8,5-8,3.9c-2.9-1-4.7-4-4.1-7.1
		c-2.8,2-6.8,1.3-8.7-1.5c-0.2-0.3-0.3-0.5-0.5-0.8c-2.4,2.5-6.4,2.6-8.9,0.2c-1.1-1.1-1.8-2.6-1.9-4.2c-2.8,2-6.7,1.4-8.8-1.4
		c-0.4-0.5-0.7-1.2-0.9-1.8c-1.7,0.5-3.5,0.5-5.2-0.1C333.9,193.9,331.7,189.2,333.2,184.9z"/>
	<path class="st2" d="M349.5,251.2c0,2.8-0.1,5.2-0.2,7.7s-0.3,5-0.6,7.5c-0.5,5-1.2,10-2,14.9c-1.7,10-4.2,19.8-7.7,29.3l-0.7,1.8
		c-0.3,0.6-0.3,1-0.9,2.3c-1,2.2-2.6,4.2-4.6,5.7c-1.8,1.3-3.9,2.2-6.1,2.7c-1.8,0.4-3.6,0.5-5.4,0.4c-6.5-0.4-11.4-2.4-16.2-4.4
		c-9.2-4.2-17.9-9.4-25.9-15.6l4.5-7.1c4.2,2,8.6,4,12.9,5.8c4.2,1.8,8.6,3.4,13,4.8c4.2,1.3,8.7,2.2,11.9,2.1
		c1.6,0,2.5-0.6,2.2-0.6c-0.1,0-0.2,0.1-0.2,0l0.8-2.8c2.6-8.8,4.6-17.9,5.9-27c0.7-4.6,1.1-9.2,1.6-13.9s0.7-9.4,0.8-13.7
		L349.5,251.2z"/>
	<path class="st3" d="M336.5,231.8c-6.7,2.2-9.4,30.6-9.4,30.6l19.7,11.4c0,0,16-29.6,10.2-36.7
		C350.9,229.7,346.3,228.6,336.5,231.8z"/>
	<path class="st4" d="M336.5,231.8c-6.7,2.2-9.4,30.6-9.4,30.6l19.7,11.4c0,0,16-29.6,10.2-36.7
		C350.9,229.7,346.3,228.6,336.5,231.8z"/>
	<polygon class="st5" points="337.6,238 334.4,266.7 345.5,273.1 	"/>
	<path class="st2" d="M286.5,297.4l-11.3-15.1l-4.6,16.2c0,0,7.6,7.5,14.2,5.4L286.5,297.4z"/>
	<polygon class="st2" points="264.1,277.2 258.2,290.1 270.7,298.6 275.3,282.3 	"/>
	<path class="st3" d="M336.5,231.8c0,0-7.7,3.4,15.1,99.2l67.2-4.9c-3.1-27.3-4.4-44.1,4.6-101.1c-9.5-1.3-19.2-1.8-28.8-1.7
		c-11.3,0.3-20.6,0.6-30.5,2.2C351.1,227.7,336.5,231.8,336.5,231.8z"/>
	<path class="st4" d="M336.5,231.8c0,0-7.7,3.4,15.1,99.2l67.2-4.9c-3.1-27.3-4.4-44.1,4.6-101.1c-9.5-1.3-19.2-1.8-28.8-1.7
		c-11.3,0.3-20.6,0.6-30.5,2.2C351.1,227.7,336.5,231.8,336.5,231.8z"/>
	<path class="st2" d="M389.1,189.2c-1.2,9.9-1.8,28.1,5.5,34.1c0,0-2,10.1-20.2,11.5c-20,1.5-10.3-9.3-10.3-9.3
		c10.8-3.4,9.9-11.5,7.4-19L389.1,189.2z"/>
	<path class="st5" d="M382,196.3l-10.4,10.3c0.6,1.7,1,3.5,1.3,5.3c4.1-0.9,9.5-5.9,9.7-10.3C382.7,199.8,382.5,198,382,196.3z"/>
	<path class="st2" d="M400.4,172.7c-3.8,16-5,22.9-14.6,29.8c-14.4,10.4-33.3,2.3-34.4-14.5c-1-15.1,5.3-38.8,22.3-42.5
		c12.1-2.7,24.1,4.9,26.8,16.9C401.2,165.7,401.2,169.3,400.4,172.7z"/>
	<path class="st3" d="M351.7,331.1c0,0-3.8,128.3,1,178.7c4.9,52.4,23.9,169.1,23.9,169.1H399c0,0-3.1-116.5-4.8-168.1
		c-1.9-56.3,6.8-183.3,6.8-183.3L351.7,331.1z"/>
	<path class="st5" d="M383,360.6c-14.1,34.4,3.5,94,11,116.1c0.5-34,2.6-75.8,4.3-106.4C394.5,353.3,389.4,344.8,383,360.6z"/>
	<path class="st3" d="M369.4,329.8c0,0,24.8,131.3,39.4,173c17.3,49.5,90.7,122.8,90.7,122.8l19-12.3c0,0-53.4-84.5-65.8-110.3
		c-26.4-55.1-13.5-141.1-34-176.9L369.4,329.8z"/>
	<path class="st1" d="M372.7,172.6c-0.2,1.3-1.1,2.3-2,2.1s-1.4-1.3-1.1-2.7s1.1-2.3,2-2.1S373,171.2,372.7,172.6z"/>
	<path class="st1" d="M357.8,170c-0.2,1.3-1.1,2.3-2,2.1s-1.4-1.3-1.1-2.6s1.1-2.3,2-2.1S358.1,168.7,357.8,170z"/>
	<path class="st1" d="M357.1,167.5l-3-1.5C354.1,166,355.3,168.8,357.1,167.5z"/>
	<path class="st6" d="M363.1,173.2c0,0-3.2,5.3-6.1,7.6c1.5,1.9,4.5,1.7,4.5,1.7L363.1,173.2z"/>
	<path class="st1" d="M367.8,188.9c-0.7,0-1.3-0.1-2-0.2c-0.2,0-0.4-0.2-0.3-0.5c0-0.2,0.2-0.4,0.5-0.3c3.3,0.6,6.7-0.3,9.2-2.6
		c0.2-0.2,0.4-0.2,0.6,0c0.1,0.2,0.1,0.4,0,0.6C373.6,187.8,370.7,188.9,367.8,188.9z"/>
	<path class="st1" d="M353.6,152.3l27.6-10.1c0.5,0.6,0.9,1.2,1.1,1.9c1.5-1.8,4-2.5,6.3-1.6c2.2,0.3,4,2,4.3,4.2
		c2.1,0.9,3.4,2.9,3.4,5.2c0,0.1,0,0.3,0,0.4c0.6,0,1.1,0.2,1.6,0.4c2.7,1.1,4.2,4.1,3.3,6.9c2.2,1.5,3.1,4.3,2.1,6.8l-0.1,0.2
		c1.6,1.6,2.1,4,1.3,6.1c-0.5,1.2-1.3,2.2-2.4,2.8c0.1,0.3,0.1,0.5,0.2,0.8c0.7,0,1.5,0.1,2.2,0.4c2.9,1.1,4.3,4.4,3.2,7.3
		c-1.1,2.9-4.4,4.3-7.3,3.2c-1.9-0.8-3.3-2.5-3.5-4.5c-0.7,0-1.5-0.1-2.2-0.4c-2.6-1-4-3.8-3.4-6.5c-2.9,1-6.1-0.6-7.1-3.5
		c-0.3-0.9-0.4-1.8-0.2-2.7c-0.2-0.1-0.4-0.1-0.6-0.2c-2.9-1.2-4.3-4.4-3.2-7.3c0,0,0,0,0,0c0.2-0.6,0.6-1.2,1.1-1.7
		c-1.7-0.6-3-1.9-3.5-3.6c-0.2,0.2-0.3,0.4-0.5,0.6c-1.7,1.6-4.4,1.8-6.3,0.5c-0.1,0.1-0.2,0.3-0.4,0.4c-2,1.9-5.3,1.8-7.2-0.2
		c-0.4-0.4-0.8-1-1-1.5c-1.9,2-5.1,2.1-7.1,0.2C353.9,155.5,353.4,153.9,353.6,152.3L353.6,152.3z"/>
	<path class="st2" d="M402.2,188.3c-1.6,2.7-4.2,4.7-7.3,5.6c-4.1,1.1-6-2.6-4.8-6.4c1.1-3.4,4.5-8.1,8.6-7.5
		S404.1,184.9,402.2,188.3z"/>
	<path class="st1" d="M379.2,170.5c-0.3,0-0.6-0.2-0.7-0.6c-1.1-3.5-5.5-5-5.5-5c-0.4-0.1-0.6-0.6-0.5-1c0,0,0,0,0,0
		c0.1-0.4,0.6-0.6,1-0.5c0,0,0,0,0,0c0.2,0.1,5.3,1.8,6.6,6c0.1,0.4-0.1,0.9-0.5,1c0,0,0,0,0,0L379.2,170.5z"/>
	<path class="st1" d="M354.5,162.4c-0.3,0-0.5-0.1-0.7-0.4c-0.2-0.4-0.1-0.8,0.3-1.1c0,0,0,0,0,0c2.2-1.3,4.8-1.5,7.1-0.5
		c0.4,0.2,0.5,0.7,0.3,1.1s-0.7,0.5-1.1,0.3l0,0c-1.8-0.8-4-0.6-5.7,0.4C354.8,162.3,354.7,162.4,354.5,162.4z"/>
	<path class="st2" d="M432.6,243.7c2.8,9.9,5,19.6,6.8,29.6c1,5,1.8,10,2.5,15c0.4,2.5,0.7,5.1,1,7.6l0.4,3.9l0.1,1l0,0.6
		c0,0.5,0,1,0,1.5c-0.1,2.3-0.9,4.5-2.4,6.2c-1.1,1.3-2.5,2.4-4.1,3.1c-1,0.5-2.1,0.9-3.2,1.1c-1.7,0.4-3.4,0.6-5.1,0.6
		c-2.8,0.1-5.7-0.1-8.5-0.4c-5.2-0.6-10.3-1.6-15.4-2.8c-5-1.2-9.9-2.5-14.7-4s-9.6-3-14.4-4.8l2.2-8.1c4.8,0.8,9.7,1.7,14.6,2.4
		s9.7,1.5,14.5,2.1s9.6,1.1,14.2,1.2c2.2,0.1,4.3,0,6.5-0.2c0.8-0.1,1.6-0.2,2.3-0.5c0.3-0.1,0.4-0.2,0.3-0.1
		c-0.4,0.2-0.8,0.5-1.1,0.9c-0.6,0.8-1,1.8-1.1,2.8c0,0.2,0,0.3,0,0.5c0-0.1,0-0.2-0.1-0.3l-0.1-0.9l-0.6-3.6L426,291
		c-0.9-4.8-2-9.5-3-14.3s-2.2-9.5-3.4-14.3s-2.4-9.6-3.5-14.2L432.6,243.7z"/>
	<path class="st3" d="M423.5,225c6.9,1.6,16.6,24.1,16.6,24.1l-24.7,20.6c0,0-10.9-18.6-8.7-27.6C408.9,232.9,415.6,223.3,423.5,225
		z"/>
	<path class="st4" d="M423.5,225c6.9,1.6,16.6,24.1,16.6,24.1l-24.7,20.6c0,0-10.9-18.6-8.7-27.6C408.9,232.9,415.6,223.3,423.5,225
		z"/>
	<path class="st1" d="M372,170l-3-1.4C369,168.6,370.1,171.3,372,170z"/>
	<path class="st7" d="M419.6,322.2l2.1,5.9c0.3,0.5-0.3,1-1,1l-69.1,5c-0.6,0-1.1-0.2-1.2-0.6l-1-6c-0.1-0.4,0.4-0.8,1.1-0.9l68-5
		C418.9,321.6,419.3,321.8,419.6,322.2z"/>
	<path class="st3" d="M411,330.4l1.8-0.1c0.4,0,0.6-0.2,0.6-0.5l-1.4-7.8c0-0.2-0.4-0.4-0.7-0.4l-1.8,0.1c-0.4,0-0.6,0.2-0.6,0.5
		l1.4,7.7C410.3,330.3,410.6,330.5,411,330.4z"/>
	<path class="st3" d="M356.7,334.4l1.8-0.1c0.4,0,0.6-0.2,0.6-0.5l-1.4-7.8c0-0.2-0.4-0.4-0.7-0.4l-1.8,0.1c-0.4,0-0.6,0.2-0.6,0.5
		l1.4,7.8C356,334.2,356.4,334.4,356.7,334.4z"/>
	<path class="st3" d="M383.9,332.4l1.8-0.1c0.4,0,0.6-0.2,0.6-0.5l-1.4-7.8c0-0.2-0.4-0.4-0.7-0.4l-1.8,0.1c-0.4,0-0.6,0.2-0.6,0.5
		l1.4,7.8C383.2,332.3,383.5,332.4,383.9,332.4z"/>
	<polygon class="st3" points="283.3,232.3 374.3,257.5 336.3,381.3 245.3,356.1 	"/>
	<g class="st8">
		<polygon points="283.3,232.3 374.3,257.5 336.3,381.3 245.3,356.1 		"/>
	</g>
	<polygon class="st3" points="282.6,232.1 373.6,257.3 335.6,381.1 244.7,355.9 	"/>
	<polygon class="st7" points="368.2,260.3 334.9,368.7 252.3,345.9 285.5,237.4 	"/>
	<path class="st3" d="M301.2,242.2c3.1-3.6,8.1-5,12.6-3.6l3.6,1c1.3,0.4,2.8,0.1,3.8-0.9c2-2.2,5.6-3.1,9.2-2.1s6.2,3.6,6.6,6.5
		c0.3,1.3,1.4,2.3,2.7,2.6l3.6,1c4.7,1.3,8.1,5.1,8.6,9.5c0,0.2,0,0.3,0,0.5c-0.2,0.6-0.8,1-1.5,0.8l-48.6-13.5
		c-0.6-0.2-1-0.8-0.8-1.4C301,242.5,301.1,242.3,301.2,242.2z"/>
	<path class="st9" d="M301.2,242.2c3.1-3.6,8.1-5,12.6-3.6l3.6,1c1.3,0.4,2.8,0.1,3.8-0.9c2-2.2,5.6-3.1,9.2-2.1s6.2,3.6,6.6,6.5
		c0.3,1.3,1.4,2.3,2.7,2.6l3.6,1c4.7,1.3,8.1,5.1,8.6,9.5c0,0.2,0,0.3,0,0.5c-0.2,0.6-0.8,1-1.5,0.8l-48.6-13.5
		c-0.6-0.2-1-0.8-0.8-1.4C301,242.5,301.1,242.3,301.2,242.2z"/>
	<polygon class="st10" points="359,269.4 357.8,273.3 286.9,253.7 288.1,249.8 	"/>
	<polygon class="st10" points="356.1,278.8 354.9,282.7 288,264.2 289.2,260.3 	"/>
	<polygon class="st10" points="353.2,288.2 352,292.1 316.6,282.3 317.8,278.4 	"/>
	<polygon class="st10" points="312.1,276.8 310.9,280.7 292.2,275.5 293.4,271.6 	"/>
	<polygon class="st10" points="350.4,297.6 349.2,301.5 278.3,281.9 279.5,278 	"/>
	<polygon class="st10" points="347.5,307 346.3,310.9 284.6,293.8 285.8,289.9 	"/>
	<polygon class="st10" points="341.7,325.7 340.5,329.6 269.7,310 270.9,306.1 	"/>
	<polygon class="st10" points="338.9,335.1 337.7,339 277.8,322.4 279,318.5 	"/>
	<path class="st3" d="M290.3,351.5c-11.2,0-15.8-6.2-17.5-10.3c-3.9-9-0.8-22.4,6.5-28.1c4.6-3.6,9.9-3.6,15,0.2
		c0.5,0.4,0.6,1.2,0.1,1.7c-0.4,0.5-1.1,0.6-1.6,0.2c-5.3-4-9.4-2.3-12-0.3c-5.9,4.6-9.6,16.4-5.8,25.3c2.1,4.9,7.4,10.4,20.4,8.4
		c7.7-1.2,13.2-5.4,15.6-12c2.6-7.7,1.1-16.1-4.1-22.3c-4.1-4.8-10.5-6.8-16.6-5.3c-0.7,0.1-1.3-0.3-1.4-0.9
		c-0.1-0.7,0.3-1.3,0.9-1.4l0,0c7.4-1.6,14.1,0.5,19,6c5.7,6.9,7.5,16.3,4.6,24.8c-2.7,7.5-9,12.3-17.6,13.6
		C294,351.3,292.2,351.4,290.3,351.5z"/>
	<path class="st3" d="M291.7,346.7c-0.7,0-1.2-0.5-1.2-1.2c0-0.2,0-0.3,0.1-0.5c3.3-7.4,6.9-16.1,8.8-25.3c0.1-0.7,0.3-1.4,0.4-2.1
		c-5,8.6-12.2,15.8-20.9,20.8c-0.6,0.3-1.3,0-1.6-0.6c-0.2-0.5-0.1-1.2,0.4-1.5c8.8-5,15.9-12.3,20.7-21.2c0.5-0.9,1.5-1.3,2.4-1.1
		c0.9,0.2,1.6,1.1,1.5,2.1c-0.1,1.4-0.3,2.8-0.6,4.2c-2,9.4-5.6,18.3-9,25.8C292.6,346.4,292.2,346.7,291.7,346.7z"/>
	<path class="st3" d="M299,337.6c-0.3,0-0.6-0.1-0.8-0.3c-5.1-4.4-10.5-8.5-16.1-12.2c-0.6-0.3-0.9-1-0.6-1.6c0.3-0.6,1-0.9,1.6-0.6
		c0.1,0,0.2,0.1,0.3,0.2c5.7,3.7,11.2,7.9,16.4,12.4c0.5,0.4,0.6,1.2,0.1,1.7C299.7,337.5,299.4,337.6,299,337.6L299,337.6z"/>
	<path class="st2" d="M379.9,294.1l-13.4-11.8l-0.4,16.9c0,0,9.2,5.3,15.1,1.7L379.9,294.1z"/>
	<polygon class="st2" points="352.6,281.4 353,295.5 366.1,299.1 366.5,282.2 	"/>
</g>
<g id="Character_1">
	<path class="st1" d="M142.1,81.7c5.4,5.6,10.7,21.2,6.2,28.6C139.4,101.3,138.1,79.8,142.1,81.7z"/>
	<path class="st2" d="M179.6,177.6c2.3,4.2,4.4,8.5,6.6,12.8s4.3,8.6,6.4,12.9c4.2,8.6,8.2,17.3,12.1,26.1c2,4.4,3.9,8.9,5.7,13.5
		c0.4,1.2,0.9,2.4,1.5,3.6c0.4,0.8,0.7,1.1,0.9,1.5s0.8,0.7,1.9,0.8c1.5,0.1,3-0.1,4.5-0.6c1.9-0.5,3.7-1.2,5.4-2.1
		c0.9-0.4,1.9-0.9,2.8-1.4l2.7-1.4l9.1,8.9c-1,1.3-1.7,2.3-2.6,3.4c-0.9,1.1-1.8,2-2.8,3c-2.1,2-4.3,3.8-6.8,5.4
		c-2.8,1.8-5.8,3.2-9,4c-1.9,0.5-3.8,0.7-5.8,0.7c-2.2,0-4.3-0.3-6.4-0.9c-4.1-1.3-7.7-3.6-10.6-6.7c-2.4-2.6-4.4-5.4-5.9-8.6
		c-2-4.1-4.3-8.2-6.4-12.4l-13.3-25.2c-4.4-8.4-8.7-16.9-12.9-25.4L179.6,177.6z"/>
	<path class="st3" d="M149.4,178.2c-4.7,15.6,27.2,57.9,27.2,57.9l32.6-21c0,0-9.4-21.6-22.3-38.1
		C173.8,160.1,154.6,161.1,149.4,178.2z"/>
	<path class="st5" d="M170.3,199.5c8.3,3.8,17.1,17.8,18.4,28.8l-12.1,7.8c0,0-12.3-16.3-20.5-32.3
		C158.7,199.8,160.9,195.2,170.3,199.5z"/>
	<path class="st3" d="M73.8,171.6c4.9,18.3,8.5,36.9,10.7,55.7c1.6,13.1,2.5,25.7,3.1,37c1.3,26.7,0.7,47,1.5,53.9l90.5-7
		c12.6-96.6-10.9-146.1-10.9-146.1c-7.2-1.3-14.4-2.1-21.7-2.5c-1.5-0.1-3.1-0.1-4.7-0.1c-10.3-0.1-27,1.5-38.5,3
		c-2.4,0.3-4.9,0.7-7.3,1.1C84.5,168.5,73.8,171.6,73.8,171.6z"/>
	<path class="st1" d="M133,179.1c5.3,12.9,1,14.2,5.5,31.6c2.6,3.4,5.1,6.9,7.4,10.4c1.2-3.8,2.2-7.6,3.1-11.3
		c-3.9-17.4-9.6-22.4-10.7-31.7"/>
	<polygon class="st1" points="137.6,185.8 140.9,177.1 134.6,174.9 130.3,178 	"/>
	<path class="st11" d="M96.6,166.5c20.1,17.8,36.7,35.9,49.4,54.5c6.4-20.1,7.9-39.6,3.2-58.3c6.6,0.4,13.1,1.2,19.6,2.4
		c0,0,23.4,49.5,10.9,146.1l-90.5,7c-0.8-6.9-0.2-27.2-1.5-53.9c-0.6-11.4-1.5-23.9-3.1-37c-2.2-18.8-5.7-37.4-10.7-55.7
		C73.9,171.6,84.5,168.5,96.6,166.5z"/>
	<path class="st2" d="M104.8,121.8c3.2,12.2,7.2,34.7-0.9,43.6c6.8,6,16.6,10.9,30.5,9.5c10.6-1.1,10.7-8.5,8-12.5
		c-14-2.2-14.4-12.5-12.6-22.3L104.8,121.8z"/>
	<path class="st3" d="M134.6,174.9c0,0-10.4,8.6-13.7,17.1c-7.3-3.1-20.9-18.4-21-27.6c3.5-3.4,5.9-4.3,5.9-4.3
		C114.6,166.5,124.3,171.5,134.6,174.9z"/>
	<path class="st12" d="M134.6,174.9c0,0-10.4,8.6-13.7,17.1c-7.3-3.1-20.9-18.4-21-27.6c3.5-3.4,5.9-4.3,5.9-4.3
		C114.6,166.5,124.3,171.5,134.6,174.9z"/>
	<path class="st3" d="M134.6,174.9c0,0,12.6,5.6,18.2,15.4c7.4-3.1-4.2-27-9.5-29.2c-4.3-2.2-7.4-1.4-7.4-1.4
		S142.5,172.2,134.6,174.9z"/>
	<path class="st12" d="M134.6,174.9c0,0,12.6,5.6,18.2,15.4c7.4-3.1-4.2-27-9.5-29.2c-4.3-2.2-7.4-1.4-7.4-1.4
		S142.5,172.2,134.6,174.9z"/>
	<path class="st5" d="M115,129.3l14.8,10.8c-0.5,2.3-0.7,4.6-0.8,6.9c-5.3-0.4-13-5.6-13.9-11.1C114.7,133.7,114.6,131.5,115,129.3z
		"/>
	<path class="st2" d="M102,103.3c2.2,16.7,2.6,26.6,11.6,34.5c13.6,11.9,33.8,2.7,36.7-14.4c2.6-15.3-1.4-40-18.3-45.4
		C115.5,72.7,99.9,86.6,102,103.3z"/>
	<path class="st1" d="M142.3,84.1c-4.4,3.3-17.1,2.3-25,0s-13.5,12.8-7.3,21.8s8.7,9.6,1,14.4s-29.2-16.3-18.5-32
		c-0.5-13.3,27-22.1,41.7-15.9S142.3,84.1,142.3,84.1z"/>
	<path class="st2" d="M96.5,117.7c1.6,3.9,4.6,7.1,8.5,8.7c5.2,2.2,8.5-2.3,7.6-7.6c-0.8-4.7-4.3-11.5-9.8-11.4
		S94.7,112.8,96.5,117.7z"/>
	<path class="st1" d="M217.4,659.7l-28.1,6.4c0,0-18.8-102.1-23.7-154.7c-1.5-16-5.7-38.3-10.9-62.1c-6.7-30-15-62.5-21.9-87.9
		c-7.2-26.8-12.7-45.7-12.7-45.7l59.5-4.6c0,0,35.8,140.4,37.4,192.1C218.7,557.2,217.4,659.7,217.4,659.7z"/>
	<path class="st5" d="M154.7,449.4c-6.7-30-15-62.5-21.9-87.9l6.2-13.3C153.7,365.6,157.6,419.9,154.7,449.4z"/>
	<path class="st1" d="M147.5,313.7c0,0-6.8,145.3-14,194.6c-8,53.9-27.9,169.7-27.9,169.7H74.5c0,0-0.5-109.3,9.3-161.5
		c11.2-59.5,5.2-198.2,5.2-198.2L147.5,313.7z"/>
	<path class="st1" d="M127.8,106c0.1,1.4,0.9,2.4,1.8,2.3s1.5-1.2,1.4-2.6s-0.9-2.4-1.8-2.3S127.7,104.6,127.8,106z"/>
	<path class="st1" d="M143.2,104.8c0.1,1.4,0.9,2.4,1.8,2.3s1.5-1.2,1.4-2.6s-0.9-2.4-1.8-2.3S143.1,103.4,143.2,104.8z"/>
	<path class="st1" d="M139.3,118.2c-4-1.3-10.2,1.4-11.6,3.8c5.9,1.3,21-0.2,21-0.2C146.9,118.4,142.9,116.9,139.3,118.2z"/>
	<path class="st6" d="M138.4,105.9c0,0,3.7,7.3,7.4,10.7c-2.2,2.3-6.4,1.6-6.4,1.6L138.4,105.9z"/>
	<path class="st1" d="M131.2,127.6c0.6,0,1.2,0,1.8,0c0.2,0,0.4-0.2,0.4-0.4s-0.2-0.4-0.4-0.4c-3.4,0.4-6.8-1-9.1-3.5
		c-0.1-0.2-0.4-0.2-0.5-0.1c0,0,0,0,0,0c-0.2,0.1-0.2,0.4-0.1,0.6C125.2,126.1,128.1,127.5,131.2,127.6z"/>
	<path class="st1" d="M122.7,101.4c0.3,0,0.6-0.1,0.7-0.4c1.1-1.8,2.9-2.9,5-3.1c0.4,0,0.8-0.4,0.8-0.8c0-0.4-0.4-0.8-0.8-0.8
		c0,0,0,0,0,0c-2.6,0.2-4.9,1.6-6.3,3.8c-0.2,0.4-0.1,0.9,0.2,1.1c0,0,0,0,0,0C122.5,101.3,122.6,101.4,122.7,101.4z"/>
	<path class="st1" d="M149.5,99c0.4,0,0.8-0.3,0.9-0.8c0-0.2,0-0.3-0.1-0.4c-1.2-2.3-3.5-3.8-6.1-4.1c-0.4,0-0.8,0.3-0.9,0.8
		c0,0.4,0.3,0.8,0.8,0.8c2,0.2,3.8,1.5,4.8,3.3C149,98.8,149.3,99,149.5,99z"/>
	<path class="st2" d="M86.8,197.2c-2.7,4.4-5.6,9.2-8.3,13.9s-5.3,9.5-7.9,14.2s-4.9,9.5-7,14.3c-2.1,4.5-3.9,9.1-5.3,13.9
		c-0.6,1.9-1,3.8-1.2,5.8c-0.1,0.8-0.1,1.3-0.1,1.6s0,0.1-0.1,0s-0.1,0-0.2,0s-0.1,0.1,0.1,0.4c0.4,0.4,0.8,0.8,1.3,1.1
		c1.7,0.9,3.4,1.7,5.3,2.2c4.8,1.2,9.7,2,14.7,2.3c2.6,0.2,5.3,0.3,8,0.5s5.5,0.1,8,0.1l2.3,12.5c-3,1-5.8,1.8-8.7,2.5
		s-5.8,1.3-8.8,1.7c-6.3,1-12.7,1.2-19,0.6c-3.7-0.3-7.4-1.2-10.8-2.6c-2.1-0.8-4.1-1.9-6-3.2c-2.2-1.6-4.1-3.5-5.6-5.7
		c-0.8-1.2-1.5-2.5-2.1-3.8c-0.5-1.3-1-2.6-1.3-4c-0.5-2.2-0.7-4.5-0.7-6.8c0.1-3.7,0.5-7.3,1.3-10.9c1.4-6.1,3.3-12.2,5.7-18
		c2.3-5.6,4.7-11,7.3-16.2s5.3-10.4,8.3-15.4s5.8-9.9,9.1-15L86.8,197.2z"/>
	<path class="st3" d="M73.8,171.6c-15.5,4.8-34.5,49.5-34.5,49.5l37.8,17.4c0,0,11.4-18.9,18.3-38.8
		C102.8,178.1,92.6,165.7,73.8,171.6z"/>
	<path class="st2" d="M90.3,269.2l13.5-10.7l5,21.2c0,0-13.5,6.5-17.7-0.3L90.3,269.2z"/>
	<polygon class="st2" points="117.9,258.5 121.2,276.2 108.7,279.7 103.8,258.5 	"/>
	<path class="st2" d="M229.5,243.1l13.9-10.3l3.6,18.8c0,0-13,8.4-17,1.6L229.5,243.1z"/>
	<polygon class="st2" points="260.5,231.3 258.1,248.6 247.1,251.7 243.4,232.9 	"/>
</g>
</svg>
