<svg xmlns="http://www.w3.org/2000/svg" viewBox="0 0 500 500"><defs><style>.cls-1{fill:#f2d9af;}.cls-2{fill:#263238;}.cls-3{fill:#ffb573;}.cls-4{fill:#407bff;}.cls-5{opacity:0.7;}.cls-13,.cls-6{opacity:0.2;}.cls-7{fill:#ed893e;}.cls-8{fill:#fff;}.cls-9{opacity:0.3;}.cls-10,.cls-13{fill:#fafafa;}.cls-10{opacity:0.4;}.cls-11{fill:#e0e0e0;}.cls-12{opacity:0.5;}</style></defs><g id="Layer_6" data-name="Layer 6"><rect class="cls-1" width="500" height="500"/></g><g id="Character_2" data-name="Character 2"><path class="cls-2" d="M333.2,184.93a8.34,8.34,0,0,1,2.87-3.85,7.2,7.2,0,0,1,3.35-9.87A6.29,6.29,0,0,1,344.76,161a5.83,5.83,0,0,1,.22-2.06,5.93,5.93,0,0,1,7.26-4,5.89,5.89,0,0,1,7.21-7.79l.23.1a5.66,5.66,0,0,1,.23-1.62,5.94,5.94,0,0,1,7.37-4,5.88,5.88,0,0,1,1.25.56,5.11,5.11,0,0,1,9.18-3.58,5.11,5.11,0,0,1,9.31-.39,3.48,3.48,0,0,1,5.5,2.19,3.43,3.43,0,0,1,0,.84,5.44,5.44,0,0,1,3.06-1.47,5.52,5.52,0,0,1,6.17,4.74s0,0,0,0,.27-.08.41-.1a6.26,6.26,0,0,1,7.06,7.21c.09,0,.17-.05.26-.06a6.3,6.3,0,0,1,6.27,9.46,6.28,6.28,0,0,1,6,9.7,6.31,6.31,0,0,1,2.45,11.72A6.28,6.28,0,0,1,424.1,193a6.23,6.23,0,0,1,2.16,4,6.29,6.29,0,0,1-9.57,6.19A6.29,6.29,0,0,1,405.85,206a6.31,6.31,0,0,1-11.43,1.61,6.25,6.25,0,0,1-9.11.71h0a6.32,6.32,0,0,1-12.19-3.19,6.28,6.28,0,0,1-9.23-2.34,6.3,6.3,0,0,1-10.82-4,6.28,6.28,0,0,1-9.68-3.2,8.18,8.18,0,0,1-5.17-.1A8.32,8.32,0,0,1,333.2,184.93Z"/><path class="cls-3" d="M349.49,251.22c0,2.78-.06,5.19-.22,7.74s-.34,5-.56,7.52c-.45,5-1.2,10-2,14.93a160.8,160.8,0,0,1-7.74,29.33l-.67,1.79c-.25.64-.34,1-.9,2.25a14.87,14.87,0,0,1-4.6,5.68,15.61,15.61,0,0,1-6.15,2.69,21.36,21.36,0,0,1-5.38.4c-6.48-.4-11.41-2.37-16.24-4.37a131.78,131.78,0,0,1-25.85-15.59l4.51-7.08c4.19,2,8.56,4,12.87,5.8a119.82,119.82,0,0,0,13,4.75c4.22,1.3,8.67,2.24,11.9,2.09,1.59,0,2.49-.61,2.22-.6-.1,0-.22.15-.2,0l.83-2.79a191.21,191.21,0,0,0,5.85-27c.67-4.6,1.15-9.23,1.59-13.85s.69-9.4.84-13.69Z"/><path class="cls-4" d="M336.52,231.82c-6.69,2.24-9.42,30.63-9.42,30.63l19.71,11.41s15.95-29.61,10.16-36.72C350.94,229.73,346.28,228.57,336.52,231.82Z"/><path class="cls-5" d="M336.52,231.82c-6.69,2.24-9.42,30.63-9.42,30.63l19.71,11.41s15.95-29.61,10.16-36.72C350.94,229.73,346.28,228.57,336.52,231.82Z"/><polygon class="cls-6" points="337.59 238.04 334.41 266.69 345.48 273.08 337.59 238.04"/><path class="cls-3" d="M286.53,297.43l-11.26-15.1-4.56,16.24s7.6,7.46,14.18,5.4Z"/><polygon class="cls-3" points="264.06 277.18 258.23 290.06 270.71 298.56 275.26 282.33 264.06 277.18"/><path class="cls-4" d="M336.52,231.82s-7.68,3.35,15.15,99.24l67.17-4.89c-3.12-27.25-4.38-44.1,4.61-101.15a198,198,0,0,0-28.79-1.68c-11.34.28-20.63.59-30.5,2.22C351.15,227.7,336.52,231.82,336.52,231.82Z"/><path class="cls-5" d="M336.52,231.82s-7.68,3.35,15.15,99.24l67.17-4.89c-3.12-27.25-4.38-44.1,4.61-101.15a198,198,0,0,0-28.79-1.68c-11.34.28-20.63.59-30.5,2.22C351.15,227.7,336.52,231.82,336.52,231.82Z"/><path class="cls-3" d="M389.14,189.22c-1.21,9.95-1.82,28.07,5.52,34.12,0,0-2,10.15-20.19,11.47-20.05,1.46-10.31-9.25-10.31-9.25,10.75-3.41,9.88-11.51,7.42-19Z"/><path class="cls-6" d="M382,196.3l-10.39,10.26a30.66,30.66,0,0,1,1.33,5.34c4.14-.91,9.55-5.91,9.67-10.32A14.56,14.56,0,0,0,382,196.3Z"/><path class="cls-3" d="M400.36,172.66c-3.76,16-5,22.88-14.6,29.79-14.44,10.4-33.29,2.28-34.4-14.54-1-15.14,5.32-38.79,22.27-42.53A22.44,22.44,0,0,1,400.36,172.66Z"/><path class="cls-4" d="M351.67,331.06s-3.78,128.33,1,178.68c4.94,52.37,23.86,169.12,23.86,169.12h22.42s-3.07-116.45-4.84-168.11c-1.93-56.31,6.78-183.27,6.78-183.27Z"/><path class="cls-6" d="M383,360.64c-14.08,34.39,3.5,94,11,116.06.53-34,2.57-75.75,4.29-106.4C394.47,353.3,389.44,344.79,383,360.64Z"/><path class="cls-4" d="M369.41,329.77s24.84,131.32,39.42,173c17.31,49.49,90.73,122.83,90.73,122.83l19-12.29S465.16,528.86,452.8,503c-26.39-55.14-13.48-141.1-34-176.85Z"/><path class="cls-2" d="M372.74,172.55c-.22,1.31-1.1,2.26-2,2.12s-1.37-1.34-1.15-2.66,1.11-2.26,2-2.12S373,171.23,372.74,172.55Z"/><path class="cls-2" d="M357.84,170c-.22,1.32-1.1,2.27-2,2.12s-1.37-1.33-1.15-2.65,1.11-2.27,2-2.12S358.07,168.68,357.84,170Z"/><path class="cls-2" d="M357.06,167.49l-3-1.46S355.25,168.78,357.06,167.49Z"/><path class="cls-7" d="M363.09,173.16s-3.2,5.29-6.13,7.61c1.46,1.92,4.55,1.69,4.55,1.69Z"/><path class="cls-2" d="M367.81,188.85a12.59,12.59,0,0,1-2-.19.39.39,0,0,1,.13-.77,10.56,10.56,0,0,0,9.21-2.63.4.4,0,0,1,.56,0,.4.4,0,0,1,0,.55A11,11,0,0,1,367.81,188.85Z"/><path class="cls-2" d="M353.59,152.26l27.63-10.09a5.06,5.06,0,0,1,1.1,1.93,5.54,5.54,0,0,1,6.25-1.63,5,5,0,0,1,4.32,4.24,5.62,5.62,0,0,1,3.44,5.18c0,.15,0,.3,0,.45a6,6,0,0,1,1.65.36,5.65,5.65,0,0,1,3.29,6.91,5.63,5.63,0,0,1,2.07,6.77l-.1.2a5.66,5.66,0,0,1,1.28,6.13,5.6,5.6,0,0,1-2.44,2.78,6.33,6.33,0,0,1,.16.78,5.52,5.52,0,0,1,2.17.4,5.65,5.65,0,1,1-7.68,6,5.71,5.71,0,0,1-2.17-.4,5.65,5.65,0,0,1-3.4-6.49,5.62,5.62,0,0,1-7.34-6.25c-.19-.06-.38-.09-.57-.17a5.64,5.64,0,0,1-3.15-7.34,5.35,5.35,0,0,1,1.07-1.69,5.72,5.72,0,0,1-3.55-3.57,4.44,4.44,0,0,1-.5.57,5.08,5.08,0,0,1-6.34.48,2.64,2.64,0,0,1-.35.4,5.08,5.08,0,0,1-7.18-.23,4.88,4.88,0,0,1-1-1.52,5.05,5.05,0,0,1-8.66-4.2Z"/><path class="cls-3" d="M402.21,188.25a12,12,0,0,1-7.31,5.56c-4.08,1.05-6-2.63-4.82-6.43,1.09-3.43,4.53-8.1,8.59-7.46S404.15,184.86,402.21,188.25Z"/><path class="cls-2" d="M379.24,170.53a.79.79,0,0,1-.74-.55c-1.07-3.47-5.5-5-5.55-5a.79.79,0,0,1-.5-1,.78.78,0,0,1,1-.51c.21.07,5.26,1.76,6.56,6a.78.78,0,0,1-.51,1Z"/><path class="cls-2" d="M354.54,162.35a.76.76,0,0,1-.67-.39.77.77,0,0,1,.29-1.07,7.79,7.79,0,0,1,7.15-.48.78.78,0,1,1-.71,1.4h0a6.25,6.25,0,0,0-5.66.44A.72.72,0,0,1,354.54,162.35Z"/><path class="cls-3" d="M432.58,243.72c2.77,9.86,4.95,19.62,6.84,29.61,1,5,1.78,10,2.49,15,.38,2.52.67,5.07.95,7.62l.37,3.85.09,1,.05.59a14.24,14.24,0,0,1,0,1.46,10.58,10.58,0,0,1-2.35,6.23,11.81,11.81,0,0,1-4.06,3.12,16.72,16.72,0,0,1-3.22,1.11,27.15,27.15,0,0,1-5.08.61,60.22,60.22,0,0,1-8.47-.43,137.47,137.47,0,0,1-15.37-2.82c-5-1.19-9.86-2.53-14.72-3.95s-9.61-3-14.4-4.83l2.24-8.09c4.82.8,9.71,1.68,14.58,2.4s9.7,1.51,14.53,2.07,9.62,1.07,14.21,1.2a44.91,44.91,0,0,0,6.45-.16,10.56,10.56,0,0,0,2.3-.46c.29-.08.35-.16.3-.14a2.64,2.64,0,0,0-1.12.88,5,5,0,0,0-1.09,2.8,1.82,1.82,0,0,0,0,.52,3,3,0,0,1-.06-.33l-.14-.89-.59-3.56L426,291c-.92-4.76-2-9.53-3-14.31s-2.19-9.54-3.35-14.31-2.35-9.57-3.48-14.22Z"/><path class="cls-4" d="M423.45,225c6.88,1.56,16.64,24.14,16.64,24.14l-24.74,20.56s-10.93-18.65-8.73-27.55C408.9,232.9,415.6,223.25,423.45,225Z"/><path class="cls-5" d="M423.45,225c6.88,1.56,16.64,24.14,16.64,24.14l-24.74,20.56s-10.93-18.65-8.73-27.55C408.9,232.9,415.6,223.25,423.45,225Z"/><path class="cls-2" d="M372,170l-3-1.45S370.15,171.33,372,170Z"/><path class="cls-8" d="M419.56,322.16l2.15,5.89c.27.45-.25,1-1,1l-69.12,5c-.6.05-1.13-.21-1.19-.59l-1.05-6c-.07-.41.43-.8,1.09-.85l68-4.95A1.26,1.26,0,0,1,419.56,322.16Z"/><path class="cls-4" d="M411,330.43l1.83-.13c.36,0,.62-.24.58-.46L412,322.09c0-.23-.38-.39-.74-.37l-1.82.14c-.36,0-.62.23-.58.46l1.42,7.74C410.28,330.29,410.61,330.45,411,330.43Z"/><path class="cls-4" d="M356.73,334.37l1.82-.13c.36,0,.63-.23.58-.46L357.71,326c0-.23-.37-.39-.73-.36l-1.83.13c-.36,0-.62.23-.58.46L356,334C356,334.23,356.37,334.4,356.73,334.37Z"/><path class="cls-4" d="M383.85,332.4l1.82-.13c.37,0,.63-.24.59-.46l-1.43-7.75c0-.23-.37-.39-.73-.37l-1.82.14c-.37,0-.63.23-.59.46l1.43,7.75C383.16,332.26,383.49,332.43,383.85,332.4Z"/><polygon class="cls-4" points="283.3 232.29 374.26 257.47 336.29 381.29 245.32 356.11 283.3 232.29"/><g class="cls-9"><polygon points="283.3 232.29 374.26 257.47 336.29 381.29 245.32 356.11 283.3 232.29"/></g><polygon class="cls-4" points="282.65 232.11 373.62 257.3 335.65 381.11 244.68 355.93 282.65 232.11"/><polygon class="cls-8" points="368.18 260.31 334.92 368.74 252.29 345.86 285.54 237.43 368.18 260.31"/><path class="cls-4" d="M301.19,242.22a12.14,12.14,0,0,1,12.6-3.61l3.61,1a3.8,3.8,0,0,0,3.77-.85c2-2.18,5.6-3.11,9.23-2.11s6.16,3.65,6.58,6.49a3.54,3.54,0,0,0,2.7,2.63l3.62,1c4.71,1.31,8.14,5.09,8.58,9.48a1.48,1.48,0,0,1-.05.47,1.22,1.22,0,0,1-1.48.82l-48.59-13.46A1.15,1.15,0,0,1,301.19,242.22Z"/><path class="cls-10" d="M301.19,242.22a12.14,12.14,0,0,1,12.6-3.61l3.61,1a3.8,3.8,0,0,0,3.77-.85c2-2.18,5.6-3.11,9.23-2.11s6.16,3.65,6.58,6.49a3.54,3.54,0,0,0,2.7,2.63l3.62,1c4.71,1.31,8.14,5.09,8.58,9.48a1.48,1.48,0,0,1-.05.47,1.22,1.22,0,0,1-1.48.82l-48.59-13.46A1.15,1.15,0,0,1,301.19,242.22Z"/><polygon class="cls-11" points="359 269.44 357.8 273.33 286.93 253.71 288.12 249.82 359 269.44"/><polygon class="cls-11" points="356.12 278.82 354.93 282.71 288 264.18 289.19 260.29 356.12 278.82"/><polygon class="cls-11" points="353.24 288.2 352.05 292.09 316.61 282.28 317.8 278.39 353.24 288.2"/><polygon class="cls-11" points="312.09 276.81 310.9 280.7 292.17 275.51 293.36 271.63 312.09 276.81"/><polygon class="cls-11" points="350.36 297.58 349.17 301.47 278.3 281.85 279.49 277.96 350.36 297.58"/><polygon class="cls-11" points="347.49 306.97 346.3 310.85 284.58 293.77 285.77 289.88 347.49 306.97"/><polygon class="cls-11" points="341.73 325.73 340.54 329.62 269.67 309.99 270.86 306.11 341.73 325.73"/><polygon class="cls-11" points="338.86 335.11 337.66 339 277.78 322.42 278.97 318.53 338.86 335.11"/><path class="cls-4" d="M290.31,351.45c-11.22,0-15.77-6.22-17.54-10.3-3.9-9-.8-22.38,6.49-28.14,4.61-3.64,9.94-3.56,15,.24a1.22,1.22,0,0,1-1.46,1.95c-5.25-3.95-9.44-2.33-12-.28-5.89,4.64-9.61,16.44-5.77,25.26,2.14,4.94,7.43,10.4,20.4,8.42,7.68-1.17,13.24-5.44,15.64-12a23.17,23.17,0,0,0-4.11-22.33A16.46,16.46,0,0,0,290.32,309a1.21,1.21,0,1,1-.52-2.37c7.4-1.63,14.13.5,19,6a25.74,25.74,0,0,1,4.57,24.76c-2.73,7.46-9,12.29-17.56,13.61A36.36,36.36,0,0,1,290.31,351.45Z"/><path class="cls-4" d="M291.69,346.72a1.21,1.21,0,0,1-1.11-1.71c3.29-7.38,6.9-16.15,8.8-25.3.14-.67.28-1.4.39-2.15a56.64,56.64,0,0,1-20.93,20.76,1.22,1.22,0,0,1-1.19-2.12A54,54,0,0,0,298.39,315a2.12,2.12,0,0,1,2.42-1.06,2,2,0,0,1,1.52,2.07,23.73,23.73,0,0,1-.57,4.16c-1.95,9.37-5.62,18.29-9,25.79A1.21,1.21,0,0,1,291.69,346.72Z"/><path class="cls-4" d="M299,337.58a1.2,1.2,0,0,1-.79-.3,149.72,149.72,0,0,0-16.15-12.18,1.21,1.21,0,1,1,1.32-2,150.13,150.13,0,0,1,16.42,12.38,1.21,1.21,0,0,1-.8,2.13Z"/><path class="cls-3" d="M379.94,294.07,366.5,282.23l-.37,16.85s9.21,5.34,15.07,1.71Z"/><polygon class="cls-3" points="352.58 281.41 353.04 295.54 366.13 299.08 366.5 282.23 352.58 281.41"/></g><g id="Character_1" data-name="Character 1"><path class="cls-2" d="M142.1,81.67c5.36,5.55,10.72,21.15,6.21,28.55C139.42,101.34,138.12,79.76,142.1,81.67Z"/><path class="cls-3" d="M179.58,177.59c2.29,4.23,4.44,8.49,6.62,12.76s4.29,8.55,6.39,12.86q6.27,12.93,12.15,26.13c2,4.42,3.85,8.86,5.74,13.48a35.22,35.22,0,0,0,1.52,3.61c.45.84.66,1.13.87,1.48s.77.73,1.95.79a12.43,12.43,0,0,0,4.46-.59,34.87,34.87,0,0,0,5.44-2.07c.93-.44,1.87-.92,2.8-1.41l2.66-1.45,9.08,8.93c-1,1.31-1.71,2.29-2.64,3.35s-1.83,2-2.83,3a42.69,42.69,0,0,1-6.75,5.39,30.63,30.63,0,0,1-9,4,25.12,25.12,0,0,1-5.78.72,23.41,23.41,0,0,1-6.38-.94,24.42,24.42,0,0,1-10.65-6.7,36.06,36.06,0,0,1-5.91-8.56c-2-4.08-4.3-8.24-6.45-12.42L169.6,214.76c-4.39-8.42-8.7-16.92-12.9-25.42Z"/><path class="cls-4" d="M149.41,178.22c-4.68,15.58,27.24,57.91,27.24,57.91l32.61-21S199.87,193.51,187,177C173.83,160.14,154.55,161.13,149.41,178.22Z"/><path class="cls-6" d="M170.34,199.52c8.25,3.77,17.08,17.77,18.38,28.83l-12.08,7.78s-12.26-16.26-20.47-32.33C158.68,199.84,160.88,195.21,170.34,199.52Z"/><path class="cls-4" d="M73.82,171.58a378.94,378.94,0,0,1,10.66,55.73c1.57,13.13,2.51,25.67,3.08,37,1.35,26.66.72,47,1.5,53.88l90.54-7c12.55-96.6-10.88-146.15-10.88-146.15a176.8,176.8,0,0,0-21.67-2.51c-1.53-.08-3.09-.12-4.67-.14-10.26-.14-27,1.53-38.5,3-2.42.31-4.87.69-7.26,1.09C84.5,168.54,73.82,171.58,73.82,171.58Z"/><path class="cls-2" d="M133,179.09c5.34,12.93,1,14.2,5.47,31.58q3.93,5.16,7.45,10.36,1.8-5.7,3.08-11.33c-3.9-17.42-9.61-22.45-10.7-31.68"/><polygon class="cls-2" points="137.59 185.8 140.95 177.07 134.64 174.86 130.25 178.02 137.59 185.8"/><path class="cls-12" d="M96.62,166.48C116.69,184.25,133.37,202.41,146,221c6.39-20.13,7.86-39.63,3.18-58.34a175.86,175.86,0,0,1,19.59,2.39s23.43,49.54,10.88,146.14l-90.54,7c-.78-6.88-.15-27.22-1.5-53.88-.57-11.37-1.51-23.91-3.08-37a378.94,378.94,0,0,0-10.66-55.73S84.5,168.54,96.62,166.48Z"/><path class="cls-3" d="M104.77,121.79C108,134,112,156.47,103.89,165.4c6.79,6,16.58,10.87,30.47,9.49,10.64-1.06,10.67-8.54,8-12.48-14-2.22-14.37-12.49-12.62-22.29Z"/><path class="cls-4" d="M134.64,174.86s-10.45,8.6-13.7,17.08c-7.3-3.12-20.88-18.36-21-27.63,3.48-3.44,5.87-4.29,5.87-4.29A103,103,0,0,0,134.64,174.86Z"/><path class="cls-13" d="M134.64,174.86s-10.45,8.6-13.7,17.08c-7.3-3.12-20.88-18.36-21-27.63,3.48-3.44,5.87-4.29,5.87-4.29A103,103,0,0,0,134.64,174.86Z"/><path class="cls-4" d="M134.64,174.86s12.57,5.58,18.18,15.38c7.37-3.12-4.18-27-9.51-29.18-4.3-2.23-7.38-1.36-7.38-1.36S142.5,172.18,134.64,174.86Z"/><path class="cls-13" d="M134.64,174.86s12.57,5.58,18.18,15.38c7.37-3.12-4.18-27-9.51-29.18-4.3-2.23-7.38-1.36-7.38-1.36S142.5,172.18,134.64,174.86Z"/><path class="cls-6" d="M115,129.27l14.79,10.84A40.25,40.25,0,0,0,129,147c-5.33-.35-13-5.58-13.9-11.06A18.53,18.53,0,0,1,115,129.27Z"/><path class="cls-3" d="M102,103.28c2.16,16.68,2.58,26.56,11.63,34.5,13.62,11.95,33.8,2.67,36.67-14.36,2.58-15.34-1.39-40-18.25-45.43C115.47,72.67,99.88,86.61,102,103.28Z"/><path class="cls-2" d="M142.3,84.1c-4.43,3.33-17.13,2.26-25,0s-13.5,12.82-7.35,21.77,8.67,9.55,1,14.42-29.15-16.35-18.5-32C92,75,119.43,66.16,134.1,72.34S142.3,84.1,142.3,84.1Z"/><path class="cls-3" d="M96.52,117.68a15.78,15.78,0,0,0,8.5,8.7c5.17,2.15,8.47-2.33,7.64-7.58-.75-4.72-4.34-11.52-9.81-11.44S94.66,112.85,96.52,117.68Z"/><path class="cls-2" d="M217.35,659.71l-28.06,6.44S170.45,564.07,165.6,511.48c-1.48-16-5.66-38.27-10.93-62.09-6.66-30-15-62.46-21.86-87.87-7.22-26.75-12.72-45.69-12.72-45.69l59.52-4.61S215.37,451.63,217,503.37C218.72,557.17,217.35,659.71,217.35,659.71Z"/><path class="cls-6" d="M154.67,449.39c-6.66-30-15-62.46-21.86-87.87L139,348.18C153.74,365.6,157.59,419.87,154.67,449.39Z"/><path class="cls-2" d="M147.5,313.71s-6.75,145.3-14,194.55c-8,53.93-27.92,169.69-27.92,169.69H74.48S74,568.7,83.83,516.44c11.22-59.52,5.24-198.2,5.24-198.2Z"/><path class="cls-2" d="M127.79,106c.1,1.37.89,2.42,1.79,2.35s1.54-1.23,1.45-2.6-.9-2.41-1.79-2.34S127.7,104.63,127.79,106Z"/><path class="cls-2" d="M143.23,104.8c.09,1.36.89,2.41,1.78,2.34s1.54-1.23,1.45-2.59-.89-2.42-1.78-2.35S143.13,103.43,143.23,104.8Z"/><path class="cls-2" d="M139.34,118.2c-4-1.34-10.18,1.36-11.64,3.75,5.85,1.29,21-.2,21-.2A7.66,7.66,0,0,0,139.34,118.2Z"/><path class="cls-7" d="M138.37,105.86s3.69,7.33,7.39,10.74c-2.24,2.32-6.42,1.6-6.42,1.6Z"/><path class="cls-2" d="M131.24,127.63a11.83,11.83,0,0,0,1.78,0,.4.4,0,0,0-.05-.8,10.73,10.73,0,0,1-9.11-3.54.39.39,0,0,0-.56-.07.4.4,0,0,0-.08.56A11.13,11.13,0,0,0,131.24,127.63Z"/><path class="cls-2" d="M122.7,101.38a.78.78,0,0,0,.72-.37,6.5,6.5,0,0,1,5-3.07.82.82,0,0,0,.81-.81.8.8,0,0,0-.81-.8,8.06,8.06,0,0,0-6.3,3.82.8.8,0,0,0,.23,1.11A.69.69,0,0,0,122.7,101.38Z"/><path class="cls-2" d="M149.52,99a.81.81,0,0,0,.75-1.21,7.94,7.94,0,0,0-6.07-4.07.83.83,0,0,0-.85.77.8.8,0,0,0,.75.84,6.17,6.17,0,0,1,4.77,3.27A.82.82,0,0,0,149.52,99Z"/><path class="cls-3" d="M86.79,197.23c-2.69,4.45-5.59,9.24-8.27,13.92s-5.35,9.47-7.86,14.23-4.93,9.52-7,14.29a99.82,99.82,0,0,0-5.29,13.9,34.79,34.79,0,0,0-1.19,5.8c-.08.75-.06,1.34-.07,1.57s0,.08-.07,0-.1,0-.15,0-.09.13.1.43a5.18,5.18,0,0,0,1.27,1.07,22.06,22.06,0,0,0,5.29,2.17,77.75,77.75,0,0,0,14.65,2.32c2.61.21,5.28.34,8,.47s5.46.09,8,.15l2.32,12.52c-3,1-5.77,1.75-8.71,2.46s-5.85,1.29-8.85,1.73a75.14,75.14,0,0,1-19,.64,39.34,39.34,0,0,1-10.85-2.6,28.78,28.78,0,0,1-5.95-3.24,23.23,23.23,0,0,1-5.6-5.74,22.68,22.68,0,0,1-2.06-3.78,24.22,24.22,0,0,1-1.27-4,30.75,30.75,0,0,1-.68-6.83,52.48,52.48,0,0,1,1.29-10.85,120.8,120.8,0,0,1,5.69-18c2.26-5.6,4.7-11,7.31-16.24s5.34-10.39,8.26-15.41,5.79-9.93,9.14-15Z"/><path class="cls-4" d="M73.82,171.58c-15.53,4.83-34.52,49.48-34.52,49.48l37.78,17.42s11.37-18.89,18.25-38.76C102.83,178.07,92.64,165.73,73.82,171.58Z"/><path class="cls-3" d="M90.25,269.21l13.5-10.66,5,21.19s-13.49,6.5-17.7-.34Z"/><polygon class="cls-3" points="117.86 258.47 121.16 276.18 108.74 279.74 103.75 258.55 117.86 258.47"/><path class="cls-3" d="M229.5,243.15l13.9-10.28,3.65,18.83s-13,8.43-17,1.57Z"/><polygon class="cls-3" points="260.47 231.33 258.1 248.58 247.05 251.7 243.41 232.87 260.47 231.33"/></g></svg>