<?xml version="1.0" encoding="utf-8"?>
<!-- Generator: Adobe Illustrator 24.1.2, SVG Export Plug-In . SVG Version: 6.00 Build 0)  -->
<svg version="1.1" id="Layer_1" xmlns="http://www.w3.org/2000/svg" xmlns:xlink="http://www.w3.org/1999/xlink" x="0px" y="0px"
	 viewBox="0 0 300 300" style="enable-background:new 0 0 300 300;" xml:space="preserve">
<style type="text/css">
	.st0{fill:#7CEDAB;}
	.st1{fill:#FFFFFF;}
	.st2{fill:#5FB280;}
	.st3{fill:#111B34;}
	.st4{fill:#F9F9F9;}
	.st5{fill:#CECDE9;}
	.st6{fill:#FD425F;}
	.st7{fill:#3C49B9;}
	.st8{fill:#EF8B67;}
	.st9{fill:#F4BCA3;}
	.st10{fill:#3A3ABF;}
	.st11{opacity:0.55;fill:#F9F9F9;enable-background:new    ;}
	.st12{fill:#932646;}
	.st13{fill:#C1F7D7;}
	.st14{fill:#3C4DB5;}
	.st15{fill:#5760D3;}
	.st16{fill:#4350A8;}
	.st17{fill:#7C88E8;}
</style>
<g>
	<g id="Layer_1_1_">
		<path class="st0" d="M304.4,300.1v-455.8c0-2.8-2.2-5-5-5H174.2c-18.3,11-40,46.2-45.9,65.6C118.3-62,96.2-39.1,85-33
			C55.7-17,22.7-20.8-9-13.4c-34.3,8.1-66.3,28.9-81.4,59.6c-14.6,29.7-10.4,54.7-18.8,85.3c-8.6,31.1-39.5,55.2-68.9,66.4
			c-31.1,11.9-61.2,20.9-66.9,54.6c-2.9,17.3-1.4,35.3,3.6,52.5h540.8C302.2,305,304.4,302.8,304.4,300.1z"/>
		<path class="st1" d="M146.2,7.2v141.4h189.6V7.2H146.2z M326.9,139.5H155.2V16.4h171.7V139.5z"/>
		<rect x="238.8" y="12.1" class="st1" width="4.4" height="131.6"/>
		<rect x="149.4" y="75.8" class="st1" width="183.3" height="4.4"/>
		<path class="st2" d="M155.7,25.6h-18L123.2,42l7.1-16.5h-13.1c-1.1,0-1.9-0.9-1.9-1.9V-1.1c0-1,0.9-1.9,1.9-1.9h38.5
			c1.1,0,1.9,0.9,1.9,1.9c0,0,0,0,0,0v24.7C157.6,24.7,156.8,25.6,155.7,25.6z"/>
		<path class="st1" d="M131.5,18.4h-4.7V14h4.7V18.4z"/>
		<path class="st1" d="M138.8,18.4h-4.7V14h4.7V18.4z"/>
		<path class="st1" d="M146.2,18.4h-4.7V14h4.7V18.4z"/>
		<path class="st3" d="M50.8,52.7H248c4.6,0,8.2,3.7,8.2,8.2v116.4c0,4.6-3.7,8.2-8.2,8.2H50.8c-4.6,0-8.2-3.7-8.2-8.2V60.9
			C42.5,56.4,46.2,52.7,50.8,52.7z"/>
		<rect x="54.7" y="61.8" class="st4" width="188.9" height="104.4"/>
		<rect x="169.3" y="78" class="st5" width="61.1" height="77.4"/>
		<rect x="175.1" y="85.3" class="st6" width="49.6" height="7.7"/>
		<rect x="175.1" y="99.5" class="st7" width="49.6" height="7.7"/>
		<rect x="175.1" y="113.8" class="st1" width="49.6" height="7.7"/>
		<rect x="175.1" y="128.1" class="st1" width="49.6" height="7.7"/>
		<rect x="175.1" y="142.4" class="st1" width="49.6" height="7.7"/>
		<path class="st3" d="M100.6,87.5c0,0,10.1,0.1,11.5,6.6s0.2,13.9,1.9,18.5s7.1,17.5-4.4,18.2s-13.3-2.6-16.2-2.7s-7,6.6-15.3,2.8
			s-4.7-12.6-1.1-13.6s2.2-7.3,1.3-9.3c-1.8-4.3-3.1-17.5,9.1-21.4C97.3,83.5,100.6,87.5,100.6,87.5z"/>
		<path class="st8" d="M91,111.3c-0.8,8.8-1.3,19.3-5,26.8c0.4,3.6,2.4,10.4,11.6,10.1c7.8-0.2,10.1-5.1,10.8-8.7
			c-3.7-6.2-5.9-14.5-6.4-22.8C98.4,116.7,93.4,113.1,91,111.3z"/>
		<path class="st9" d="M93.6,90.8c0,0,12.6,0.6,15.3,3.2s2.5,7.9,3.2,15.7s-4,16.4-8.3,17.5c-4.3,1.1-15.8-6.1-17.4-18.2
			S88.7,90.3,93.6,90.8z"/>
		<path class="st9" d="M188.5,126.3c0,0,6.2-6.9,8.6-10.6s11.2-16,13-14.1s-5.8,12.1-5.8,12.1s7.4-13.2,9.9-11.7s-6.8,13-6.8,13
			s8-11.1,9.4-9.6s-0.3,4-6.8,12.1c0,0,5.6-7,7-4.8s-5.1,8.4-7.3,9.8s-13.3,7.3-16.3,10.1C193.3,132.6,188,129.9,188.5,126.3z"/>
		<path class="st8" d="M209,115.1c-0.6-1.7-3.3-1.5-4.8-1.4c-1.9,0.1-3.7,0.9-4.9,2.4c-0.7,0.8-1.2,1.6-1.9,2.4
			c-1.4,1.5-0.5,2.7,0,4.3c0.1,0.5,3.2,0.9,6.2-0.3c1.9-0.9,3.6-2.3,4.8-4.1C208.8,117.3,209.3,115.7,209,115.1z"/>
		<path class="st9" d="M198.7,117.1c0,0,7-4.8,9.2-3.3s0.2,3.3-7.2,6.4c0,0-2.4,3.6-4.1,4C196.6,124.2,194.1,119.7,198.7,117.1z"/>
		<path class="st3" d="M99.2,87.9c0,0,3.5,15.1-7.3,17c-1.7,2.5-2.2,5.6-1.3,8.5c1.5,4.7,5,14.7-1.2,17s-10.9-1.5-8.4-11.2
			S83.4,104.1,85,97S89.5,84.6,99.2,87.9z"/>
		<path class="st3" d="M93,87.3c0,0,0.8,13.7,12.6,14.2s11.9-7.8,10.4-9.8S109.2,81.7,93,87.3z"/>
		<path class="st10" d="M105,132c0,0-4.3,5.4-6.3,6.2s-10.5-5.9-10.5-5.9s-11.5,6.4-21.1,7.6c0,0-8.5,3.1-11.7,26.5h76.4
			c0,0-0.5-4.9,0-4.9s4.2,4.9,10.1,4.9h26c0,0,21.2-20.7,31.1-35.2l-9.1-9.1c0,0-31.2,33.4-33.8,33.4s-22.4-16.6-23.2-17.1
			S111.6,137.4,105,132z"/>
		<path class="st11" d="M212.3,166.2h-22.2c0,0,52.4-41,53.5-42.2v11.8C237.8,141.8,212.3,166.2,212.3,166.2z"/>
		<path class="st11" d="M243.6,72.5v16.6c-4,4.8-92.8,71.9-98.3,77.1h-40.1C115.9,157.7,239.5,75.6,243.6,72.5z"/>
		<path class="st11" d="M162.3,61.8h21.1c-0.2,0.1-0.3,0.3-0.5,0.4c-8.8,7.5-95.5,93.6-105.2,104H57.6
			C70.6,152.8,138,85.2,162.3,61.8z"/>
		<path class="st11" d="M54.7,113.5V93.1c10.5-10.5,21.7-21.5,31.7-31.3H107C91.9,76.6,71.6,96.6,54.7,113.5z"/>
		<path class="st12" d="M120.3,186.1c0,0-2.4-3.6-9.8-2.3s-11.6,13.6-11.6,13.6h20.8C119.7,197.4,121.6,187.8,120.3,186.1z"/>
		<path class="st12" d="M178.4,186.1c0,0,2.4-3.6,9.8-2.3s11.6,13.6,11.6,13.6H179C179,197.4,177.1,187.8,178.4,186.1z"/>
		<path class="st6" d="M120.7,150.6c0,0-7.3,0.2-12.6,4.2S81.9,192,80.9,194.7s4.3,4.9,11.2,4.9s10.1,0.6,12.7-2.2
			s17.9-15.7,22-24.9S124.4,150.1,120.7,150.6z"/>
		<path class="st6" d="M179.4,150.6c0,0,7.3,0.2,12.6,4.2s26.2,37.2,27.1,39.9s-4.4,4.9-11.2,4.9s-10.1,0.6-12.7-2.2
			s-17.9-15.7-21.9-24.9S175.6,150.1,179.4,150.6z"/>
		<polygon class="st8" points="156.1,130.9 143.9,130.9 141.8,142.2 158.3,142.2 		"/>
		<path class="st3" d="M150.1,97.3h-0.2c-6.6,0-15.9,3.8-15.9,14.7s2.7,25.1,15.9,25.1h0.2c13.2,0,15.9-14.2,15.9-25.1
			S156.8,97.3,150.1,97.3z"/>
		<rect x="18.1" y="197.4" class="st6" width="8.9" height="168.3"/>
		<rect x="271.3" y="197.4" class="st6" width="8.9" height="168.3"/>
		<rect x="1.9" y="197.4" class="st13" width="294.9" height="4.5"/>
		<path class="st10" d="M172.4,224c-6.4-3.7-39.4-3.7-45.8,0s-39.1,27.7-39.1,33.5c0,5.8,35.6,72.6,35.6,72.6l13-6.7
			c0,0-21.7-55.8-19.1-58.3s32.5-4.3,32.5-4.3s29.9,1.8,32.5,4.3s-19.1,58.3-19.1,58.3l13,6.7c0,0,35.6-66.7,35.6-72.5
			S178.8,227.7,172.4,224z"/>
		<path class="st14" d="M157.6,137.8c-0.6-0.6-5.3-0.2-7.6-0.2s-7.1-0.4-7.6,0.2s-4.3,8.9-4.3,8.9l11.9,2.5l11.9-2.5
			C161.9,146.7,158.2,138.4,157.6,137.8z"/>
		<polygon class="st3" points="149.5,260.9 140.9,260.9 145.2,338.3 149.5,338.3 153.8,338.3 158.1,260.9 		"/>
		<path class="st3" d="M149.5,257.6h-22.9c0,0,2.3,26.3,22.9,26.3s22.9-26.3,22.9-26.3H149.5z"/>
		<path class="st13" d="M189.5,152.1c-5.8-7.8-40-9.3-40-9.3s-34.2,1.5-40,9.3s10.1,72,15.5,82.3c5.4,10.3,24.5,10.1,24.5,10.1
			s19.1,0.2,24.5-10.1S195.3,159.8,189.5,152.1z"/>
		<path class="st3" d="M161.1,220.5c-2-1.3-21.4-1.3-23.3,0c-2.3,1.5,3.2,38,4.1,41.7s14.3,3.7,15.1,0S163.4,222,161.1,220.5z"/>
		<rect x="104.7" y="253.2" class="st3" width="89.6" height="12"/>
		<rect x="19" y="188.5" class="st10" width="55.4" height="8.9"/>
		<rect x="12.9" y="179.6" class="st6" width="55.4" height="8.9"/>
		<path class="st15" d="M263.3,176.4h-3.1v1.7h2.3c2.6,0,4.7,2.1,4.7,4.7c0,0,0,0,0,0v0.1c0,2.6-2.1,4.7-4.7,4.7l0,0h-2.3v1.7h3.1
			c3.6,0,6.5-2.9,6.5-6.4c0,0,0,0,0,0v-0.1C269.7,179.3,266.8,176.4,263.3,176.4L263.3,176.4z"/>
		<path class="st15" d="M259.1,197.4h-14.3c-2.1,0-3.8-1.7-3.8-3.8v-21.1h21.9v21.1C262.9,195.7,261.2,197.4,259.1,197.4
			C259.1,197.4,259.1,197.4,259.1,197.4z"/>
		<path class="st16" d="M251.3,194.5v-20.2H243v18.1c0,1.8,1.5,3.3,3.3,3.3h5.2C251.3,195.2,251.3,194.9,251.3,194.5z"/>
		<path class="st17" d="M256.2,174.3v19.1c0,0.8-0.3,1.6-0.8,2.3h2.4c1.8,0,3.3-1.5,3.3-3.2c0,0,0,0,0,0v-18.1H256.2z"/>
		<path class="st10" d="M67.9,42H112c1.2,0,2.2,1,2.2,2.2v28.4c0,1.2-1,2.2-2.2,2.2H67.9c-1.2,0-2.2-1-2.2-2.2V44.2
			C65.8,43,66.7,42,67.9,42z"/>
		<rect x="67.9" y="44.7" class="st1" width="44.1" height="27.6"/>
		<polygon class="st6" points="83.4,52.7 83.4,66.2 96.6,59.5 		"/>
		<rect x="-78.8" y="25.7" class="st6" width="121.1" height="6.8"/>
		
			<rect x="4.4" y="-19.4" transform="matrix(0.9287 -0.3709 0.3709 0.9287 -0.4018 3.3841)" class="st6" width="8.5" height="44.2"/>
		
			<rect x="15.8" y="-19.4" transform="matrix(0.9287 -0.3709 0.3709 0.9287 0.4106 7.6182)" class="st13" width="8.5" height="44.2"/>
		<path class="st6" d="M173.9,55.1h25.9L189,68l23.1-12.9h7.2c1.3,0,2.3-1,2.3-2.3V23.5c0-1.3-1-2.3-2.3-2.3h-45.4
			c-1.3,0-2.3,1-2.3,2.3c0,0,0,0,0,0v29.3C171.6,54.1,172.6,55.1,173.9,55.1L173.9,55.1z"/>
		<path class="st1" d="M204,34.5c0,3.8-4.8,4.9-4.8,6.4v0.6h-4.8V40c0-2,3.6-3.2,3.6-5.5c0.1-1-0.7-1.9-1.7-1.9c0,0-0.1,0-0.1,0
			c-1.5,0-1.8,1.2-1.8,2.3c0,0.2,0,0.5,0,0.8h-5.1c0-0.4-0.1-0.7-0.1-1.1c0-3.6,3.2-5.9,7.6-5.9S204,31,204,34.5z M199.6,48.3h-5.5
			v-5.2h5.5V48.3z"/>
		<circle class="st1" cx="296.8" cy="44.7" r="14.6"/>
	</g>
</g>
</svg>
