<svg xmlns="http://www.w3.org/2000/svg" viewBox="0 0 300 300"><defs><style>.cls-1{isolation:isolate;}.cls-2{fill:#eee;}.cls-3{fill:#fff;}.cls-4{fill:#b3b2da;}.cls-5{fill:#111b34;}.cls-13,.cls-6{fill:#f9f9f9;}.cls-7{fill:#cecde9;}.cls-8{fill:#fd425f;}.cls-9{fill:#3c49b9;}.cls-10{fill:#ef8b67;}.cls-11{fill:#f4bca3;}.cls-12{fill:#0400a3;}.cls-13{opacity:0.55;mix-blend-mode:screen;}.cls-14{fill:#932646;}.cls-15{fill:#3c4db5;}.cls-16{fill:#8494ab;}.cls-17{fill:#4d6486;}.cls-18{fill:#c8ced9;}</style></defs><g class="cls-1"><g id="Layer_1" data-name="Layer 1"><path class="cls-2" d="M304.39,300.07V-155.72a5,5,0,0,0-5-5H174.21c-18.29,11-40,46.19-45.88,65.57C118.29-62,96.23-39.1,85-33c-29.27,16-62.26,12.16-94,19.62C-43.27-5.26-75.28,15.52-90.4,46.26-105,76-100.76,100.93-109.24,131.53c-8.62,31.08-39.55,55.2-68.92,66.45-31.13,11.92-61.24,20.87-66.92,54.56-2.93,17.34-1.39,35.31,3.64,52.51H299.41A5,5,0,0,0,304.39,300.07Z"/><path class="cls-3" d="M146.24,7.24V148.69H335.86V7.24ZM326.89,139.5H155.21V16.43H326.89Z"/><rect class="cls-3" x="238.84" y="12.15" width="4.42" height="131.63"/><rect class="cls-3" x="149.39" y="75.76" width="183.31" height="4.42"/><path class="cls-4" d="M155.72,25.59h-18L123.19,42l7.14-16.45H117.24a1.92,1.92,0,0,1-1.92-1.92V-1.11A1.92,1.92,0,0,1,117.24-3h38.48a1.92,1.92,0,0,1,1.92,1.93V23.67A1.92,1.92,0,0,1,155.72,25.59Z"/><path class="cls-3" d="M131.47,18.41H126.8V14h4.67Z"/><path class="cls-3" d="M138.81,18.41h-4.67V14h4.67Z"/><path class="cls-3" d="M146.16,18.41h-4.68V14h4.68Z"/><rect class="cls-5" x="42.52" y="52.71" width="213.68" height="132.86" rx="8.24"/><rect class="cls-6" x="54.71" y="61.77" width="188.89" height="104.42"/><rect class="cls-7" x="169.32" y="77.97" width="61.08" height="77.36"/><rect class="cls-8" x="175.08" y="85.25" width="49.57" height="7.71"/><rect class="cls-9" x="175.08" y="99.54" width="49.57" height="7.71"/><rect class="cls-3" x="175.08" y="113.83" width="49.57" height="7.71"/><rect class="cls-3" x="175.08" y="128.11" width="49.57" height="7.71"/><rect class="cls-3" x="175.08" y="142.4" width="49.57" height="7.71"/><path class="cls-5" d="M100.62,87.46s10.06.05,11.46,6.62.16,13.93,1.87,18.54,7.06,17.5-4.4,18.23-13.34-2.55-16.15-2.68-7,6.65-15.33,2.78S73.39,118.37,77,117.32s2.19-7.25,1.33-9.31c-1.8-4.3-3.12-17.5,9.12-21.39C97.33,83.48,100.62,87.46,100.62,87.46Z"/><path class="cls-10" d="M91,111.29c-.75,8.83-1.34,19.29-5,26.75.41,3.58,2.39,10.38,11.6,10.14,7.82-.2,10.13-5.09,10.76-8.72-3.65-6.2-5.87-14.54-6.37-22.75C98.4,116.7,93.44,113.07,91,111.29Z"/><path class="cls-11" d="M93.56,90.76s12.63.61,15.25,3.22,2.49,7.92,3.22,15.69-4,16.36-8.27,17.5S88,121.05,86.35,109,88.69,90.35,93.56,90.76Z"/><path class="cls-11" d="M188.48,126.31s6.19-6.86,8.59-10.64,11.19-16,13-14.07-5.78,12.08-5.78,12.08,7.37-13.18,9.94-11.73-6.83,13-6.83,13,8-11.14,9.36-9.58-.26,4-6.84,12.14c0,0,5.64-7,7-4.81s-5.07,8.39-7.33,9.75-13.34,7.26-16.32,10.15C193.31,132.61,188,129.88,188.48,126.31Z"/><path class="cls-10" d="M209,115.14c-.64-1.68-3.26-1.54-4.83-1.39a6.86,6.86,0,0,0-4.94,2.36c-.67.81-1.19,1.62-1.92,2.39-1.4,1.46-.46,2.7,0,4.29.13.47,3.2.93,6.16-.25a11.47,11.47,0,0,0,4.77-4.1C208.81,117.28,209.26,115.72,209,115.14Z"/><path class="cls-11" d="M198.66,117.09s7-4.76,9.21-3.31.24,3.31-7.19,6.39c0,0-2.43,3.63-4.12,4C196.56,124.21,194.06,119.68,198.66,117.09Z"/><path class="cls-5" d="M99.18,87.88s3.47,15.12-7.31,17a10.1,10.1,0,0,0-1.29,8.54c1.54,4.7,5,14.72-1.24,17s-10.91-1.46-8.4-11.23S83.45,104.12,85,97,89.47,84.61,99.18,87.88Z"/><path class="cls-5" d="M93,87.35S93.8,101,105.6,101.57s11.92-7.8,10.45-9.83S109.22,81.72,93,87.35Z"/><path class="cls-12" d="M105,132s-4.25,5.35-6.35,6.16-10.46-5.94-10.46-5.94-11.52,6.42-21.06,7.55c0,0-8.51,3.07-11.69,26.51h76.35s-.54-4.9,0-4.9,4.2,4.9,10.13,4.9h26S189.16,145.57,199,131.1L189.85,122s-31.17,33.42-33.76,33.42-22.41-16.65-23.22-17.13S111.57,137.45,105,132Z"/><path class="cls-13" d="M212.32,166.18h-22.2s52.44-41,53.47-42.16v11.76C237.79,141.8,212.32,166.18,212.32,166.18Z"/><path class="cls-13" d="M243.59,72.51v16.6c-4,4.83-92.84,71.91-98.27,77.12h-40.1C115.94,157.73,239.49,75.58,243.59,72.51Z"/><path class="cls-13" d="M162.31,61.77h21.08c-.16.12-.31.25-.46.38-8.77,7.52-95.5,93.55-105.23,104l-20.13,0C70.55,152.76,138,85.24,162.31,61.77Z"/><path class="cls-13" d="M54.71,113.46V93.1C65.24,82.64,76.38,71.62,86.4,61.77H107C91.88,76.56,71.61,96.61,54.71,113.46Z"/><path class="cls-14" d="M120.31,186.11s-2.42-3.55-9.78-2.34-11.64,13.59-11.64,13.59h20.85S121.6,187.81,120.31,186.11Z"/><path class="cls-14" d="M178.44,186.11s2.43-3.55,9.78-2.34,11.64,13.59,11.64,13.59H179S177.15,187.81,178.44,186.11Z"/><path class="cls-8" d="M120.66,150.55s-7.28.16-12.61,4.21S81.87,192,80.9,194.68s4.35,4.92,11.22,4.92,10.11.61,12.7-2.24,17.9-15.66,22-24.87S124.44,150.07,120.66,150.55Z"/><path class="cls-8" d="M179.38,150.55s7.27.16,12.61,4.21,26.18,37.23,27.15,39.92-4.35,4.92-11.23,4.92-10.1.61-12.69-2.24-17.91-15.66-21.95-24.87S175.6,150.07,179.38,150.55Z"/><polygon class="cls-10" points="156.14 130.94 143.9 130.94 141.75 142.24 158.29 142.24 156.14 130.94"/><path class="cls-5" d="M150.14,97.31h-.24C143.25,97.31,134,101.1,134,112s2.71,25.14,15.93,25.14h.16C163.32,137.14,166,122.9,166,112S156.79,97.31,150.14,97.31Z"/><rect class="cls-8" x="18.12" y="197.37" width="8.88" height="168.28"/><rect class="cls-8" x="271.3" y="197.37" width="8.88" height="168.28"/><rect class="cls-4" x="1.9" y="197.36" width="294.91" height="4.46"/><path class="cls-12" d="M172.38,224c-6.37-3.66-39.44-3.66-45.81,0s-39.13,27.7-39.13,33.52S123,330.08,123,330.08l13-6.66s-21.7-55.84-19.07-58.27,32.51-4.25,32.51-4.25,29.87,1.83,32.5,4.25-19.07,58.27-19.07,58.27l13,6.66s35.56-66.7,35.56-72.52S178.75,227.71,172.38,224Z"/><path class="cls-15" d="M157.63,137.81c-.56-.55-5.27-.19-7.61-.19s-7.06-.36-7.61.19-4.31,8.93-4.31,8.93L150,149.26l11.92-2.52S158.18,138.37,157.63,137.81Z"/><polygon class="cls-5" points="149.48 260.9 140.91 260.9 145.19 338.27 149.48 338.27 153.76 338.27 158.05 260.9 149.48 260.9"/><path class="cls-5" d="M149.48,257.56H126.57s2.33,26.34,22.91,26.34,22.9-26.34,22.9-26.34Z"/><path class="cls-4" d="M189.52,152.06c-5.82-7.76-40-9.27-40-9.27s-34.22,1.51-40,9.27,10.13,72,15.52,82.33,24.52,10.13,24.52,10.13,19.13.21,24.52-10.13S195.34,159.82,189.52,152.06Z"/><path class="cls-5" d="M161.15,220.49c-2-1.31-21.38-1.31-23.34,0-2.26,1.51,3.23,38,4.1,41.7s14.28,3.66,15.14,0S163.41,222,161.15,220.49Z"/><rect class="cls-5" x="104.66" y="253.19" width="89.64" height="11.96"/><rect class="cls-12" x="18.96" y="188.51" width="55.36" height="8.86"/><rect class="cls-8" x="12.9" y="179.65" width="55.36" height="8.86"/><path class="cls-16" d="M263.26,176.38h-3.15v1.74h2.31a4.72,4.72,0,0,1,4.72,4.73v.1a4.72,4.72,0,0,1-4.72,4.72h-2.31v1.74h3.15a6.45,6.45,0,0,0,6.45-6.45v-.13A6.45,6.45,0,0,0,263.26,176.38Z"/><path class="cls-16" d="M259.14,197.37h-14.3a3.8,3.8,0,0,1-3.79-3.8V172.5h21.88v21.07A3.79,3.79,0,0,1,259.14,197.37Z"/><path class="cls-17" d="M251.25,194.51V174.27H243v18.07a3.26,3.26,0,0,0,3.26,3.26h5.21A3.9,3.9,0,0,1,251.25,194.51Z"/><path class="cls-18" d="M256.22,174.27v19.06a3.52,3.52,0,0,1-.82,2.27h2.43a3.25,3.25,0,0,0,3.25-3.26V174.27Z"/><rect class="cls-12" x="65.75" y="42.04" width="48.46" height="32.78" rx="2.2"/><rect class="cls-3" x="67.95" y="44.65" width="44.06" height="27.56"/><polygon class="cls-8" points="83.41 52.72 83.41 66.22 96.55 59.47 83.41 52.72"/><rect class="cls-8" x="-78.8" y="25.7" width="121.05" height="6.79"/><rect class="cls-8" x="4.36" y="-19.37" width="8.47" height="44.22" transform="translate(-0.4 3.38) rotate(-21.77)"/><rect class="cls-7" x="15.78" y="-19.37" width="8.47" height="44.22" transform="translate(0.41 7.62) rotate(-21.77)"/><path class="cls-8" d="M173.87,55.11h25.85L189,68l23.06-12.92h7.24a2.28,2.28,0,0,0,2.28-2.27V23.55a2.28,2.28,0,0,0-2.28-2.27H173.87a2.27,2.27,0,0,0-2.27,2.27V52.84A2.27,2.27,0,0,0,173.87,55.11Z"/><path class="cls-3" d="M204,34.47c0,3.79-4.76,4.9-4.76,6.38v.58h-4.77V40c0-2,3.63-3.2,3.63-5.46a1.84,1.84,0,0,0-1.84-1.95c-1.51,0-1.82,1.17-1.82,2.34a6.27,6.27,0,0,0,0,.75h-5.12c0-.36-.09-.69-.09-1.06,0-3.62,3.23-5.88,7.61-5.88S204,31,204,34.47Zm-4.35,13.82h-5.51V43.13h5.51Z"/><circle class="cls-3" cx="296.81" cy="44.65" r="14.64"/></g></g></svg>