<?xml version="1.0" encoding="utf-8"?>
<!-- Generator: Adobe Illustrator 24.1.2, SVG Export Plug-In . SVG Version: 6.00 Build 0)  -->
<svg version="1.1" id="OBJECT" xmlns="http://www.w3.org/2000/svg" xmlns:xlink="http://www.w3.org/1999/xlink" x="0px" y="0px"
	 viewBox="0 0 477.2 401.7" style="enable-background:new 0 0 477.2 401.7;" xml:space="preserve">
<style type="text/css">
	.st0{fill:#D6FCE5;}
	.st1{fill:#5DAF79;}
	.st2{fill:#FFFFFF;}
	.st3{fill:#C4F2D5;}
	.st4{fill:#E05C5C;}
	.st5{fill:#EAB53F;}
	.st6{fill:#46CC72;}
	.st7{fill:#5DB580;}
	.st8{fill:#7F5E40;}
	.st9{fill:#E0922F;}
	.st10{fill:#2A2760;}
	.st11{fill:#FF9C7D;}
	.st12{fill:#4A4481;}
	.st13{fill:#FFD40F;}
	.st14{fill:#AD5449;}
	.st15{fill:#CB685C;}
	.st16{fill:#6FC18C;}
	.st17{fill:#9C7B53;}
	.st18{fill:#E8AE4A;}
	.st19{fill:#42897D;}
	.st20{fill:#9FC54D;}
	.st21{fill:#EA7A5C;}
	.st22{fill:#5BA69C;}
	.st23{fill:#F2C99E;}
	.st24{fill:#4675B8;}
	.st25{fill:#CF4339;}
	.st26{fill:#F1F1F2;}
	.st27{fill:#D0D1D3;}
	.st28{fill:#6695CC;}
	.st29{fill:#4F5AA8;}
	.st30{fill:#333B8C;}
	.st31{fill:#59595B;}
	.st32{fill:#929496;}
</style>
<path class="st0" d="M15.6,307.5c0,0,179.6-37.8,312.6-25.5c126.9,11.7,175.3,40.4,135.3,65.6c-34.6,21.9-98.8,28.5-155,41.6
	c-56.2,13.1-173.2,25.5-238.2-16C5.4,331.6-18.7,321.3,15.6,307.5z"/>
<polygon class="st1" points="197.9,23.7 198.5,145.2 426.6,163.8 428.8,21 "/>
<polygon class="st2" points="220.1,42.5 218.4,132.7 402.5,140.6 401.9,43.2 "/>
<polygon class="st3" points="322.1,164.3 423.3,173.1 423.3,187.3 322.7,176.9 "/>
<polygon class="st3" points="322.1,183.3 423.3,192 423.3,206.3 322.7,195.9 "/>
<polygon class="st2" points="206.7,36.7 416.8,36.8 416.8,29.7 206.1,30.3 "/>
<polygon class="st3" points="199,19 427.4,16.8 427.7,0 199.4,2.9 "/>
<ellipse class="st4" cx="410.3" cy="8.7" rx="5.9" ry="5.7"/>
<ellipse class="st5" cx="390.9" cy="8.7" rx="5.3" ry="5.2"/>
<ellipse class="st6" cx="372.6" cy="8.7" rx="4" ry="3.9"/>
<polygon class="st7" points="308.8,92.3 225.3,89.7 225.8,47.2 309.9,47 "/>
<path class="st8" d="M324.5,94.1l-7.4,15.7l-19.9-8.7l-2.4,6.2c0,0,21.4,13.5,23.7,13.5s9.7-11.9,9.7-11.9L324.5,94.1z"/>
<path class="st9" d="M350.3,90.2l5.6,2.8c0,0-6.3,18.9-4.4,34.4l-23.5-1.3c0,0-3.8-24.3-3.6-31.9c0,0,2.3-2,10.2-3.6
	c1.1-0.2,3.6,1.6,4.6,1.6C343,91.9,346.7,91.2,350.3,90.2z"/>
<path class="st2" d="M335.3,91.9l1.8,19.9l6.4-21.8c0,0-6.6,2.3-8.3-0.5L335.3,91.9z"/>
<path class="st8" d="M342.9,86.6c0,0,5.9,4.1,4.5,7.4c-1,2.1-2.7,3.9-4.8,5.1c0,0,2,3.3-0.7,7.8c-1.4,2.4-3.1,4.6-5.2,6.4
	L342.9,86.6z"/>
<path class="st10" d="M334.6,63.7c0,0-5.3-0.2-7.5,4.2s-0.5,6.3-0.5,6.3s-3.4,3-2.2,6.8c0,0-4.9,5.1-0.3,10s9.9,3,12.2-3.2
	s3.7-21.8,3.7-21.8S339.7,64.5,334.6,63.7z"/>
<path class="st11" d="M329.4,82.4c1.5,3.1,5.8,3.1,5.8,3.1l0.5,3.3l5.5-0.7l-0.2-14.8c0,0-5.9-5.1-10.5-4.7
	C329.5,68.7,325.9,75.1,329.4,82.4z"/>
<path class="st10" d="M330.6,69.2c0,0,1.3,4.2,3.7,5.4c1,0.6,2.1,1,3.3,1.2c0,0-0.5,3.5,1.1,4.6l1.6,1.1c0,0-1.5,8.8,2.8,11.2
	s8.4,0.1,9.5-4.3s-3.2-7.6-3.2-7.6s1.5-3.3-0.1-5.6c-1.1-1.4-2.5-2.5-4.2-3c0,0,0.8-4.6-2.8-6.8S330.6,65.7,330.6,69.2z"/>
<path class="st8" d="M335.8,88.8l1.4,23.3c0,0-5.4-3.6-2.6-10.7c0,0-5.6-5.6-3.6-10S335.8,88.8,335.8,88.8z"/>
<path class="st8" d="M355.9,92.9l6.7,24.5l16.2-6.6l2,6.4c0,0-16.2,9.6-21.2,9.6s-9.3-12.6-9.3-12.6S348.1,96.1,355.9,92.9z"/>
<polygon class="st8" points="328,126 351.3,126.4 352,131.1 327.8,130.8 "/>
<polygon class="st9" points="326,137.1 327.8,130.8 352,131.1 355.7,138.6 "/>
<path class="st11" d="M378.2,111.6c0.5-1.3,1.4-2.5,2.5-3.4c1.2-0.8,2.7-1.3,4.1-1.4c0.3,0-0.1,1.4-1.2,1.7s5.4-0.2,6.4,0.4
	s-0.5,1.1-0.5,1.1s1.5,0.4,1.3,0.9s-1.5,0.8-1.5,0.8s1.4,0.1,0.8,0.8c-0.4,0.4-0.9,0.7-1.5,0.9c0,0,1,0.7-0.3,1.1s-7.1,2.3-7.1,2.3
	S377.1,116.4,378.2,111.6z"/>
<path class="st11" d="M298.8,101.9c0,0-2.8-3-3.6-3.5c-0.8-0.5-1.8-0.5-2.5,0.1c0,0-4.5-2.1-5.2-1.9s-0.9,1.5,1.9,2.7
	c0,0-0.7,1.3-0.1,2.1c0,0-0.5,1.5,0,2.1c0,0-0.4,0.6,0.7,1.6c1.1,1,2.4,1.7,3.9,2.1c1.2,0.4,3,0.8,4.1-0.4S299.9,102.5,298.8,101.9z
	"/>
<path class="st2" d="M239.1,83.9c-0.6-0.1-1-0.6-1-1.2c-0.1-1,0.3-1.2,1.4-1.1c0.5,0,1.1,0.1,1.6,0.2v0.6l-1.4-0.1
	c-0.7,0-0.9,0-0.8,0.4s0.2,0.4,0.6,0.6l1.1,0.3c0.6,0.1,1,0.6,1,1.2c0.1,1-0.4,1.2-1.5,1.1c-0.5,0-1-0.1-1.5-0.2v-0.6
	c0.3,0.1,0.8,0.1,1.3,0.1c0.8,0,1-0.1,1-0.5s-0.3-0.4-0.6-0.6L239.1,83.9z"/>
<path class="st2" d="M242.6,80c0.1,0,0.2,0.1,0.2,0.3l0.1,0.5c0,0.2-0.1,0.3-0.2,0.3h-0.4c-0.1,0-0.2-0.1-0.2-0.3v-0.5
	c0-0.1,0.1-0.2,0.2-0.2H242.6z M242.6,86l-0.4-4.2h0.7l0.4,4.2H242.6z"/>
<path class="st2" d="M244.8,82.5c0.4-0.4,1-0.7,1.6-0.7c0.7,0,1.1,0.4,1.1,1.2l0.2,3.1h-0.7l-0.2-2.9c0-0.5-0.2-0.7-0.5-0.7
	c-0.5,0-1,0.3-1.3,0.6l0.3,3h-0.7l-0.4-4.2h0.6L244.8,82.5z"/>
<path class="st2" d="M250.4,82.1c0.6-0.1,1.2-0.2,1.9-0.1c0.9,0,1.4,0.4,1.5,1.5l0.2,2.9h-0.6l-0.1-0.7c-0.4,0.4-0.9,0.7-1.5,0.7
	c-0.7,0-1.2-0.5-1.2-1.2c0,0,0,0,0,0v-0.4c-0.1-0.5,0.2-0.9,0.7-1c0.1,0,0.2,0,0.3,0l1.5,0.1v-0.3c0-0.5-0.2-0.7-0.8-0.7
	c-0.4,0-1,0-1.6,0.1L250.4,82.1z M251.2,85.1c0,0.4,0.2,0.6,0.6,0.6c0.5,0,0.9-0.2,1.3-0.5l0-0.8l-1.4-0.1c-0.4,0-0.4,0.2-0.4,0.5
	L251.2,85.1z"/>
<path class="st2" d="M258.5,84.3l0.1,1.5H258l-0.1-1.5l-1.5-0.1v-0.6l1.5,0.1l-0.1-1.6h0.6l0.1,1.6l1.5,0.1v0.6L258.5,84.3z"/>
<path class="st2" d="M266.1,86.7c-0.4,0.1-0.9,0.2-1.4,0.2c-1.4-0.1-1.9-0.7-2-2.3s0.4-2.3,1.8-2.2c0.5,0,0.9,0.1,1.3,0.3l-0.1,0.6
	c-0.4,0-0.8-0.1-1.1-0.1c-0.9,0-1.2,0.3-1.2,1.5s0.4,1.6,1.3,1.6c0.4,0,0.8,0,1.2-0.1L266.1,86.7z"/>
<path class="st2" d="M270.6,84.9c0,1.7-0.5,2.3-1.9,2.2s-1.9-0.7-2-2.3s0.5-2.3,1.9-2.3S270.5,83.2,270.6,84.9z M267.6,84.8
	c0,1.2,0.3,1.6,1.1,1.6s1.1-0.3,1.1-1.5s-0.3-1.6-1.1-1.6S267.5,83.5,267.6,84.8L267.6,84.8z"/>
<path class="st2" d="M272.3,85.1c-0.6-0.1-1.1-0.7-1-1.3c0-1,0.5-1.2,1.6-1.2c0.6,0,1.2,0.1,1.8,0.2l-0.1,0.6c-0.5,0-1-0.1-1.6-0.1
	c-0.7,0-1,0-1,0.5s0.2,0.5,0.6,0.6l1.2,0.3c0.6,0.1,1.1,0.6,1,1.3c0,1.1-0.5,1.2-1.8,1.2c-0.5,0-1.1-0.1-1.6-0.2l0-0.6
	c0.4,0,0.9,0.1,1.4,0.1c0.9,0,1.2,0,1.1-0.5s-0.2-0.5-0.6-0.6L272.3,85.1z"/>
<path class="st2" d="M277.8,82.9c0.7-0.1,1.4-0.2,2-0.1c1,0,1.5,0.4,1.5,1.5v3.1h-0.6l-0.1-0.7c-0.4,0.5-1,0.7-1.7,0.7
	c-0.7,0-1.2-0.5-1.3-1.1c0-0.1,0-0.1,0-0.2v-0.5c0-0.6,0.4-1,0.9-1.1c0.1,0,0.2,0,0.3,0l1.7,0.1v-0.3c0-0.6-0.2-0.7-0.8-0.8
	c-0.4,0-1.1,0-1.8,0L277.8,82.9z M278.4,86c0,0.4,0.2,0.6,0.6,0.6c0.5,0,1-0.2,1.4-0.6v-0.8l-1.5-0.1c-0.4,0-0.5,0.2-0.5,0.6
	L278.4,86z"/>
<path class="st2" d="M284.5,84.2v-0.7l3.9,0.1v0.7L284.5,84.2z M284.5,86.2v-0.6l3.9,0.1v0.7L284.5,86.2z"/>
<path class="st2" d="M292.6,87.8l0.2-4.9c0-0.2,0-0.4,0.1-0.6l-1.5,0.4l-0.1-0.7l1.6-0.6h0.9l-0.3,6.4L292.6,87.8z"/>
<path class="st2" d="M236.6,62.7c-0.7-0.1-1.2-0.8-1.1-1.5c0,0,0,0,0,0c0-1.2,0.6-1.5,2.1-1.4c0.7,0,1.5,0.1,2.2,0.2l-0.1,0.8
	c-0.6,0-1.3-0.1-2-0.1c-0.9,0-1.2,0-1.2,0.6s0.2,0.6,0.7,0.7l1.5,0.4c0.8,0.3,1.2,0.6,1.2,1.5c0,1.3-0.7,1.5-2.3,1.5
	c-0.7,0-1.4-0.1-2.1-0.2l0.1-0.8c0.5,0.1,1.1,0.1,1.8,0.1c1.1,0,1.5-0.1,1.5-0.6s-0.3-0.6-0.8-0.7L236.6,62.7z"/>
<path class="st2" d="M243.5,61.3v-0.8l4.8,0.1v0.8L243.5,61.3z M243.5,63.7v-0.8l4.8,0.1v0.8L243.5,63.7z"/>
<path class="st2" d="M261.7,66c0.8-0.2,1.7-0.2,2.5-0.2c1.5,0,2.5,0.4,2.5,1.8c-0.1,1.1-0.6,2.1-1.5,2.8l-2.3,2.4c0.4,0,0.9,0,1.3,0
	l2.6,0.1v1.1l-5.4-0.2v-0.7c0-0.2,0.1-0.4,0.2-0.5l2.3-2.4c1-1.1,1.5-1.8,1.5-2.6s-0.5-0.8-1.4-0.9c-0.8,0-1.6,0-2.3,0.1L261.7,66z"
	/>
<path class="st2" d="M254.4,51.6c-1.5,0.7-2.1,2.3-2.2,4.8s0.5,4.1,2,4.9l-0.1,0.5c-2.1-0.8-3-2.5-2.9-5.4s1-4.6,3.1-5.3L254.4,51.6
	z"/>
<path class="st2" d="M254.9,54.6c0.9-0.1,1.8-0.2,2.7-0.2c1.3,0,2,0.4,1.9,1.8l-0.1,3.9h-0.9l-0.1-0.9c-0.6,0.6-1.4,0.9-2.2,0.9
	c-0.8,0.1-1.6-0.5-1.7-1.3c0-0.1,0-0.2,0-0.3v-0.6c0-0.9,0.6-1.4,1.6-1.4h2.2v-0.4c0-0.7-0.2-0.9-1.1-0.9c-0.5,0-1.5,0.1-2.4,0.1
	L254.9,54.6z M255.6,58.4c0,0.5,0.2,0.8,0.8,0.8c0.7,0,1.4-0.3,1.9-0.7v-1h-2c-0.5,0-0.7,0.3-0.7,0.7L255.6,58.4z"/>
<path class="st2" d="M263.9,57.1v2h-0.9v-2h-2.1v-0.8h2.1v-2h0.9v2h2.2v0.8L263.9,57.1z"/>
<path class="st2" d="M268.7,54.2c0,0.4,0,0.9-0.1,1.3c0.6-0.6,1.4-1,2.2-1c1.4,0,2.1,0.8,2.1,3c0,1.9-0.6,3-2.7,3
	c-0.9,0-1.8-0.2-2.7-0.5l0.1-7.8h1.1L268.7,54.2z M268.7,59.3c0.5,0.1,1,0.2,1.5,0.2c1,0,1.5-0.5,1.5-2s-0.2-2-1.3-2
	c-0.6,0.1-1.2,0.3-1.7,0.8L268.7,59.3z"/>
<path class="st2" d="M273.4,51.1c2.2,0.8,3.2,2.6,3.2,5.6s-1.1,4.8-3.3,5.6l-0.1-0.5c1.6-0.8,2.3-2.4,2.3-5s-0.6-4.3-2.2-5.1
	L273.4,51.1z"/>
<path class="st2" d="M282.1,54.4c0,0.4,0,0.7-0.1,1.1c0.8-0.6,1.7-0.9,2.7-1c0.8-0.1,1.5,0.5,1.6,1.3c0,0.1,0,0.2,0,0.3v4.4h-1.2v-4
	c0-0.7-0.2-1-0.8-1c-0.8,0.1-1.6,0.4-2.3,0.8v4.1h-1.2l0.1-8.3h1.2L282.1,54.4z"/>
<polygon class="st2" points="285.5,63.2 249.5,62.4 249.5,63 285.5,63.9 "/>
<path class="st2" d="M279,57.9c0,0.3-0.3,0.6-0.6,0.6s-0.6-0.3-0.6-0.6c0-0.3,0.3-0.6,0.6-0.6c0,0,0,0,0,0
	C278.7,57.3,279,57.6,279,57.9z"/>
<path class="st2" d="M290,63.6c0,0.3-0.3,0.6-0.6,0.6c0,0,0,0,0,0c-0.3,0-0.6-0.3-0.6-0.6c0,0,0,0,0,0c0-0.3,0.3-0.6,0.6-0.6
	c0,0,0,0,0,0C289.7,63,290,63.3,290,63.6z"/>
<path class="st2" d="M293.2,60.2c0.8-0.6,1.8-1,2.8-1c0.8-0.1,1.6,0.5,1.7,1.4c0,0.1,0,0.2,0,0.3v4.5h-1.3v-4.1c0-0.8-0.2-1-0.8-1
	c-0.8,0.1-1.6,0.4-2.3,0.8v4.2h-1.3v-5.9h1.1L293.2,60.2z"/>
<polygon class="st4" points="217.9,129.3 402.5,135 402.5,140.6 218.4,132.7 "/>
<path class="st4" d="M458.2,60.1l-2.3,5.8c-0.7,0.1-1.5,0.3-2.2,0.5l-5-3.9l-3.6,4.1l3.5,4.3c-0.5,0.8-0.8,1.7-1,2.7l-5.9,2.1
	l1.8,5.1l5.4-0.6c0.5,0.8,1.1,1.5,1.8,2.1l-1.1,5.9l5.7,1.9l2.6-5.4c1,0,1.9-0.2,2.8-0.6l4.6,4l3.8-3.9l-3.2-4.6
	c0.7-1.2,1-2.5,1.1-3.8l5.9-2.6l-2.1-5l-5.9,1c-0.5-0.6-1.1-1.2-1.8-1.7l0.8-6.2L458.2,60.1z M457.2,70.2c2.9,0.1,5.1,2.5,5,5.4
	c-0.1,2.9-2.5,5.1-5.4,5c-2.8-0.1-5-2.4-5-5.2C451.9,72.5,454.3,70.1,457.2,70.2L457.2,70.2z"/>
<path class="st12" d="M149.8,65.2l-5.9-0.4l-0.3,4.2c-0.1,1.5,1.1,2.8,2.6,2.9c0,0,0,0,0,0h0.4c1.5,0.1,2.8-1,2.9-2.5c0,0,0,0,0,0
	L149.8,65.2z"/>
<path class="st13" d="M159.3,55.3c0.6-6.5-4.2-12.2-10.7-12.8s-12.2,4.2-12.8,10.7c-0.6,6.5,4.2,12.2,10.7,12.8c0.1,0,0.2,0,0.3,0
	C153.2,66.5,158.8,61.7,159.3,55.3z"/>
<path class="st2" d="M155,55c0.3-4.2-2.9-7.9-7.2-8.1s-7.9,2.9-8.1,7.2c-0.3,4.2,2.9,7.9,7.2,8.1C151,62.5,154.7,59.2,155,55
	C155,55,155,55,155,55z"/>
<path class="st13" d="M147.7,53.9L147.7,53.9c-0.6,0-1.1,0.4-1.1,1l-0.4,7c0,0.6,0.4,1.1,1,1.1c0,0,0,0,0,0l0,0c0.6,0,1.1-0.4,1.1-1
	c0,0,0,0,0,0l0.4-7C148.7,54.5,148.3,54,147.7,53.9C147.7,54,147.7,54,147.7,53.9z"/>
<path class="st14" d="M356.6,239.5c0,0,14.2-7.6,24-4.6s18.8,12.5,18.8,12.5l-22.5,11.9L356.6,239.5z"/>
<path class="st13" d="M360.8,244.3l3.8-22.9l34.1,7.4l-4.4,23.9C394.3,252.6,372.5,275.1,360.8,244.3z"/>
<path class="st15" d="M356.6,239.5l-4,24.6l40.9,7.8l5.9-24.6c0,0-16.3,4-22.8,11.5C376.6,258.9,368.6,244.8,356.6,239.5z"/>
<path class="st2" d="M367.6,229.8l25.3,4.7l-0.2,1.2l-25.3-4.7L367.6,229.8z"/>
<path class="st2" d="M369.7,236.7l19.3,3.6l-0.2,1.2l-19.3-3.6L369.7,236.7z"/>
<path class="st2" d="M368.9,233.4l21.1,3.9l-0.2,1.2l-21.1-3.9L368.9,233.4z"/>
<path class="st2" d="M371.9,240.2l13.4,2.5l-0.2,1.2l-13.4-2.5L371.9,240.2z"/>
<polygon class="st3" points="18.1,9.1 103.8,5.1 103.8,94.5 32,111.2 "/>
<polygon class="st2" points="25.7,17 34.2,61.4 62.4,57.5 59.9,15.7 "/>
<polygon class="st2" points="35.3,68.4 99.5,58.9 99.3,62.4 35.6,72.4 "/>
<polygon class="st2" points="35.3,76.6 99.5,67.1 99.3,70.6 35.6,80.6 "/>
<polygon class="st2" points="35.8,85.3 100,75.9 99.8,79.3 36.2,89.4 "/>
<polygon class="st2" points="65.6,57 97.8,53.3 98,50.4 65.6,54.1 "/>
<polygon class="st2" points="65,50.4 97.3,46.8 97.5,43.9 65,47.5 "/>
<polygon class="st2" points="65.4,44.2 97.6,40.6 97.8,37.7 65.4,41.3 "/>
<polygon class="st2" points="64.8,37.7 97.1,34 97.3,31.1 64.8,34.7 "/>
<polygon class="st2" points="64.8,31.1 97.1,27.5 97.3,24.5 64.8,28.2 "/>
<polygon class="st2" points="64.3,24.5 96.6,20.9 96.7,18 64.3,21.6 "/>
<polygon class="st16" points="37.3,43 35.5,48.5 48,54.2 57.9,20.6 53.7,18.6 44.9,48.3 "/>
<path class="st17" d="M56.1,308.7c0,0,8.1,0.7,11,2.5c2.9,1.7-10.5,4.8-17.3,4.8S56.1,308.7,56.1,308.7z"/>
<path class="st18" d="M67.6,311.7l-2.7,25.9c0,0-4.1,3.3-11.5,2.6s-8.3-2.3-8.3-2.3l-3-23L67.6,311.7z"/>
<path class="st19" d="M46.3,297.3c0,0-10.3-2.7-11.3-6.6s3-4.6,8.4-1.7c5.4,2.8,3.9-4.9-2.3-6.9S29,271.7,33,270
	c4-1.8,11.1,5.8,13,6.5c1.9,0.7,2.7-5.9-4.3-9.3c-7-3.4-10.7-15-5-17.9s12.8,9.5,16.6,15.1s3.5,10.8,5.9,11.3s-1.2-7.7,3.7-11.3
	c4.9-3.6,7.7,5.5,7.1,11.4c-0.7,5.9-9.5,13-7.6,14.8c1.9,1.8,4.1-7.9,8-6.1c3.9,1.8,2.8,7.7-0.8,14.6c-2.4,4.4-5.7,8.2-9.7,11.2
	c0,0-14.7,0.1-17.2-5.3c-2.4-5.5,3.4-5.7,7.9-2.8C55.3,305,48.8,297.1,46.3,297.3z"/>
<path class="st20" d="M42.2,308.2c0,0-9.2,0.7-11-2.3s1.1-4.5,6.4-3.8s1.8-5.1-3.8-5c-5.5,0.1-12.8-5.1-10-7.7s10.6,1.7,12.4,1.7
	c1.8,0,0.6-5.5-6.1-6.4s-12.9-9.2-9-13.2s13,4.2,17.8,7.7c4.7,3.5,5.8,7.8,7.9,7.5s-3.1-5.9-0.2-10.2s7.8,2.3,8.9,7.3
	s-4.1,13.3-2.1,14.1c2,0.9,1.1-7.6,4.8-7.2c3.7,0.4,4.4,5.5,3.4,12.1c-0.7,4.3-2.4,8.3-4.8,11.9c0,0-11.9,4.2-15.5,0.4
	c-3.5-3.8,1.2-5.6,5.7-4.5S44.2,307.3,42.2,308.2z"/>
<path class="st18" d="M124.1,107.9c0,0-11.8,9-9.8,11.4s12.4-4,14.3-6.6S124.1,107.9,124.1,107.9z"/>
<path class="st17" d="M305.7,225.6l-12,86.4c0,0-13.1,30.1-82.1,37.2c-68.9,7.1-121.5-14.8-121.5-14.8L77,256.2L305.7,225.6z"/>
<polygon class="st17" points="81.4,186.7 87.7,232.4 93.4,231.9 85.8,184.8 "/>
<path class="st17" d="M62.3,160.5c-3.3,7.1,0,24.6,9.5,29.7c9.5,5.1,19.9-8.2,23.3-9.7c3.5-1.5,19,7.1,24.1,1.1s4.8-16.8-0.4-31.2
	C115.3,140.8,70.6,142.2,62.3,160.5z"/>
<path class="st21" d="M180.6,191.2c-5.7-1.4-10.6-4.9-13.7-9.8c-5.5-8.4,5.1-15.3,5.1-15.3s11.5,1.6,11.5,2.4
	S180.6,191.2,180.6,191.2z"/>
<path class="st10" d="M142.5,138.7c-3-7.4,5.9-13.9,11.9-8.7l0.3,0.2c8.9,7.6,30.6,39.3,30.6,39.3l-18.4,11.9
	C166.9,181.4,150.7,158.4,142.5,138.7z"/>
<path class="st11" d="M172.6,183.7l-8.7-55.8c0,0-4.6-4-5.4-6.7s-3.6-4.2-2.6-5s4.6,2.2,4.9,3.4c0,0,2-6.4,3.1-7.1s2,0.3,1.8,1.6
	c0,0,1.1-1,1.8-0.9s1.2,1.3,1.2,2.1c1.3,0.8,2.6,1.7,3.8,2.7c1,1.1-0.7,9.5-0.7,9.5s14,40.8,14.8,50.7s-6.2,13.1-6.2,13.1
	S174,189.6,172.6,183.7z"/>
<path class="st22" d="M133.3,123.1c0,0-16,2-20.5,23.5s-5.7,78.7-5.7,78.7l60.2-13.4c0,0,3.5-57.1-7.7-75.7
	c-6.5-10.8-13.7-10.6-13.7-10.6L133.3,123.1z"/>
<path class="st23" d="M317.6,233.4c-130,68.7-148.8,32.1-217,32.1s-60.7-23,3.8-39.4c72.9-18.5,80-22.9,148.3-22.3
	C334.7,204.7,328.1,227.9,317.6,233.4z"/>
<path class="st9" d="M161.7,233.5l-0.3,2.2l28.6,7.7c0,0,11.8-10.7,22.3-12.3l2.2-1c0,0,4.5-3.1,7.7-4.1c2.1-0.6,4.2-1,6.4-1.1
	l-0.3-2.2c0,0-10.7,0.8-16.3,5.9c0,0-14.8,2.6-22.3,11.4L161.7,233.5z"/>
<path class="st24" d="M179.5,218.7l-6.6-9.9l2.3-1.4c0,0,7.7,9.6,7.7,10S182.1,219.7,179.5,218.7z"/>
<path class="st22" d="M176.4,214.6c-0.3-0.3-0.8-0.4-1.2-0.2l-1.8-3c0,0,0.3-0.5,0.6-0.9c0.9-0.6,2.7-2,2.7-2l-1.2-1.9l-0.5,0.3
	c0,0-1.4-1.8-2.6-1.9s-0.5,2.4,0.2,3.4l-0.7,0.4l0.6,0.7c-0.3,0.9-0.3,1.9,0.2,2.8c0.9,1.7,2.6,3.4,3.4,3.6S177.1,215.2,176.4,214.6
	z"/>
<path class="st24" d="M189,225.5l1.3,2.1l0.2,3.3l0,0l-2.7-1l-2.1-2.4L189,225.5z"/>
<path class="st11" d="M149.5,91.4c1.5,2.3,2.6,6.6,4.2,10s5.6,3.2,5.6,3.2l-2.1,3.9c0,0,0.6,7.1-2.2,9.9s-8.3,2.2-8.3,2.2l-2.3,7.6
	l-10.5-5l1.9-9.2c0,0-2.3-13.5,1.3-19.6S147.7,88.6,149.5,91.4z"/>
<path class="st25" d="M127.1,111.5c0,0-9.3-7.2-4-18.7s17.3-15.8,26.8-5L127.1,111.5z"/>
<path class="st10" d="M148.8,90.9c0,0-0.2,4.6-8.5,7.1c0,0,1.6,4.2-0.2,7.6c0,0-0.5-2.5-2.9-2.3s-4.6,4.1-2.7,6.6s0.6,7.8,0.6,7.8
	s-4.2-0.8-8.1-6.7S149.1,87,149.1,87c4.2,2.6,4.3,4.5,2.3,8.6C151.4,95.6,150.5,91.9,148.8,90.9z"/>
<path class="st10" d="M145.1,99.1c0,0,0.5-2.3,2-2.6c0.8-0.2,1.7,0.2,2.1,1C147.7,97.6,146.2,98.1,145.1,99.1z"/>
<path class="st10" d="M150.4,102.5c0.1,1.1-0.2,2-0.6,2s-0.8-0.8-0.9-1.9s0.2-2,0.6-2S150.4,101.5,150.4,102.5z"/>
<path class="st26" d="M161.7,233.5l28.9,7c0,0,10.1-9.7,21.5-11c0,0,7.8-5.9,16.2-6.1l-0.4-3.6l-25.1-5.1
	c-6.3,0.7-12.4,3.2-17.3,7.2c0,0-19,1.7-25.1,8.6L161.7,233.5z"/>
<path class="st27" d="M188.3,222.8l23.1,5.6C211.3,228.4,196.8,219.8,188.3,222.8z"/>
<path class="st10" d="M156.4,111.6l-4.8,1.8C151.6,113.4,153.6,110.3,156.4,111.6z"/>
<path class="st10" d="M134.2,121.8l10.5,6.3c0,0-2.9,3.1-6.7,1.5s-4.6-6.5-4.6-6.5L134.2,121.8z"/>
<path class="st11" d="M190.2,224.6c-0.2-1.6-5.4-7.5-7.4-7.2s-15.1,2.9-15.1,2.9l-60.4-13.5l7.3-18.6l-17.7-3.3c0,0-7.1,25-4,32.8
	s72.8,13,72.8,13c4.6,2.6,15.5,3.4,17.2,3c1.1-0.3,2.1-1,2.6-2c1.6-0.3,1.6-2.4,1.6-2.4c1.2-0.5,1.8-1.9,1.4-3.1
	C188.5,226.3,190.4,226.2,190.2,224.6z"/>
<path class="st10" d="M148.1,128.1c1.2-0.8,0.5-3.2-2.3-4.8l-1.4,4.7C144.4,127.9,146.9,128.9,148.1,128.1z"/>
<path class="st10" d="M114.4,139.5c4-6.9,14.6-3.7,14.1,4.2c0,0.1,0,0.2,0,0.3c-0.7,11.7-12.8,48.1-12.8,48.1l-20.6-7.5
	C95.1,184.7,103.6,157.9,114.4,139.5z"/>
<polygon class="st22" points="90.1,249.6 116,253.2 140.7,247.6 140.5,241.5 117.9,238.9 89.5,241.4 "/>
<polygon class="st9" points="89.9,241.9 115.7,245.5 139.3,240.2 139.3,232.6 117.7,231.2 89.2,233.6 "/>
<polygon class="st24" points="89.3,233.6 115.2,237 139.8,231.1 139.6,225.1 115.9,220.4 88.5,225.3 "/>
<polygon class="st26" points="91.2,243.4 91.9,248.8 113.1,252 113,246.9 "/>
<polygon class="st26" points="91,235 91.8,240.5 114.3,244.2 113.8,237.8 "/>
<polygon class="st26" points="89.9,227.5 90.4,232.4 114.6,235.8 114,231.1 "/>
<polygon class="st10" points="197.4,248.7 202.2,247.2 203.7,249.8 199.5,251.8 "/>
<polygon class="st28" points="218.6,240.9 222.2,241.3 220.5,243.4 203.7,249.8 202.2,247.2 "/>
<path class="st26" d="M241.8,235.6c-1.8,0-3.5-0.1-5.2-0.3c-2.9-0.4-5.8-1.2-5.4-3.2c0.4-2.4,3.3-3,5.2-3.1c0.6,0,1.2,0,1.8,0
	l3.4,0.2L241.8,235.6z"/>
<path class="st29" d="M134.2,102.1c0,0-9.1-11.5-4.4-17.7c0,0-0.4-0.9-1.9-0.2s-7.3,8.8,2.3,21L134.2,102.1z"/>
<path class="st22" d="M241.8,235.6c-1.8,0-3.5-0.1-5.2-0.3l-0.2-6.3c0.6,0,1.2,0,1.8,0l3.4,0.2L241.8,235.6z"/>
<path class="st30" d="M141.5,113.3c-4.2,6.2-12.3,1.8-11.6-7.6S146.9,105.3,141.5,113.3z"/>
<path class="st29" d="M137.1,111.7c-2.2,3.3-6.6,0.9-6.2-4.1S140,107.4,137.1,111.7z"/>
<path class="st18" d="M148.3,133.4c0.1,1.1-0.6,2-1.3,2.1s-1.5-0.8-1.6-1.9s0.5-2,1.3-2.1S148.3,132.3,148.3,133.4z"/>
<path class="st18" d="M149.7,139.9c0.1,1.1-0.5,2-1.3,2.1s-1.5-0.8-1.6-1.9s0.6-2,1.3-2.1S149.6,138.9,149.7,139.9z"/>
<polygon class="st28" points="246.1,241.2 272.3,227.2 277.3,228.6 251,243.4 "/>
<polygon class="st24" points="239.6,201.9 247.2,166.8 295.3,169.9 287.4,206.3 "/>
<polygon class="st24" points="240.1,201.8 219.7,208.9 220.1,211.5 268.4,221.3 286.8,210.1 287.4,206.3 "/>
<polygon class="st26" points="242.3,200.1 283.5,205.3 290.8,174.1 249,170.7 "/>
<polygon class="st28" points="241,202.9 281.2,208.6 266.3,217 223.6,209.2 "/>
<polygon class="st22" points="264.4,185.9 249.7,184.6 251.7,174.4 266.2,175.3 "/>
<path class="st8" d="M267,190.9l-2.7,3.7l-4.7-3.2l-0.9,1.5c0,0,4.9,4.5,5.5,4.6s3.1-2.6,3.1-2.6L267,190.9z"/>
<path class="st9" d="M273.9,191.2l1.3,1c0,0-2.5,4.6-2.8,8.7l-6-1.5c0.1-2.8,0.3-5.6,0.6-8.4c0.9-0.4,1.9-0.5,2.8-0.4
	c0.3,0,0.9,0.6,1.1,0.6C272,191.3,272.9,191.3,273.9,191.2z"/>
<path class="st2" d="M269.9,190.9l-0.5,5.2l2.7-5.3c0,0-1.8,0.3-2.1-0.5L269.9,190.9z"/>
<path class="st8" d="M272.1,189.9c0,0,1.3,1.4,0.8,2.1c-0.4,0.5-0.9,0.9-1.5,1.1c0.2,0.7,0,1.5-0.6,2c-0.5,0.6-1,1-1.7,1.4
	L272.1,189.9z"/>
<path class="st10" d="M271.1,183.6c-0.8-0.2-1.6,0.1-2.1,0.7c-0.8,1-0.5,1.6-0.5,1.6c-0.6,0.3-0.9,1-0.9,1.6
	c-0.8,0.6-1.1,1.7-0.6,2.6c0.9,1.5,2.4,1.3,3.3-0.2c0.8-1.8,1.5-3.6,2-5.4C272.3,184.4,272.4,183.9,271.1,183.6z"/>
<path class="st11" d="M268.8,188.1c0.2,0.9,1.4,1.1,1.4,1.1v0.9l1.5,0.1l0.7-3.8c0,0-1.3-1.6-2.5-1.7
	C269.5,184.6,268.3,186.1,268.8,188.1z"/>
<path class="st10" d="M269.8,184.8c0.1,0.6,0.3,1.1,0.7,1.6c0.2,0.2,0.5,0.4,0.8,0.5c0,0-0.3,0.9,0.1,1.2l0.4,0.4c0,0-0.8,2.2,0.2,3
	c0.7,0.6,1.7,0.6,2.3-0.1c0.2-0.2,0.3-0.4,0.4-0.6c0.3-0.7,0.1-1.5-0.5-2.1c0.3-0.4,0.4-0.9,0.3-1.4c-0.2-0.4-0.5-0.8-0.9-1
	c0.2-0.7,0.1-1.4-0.4-1.9C272.2,183.7,269.9,183.9,269.8,184.8z"/>
<path class="st8" d="M270.2,190.1l-0.8,6.1c-0.7-0.8-0.8-2-0.2-2.9c0,0-1.2-1.7-0.5-2.8S270.2,190.1,270.2,190.1z"/>
<path class="st8" d="M275.2,192.1l0.5,6.7l4.5-0.9l0.2,1.8c0,0-4.7,1.7-5.9,1.5s-1.8-3.7-1.8-3.7S273,192.6,275.2,192.1z"/>
<polygon class="st8" points="266.4,199.4 272.4,200.6 272.3,201.8 266.1,200.6 "/>
<polygon class="st9" points="265,203 266.1,200.6 272.3,201.8 272.9,203.9 "/>
<path class="st11" d="M280.1,198.1c0.2-0.3,0.5-0.6,0.8-0.8c0.4-0.1,0.8-0.2,1.1-0.2c0.1,0-0.1,0.4-0.4,0.4c0.6,0.1,1.1,0.2,1.6,0.4
	c0.2,0.2-0.2,0.3-0.2,0.3s0.4,0.2,0.3,0.3s-0.4,0.1-0.4,0.1s0.4,0.1,0.1,0.2c-0.1,0.1-0.3,0.1-0.4,0.2c0,0,0.2,0.2-0.1,0.3
	s-1.9,0.3-1.9,0.3c-0.5-0.2-0.8-0.7-0.6-1.3C280,198.2,280,198.1,280.1,198.1z"/>
<path class="st11" d="M259.9,191.7c0,0-0.6-0.9-0.8-1.1c-0.2-0.2-0.4-0.2-0.7-0.1c-0.4-0.3-0.8-0.5-1.3-0.7c-0.2,0-0.3,0.3,0.4,0.8
	c0,0-0.2,0.3-0.1,0.5c0,0-0.2,0.4-0.1,0.5c0,0-0.1,0.1,0.1,0.4c0.2,0.3,0.6,0.5,0.9,0.7c0.3,0.2,0.7,0.3,1.1,0.1
	C259.8,192.7,260.2,191.9,259.9,191.7z"/>
<ellipse class="st31" cx="199.8" cy="369.7" rx="6.5" ry="6.6"/>
<path class="st32" d="M203.6,370.4c-0.2,1.2-1.4,2-2.6,1.7c-1.2-0.2-2-1.4-1.7-2.6c0.2-1,1.1-1.8,2.2-1.8
	C202.8,367.9,203.8,369.1,203.6,370.4z"/>
<ellipse class="st31" cx="239.9" cy="356" rx="6.5" ry="6.6"/>
<path class="st32" d="M243.8,356.7c-0.2,1.2-1.4,2-2.6,1.8c-1.2-0.2-2-1.4-1.8-2.6c0.2-1,1.1-1.8,2.2-1.8
	C242.9,354.2,243.9,355.4,243.8,356.7z"/>
<ellipse class="st31" cx="183.1" cy="365" rx="6.5" ry="6.6"/>
<path class="st32" d="M186.9,365.7c-0.2,1.2-1.4,2-2.6,1.7c-1.2-0.2-2-1.4-1.7-2.6c0.2-1,1.1-1.8,2.2-1.8
	C186.1,363.2,187,364.4,186.9,365.7z"/>
<path class="st9" d="M248.6,344c-2.8,6.3-12.7,12.1-27.6,18.3c-15,6.1-46.1,6.2-54.1,0.3c-1.1-0.8-0.9-1.8,0.2-3
	c7.4-7.5,55.1-21.3,71.5-23c1.7-0.2,3.1-0.3,4.4-0.3h0.1c1.3,0,2.5,0.1,3.8,0.3c1.9,0.4,2.8,1.3,3,2.7l0,0
	C249.8,340.9,249.4,342.5,248.6,344z"/>
<path class="st18" d="M249.8,339.2L249.8,339.2c-2.5,5.2-19.3,18.3-41.5,23.2c-13.7,3.1-28.1,2.2-41.3-2.8
	c7.4-7.5,55.1-21.3,71.5-23c1.7-0.2,3.1-0.3,4.4-0.3h0.1c1.4,0.1,2.7,0.2,3.8,0.3c1.8,0.2,3,0.6,3.2,1.1
	C250.2,338.1,250.1,338.7,249.8,339.2z"/>
</svg>
