<svg id="OBJECT" xmlns="http://www.w3.org/2000/svg" viewBox="0 0 477.16 401.67"><defs><style>.cls-1{fill:#dfdef9;}.cls-2{fill:#bbbbea;}.cls-3{fill:#fff;}.cls-4{fill:#cbcbef;}.cls-5{fill:#cf4339;}.cls-6{fill:#e8ae4a;}.cls-7{fill:#5ba69c;}.cls-8{fill:#7f5e40;}.cls-9{fill:#e0922f;}.cls-10{fill:#2a2760;}.cls-11{fill:#ff9c7d;}.cls-12{fill:#cb685c;}.cls-13{fill:#4a4481;}.cls-14{fill:#ffd40f;}.cls-15{fill:#ad5449;}.cls-16{fill:#9c7b53;}.cls-17{fill:#42897d;}.cls-18{fill:#9fc54d;}.cls-19{fill:#ea7a5c;}.cls-20{fill:#f2c99e;}.cls-21{fill:#4675b8;}.cls-22{fill:#f1f1f2;}.cls-23{fill:#d0d1d3;}.cls-24{fill:#6695cc;}.cls-25{fill:#4f5aa8;}.cls-26{fill:#333b8c;}.cls-27{fill:#59595b;}.cls-28{fill:#929496;}</style></defs><path class="cls-1" d="M27.67,373.51S207.3,335.75,340.23,348c126.92,11.67,175.34,40.37,135.31,65.65-34.65,21.88-98.84,28.45-155,41.58s-173.24,25.53-238.16-16S-6.61,387.37,27.67,373.51Z" transform="translate(-12.09 -66.05)"/><polygon class="cls-2" points="197.94 23.71 198.49 145.16 426.62 163.76 428.81 20.97 197.94 23.71"/><polygon class="cls-3" points="220.08 42.5 218.37 132.7 402.55 140.59 401.86 43.18 220.08 42.5"/><polygon class="cls-4" points="322.13 164.31 423.34 173.06 423.34 187.28 322.68 176.89 322.13 164.31"/><polygon class="cls-4" points="322.13 183.27 423.34 192.02 423.34 206.25 322.68 195.85 322.13 183.27"/><polygon class="cls-3" points="206.69 36.65 416.77 36.84 416.77 29.73 206.15 30.27 206.69 36.65"/><polygon class="cls-1" points="199.03 18.96 427.35 16.78 427.71 0 199.4 2.92 199.03 18.96"/><ellipse class="cls-5" cx="410.34" cy="8.66" rx="5.88" ry="5.74"/><ellipse class="cls-6" cx="390.92" cy="8.66" rx="5.33" ry="5.21"/><ellipse class="cls-7" cx="372.6" cy="8.66" rx="3.97" ry="3.87"/><polygon class="cls-7" points="308.81 92.27 225.29 89.72 225.84 47.23 309.91 47.05 308.81 92.27"/><path class="cls-8" d="M336.54,160.19l-7.39,15.73-19.92-8.66-2.37,6.2S328.24,187,330.57,187s9.66-11.86,9.66-11.86Z" transform="translate(-12.09 -66.05)"/><path class="cls-9" d="M362.39,156.23,368,159s-6.25,18.88-4.43,34.38l-23.47-1.28s-3.83-24.34-3.56-31.87c0,0,2.26-2,10.19-3.62,1.1-.23,3.65,1.63,4.65,1.57A50.4,50.4,0,0,0,362.39,156.23Z" transform="translate(-12.09 -66.05)"/><path class="cls-3" d="M347.41,158l1.78,19.9,6.36-21.75s-6.63,2.26-8.34-.48Z" transform="translate(-12.09 -66.05)"/><path class="cls-8" d="M355,152.67s5.88,4.1,4.52,7.39a11.5,11.5,0,0,1-4.79,5.06s2,3.28-.68,7.79a25,25,0,0,1-5.2,6.43Z" transform="translate(-12.09 -66.05)"/><path class="cls-10" d="M346.66,129.76s-5.33-.2-7.45,4.17-.55,6.3-.55,6.3-3.42,3-2.19,6.77c0,0-4.92,5.06-.34,10s9.92,3,12.24-3.21S352.06,132,352.06,132,351.79,130.52,346.66,129.76Z" transform="translate(-12.09 -66.05)"/><path class="cls-11" d="M341.51,148.48c1.5,3.09,5.83,3.1,5.83,3.1l.55,3.28,5.47-.73-.18-14.77s-5.94-5.11-10.55-4.67C341.56,134.79,338,141.18,341.51,148.48Z" transform="translate(-12.09 -66.05)"/><path class="cls-10" d="M342.69,135.26s1.28,4.19,3.74,5.38a9.71,9.71,0,0,0,3.29,1.18s-.55,3.47,1.09,4.56l1.64,1.09s-1.46,8.76,2.83,11.22,8.39.09,9.48-4.29-3.19-7.56-3.19-7.56,1.55-3.29-.09-5.57a8.6,8.6,0,0,0-4.2-3s.82-4.65-2.82-6.75S342.69,131.79,342.69,135.26Z" transform="translate(-12.09 -66.05)"/><path class="cls-8" d="M347.89,154.86l1.37,23.34s-5.38-3.65-2.64-10.67c0,0-5.57-5.56-3.65-10S347.89,154.86,347.89,154.86Z" transform="translate(-12.09 -66.05)"/><path class="cls-8" d="M368,159l6.7,24.53,16.23-6.56,2,6.38S376.7,193,371.78,193s-9.3-12.58-9.3-12.58S360.2,162.15,368,159Z" transform="translate(-12.09 -66.05)"/><polygon class="cls-8" points="328.01 126.01 351.31 126.38 352.03 131.12 327.78 130.75 328.01 126.01"/><polygon class="cls-9" points="325.96 137.13 327.78 130.75 352.03 131.12 355.68 138.59 325.96 137.13"/><path class="cls-11" d="M390.31,177.69a8.16,8.16,0,0,1,2.51-3.44,8.93,8.93,0,0,1,4.14-1.39c.34,0-.15,1.45-1.23,1.68s5.41-.2,6.35.41-.46,1.07-.46,1.07,1.55.41,1.32.91-1.51.75-1.51.75,1.38.09.75.76a3.47,3.47,0,0,1-1.5.89s.95.67-.25,1.12-7.07,2.33-7.07,2.33S389.14,182.46,390.31,177.69Z" transform="translate(-12.09 -66.05)"/><path class="cls-11" d="M310.85,168s-2.84-3-3.62-3.5a2.18,2.18,0,0,0-2.53.06s-4.47-2.11-5.19-1.87-.91,1.51,1.87,2.72c0,0-.67,1.26-.06,2.05,0,0-.55,1.51,0,2.05,0,0-.43.6.66,1.57a11.14,11.14,0,0,0,3.86,2.11c1.21.36,3,.78,4.11-.36S312,168.52,310.85,168Z" transform="translate(-12.09 -66.05)"/><path class="cls-3" d="M251.22,150a1.22,1.22,0,0,1-1-1.21c-.1-1,.31-1.17,1.35-1.13a11.91,11.91,0,0,1,1.59.2v.6l-1.41-.09c-.66,0-.86,0-.82.44s.22.44.58.56l1.07.33a1.19,1.19,0,0,1,1,1.19c.1,1-.39,1.18-1.49,1.14a9.59,9.59,0,0,1-1.46-.17v-.61c.34.05.78.07,1.26.09.8,0,1-.05,1-.47s-.26-.43-.61-.55Z" transform="translate(-12.09 -66.05)"/><path class="cls-3" d="M254.65,146.06c.14,0,.22.1.23.25l.05.49c0,.17-.05.25-.19.25h-.36c-.14,0-.22-.1-.24-.26l0-.49c0-.15.05-.24.19-.24Zm0,6-.38-4.18.73,0,.38,4.18Z" transform="translate(-12.09 -66.05)"/><path class="cls-3" d="M256.93,148.58a2.32,2.32,0,0,1,1.61-.71c.67,0,1.06.44,1.12,1.21l.24,3.15-.74,0-.24-2.9c0-.54-.18-.71-.54-.72a2.36,2.36,0,0,0-1.34.59l.26,3-.74,0-.37-4.19.63,0Z" transform="translate(-12.09 -66.05)"/><path class="cls-3" d="M262.44,148.19a11.57,11.57,0,0,1,1.86-.15c.89,0,1.39.38,1.46,1.46l.18,2.95-.59,0-.13-.67a1.9,1.9,0,0,1-1.48.69,1.23,1.23,0,0,1-1.25-1.23l0-.44a.86.86,0,0,1,1-1l1.55.05,0-.34c0-.52-.22-.69-.81-.71-.38,0-1,0-1.63.05Zm.81,2.95c0,.42.21.59.59.61a1.82,1.82,0,0,0,1.26-.54l-.05-.77-1.4-.05c-.35,0-.44.21-.42.53Z" transform="translate(-12.09 -66.05)"/><path class="cls-3" d="M270.63,150.33l.07,1.53-.58,0-.08-1.53-1.47-.05,0-.63,1.47.05-.08-1.55.6,0,.08,1.55,1.48.05,0,.63Z" transform="translate(-12.09 -66.05)"/><path class="cls-3" d="M278.16,152.78a3.85,3.85,0,0,1-1.38.18c-1.39-.05-1.92-.67-2-2.32s.42-2.27,1.83-2.23a4,4,0,0,1,1.34.27l-.09.55c-.37,0-.81-.07-1.09-.08-.91,0-1.21.31-1.17,1.52s.37,1.55,1.27,1.58a7.33,7.33,0,0,0,1.18-.05Z" transform="translate(-12.09 -66.05)"/><path class="cls-3" d="M282.64,150.91c0,1.66-.48,2.26-1.89,2.21s-1.94-.69-2-2.34.46-2.29,1.88-2.25S282.61,149.23,282.64,150.91Zm-3-.1c0,1.2.3,1.56,1.13,1.59s1.09-.31,1.07-1.51-.3-1.59-1.14-1.62S279.57,149.59,279.6,150.81Z" transform="translate(-12.09 -66.05)"/><path class="cls-3" d="M284.41,151.13a1.17,1.17,0,0,1-1-1.28c0-1,.46-1.23,1.62-1.18a12.78,12.78,0,0,1,1.77.2l-.07.64c-.51,0-1-.08-1.57-.1-.73,0-1,0-1,.46s.2.47.59.6l1.17.34a1.15,1.15,0,0,1,1,1.27c0,1.07-.55,1.23-1.78,1.19a10.91,10.91,0,0,1-1.62-.19l.05-.63c.37,0,.87.07,1.4.09.9,0,1.16,0,1.15-.49s-.24-.46-.63-.58Z" transform="translate(-12.09 -66.05)"/><path class="cls-3" d="M289.87,149a12.86,12.86,0,0,1,2.05-.15c1,0,1.5.4,1.49,1.52l0,3.08-.65,0-.09-.7a2.25,2.25,0,0,1-1.67.71,1.2,1.2,0,0,1-1.27-1.28v-.46a1,1,0,0,1,1.18-1.06l1.69.05v-.34c0-.55-.19-.73-.84-.75-.41,0-1.13,0-1.78,0Zm.65,3.08c0,.43.19.62.61.63a2.07,2.07,0,0,0,1.42-.56v-.79l-1.54-.06c-.38,0-.49.21-.5.55Z" transform="translate(-12.09 -66.05)"/><path class="cls-3" d="M296.59,150.28v-.66l3.91.12,0,.67Zm0,1.93,0-.65,3.88.13,0,.66Z" transform="translate(-12.09 -66.05)"/><path class="cls-3" d="M304.71,153.89l.2-4.94a3.83,3.83,0,0,1,.07-.58l-1.51.44-.09-.71,1.59-.62.91,0-.27,6.42Z" transform="translate(-12.09 -66.05)"/><path class="cls-3" d="M248.65,128.74a1.34,1.34,0,0,1-1.13-1.55c0-1.21.64-1.49,2.08-1.45a14.51,14.51,0,0,1,2.21.23l-.11.77c-.65,0-1.32-.08-2-.1-.92,0-1.2,0-1.22.57s.23.57.71.72l1.46.41c.83.25,1.2.6,1.17,1.54,0,1.33-.74,1.54-2.3,1.5a13.54,13.54,0,0,1-2.05-.22l.1-.78c.47.05,1.1.08,1.76.1,1.14,0,1.48-.07,1.49-.62s-.28-.56-.77-.71Z" transform="translate(-12.09 -66.05)"/><path class="cls-3" d="M255.57,127.38l0-.8,4.84.1,0,.8Zm0,2.35,0-.8,4.83.11v.81Z" transform="translate(-12.09 -66.05)"/><path class="cls-3" d="M273.81,132.07a10,10,0,0,1,2.5-.21c1.55,0,2.52.36,2.5,1.83a3.92,3.92,0,0,1-1.46,2.83l-2.29,2.37c.41,0,.89,0,1.29,0L279,139l0,1.14-5.37-.24v-.73a.6.6,0,0,1,.18-.48l2.29-2.43c1-1.05,1.52-1.82,1.5-2.55s-.53-.82-1.42-.85a15.16,15.16,0,0,0-2.32.11Z" transform="translate(-12.09 -66.05)"/><path class="cls-3" d="M266.46,117.64c-1.48.71-2.13,2.32-2.18,4.85s.53,4.13,2,4.92l-.15.51c-2.06-.83-2.95-2.53-2.89-5.44s1-4.59,3.1-5.34Z" transform="translate(-12.09 -66.05)"/><path class="cls-3" d="M266.94,120.65a18.93,18.93,0,0,1,2.69-.24c1.29,0,2,.45,1.94,1.85l-.06,3.88h-.87l-.11-.88a3.2,3.2,0,0,1-2.24.94,1.51,1.51,0,0,1-1.66-1.6V124c0-.88.59-1.38,1.59-1.36l2.23,0v-.43c0-.68-.23-.9-1.08-.91-.55,0-1.49.06-2.35.12Zm.8,3.83c0,.54.23.77.79.78a3,3,0,0,0,1.89-.74l0-1-2,0c-.51,0-.67.27-.67.69Z" transform="translate(-12.09 -66.05)"/><path class="cls-3" d="M276,123.2l0,2-.85,0,0-2-2.13,0v-.82l2.12,0,0-2H276l0,2,2.16,0,0,.83Z" transform="translate(-12.09 -66.05)"/><path class="cls-3" d="M280.83,120.22a5.22,5.22,0,0,1-.13,1.29,3,3,0,0,1,2.2-1c1.43,0,2.11.85,2.08,3,0,1.92-.61,3-2.67,3a9.44,9.44,0,0,1-2.7-.46l.1-7.82h1.15Zm-.06,5.12a6.47,6.47,0,0,0,1.53.19c1.05,0,1.45-.5,1.48-2s-.21-2-1.3-2a2.74,2.74,0,0,0-1.67.77Z" transform="translate(-12.09 -66.05)"/><path class="cls-3" d="M285.51,117.17c2.23.8,3.23,2.56,3.2,5.61s-1.07,4.79-3.32,5.55l-.14-.53c1.6-.75,2.28-2.45,2.31-5s-.62-4.33-2.2-5.07Z" transform="translate(-12.09 -66.05)"/><path class="cls-3" d="M294.21,120.49a7.26,7.26,0,0,1-.09,1.12,4.76,4.76,0,0,1,2.66-1,1.48,1.48,0,0,1,1.65,1.63l0,4.38-1.22,0,0-4c0-.74-.2-1-.77-1a4.44,4.44,0,0,0-2.25.83l0,4.12-1.21,0,.06-8.28h1.22Z" transform="translate(-12.09 -66.05)"/><polygon class="cls-3" points="285.52 63.18 249.53 62.37 249.51 63.01 285.52 63.87 285.52 63.18"/><path class="cls-3" d="M291.08,123.93a.6.6,0,1,1-.59-.59A.6.6,0,0,1,291.08,123.93Z" transform="translate(-12.09 -66.05)"/><path class="cls-3" d="M302.06,129.65a.58.58,0,0,1-.62.57.61.61,0,0,1-.62-.6.59.59,0,0,1,.62-.57A.62.62,0,0,1,302.06,129.65Z" transform="translate(-12.09 -66.05)"/><path class="cls-3" d="M305.29,126.25a4.83,4.83,0,0,1,2.81-1,1.55,1.55,0,0,1,1.73,1.68v4.48l-1.28,0v-4.14c0-.75-.21-1-.81-1a4.9,4.9,0,0,0-2.34.85v4.21l-1.26,0,0-5.92h1.06Z" transform="translate(-12.09 -66.05)"/><polygon class="cls-5" points="217.91 129.29 402.55 135.04 402.55 140.59 218.37 132.7 217.91 129.29"/><path class="cls-12" d="M470.33,126.17,468,132a9.61,9.61,0,0,0-2.16.53l-5.05-3.86-3.59,4.12,3.46,4.3a9.27,9.27,0,0,0-.95,2.69l-5.93,2.12,1.77,5.11,5.44-.59a9.49,9.49,0,0,0,1.81,2.09l-1.13,5.91,5.69,1.92,2.58-5.36a9.89,9.89,0,0,0,2.84-.57l4.57,4,3.83-3.91L478,145.93a9.19,9.19,0,0,0,1.14-3.82l5.93-2.55-2.07-5-5.86,1a9.61,9.61,0,0,0-1.77-1.72l.75-6.15Zm-1,10.08a5.2,5.2,0,1,1-5.42,5.2A5.32,5.32,0,0,1,469.34,136.25Z" transform="translate(-12.09 -66.05)"/><path class="cls-13" d="M161.93,131.27l-5.87-.39-.27,4.19a2.72,2.72,0,0,0,2.58,2.86l.35,0a2.72,2.72,0,0,0,2.94-2.49Z" transform="translate(-12.09 -66.05)"/><path class="cls-14" d="M171.37,121.37a11.8,11.8,0,1,0-12.52,10.72A11.66,11.66,0,0,0,171.37,121.37Z" transform="translate(-12.09 -66.05)"/><path class="cls-3" d="M167.05,121.06a7.67,7.67,0,1,0-8.15,7.17A7.67,7.67,0,0,0,167.05,121.06Z" transform="translate(-12.09 -66.05)"/><path class="cls-14" d="M159.76,120h0a1.08,1.08,0,0,0-1.14,1l-.45,7a1.07,1.07,0,0,0,1,1.14h0a1.07,1.07,0,0,0,1.14-1l.45-7A1.07,1.07,0,0,0,159.76,120Z" transform="translate(-12.09 -66.05)"/><path class="cls-15" d="M368.66,305.59s14.16-7.62,24-4.65,18.8,12.53,18.8,12.53l-22.54,11.91Z" transform="translate(-12.09 -66.05)"/><path class="cls-14" d="M372.9,310.37l3.81-22.94,34.08,7.36-4.41,23.89S384.54,341.11,372.9,310.37Z" transform="translate(-12.09 -66.05)"/><path class="cls-12" d="M368.66,305.57l-4,24.64,40.93,7.84,5.88-24.58s-16.33,3.95-22.81,11.47C388.68,324.94,380.7,310.81,368.66,305.57Z" transform="translate(-12.09 -66.05)"/><path class="cls-3" d="M379.67,295.81,405,300.52l-.22,1.2L379.45,297Z" transform="translate(-12.09 -66.05)"/><path class="cls-3" d="M381.82,302.76l19.3,3.59-.23,1.2L381.6,304Z" transform="translate(-12.09 -66.05)"/><path class="cls-3" d="M381,299.42l21.11,3.94-.22,1.22-21.11-3.93Z" transform="translate(-12.09 -66.05)"/><path class="cls-3" d="M384,306.21l13.43,2.5-.23,1.23-13.43-2.5Z" transform="translate(-12.09 -66.05)"/><polygon class="cls-1" points="18.14 9.12 103.84 5.11 103.84 94.46 31.99 111.24 18.14 9.12"/><polygon class="cls-3" points="25.7 17.05 34.18 61.36 62.36 57.53 59.9 15.68 25.7 17.05"/><polygon class="cls-3" points="35.28 68.39 99.47 58.9 99.28 62.37 35.64 72.4 35.28 68.39"/><polygon class="cls-3" points="35.28 76.59 99.47 67.11 99.28 70.57 35.64 80.6 35.28 76.59"/><polygon class="cls-3" points="35.82 85.34 100.01 75.86 99.83 79.33 36.19 89.36 35.82 85.34"/><polygon class="cls-3" points="65.55 56.99 97.83 53.34 98.01 50.42 65.55 54.07 65.55 56.99"/><polygon class="cls-3" points="65 50.42 97.28 46.77 97.46 43.86 65 47.51 65 50.42"/><polygon class="cls-3" points="65.37 44.22 97.64 40.58 97.83 37.66 65.37 41.3 65.37 44.22"/><polygon class="cls-3" points="64.82 37.66 97.1 34.01 97.28 31.09 64.82 34.74 64.82 37.66"/><polygon class="cls-3" points="64.82 31.09 97.1 27.45 97.28 24.53 64.82 28.17 64.82 31.09"/><polygon class="cls-3" points="64.27 24.53 96.55 20.88 96.73 17.96 64.27 21.61 64.27 24.53"/><polygon class="cls-7" points="37.28 43.04 35.46 48.51 48.04 54.16 57.89 20.61 53.7 18.6 44.94 48.33 37.28 43.04"/><path class="cls-16" d="M68.15,374.78s8.12.73,11,2.47S68.7,382,61.86,382,68.15,374.78,68.15,374.78Z" transform="translate(-12.09 -66.05)"/><path class="cls-6" d="M79.69,377.79,77,403.64s-4.1,3.29-11.49,2.6-8.34-2.32-8.34-2.32l-3-23Z" transform="translate(-12.09 -66.05)"/><path class="cls-17" d="M58.34,363.38S48,360.67,47,356.77s3-4.57,8.43-1.72,3.87-4.93-2.27-6.89S41.07,337.79,45.11,336s11.08,5.82,13,6.52,2.73-5.87-4.28-9.27-10.71-15-5-17.93,12.79,9.49,16.64,15.13,3.47,10.8,5.91,11.25S70.19,334,75.05,330.4s7.73,5.48,7.06,11.4-9.49,13-7.6,14.77,4.07-7.89,8-6.12,2.77,7.68-.76,14.56a35,35,0,0,1-9.7,11.23s-14.71.14-17.15-5.34,3.37-5.71,7.94-2.76S60.93,363.19,58.34,363.38Z" transform="translate(-12.09 -66.05)"/><path class="cls-18" d="M54.27,374.27S45.06,375,43.22,372s1.13-4.55,6.38-3.75,1.78-5.1-3.77-5-12.76-5.07-10-7.69,10.64,1.66,12.39,1.69.59-5.53-6.07-6.35-12.89-9.21-9-13.21,13.05,4.16,17.76,7.68,5.83,7.82,7.94,7.51-3.12-5.88-.17-10.18,7.82,2.31,8.93,7.31-4.09,13.27-2.07,14.14,1.11-7.56,4.83-7.21,4.39,5.48,3.43,12.06A30,30,0,0,1,69,380.91s-11.94,4.21-15.45.43,1.15-5.59,5.69-4.46S56.32,373.39,54.27,374.27Z" transform="translate(-12.09 -66.05)"/><path class="cls-6" d="M136.17,173.94s-11.83,9-9.84,11.35,12.44-4,14.29-6.63S136.17,173.94,136.17,173.94Z" transform="translate(-12.09 -66.05)"/><path class="cls-16" d="M317.8,291.63l-12,86.44s-13.13,30.09-82.06,37.2S102.25,400.5,102.25,400.5L89.12,322.27Z" transform="translate(-12.09 -66.05)"/><polygon class="cls-16" points="81.41 186.74 87.7 232.42 93.45 231.87 85.79 184.82 81.41 186.74"/><path class="cls-16" d="M74.35,226.53c-3.26,7.08,0,24.62,9.49,29.72s19.87-8.2,23.34-9.66,19,7.11,24.07,1.09,4.77-16.84-.37-31.18C127.42,206.83,82.74,208.29,74.35,226.53Z" transform="translate(-12.09 -66.05)"/><path class="cls-19" d="M192.72,257.26A22.41,22.41,0,0,1,179,247.48c-5.47-8.37,5.1-15.3,5.1-15.3s11.49,1.64,11.49,2.37S192.72,257.26,192.72,257.26Z" transform="translate(-12.09 -66.05)"/><path class="cls-10" d="M154.63,204.79c-3-7.36,5.85-13.87,11.9-8.7l.26.23c8.86,7.63,30.65,39.26,30.65,39.26L179,247.48S162.78,224.47,154.63,204.79Z" transform="translate(-12.09 -66.05)"/><path class="cls-11" d="M184.73,249.77,176,194s-4.64-4-5.38-6.67-3.62-4.22-2.6-5,4.63,2.23,4.94,3.36c0,0,2-6.43,3.13-7.14s2,.33,1.8,1.58c0,0,1.15-1,1.81-.89s1.17,1.27,1.24,2.07a24.49,24.49,0,0,1,3.77,2.68c1,1.05-.67,9.5-.67,9.5s14,40.75,14.84,50.7-6.17,13.11-6.17,13.11S186.11,255.69,184.73,249.77Z" transform="translate(-12.09 -66.05)"/><path class="cls-7" d="M145.4,189.19s-16,2-20.53,23.48-5.66,78.69-5.66,78.69L179.39,278s3.47-57.08-7.66-75.68c-6.46-10.8-13.67-10.57-13.67-10.57Z" transform="translate(-12.09 -66.05)"/><path class="cls-20" d="M329.66,299.47c-130,68.75-148.78,32.1-217,32.1s-60.73-23,3.83-39.39c72.87-18.53,80-22.93,148.26-22.25C346.8,270.75,340.16,293.92,329.66,299.47Z" transform="translate(-12.09 -66.05)"/><path class="cls-9" d="M173.78,299.51l-.27,2.24,28.59,7.66s11.76-10.67,22.29-12.31l2.19-1s4.51-3.14,7.66-4.1a29,29,0,0,1,6.42-1.09l-.27-2.19s-10.67.82-16.27,5.88c0,0-14.78,2.6-22.3,11.35Z" transform="translate(-12.09 -66.05)"/><path class="cls-21" d="M191.56,284.79l-6.63-9.91,2.26-1.44s7.68,9.64,7.7,10S194.23,285.75,191.56,284.79Z" transform="translate(-12.09 -66.05)"/><path class="cls-7" d="M188.45,280.68a1,1,0,0,0-1.18-.19l-1.83-3s.3-.45.65-.91c.89-.59,2.74-2,2.74-2l-1.23-1.86-.5.27s-1.42-1.83-2.6-1.92-.46,2.37.23,3.38l-.69.41.55.67a3.36,3.36,0,0,0,.17,2.78c.91,1.69,2.64,3.42,3.37,3.56S189.14,281.22,188.45,280.68Z" transform="translate(-12.09 -66.05)"/><path class="cls-21" d="M201.05,291.58l1.32,2.15.23,3.26h0l-2.72-1-2.05-2.37Z" transform="translate(-12.09 -66.05)"/><path class="cls-11" d="M161.61,157.41c1.48,2.28,2.65,6.57,4.2,10s5.65,3.19,5.65,3.19l-2.1,3.92s.64,7.12-2.19,9.94-8.29,2.19-8.29,2.19l-2.33,7.57-10.53-5,1.92-9.2s-2.28-13.5,1.27-19.61S159.83,154.65,161.61,157.41Z" transform="translate(-12.09 -66.05)"/><path class="cls-5" d="M139.18,177.52s-9.25-7.21-4-18.69,17.27-15.78,26.76-5Z" transform="translate(-12.09 -66.05)"/><path class="cls-10" d="M160.93,156.91s-.21,4.58-8.48,7.05c0,0,1.64,4.24-.21,7.65,0,0-.54-2.53-2.94-2.25s-4.65,4.1-2.73,6.56.61,7.8.61,7.8-4.24-.82-8.13-6.7,22.15-23.94,22.15-23.94c4.24,2.56,4.31,4.52,2.33,8.62C163.53,161.7,162.57,157.94,160.93,156.91Z" transform="translate(-12.09 -66.05)"/><path class="cls-10" d="M157.19,165.16s.46-2.32,2-2.55a1.91,1.91,0,0,1,2.09,1A6.3,6.3,0,0,0,157.19,165.16Z" transform="translate(-12.09 -66.05)"/><path class="cls-10" d="M162.52,168.59c.06,1.08-.23,2-.65,2s-.79-.84-.85-1.92.24-2,.65-2S162.47,167.51,162.52,168.59Z" transform="translate(-12.09 -66.05)"/><path class="cls-22" d="M173.78,299.51l28.9,7s10.07-9.69,21.48-11c0,0,7.79-5.9,16.16-6.09l-.38-3.61-25.1-5.13a32.75,32.75,0,0,0-17.3,7.22s-19,1.71-25.09,8.56Z" transform="translate(-12.09 -66.05)"/><path class="cls-23" d="M200.36,288.89l23.07,5.57S208.84,285.88,200.36,288.89Z" transform="translate(-12.09 -66.05)"/><path class="cls-10" d="M168.5,177.65l-4.79,1.83S165.67,176.38,168.5,177.65Z" transform="translate(-12.09 -66.05)"/><path class="cls-10" d="M146.29,187.89l10.47,6.29s-2.88,3.15-6.71,1.51-4.65-6.5-4.65-6.5Z" transform="translate(-12.09 -66.05)"/><path class="cls-11" d="M202.28,290.63c-.18-1.65-5.38-7.48-7.39-7.21s-15.13,2.92-15.13,2.92L119.4,272.85l7.29-18.6L109,251s-7.11,25-4,32.83,72.76,12.95,72.76,12.95c4.65,2.64,15.5,3.37,17.23,3a4.38,4.38,0,0,0,2.65-2c1.55-.28,1.55-2.37,1.55-2.37a2.49,2.49,0,0,0,1.37-3.1S202.46,292.27,202.28,290.63Z" transform="translate(-12.09 -66.05)"/><path class="cls-10" d="M160.18,194.11c1.16-.82.47-3.21-2.26-4.78L156.48,194S159,194.93,160.18,194.11Z" transform="translate(-12.09 -66.05)"/><path class="cls-10" d="M126.45,205.54c4-6.87,14.59-3.72,14.12,4.23,0,.11,0,.23,0,.34-.73,11.68-12.77,48.15-12.77,48.15l-20.6-7.48S115.69,223.93,126.45,205.54Z" transform="translate(-12.09 -66.05)"/><polygon class="cls-7" points="90.14 249.65 116.01 253.21 140.67 247.56 140.53 241.54 117.94 238.91 89.47 241.35 90.14 249.65"/><polygon class="cls-9" points="89.87 241.92 115.73 245.49 139.27 240.21 139.27 232.55 117.67 231.19 89.2 233.62 89.87 241.92"/><polygon class="cls-21" points="89.25 233.6 115.15 236.97 139.77 231.14 139.59 225.12 115.88 220.38 88.53 225.3 89.25 233.6"/><polygon class="cls-22" points="91.17 243.35 91.94 248.83 113.14 251.97 113.01 246.91 91.17 243.35"/><polygon class="cls-22" points="91.03 235.01 91.81 240.49 114.33 244.18 113.83 237.75 91.03 235.01"/><polygon class="cls-22" points="89.89 227.49 90.44 232.42 114.56 235.84 113.97 231.05 89.89 227.49"/><polygon class="cls-10" points="197.39 248.74 202.23 247.19 203.69 249.83 199.49 251.84 197.39 248.74"/><polygon class="cls-24" points="218.55 240.9 222.19 241.26 220.46 243.45 203.69 249.83 202.23 247.19 218.55 240.9"/><path class="cls-22" d="M253.88,301.66a37.71,37.71,0,0,1-5.24-.28c-2.85-.38-5.75-1.24-5.43-3.19.43-2.44,3.29-3,5.23-3.11a12.36,12.36,0,0,1,1.8,0l3.37.17Z" transform="translate(-12.09 -66.05)"/><path class="cls-25" d="M146.29,168.17s-9.11-11.49-4.37-17.69c0,0-.37-.91-1.92-.18s-7.29,8.75,2.28,21Z" transform="translate(-12.09 -66.05)"/><path class="cls-7" d="M253.88,301.66a37.71,37.71,0,0,1-5.24-.28l-.2-6.3a12.36,12.36,0,0,1,1.8,0l3.37.17Z" transform="translate(-12.09 -66.05)"/><path class="cls-26" d="M153.57,179.38c-4.16,6.22-12.3,1.79-11.56-7.65S158.94,171.35,153.57,179.38Z" transform="translate(-12.09 -66.05)"/><path class="cls-25" d="M149.19,177.75c-2.22,3.32-6.57.95-6.18-4.09S152.06,173.45,149.19,177.75Z" transform="translate(-12.09 -66.05)"/><path class="cls-6" d="M160.42,199.44c.05,1.1-.55,2-1.34,2.07s-1.5-.82-1.55-1.92.54-2,1.34-2.06S160.36,198.34,160.42,199.44Z" transform="translate(-12.09 -66.05)"/><path class="cls-6" d="M161.78,206c.06,1.09-.54,2-1.34,2.06s-1.49-.81-1.55-1.91.55-2,1.34-2.07S161.73,204.91,161.78,206Z" transform="translate(-12.09 -66.05)"/><polygon class="cls-24" points="246.08 241.17 272.34 227.22 277.27 228.59 251.01 243.36 246.08 241.17"/><polygon class="cls-21" points="239.59 201.92 247.16 166.77 295.25 169.94 287.44 206.32 239.59 201.92"/><polygon class="cls-21" points="240.08 201.76 219.73 208.92 220.06 211.53 268.4 221.29 286.79 210.06 287.44 206.32 240.08 201.76"/><polygon class="cls-22" points="242.25 200.05 283.47 205.34 290.76 174.15 249 170.69 242.25 200.05"/><polygon class="cls-24" points="240.96 202.87 281.23 208.55 266.26 217.03 223.65 209.17 240.96 202.87"/><polygon class="cls-7" points="264.41 185.91 249.73 184.64 251.74 174.43 266.23 175.34 264.41 185.91"/><path class="cls-8" d="M279.07,257l-2.68,3.72-4.74-3.21-.91,1.49s4.88,4.53,5.48,4.64,3.08-2.6,3.08-2.6Z" transform="translate(-12.09 -66.05)"/><path class="cls-9" d="M286,257.21l1.32,1s-2.53,4.58-2.81,8.68l-6-1.46a78.56,78.56,0,0,1,.63-8.43,6.52,6.52,0,0,1,2.81-.44c.3,0,.87.6,1.13.63A13.49,13.49,0,0,0,286,257.21Z" transform="translate(-12.09 -66.05)"/><path class="cls-3" d="M282,256.94l-.51,5.24,2.7-5.32s-1.82.26-2.13-.53Z" transform="translate(-12.09 -66.05)"/><path class="cls-8" d="M284.21,255.93s1.32,1.35.81,2.13a3,3,0,0,1-1.48,1.08,2,2,0,0,1-.56,2,6.76,6.76,0,0,1-1.66,1.41Z" transform="translate(-12.09 -66.05)"/><path class="cls-10" d="M283.16,249.6a2.18,2.18,0,0,0-2.13.71c-.76,1-.45,1.61-.45,1.61a1.82,1.82,0,0,0-.89,1.64,1.9,1.9,0,0,0-.57,2.57c.94,1.5,2.42,1.26,3.32-.24a32.93,32.93,0,0,0,2-5.45S284.45,250,283.16,249.6Z" transform="translate(-12.09 -66.05)"/><path class="cls-11" d="M280.92,254.19c.24.88,1.36,1.09,1.36,1.09l0,.87,1.45.08.67-3.83s-1.29-1.61-2.5-1.72C281.6,250.65,280.36,252.13,280.92,254.19Z" transform="translate(-12.09 -66.05)"/><path class="cls-10" d="M281.87,250.83a2.68,2.68,0,0,0,.71,1.57,2.43,2.43,0,0,0,.79.47s-.31.87.06,1.23l.37.36s-.8,2.2.19,3a1.63,1.63,0,0,0,2.66-.65,2.09,2.09,0,0,0-.46-2.11,1.64,1.64,0,0,0,.25-1.44,2.36,2.36,0,0,0-.94-1,1.76,1.76,0,0,0-.41-1.88C284.25,249.71,282,249.93,281.87,250.83Z" transform="translate(-12.09 -66.05)"/><path class="cls-8" d="M282.26,256.15l-.77,6.11a2.3,2.3,0,0,1-.17-2.89s-1.17-1.71-.46-2.77S282.26,256.15,282.26,256.15Z" transform="translate(-12.09 -66.05)"/><path class="cls-8" d="M287.27,258.19l.54,6.67,4.52-.91.21,1.75s-4.67,1.72-5.94,1.48-1.8-3.71-1.8-3.71S285.1,258.64,287.27,258.19Z" transform="translate(-12.09 -66.05)"/><polygon class="cls-8" points="266.35 199.35 272.37 200.58 272.33 201.84 266.06 200.57 266.35 199.35"/><polygon class="cls-9" points="264.98 202.99 266.06 200.57 272.33 201.84 272.91 203.95 264.98 202.99"/><path class="cls-11" d="M292.14,264.12a2.11,2.11,0,0,1,.81-.77,2.41,2.41,0,0,1,1.14-.16c.09,0-.11.37-.4.38a14.83,14.83,0,0,1,1.63.41c.21.2-.17.26-.17.26s.38.18.29.3-.42.12-.42.12.35.09.15.23a1,1,0,0,1-.43.16s.22.22-.12.27-1.94.27-1.94.27A1,1,0,0,1,292.14,264.12Z" transform="translate(-12.09 -66.05)"/><path class="cls-11" d="M272,257.75s-.59-.9-.77-1.08a.58.58,0,0,0-.66-.11,5.5,5.5,0,0,0-1.25-.73c-.2,0-.31.35.35.79,0,0-.23.3-.11.53,0,0-.22.36-.1.53,0,0-.14.14.09.44a2.93,2.93,0,0,0,.9.73,1.05,1.05,0,0,0,1.08.11C271.91,258.72,272.31,258,272,257.75Z" transform="translate(-12.09 -66.05)"/><ellipse class="cls-27" cx="199.79" cy="369.66" rx="6.5" ry="6.63"/><path class="cls-28" d="M215.73,436.45a2.21,2.21,0,1,1-2.17-2.63A2.43,2.43,0,0,1,215.73,436.45Z" transform="translate(-12.09 -66.05)"/><ellipse class="cls-27" cx="239.91" cy="355.99" rx="6.5" ry="6.63"/><path class="cls-28" d="M255.85,422.77a2.21,2.21,0,1,1-2.17-2.62A2.42,2.42,0,0,1,255.85,422.77Z" transform="translate(-12.09 -66.05)"/><ellipse class="cls-27" cx="183.1" cy="364.95" rx="6.5" ry="6.63"/><path class="cls-28" d="M199,431.73a2.2,2.2,0,1,1-2.16-2.62A2.43,2.43,0,0,1,199,431.73Z" transform="translate(-12.09 -66.05)"/><path class="cls-9" d="M260.71,410c-2.78,6.25-12.69,12.15-27.65,18.26s-46.13,6.23-54.13.33c-1.08-.79-.91-1.8.23-3,7.37-7.5,55.07-21.3,71.48-23,1.67-.17,3.12-.27,4.39-.29h.13a18.1,18.1,0,0,1,3.77.28c1.9.43,2.81,1.32,3,2.66h0A9.81,9.81,0,0,1,260.71,410Z" transform="translate(-12.09 -66.05)"/><path class="cls-6" d="M261.89,405.2h0c-2.49,5.24-19.33,18.33-41.47,23.19a71.59,71.59,0,0,1-41.26-2.82c7.37-7.5,55.07-21.3,71.48-23,1.67-.17,3.12-.27,4.39-.29h.13c1.45.06,2.72.15,3.77.28,1.83.24,3,.59,3.2,1.11A2,2,0,0,1,261.89,405.2Z" transform="translate(-12.09 -66.05)"/></svg>