<?xml version="1.0" encoding="utf-8"?>
<!-- Generator: Adobe Illustrator 24.1.2, SVG Export Plug-In . SVG Version: 6.00 Build 0)  -->
<svg version="1.1" xmlns="http://www.w3.org/2000/svg" xmlns:xlink="http://www.w3.org/1999/xlink" x="0px" y="0px"
	 viewBox="0 0 750 500" style="enable-background:new 0 0 750 500;" xml:space="preserve">
<style type="text/css">
	.st0{display:none;}
	.st1{display:inline;fill-rule:evenodd;clip-rule:evenodd;fill:#FFFFFF;}
	.st2{fill-rule:evenodd;clip-rule:evenodd;fill:#DCFFEA;}
	.st3{fill-rule:evenodd;clip-rule:evenodd;fill:#54BA7D;}
	.st4{fill-rule:evenodd;clip-rule:evenodd;fill:#FFFFFF;}
	.st5{fill-rule:evenodd;clip-rule:evenodd;fill:#76D69D;}
	.st6{fill-rule:evenodd;clip-rule:evenodd;fill:#DE9396;}
	.st7{fill-rule:evenodd;clip-rule:evenodd;fill:#DF6162;}
	.st8{fill-rule:evenodd;clip-rule:evenodd;fill:#306642;}
	.st9{fill-rule:evenodd;clip-rule:evenodd;fill:#579B6C;}
	.st10{fill-rule:evenodd;clip-rule:evenodd;fill:#1B261E;}
	.st11{fill-rule:evenodd;clip-rule:evenodd;fill:#5EB577;}
	.st12{fill-rule:evenodd;clip-rule:evenodd;fill:#45BA66;}
	.st13{fill-rule:evenodd;clip-rule:evenodd;fill:#CF4A60;}
	.st14{fill-rule:evenodd;clip-rule:evenodd;fill:#E7B7B9;}
	.st15{fill-rule:evenodd;clip-rule:evenodd;fill:#D6D6F9;}
	.st16{fill-rule:evenodd;clip-rule:evenodd;fill:#9C9DCC;}
	.st17{fill:#1B261E;}
	.st18{fill-rule:evenodd;clip-rule:evenodd;fill:#A8E5B5;}
	.st19{fill-rule:evenodd;clip-rule:evenodd;fill:#79D18E;}
	.st20{fill-rule:evenodd;clip-rule:evenodd;fill:#171E18;}
	.st21{fill-rule:evenodd;clip-rule:evenodd;fill:#469164;}
	.st22{fill-rule:evenodd;clip-rule:evenodd;fill:#EDBD54;}
	.st23{fill-rule:evenodd;clip-rule:evenodd;fill:#B694DD;}
	.st24{fill-rule:evenodd;clip-rule:evenodd;fill:#FBFDFF;}
	.st25{fill-rule:evenodd;clip-rule:evenodd;fill:#9D94DD;}
	.st26{fill-rule:evenodd;clip-rule:evenodd;fill:#7570BA;}
	.st27{fill-rule:evenodd;clip-rule:evenodd;fill:#77B789;}
</style>
<g id="BACKGROUND" class="st0">
	<rect y="0" class="st1" width="750" height="500"/>
</g>
<g id="OBJECTS">
	<g>
		<path class="st2" d="M141.13,30.78c-49.3,0-89.63,40.33-89.63,89.63l0,0c0,49.3,40.34,89.63,89.63,89.63l0,0
			c9.89,0,17.99,8.1,17.99,17.99l0,0c0,9.89-8.1,17.99-17.99,17.99h-46.9c-24.05,0-43.73,19.68-43.73,43.73l0,0
			c0,24.05,19.68,43.73,43.73,43.73c20.8,0,37.82,17.02,37.82,37.82l0,0l0,0c0,37.95,31.05,69,69,69h20.63l0,0h303.88h80.54
			c49.3,0,89.63-40.33,89.63-89.63l0,0c0-49.3-40.33-89.63-89.63-89.63h-8.67c-9.89,0-17.99-8.09-17.99-17.99l0,0
			c0-9.89,8.09-17.99,17.99-17.99h58.36c24.05,0,43.73-19.68,43.73-43.73l0,0c0-24.02-19.63-43.68-43.64-43.73
			c-0.03,0-46.93,0-46.96,0c-20.8,0-37.82-17.02-37.82-37.82l0,0l0,0c0-37.95-31.05-69-69-69
			C434.75,30.78,208.46,30.78,141.13,30.78z"/>
		<g>
			<g>
				<g>
					<path class="st3" d="M495.63,81.16c5.26-5.26,12.16-7.9,19.06-7.9c6.9,0,13.8,2.63,19.06,7.9c5.26,5.26,7.9,12.16,7.9,19.06
						c0,6.9-2.63,13.8-7.9,19.06c-5.26,5.26-12.17,7.9-19.06,7.9c-6.9,0-13.8-2.63-19.06-7.9c-5.26-5.26-7.9-12.16-7.9-19.06
						C487.74,93.33,490.37,86.43,495.63,81.16L495.63,81.16z M514.7,77.13c-5.91,0-11.82,2.26-16.33,6.77
						c-4.51,4.51-6.77,10.42-6.77,16.33c0,5.91,2.25,11.82,6.77,16.33c4.51,4.51,10.42,6.77,16.33,6.77
						c5.91,0,11.82-2.26,16.33-6.77c4.51-4.51,6.77-10.42,6.77-16.33c0-5.91-2.26-11.82-6.77-16.33
						C526.52,79.38,520.61,77.13,514.7,77.13z"/>
					<path class="st3" d="M531.03,119.29c-0.75-0.75-0.75-1.98,0-2.73c0.75-0.75,1.98-0.75,2.73,0l6.38,6.38
						c0.75,0.75,0.75,1.98,0,2.73c-0.75,0.75-1.98,0.75-2.73,0L531.03,119.29z"/>
					<path class="st3" d="M537.67,128.66c-1.51-1.51-1.51-3.95,0-5.46c1.51-1.51,3.95-1.51,5.46,0l29.44,29.44
						c1.51,1.51,1.51,3.95,0,5.46c-1.51,1.51-3.95,1.51-5.46,0L537.67,128.66z"/>
				</g>
				<path class="st4" d="M527.23,87.59c-0.47-0.47-0.47-1.23,0-1.7c0.47-0.47,1.23-0.47,1.7,0c1.93,1.93,3.39,4.16,4.38,6.55
					c1.02,2.47,1.53,5.1,1.53,7.73h0c0,1.88-0.26,3.77-0.79,5.6c-0.18,0.64-0.85,1.01-1.49,0.83c-0.64-0.18-1.01-0.85-0.83-1.49
					c0.46-1.61,0.69-3.27,0.69-4.94h0c0-2.32-0.45-4.64-1.36-6.82C530.23,91.27,528.94,89.3,527.23,87.59L527.23,87.59z
					 M529.63,109.79c0.36-0.56,1.1-0.72,1.66-0.36c0.56,0.36,0.72,1.1,0.36,1.66c-0.38,0.6-0.81,1.18-1.27,1.75
					c-0.46,0.57-0.95,1.11-1.45,1.62c-0.47,0.47-1.23,0.47-1.7,0c-0.47-0.47-0.47-1.23,0-1.7c0.47-0.47,0.9-0.94,1.28-1.42
					C528.91,110.84,529.29,110.33,529.63,109.79L529.63,109.79z M502.07,112.76c0.47,0.47,0.47,1.23,0,1.7
					c-0.47,0.47-1.23,0.47-1.7,0c-1.93-1.93-3.39-4.16-4.38-6.55c-1.03-2.48-1.54-5.11-1.54-7.73c0-1.22,0.12-2.46,0.34-3.7
					c0.22-1.21,0.56-2.4,1.01-3.57c0.24-0.62,0.93-0.93,1.55-0.69c0.62,0.24,0.93,0.93,0.69,1.55c-0.39,1.02-0.69,2.07-0.89,3.14
					c-0.2,1.06-0.3,2.16-0.3,3.26c0,2.33,0.45,4.65,1.35,6.82C499.07,109.09,500.36,111.05,502.07,112.76L502.07,112.76z
					 M500.2,89.78c-0.39,0.54-1.14,0.66-1.67,0.27c-0.54-0.39-0.66-1.14-0.27-1.67c0.32-0.45,0.66-0.88,1.01-1.29l0.06-0.06
					c0.36-0.42,0.71-0.8,1.05-1.14c0.47-0.47,1.23-0.47,1.7,0c0.47,0.47,0.47,1.23,0,1.7c-0.36,0.35-0.67,0.69-0.93,0.99l-0.05,0.07
					C500.76,89.03,500.47,89.4,500.2,89.78z"/>
			</g>
			<path class="st5" d="M520.51,108.29c-0.56,0.32-0.75,1.03-0.42,1.59c0.32,0.56,1.03,0.75,1.59,0.42c1.77-1.02,3.25-2.5,4.27-4.28
				c0.99-1.72,1.56-3.71,1.56-5.82c0-3.22-1.31-6.14-3.42-8.25c-2.11-2.11-5.03-3.42-8.25-3.42s-6.14,1.31-8.25,3.42
				c-2.11,2.11-3.42,5.03-3.42,8.25c0,0.65,0.52,1.17,1.17,1.17c0.64,0,1.17-0.52,1.17-1.17c0-2.58,1.05-4.91,2.73-6.6
				c1.69-1.69,4.02-2.73,6.6-2.73c2.58,0,4.91,1.04,6.6,2.73c1.69,1.69,2.73,4.02,2.73,6.6c0,1.7-0.45,3.29-1.24,4.66
				C523.12,106.28,521.93,107.46,520.51,108.29z"/>
		</g>
		<path class="st5" d="M608.43,310.45c6.32,0,12.35,1.26,17.86,3.54c5.72,2.37,10.86,5.84,15.17,10.14
			c4.3,4.3,7.77,9.45,10.14,15.17c2.28,5.5,3.54,11.54,3.54,17.85c0,6.32-1.26,12.35-3.54,17.86c-2.37,5.72-5.84,10.87-10.14,15.17
			c-4.3,4.3-9.45,7.77-15.17,10.14c-5.5,2.28-11.54,3.54-17.86,3.54c-6.32,0-12.35-1.26-17.86-3.54
			c-5.72-2.37-10.86-5.84-15.17-10.14c-4.3-4.3-7.77-9.45-10.14-15.17c-2.28-5.5-3.54-11.54-3.54-17.86
			c0-6.32,1.26-12.35,3.54-17.85c2.37-5.72,5.84-10.87,10.14-15.17c4.3-4.3,9.45-7.77,15.17-10.14
			C596.07,311.71,602.11,310.45,608.43,310.45L608.43,310.45z M625.61,315.63c-5.29-2.19-11.09-3.4-17.18-3.4
			c-6.09,0-11.89,1.21-17.18,3.4c-5.49,2.28-10.44,5.61-14.58,9.76c-4.15,4.15-7.48,9.09-9.76,14.58c-2.19,5.29-3.4,11.09-3.4,17.18
			c0,6.09,1.21,11.89,3.4,17.18c2.27,5.49,5.61,10.44,9.76,14.58s9.09,7.48,14.58,9.76c5.29,2.19,11.09,3.4,17.18,3.4
			c6.09,0,11.89-1.21,17.18-3.4c5.49-2.27,10.44-5.61,14.58-9.76c4.15-4.15,7.48-9.09,9.76-14.58c2.19-5.29,3.4-11.09,3.4-17.18
			c0-6.09-1.21-11.89-3.4-17.18c-2.27-5.49-5.61-10.44-9.76-14.58C636.05,321.24,631.1,317.9,625.61,315.63z"/>
		<g>
			<g>
				<path class="st6" d="M476.83,153.58c0,0,23.39-40.31,32.87-55.27c4.16-6.57,10.47-4.71,6.58,4.03
					c-2.15,4.82-9.69,16.76-9.69,16.76c10.59,1.03,14.08,13.85,11.22,19.08c-1.41,2.58-10,9.92-12.06,11.26
					c-2.06,1.33-10.88,12.67-10.88,12.67L476.83,153.58z"/>
				<path class="st7" d="M494.14,124.04c2.43-4.1,4.88-8.22,7.19-12.06c0.75,0.08,1.57,0.17,2.46,0.27
					c3.79,0.44,6.56-0.78,8.62-2.74c-2.77,4.76-5.83,9.59-5.83,9.59c1.66,0.16,3.14,0.61,4.46,1.28c-2.45,1.28-7,2.73-14.51,3.61
					C495.62,124.1,494.82,124.11,494.14,124.04z"/>
				<path class="st7" d="M490.5,130.21c1.66-2.82,3.37-5.72,5.08-8.6c3.53-0.87,7.67-1.79,11.65-2.43
					c10.08,1.48,13.37,13.88,10.57,19c-0.87,1.59-4.48,5-7.6,7.69C501.59,143.44,494.6,135.76,490.5,130.21z"/>
				<path class="st6" d="M515.7,126.85c4.17,2.36,7.05,4.64,4.33,10.18c-2.72,5.54-8.66,5.07-8.56,2.98
					c0.1-2.09,4.99-9.59,4.99-9.59S510.09,126.23,515.7,126.85z"/>
				<path class="st6" d="M512.22,123.37c6.63-1.3,6.81,3.76,3.76,9.96c-3.05,6.2-7.71,6.71-9.5,3.97
					c-1.79-2.74,5.38-10.13,5.38-10.13S505.94,122.67,512.22,123.37z"/>
				<path class="st6" d="M512.48,128.03c-3.05,6.2-7.35,6.35-9.14,3.61c-1.79-2.74,5.38-10.13,5.38-10.13s-2.04-1.88-1.63-3.11
					c0.99-2.95,7.61-3.16,7.87,2.36C515.04,122.53,513.98,124.99,512.48,128.03z"/>
				<path class="st6" d="M483.62,145.15c-4.3-11.29,0.18-27.43,5.02-27.07c4.84,0.36,20.35-1.17,20.89,3.05
					c0.54,4.21-16.04,6.81-16.04,6.81s11.29,13.27,4.3,17.03C490.79,148.73,483.44,148.91,483.62,145.15z"/>
			</g>
			<path class="st8" d="M351.85,224.37c0,0,62.32-4.43,65.14-4.8c2.82-0.38,4.96-1.24,11.1-8.09c6.13-6.84,50.87-68.17,50.87-68.17
				c1.52-2.44,26.69,13.6,22.85,23.01c-1.88,4.61-49.27,77.22-49.27,77.22s-9.21,16.36-24.26,22.75
				c-15.04,6.39-50.02,23.69-50.02,23.69L351.85,224.37z"/>
			<path class="st9" d="M395.44,221.23c4.06-0.3,7.85-0.58,11.1-0.82c13.88,7.5,29.29,22.27,15.94,48.44
				c-2.59,1.17-5.43,2.48-8.39,3.86C434.86,240.77,408.77,226.27,395.44,221.23L395.44,221.23z M410.39,220.11
				c13.44,6.48,30.83,20.75,13.98,47.88c1.41-0.63,2.71-1.2,3.9-1.7c1.5-0.64,2.95-1.38,4.33-2.19
				c11.19-23.25-0.58-37.29-13.14-45.16c-0.85,0.35-1.63,0.51-2.48,0.62C416.48,219.63,414.04,219.83,410.39,220.11z"/>
			<path class="st8" d="M353.07,225.12c53.9,9.35,54.89,71.72,46.89,125.3c-1.73,26.54,1.33,67.16-1.6,78.47
				c-0.27,1.04-1.19,2.56-2.28,4.12l-62.55,2.02h-70.08c-1.09-1.56-2.01-3.08-2.28-4.12c-2.93-11.3,3.14-69.74,1.41-96.28
				l-5.01-89.05l56.41-20.45H353.07z"/>
			<g>
				<path class="st7" d="M372.94,162.27c0.3,0.04,0.59,0.09,0.88,0.15l0.01,0l0,0c5.37,1.13,9.46,5.84,9.56,11.56
					c0.12,6.65-5.17,12.15-11.82,12.27c-6.65,0.13-12.15-5.17-12.27-11.82c-0.07-3.87,1.68-7.34,4.47-9.6
					c-0.31,3.56,0.26,7.96,4.8,8.4l-0.13-6.95C368.39,163.49,371.01,162.19,372.94,162.27z"/>
				<path class="st7" d="M290.85,162.27c-0.3,0.04-0.59,0.09-0.88,0.15l-0.01,0h0c-5.37,1.13-9.46,5.84-9.57,11.56
					c-0.12,6.65,5.17,12.15,11.82,12.27c6.65,0.13,12.15-5.17,12.28-11.82c0.07-3.87-1.68-7.34-4.47-9.6
					c0.31,3.56-0.26,7.96-4.8,8.4l0.13-6.95C295.4,163.49,292.78,162.19,290.85,162.27z"/>
			</g>
			<polygon class="st10" points="379.51,133.44 375.58,169.37 367.38,135.52 			"/>
			<path class="st11" d="M353.07,224.28c2.53-0.18,3.4-0.44,5.42-0.39c5.35,18.79-5.16,32.58-24.96,32.58
				c-14.67,0-26.65-11.98-26.65-26.65v-2.13l7.11-2.58L353.07,224.28z"/>
			<path class="st12" d="M460.1,444.56H321.22c-5.25,0-9.54-4.29-9.54-9.54v0c0-5.25,4.29-9.54,9.54-9.54H460.1
				c5.25,0,9.54,4.29,9.54,9.54v0C469.64,440.27,465.34,444.56,460.1,444.56z"/>
			<path class="st9" d="M321.65,444.56H259.1c-5.25,0-9.54-4.29-9.54-9.54v0c0-5.25,4.29-9.54,9.54-9.54h62.55
				c5.25,0,9.54,4.29,9.54,9.54v0C331.19,440.27,326.89,444.56,321.65,444.56z"/>
			<path class="st6" d="M333.53,184.44L333.53,184.44c-10.75,0-19.54,8.79-19.54,19.54v25.85c0,10.75,8.79,19.54,19.54,19.54l0,0
				c10.75,0,19.54-8.79,19.54-19.54v-25.85C353.07,193.24,344.28,184.44,333.53,184.44z"/>
			<path class="st7" d="M314.06,202.31c-0.05,0.55-0.07,1.11-0.07,1.68v25.85c0,2.4,0.44,4.71,1.24,6.84l37.84-16.92v-14.52
				c-6.96-1.28-23.85-3.03-24.83-3.85C327.6,200.86,320.62,201.53,314.06,202.31z"/>
			<path class="st6" d="M375.57,142.69c0,0.21,0.01,0.43,0.01,0.65v12.06v25.46c0,22.69-18.56,41.25-41.25,41.25l0,0
				c-22.68,0-41.25-18.56-41.25-41.25v-5.51V155.4v-12.06c0-3.96,0.27-6.69,1.2-9.86c4.45-17.97,20.76-31.39,40.05-31.39l0,0
				C356.79,102.09,375.21,120.3,375.57,142.69z"/>
			<path class="st7" d="M375.57,142.69l0.01,0.4l-25.15-10.22l-10.74,6.28l-13.89-3.85c-1.38,2.27-3.85,1.83-3.85,1.83l-14.59-5.27
				l1.81-21.14c2.1-1.63,4.36-3.06,6.75-4.26l43.86,4.49C369.22,118.39,375.36,129.85,375.57,142.69z"/>
			<g>
				<path class="st10" d="M329.3,182.96c-0.23,5.89,4.36,10.85,10.25,11.09c5.89,0.23,10.86-4.36,11.09-10.25h-0.02
					c0.04-1.01-0.76-1.88-1.77-1.91l-17.61-0.69c-1.01-0.04-1.88,0.76-1.91,1.77H329.3z"/>
				<path class="st13" d="M332.94,191.42c1.77,1.55,4.06,2.52,6.6,2.63c2.07,0.08,4.03-0.43,5.7-1.39
					c-0.73-2.22-3.06-3.95-5.94-4.18C336.55,188.27,334.09,189.49,332.94,191.42z"/>
				<path class="st4" d="M349.08,181.91l-16.55-0.65c-0.34,1.82,0.44,3.7,1.66,4.16c1.48,0.55,13.47,0.71,14.36-0.2
					C348.96,184.77,349.07,183.3,349.08,181.91z"/>
			</g>
			<g>
				<path class="st7" d="M316.99,173.78c3-0.06,5.47,2.33,5.53,5.32c0.06,3-2.33,5.47-5.32,5.53c-2.99,0.06-5.47-2.33-5.53-5.32
					C311.61,176.31,313.99,173.84,316.99,173.78z"/>
				<path class="st7" d="M362.05,172.89c2.99-0.06,5.47,2.33,5.53,5.32c0.06,3-2.33,5.47-5.32,5.53c-2.99,0.06-5.47-2.33-5.53-5.32
					C356.67,175.43,359.05,172.95,362.05,172.89z"/>
			</g>
			<path class="st10" d="M364.32,155.11c0.72,0.36,1.6,0.07,1.96-0.65c0.36-0.72,0.07-1.6-0.65-1.96c-3.88-2-9.07-2.23-12.88,0.05
				c-0.69,0.41-0.92,1.32-0.5,2.01c0.41,0.69,1.32,0.92,2.01,0.5C357.34,153.21,361.2,153.62,364.32,155.11z"/>
			<path class="st10" d="M355.43,167.14c0-1.02,0.4-1.98,1.12-2.7c0.72-0.72,1.68-1.12,2.7-1.12c1.02,0,1.98,0.4,2.7,1.12
				c0.72,0.72,1.12,1.69,1.12,2.7c0,0.81,0.66,1.47,1.47,1.47c0.81,0,1.47-0.66,1.47-1.47c0-1.8-0.71-3.51-1.98-4.78
				c-1.27-1.27-2.98-1.98-4.78-1.98c-1.8,0-3.51,0.71-4.78,1.98c-1.27,1.27-1.98,2.98-1.98,4.78c0,0.81,0.66,1.47,1.47,1.47
				C354.77,168.61,355.43,167.95,355.43,167.14z"/>
			<path class="st14" d="M345.47,170.44c1.01,1.39,2.77,3.92,2.92,4.87c0.2,1.32-2.75,2.09-4.79,1.53c-1.45-0.4-1.23-3.64-0.8-5.67
				C343.27,168.92,343.88,168.25,345.47,170.44z"/>
			<path class="st10" d="M325.92,155.11c0.72,0.36,1.6,0.07,1.96-0.65c0.36-0.72,0.07-1.6-0.65-1.96c-3.88-2-9.07-2.23-12.88,0.05
				c-0.69,0.41-0.92,1.32-0.5,2.01c0.41,0.69,1.32,0.92,2.01,0.5C318.94,153.21,322.8,153.62,325.92,155.11z"/>
			<path class="st10" d="M317.02,167.14c0-1.02,0.4-1.98,1.12-2.7c0.72-0.72,1.68-1.12,2.7-1.12c1.02,0,1.98,0.4,2.7,1.12
				c0.72,0.72,1.12,1.69,1.12,2.7c0,0.81,0.66,1.47,1.47,1.47c0.81,0,1.47-0.66,1.47-1.47c0-1.8-0.71-3.51-1.98-4.78
				c-1.27-1.27-2.98-1.98-4.78-1.98c-1.8,0-3.51,0.71-4.78,1.98c-1.27,1.27-1.98,2.98-1.98,4.78c0,0.81,0.66,1.47,1.47,1.47
				C316.36,168.61,317.02,167.95,317.02,167.14z"/>
			<path class="st10" d="M293.08,175.35c0,0,9.17-10.41,4.78-24.32c0,0,16.01-8.72,16.01-21.89c0,0,1.93,4.56,5.07,5.68
				c3.14,1.12,4.76-3.14,3.24-5.07c0,0,11.66,8.51,21.28,10.44c9.63,1.93,12.47-7.8,8.51-11.25c0,0,15.51,10.84,25.44,8.21
				c9.93-2.63,15.81-41.35-18.24-49.86c-34.05-8.51-55.54,0.41-62.84,5.27c-7.3,4.87-11.96,18.04-6.89,26.96
				c0,0-6.08,5.88-7.7,14.39c-1.62,8.51,4.77,29.83,4.77,29.83S293.08,164.4,293.08,175.35z"/>
			<path class="st8" d="M380.25,101.7l-0.02-0.02c-41.63,14.18-62.83-2.19-72.26-14.46c-2.99,0.95-5.52,2-7.59,3.02
				c22.76,37.32,60.02,36.53,84.71,30.7C385.37,114.8,384.07,107.82,380.25,101.7z"/>
			<path class="st7" d="M307.1,294.84c1.5,2.09,2.97,4.12,4.74,5.73c1.77,1.61,17.68,7.28,17.68,7.28s-1.14,3.64-4.68,3.64
				c-3.54,0-6.14,0-9.15,0c-3.02,0-5.3,9.78-16.22,14.14c-8.3,3.32-5.01-19.59-2.95-30.8H307.1z"/>
			<path class="st4" d="M341.03,239.89h-26.27c-2.08,0-3.79,1.7-3.79,3.79v60.91c0,2.08,1.7,3.79,3.79,3.79h26.27
				c2.08,0,3.79-1.7,3.79-3.79v-60.91C344.81,241.59,343.11,239.89,341.03,239.89z"/>
			<g>
				<rect x="310.96" y="247.35" class="st15" width="33.85" height="1.32"/>
				<rect x="310.96" y="299.6" class="st15" width="33.85" height="1.32"/>
			</g>
			<path class="st7" d="M309.96,259.37c0,0,1.36,1.12,1.51,3.83c0.15,2.7-1.68,5.44-2.39,7.23l-2.64,9.03c0,0-1.26,12.55-1.48,12.99
				c-0.1,0.2,0.94,1.56,2.33,3.16l-10.54,1c0.31-3.59,0.61-6,0.61-6l-1.15-6.38c0,0,3.48-9.72,4.86-12.78
				C302.46,268.38,309.27,258.8,309.96,259.37z"/>
			<path class="st15" d="M327.89,263.22c3.12,0,5.66-2.54,5.66-5.66c0-3.12-2.54-5.66-5.66-5.66c-3.12,0-5.66,2.54-5.66,5.66
				C322.23,260.68,324.77,263.22,327.89,263.22z"/>
			<path class="st6" d="M288.15,349.8c0,0,7.28-13.31,9.26-16.12c1.98-2.81,4.68-7.8,4.68-14.66c0-6.87-1.14-10.3,1.77-12.48
				c2.91-2.18,6.97-3.33,6.97-3.33s6.03,0.21,7.23,0.26c1.2,0.05,6.66,1.56,7.96,1.51c1.3-0.05,2.55-1.14,2.76-1.98
				c0.21-0.83,0.21-1.35-1.72-2.08c-1.92-0.73-7.02-2.5-8.79-2.76c-1.77-0.26-7.75-0.62-9.1-0.62c-1.35,0-4.99,0.88-4.99,0.88
				s3.85-1.82,4.73-2.24c0.88-0.42,7.75-0.94,9.67-0.63c1.92,0.31,7.85,3.59,11.86,1.25c0,0,0.88-0.7-0.18-1.82
				c-1.07-1.12-11.7-5.85-13.05-6.37c-1.35-0.52-2.96-0.37-5.77-0.16c-2.81,0.21-5.62,0.31-6.92,1.09c-1.3,0.78-3.54,1.98-3.54,1.98
				s3.9-7.38,4.42-7.9c0.52-0.52,8.48-3.9,9-4.06c0.52-0.16,5.98-1.04,7.49-2.24c1.51-1.2,1.92-3.12,1.92-3.8s-0.21-1.14-3.07-0.88
				c-2.86,0.26-6.19,0.57-8.48,0.83c-2.29,0.26-7.59,2.7-10.24,3.74c-2.65,1.04-4.89,5.15-7.8,10.35
				c-2.91,5.2-6.97,16.33-8.84,20.59c-1.87,4.26-0.62,16.85-8.01,26.62c-7.38,9.78-9.36,11.54-9.36,11.54L288.15,349.8z"/>
			<path class="st8" d="M257.57,245.57c0,0-13.25,4.95-19.64,28.27c-6.39,23.32-13.16,104.93-14.67,122.98
				c-1.5,18.05,25.01,33.66,39.49,16.17c14.48-17.49,33.85-71.65,33.85-71.65s-5.92-8.84-17.02-12.32l-7.05,8.56
				C272.53,337.59,299.61,240.75,257.57,245.57z"/>
			<path class="st9" d="M232.33,306.5c-0.31,2.37-0.61,4.79-0.91,7.25c24.94-3.4,40.53,4.47,45.02,7.17
				c0.47-2.29,0.93-4.74,1.39-7.31C270.86,309.99,255.16,303.85,232.33,306.5L232.33,306.5z M230.51,321.41
				c21.2-2.85,36.49,1.89,44.63,5.58c-0.64,2.84-1.22,5.22-1.67,7.01c-6.89-3.4-21.86-8.7-43.79-5.31
				C229.96,326.25,230.23,323.82,230.51,321.41z"/>
			<path class="st15" d="M314.98,245.57c1.04,0,1.88-0.84,1.88-1.88c0-1.04-0.84-1.88-1.88-1.88c-1.04,0-1.88,0.84-1.88,1.88
				C313.1,244.73,313.94,245.57,314.98,245.57z"/>
			<path class="st16" d="M319.37,244.84c0.63,0,1.15-0.52,1.15-1.15c0-0.63-0.52-1.15-1.15-1.15c-0.63,0-1.15,0.52-1.15,1.15
				C318.23,244.33,318.74,244.84,319.37,244.84z"/>
			<path class="st16" d="M314.98,245.08c0.76,0,1.39-0.62,1.39-1.39c0-0.76-0.62-1.39-1.39-1.39c-0.76,0-1.39,0.62-1.39,1.39
				C313.59,244.46,314.21,245.08,314.98,245.08z"/>
			<path class="st15" d="M314.98,244.32c0.34,0,0.62-0.28,0.62-0.62c0-0.34-0.28-0.62-0.62-0.62s-0.62,0.28-0.62,0.62
				C314.35,244.04,314.63,244.32,314.98,244.32z"/>
			<path class="st4" d="M315.6,243.59c0.34,0,0.62-0.28,0.62-0.62c0-0.34-0.28-0.62-0.62-0.62c-0.34,0-0.62,0.28-0.62,0.62
				C314.98,243.31,315.26,243.59,315.6,243.59z"/>
			<path class="st15" d="M319.37,244.27c0.32,0,0.58-0.26,0.58-0.58c0-0.32-0.26-0.58-0.58-0.58c-0.32,0-0.58,0.26-0.58,0.58
				C318.8,244.01,319.06,244.27,319.37,244.27z"/>
			<g>
				<g>
					<path class="st17" d="M260.07,416.65c-0.25,0-0.5-0.1-0.67-0.3c-0.32-0.37-0.28-0.93,0.09-1.25c0.9-0.79,1.77-1.68,2.58-2.65
						c13.53-16.34,31.66-65.76,33.54-70.94c-1.21-1.63-6.66-8.38-15.72-11.42l-6.67,8.09c-0.27,0.32-0.72,0.42-1.1,0.22
						c-0.37-0.19-0.56-0.62-0.45-1.03c0.09-0.3,8.5-30.69,8.55-56.18c0-0.49,0.4-0.89,0.89-0.89c0,0,0,0,0,0
						c0.49,0,0.89,0.4,0.89,0.89c-0.04,20.31-5.33,43.65-7.6,52.75l4.49-5.45c0.23-0.28,0.61-0.39,0.95-0.28
						c11.26,3.53,17.24,12.3,17.49,12.67c0.16,0.23,0.19,0.53,0.1,0.79c-0.79,2.22-19.59,54.51-34,71.92
						c-0.87,1.05-1.81,2.01-2.78,2.86C260.48,416.58,260.28,416.65,260.07,416.65z"/>
				</g>
				<g>
					<path class="st17" d="M244.51,372.49c-0.2,0-0.4-0.07-0.56-0.2c-0.38-0.31-0.43-0.87-0.12-1.25l31.23-37.91
						c0.31-0.38,0.87-0.43,1.25-0.12c0.38,0.31,0.43,0.87,0.12,1.25l-31.23,37.91C245.02,372.38,244.77,372.49,244.51,372.49z"/>
				</g>
				<g>
					<path class="st17" d="M244.7,364.99c-0.34,0-0.67-0.2-0.82-0.53c-0.2-0.45,0.01-0.97,0.46-1.17c3-1.31,8.62-3.35,8.86-3.44
						c0.46-0.17,0.97,0.07,1.14,0.53c0.17,0.46-0.07,0.97-0.53,1.14c-0.06,0.02-5.8,2.1-8.75,3.39
						C244.94,364.97,244.82,364.99,244.7,364.99z"/>
				</g>
				<g>
					<path class="st17" d="M277.6,315.78c-0.1,0-0.2-0.02-0.3-0.06c-0.46-0.17-0.7-0.68-0.53-1.14c0.06-0.17,6.21-16.98,6.76-18.82
						c0.14-0.47,0.64-0.74,1.11-0.59c0.47,0.14,0.74,0.64,0.6,1.11c-0.57,1.88-6.54,18.22-6.79,18.92
						C278.3,315.56,277.96,315.78,277.6,315.78z"/>
				</g>
				<g>
					<path class="st17" d="M403.97,304.5c-0.48,0-0.87-0.38-0.89-0.86c-0.72-24.39-5.95-43.46-15.52-56.68
						c-0.29-0.4-0.2-0.95,0.2-1.24c0.4-0.29,0.95-0.2,1.24,0.2c9.79,13.51,15.13,32.91,15.86,57.67c0.01,0.49-0.37,0.9-0.86,0.91
						C403.99,304.5,403.98,304.5,403.97,304.5z"/>
				</g>
				<g>
					<path class="st17" d="M416.99,220.46c-0.46,0-0.85-0.35-0.88-0.82c-0.04-0.49,0.33-0.92,0.81-0.96
						c0.12-0.01,12.05-0.96,18.3-1.05c0.5,0,0.89,0.38,0.9,0.88c0.01,0.49-0.38,0.89-0.88,0.9c-6.2,0.09-18.07,1.04-18.19,1.05
						C417.03,220.46,417.01,220.46,416.99,220.46z"/>
				</g>
			</g>
		</g>
		<g>
			<path class="st18" d="M510.82,300.66H351.77c-2.29,0-4.38,1.88-4.64,4.17l-11.31,99.5c-0.26,2.29,1.4,4.17,3.69,4.17h159.05
				c2.29,0,4.38-1.88,4.64-4.17l11.31-99.5C514.78,302.53,513.11,300.66,510.82,300.66z"/>
			<path class="st4" d="M524.37,300.66H358.02c-2.29,0-4.38,1.88-4.64,4.17l-11.31,99.5c-0.26,2.29,1.4,4.17,3.69,4.17h166.35
				c2.29,0,4.38-1.88,4.64-4.17l11.31-99.5C528.32,302.53,526.66,300.66,524.37,300.66z"/>
			<path class="st19" d="M447.6,361.89h-14.85h-2.23h-14.85c-2.07,0-3.34,1.69-2.82,3.76l16.36,65.61c0.52,2.07,2.63,3.76,4.7,3.76
				h7.17h2.23h7.17c2.07,0,3.69-1.69,3.61-3.76l-2.59-65.61C451.43,363.58,449.67,361.89,447.6,361.89z"/>
			<path class="st18" d="M452.42,361.89h-14.85h-2.23h-14.85c-2.07,0-3.34,1.69-2.82,3.76l16.37,65.61c0.52,2.07,2.63,3.76,4.7,3.76
				h7.17h2.23h7.17c2.07,0,3.69-1.69,3.61-3.76l-2.59-65.61C456.25,363.58,454.49,361.89,452.42,361.89z"/>
			<path class="st4" d="M480.72,441.16h-84.62c-3.38,0-6.14-2.76-6.14-6.14l0,0c0-3.38,2.76-6.14,6.14-6.14h84.62
				c3.38,0,6.14,2.76,6.14,6.14l0,0C486.86,438.4,484.09,441.16,480.72,441.16z"/>
			<path class="st19" d="M405.19,441.16h-32.25c-3.38,0-6.14-2.76-6.14-6.14l0,0c0-3.38,2.76-6.14,6.14-6.14h32.25
				c3.38,0,6.14,2.76,6.14,6.14l0,0C411.33,438.4,408.56,441.16,405.19,441.16z"/>
		</g>
		<path class="st20" d="M56.42,435.02h637.15c4.18,0,7.6,3.42,7.6,7.6v0c0,4.18-3.42,7.6-7.6,7.6h-25.64c-2.32,0-4.22,1.9-4.22,4.22
			l0,0c0,2.32,1.9,4.22,4.22,4.22h9.38c2.9,0,5.28,2.38,5.28,5.28v0c0,2.9-2.38,5.28-5.28,5.28H73.52c-2.9,0-5.28-2.37-5.28-5.28v0
			c0-2.9,2.38-5.28,5.28-5.28h7.39c2.32,0,4.22-1.9,4.22-4.22l0,0c0-2.32-1.9-4.22-4.22-4.22H56.42c-4.18,0-7.6-3.42-7.6-7.6v0
			C48.82,438.44,52.25,435.02,56.42,435.02L56.42,435.02z M60.38,469.22c2.79,0,5.07-2.28,5.07-5.07v-0.42
			c0-2.79-2.28-5.07-5.07-5.07l0,0c-2.79,0-5.07,2.28-5.07,5.07v0.42C55.31,466.94,57.59,469.22,60.38,469.22L60.38,469.22z"/>
		<path class="st3" d="M605.75,307.46c12.63,0,24.07,5.12,32.35,13.4c8.28,8.28,13.4,19.72,13.4,32.35
			c0,12.64-5.12,24.08-13.4,32.36c-8.28,8.28-19.72,13.4-32.35,13.4c-12.64,0-24.08-5.12-32.35-13.4
			c-8.28-8.28-13.4-19.72-13.4-32.36c0-12.63,5.12-24.07,13.4-32.35C581.68,312.58,593.12,307.46,605.75,307.46z"/>
		
			<ellipse transform="matrix(0.9848 -0.1734 0.1734 0.9848 -52.0729 110.3945)" class="st4" cx="605.75" cy="353.21" rx="34.98" ry="34.98"/>
		<g>
			<path class="st21" d="M605.75,320.48L605.75,320.48c0.42,0,0.76,0.34,0.76,0.76v1.85c0,0.42-0.34,0.76-0.76,0.76h0
				c-0.42,0-0.76-0.34-0.76-0.76v-1.85C604.99,320.82,605.33,320.48,605.75,320.48z"/>
			<path class="st21" d="M605.75,382.57L605.75,382.57c0.42,0,0.76,0.34,0.76,0.76v1.85c0,0.42-0.34,0.76-0.76,0.76h0
				c-0.42,0-0.76-0.34-0.76-0.76v-1.85C604.99,382.91,605.33,382.57,605.75,382.57z"/>
		</g>
		<g>
			<path class="st21" d="M622.12,324.86L622.12,324.86c0.36,0.21,0.49,0.68,0.28,1.04l-0.93,1.6c-0.21,0.36-0.67,0.49-1.04,0.28l0,0
				c-0.36-0.21-0.49-0.68-0.28-1.04l0.93-1.6C621.29,324.78,621.76,324.65,622.12,324.86z"/>
			<path class="st21" d="M591.07,378.64L591.07,378.64c0.37,0.21,0.49,0.68,0.28,1.04l-0.93,1.6c-0.21,0.36-0.67,0.49-1.04,0.28l0,0
				c-0.36-0.21-0.49-0.67-0.28-1.04l0.93-1.61C590.24,378.56,590.71,378.43,591.07,378.64z"/>
		</g>
		<g>
			<path class="st21" d="M634.1,336.84L634.1,336.84c0.21,0.36,0.09,0.83-0.28,1.04l-1.6,0.93c-0.36,0.21-0.83,0.08-1.04-0.28l0,0
				c-0.21-0.36-0.08-0.83,0.28-1.04l1.61-0.93C633.43,336.36,633.89,336.48,634.1,336.84z"/>
			<path class="st21" d="M580.32,367.89L580.32,367.89c0.21,0.36,0.08,0.83-0.28,1.04l-1.6,0.93c-0.36,0.21-0.83,0.08-1.04-0.28l0,0
				c-0.21-0.36-0.08-0.83,0.28-1.04l1.61-0.93C579.65,367.4,580.11,367.53,580.32,367.89z"/>
		</g>
		<g>
			<path class="st21" d="M638.49,353.21L638.49,353.21c0,0.42-0.34,0.76-0.76,0.76h-1.85c-0.42,0-0.76-0.34-0.76-0.76v0
				c0-0.42,0.34-0.76,0.76-0.76h1.85C638.15,352.45,638.49,352.79,638.49,353.21z"/>
			<path class="st21" d="M576.39,353.21L576.39,353.21c0,0.42-0.34,0.76-0.76,0.76h-1.85c-0.42,0-0.76-0.34-0.76-0.76v0
				c0-0.42,0.34-0.76,0.76-0.76h1.85C576.05,352.45,576.39,352.79,576.39,353.21z"/>
		</g>
		<g>
			<path class="st21" d="M634.1,369.58L634.1,369.58c-0.21,0.36-0.68,0.49-1.04,0.28l-1.61-0.93c-0.36-0.21-0.49-0.68-0.28-1.04l0,0
				c0.21-0.36,0.68-0.49,1.04-0.28l1.6,0.93C634.19,368.75,634.31,369.22,634.1,369.58z"/>
			<path class="st21" d="M580.32,338.53L580.32,338.53c-0.21,0.36-0.68,0.49-1.04,0.28l-1.61-0.93c-0.36-0.21-0.49-0.68-0.28-1.04
				l0,0c0.21-0.36,0.68-0.49,1.04-0.28l1.6,0.93C580.41,337.7,580.53,338.17,580.32,338.53z"/>
		</g>
		<g>
			<path class="st21" d="M622.12,381.56L622.12,381.56c-0.37,0.21-0.83,0.08-1.04-0.28l-0.93-1.6c-0.21-0.36-0.08-0.83,0.28-1.04
				l0,0c0.36-0.21,0.83-0.08,1.04,0.28l0.93,1.61C622.61,380.89,622.48,381.35,622.12,381.56z"/>
			<path class="st21" d="M591.07,327.78L591.07,327.78c-0.36,0.21-0.83,0.09-1.04-0.28l-0.93-1.61c-0.21-0.36-0.08-0.83,0.28-1.04
				l0,0c0.36-0.21,0.83-0.08,1.04,0.28l0.93,1.6C591.56,327.11,591.43,327.57,591.07,327.78z"/>
		</g>
		<path class="st21" d="M606.83,353.21c0,0.6-0.48,1.08-1.08,1.08c-0.59,0-1.08-0.48-1.08-1.08v-25.24c0-0.59,0.48-1.08,1.08-1.08
			c0.6,0,1.08,0.48,1.08,1.08V353.21z"/>
		<path class="st13" d="M606.54,352.48c0.41,0.43,0.38,1.11-0.05,1.52c-0.43,0.41-1.12,0.38-1.52-0.05l-12.47-13.37
			c-0.41-0.43-0.38-1.11,0.05-1.52c0.43-0.41,1.11-0.38,1.52,0.05L606.54,352.48z"/>
		<g>
			<path class="st4" d="M188.68,73.85h67.37c5.62,0,10.22,4.6,10.22,10.22v42.15v3.12v26.83c0,0.47-0.27,0.87-0.71,1.05
				c-0.43,0.18-0.91,0.09-1.24-0.25l-17.42-17.42h-58.23c-5.62,0-10.22-4.6-10.22-10.22V84.07
				C178.46,78.45,183.06,73.85,188.68,73.85z"/>
			<path class="st5" d="M184.16,79.25h67.37c2.56,0,4.9,1.05,6.59,2.74c1.69,1.69,2.74,4.03,2.74,6.59v72.1
				c0,0.06-0.01,0.11-0.04,0.14c-0.03,0.04-0.07,0.07-0.12,0.09c-0.05,0.02-0.1,0.03-0.15,0.02l-0.02,0
				c-0.04-0.01-0.08-0.03-0.11-0.07l-17.42-17.42c-0.17-0.17-0.4-0.26-0.63-0.26h-58.23c-2.56,0-4.9-1.05-6.59-2.74
				c-1.69-1.69-2.74-4.03-2.74-6.59V88.59c0-2.56,1.05-4.9,2.74-6.59C179.26,80.31,181.6,79.25,184.16,79.25L184.16,79.25z
				 M251.53,77.48h-67.37c-3.06,0-5.83,1.25-7.85,3.26c-2.01,2.01-3.26,4.79-3.26,7.85v45.27c0,3.06,1.25,5.83,3.26,7.85
				c2.01,2.01,4.79,3.26,7.85,3.26h57.86l17.16,17.16c0.28,0.28,0.63,0.47,0.99,0.55l0.05,0.01c0.38,0.08,0.79,0.04,1.17-0.12
				c0.39-0.16,0.7-0.42,0.92-0.74c0.22-0.33,0.34-0.72,0.34-1.13v-72.1c0-3.06-1.25-5.83-3.26-7.85
				C257.37,78.73,254.59,77.48,251.53,77.48z"/>
			<path class="st6" d="M239.96,93.1L239.96,93.1c-4.53-4.53-11.95-4.53-16.48,0l-1.12,1.12l-1.12-1.12
				c-4.53-4.53-11.94-4.53-16.48,0l0,0c-4.53,4.53-4.53,11.94,0,16.48l1.12,1.12l16.47,16.48l16.48-16.48l1.12-1.12
				C244.49,105.05,244.49,97.63,239.96,93.1z"/>
		</g>
		<path class="st5" d="M668.79,195.16L668.79,195.16L668.79,195.16z M663.02,173.2c-2.01-2.01-4.78-3.25-7.84-3.25
			c-3.06,0-5.84,1.24-7.84,3.25c-2.01,2.01-3.25,4.78-3.25,7.84c0,3.06,1.24,5.84,3.25,7.85c2.01,2.01,4.78,3.25,7.84,3.25
			c3.06,0,5.84-1.24,7.84-3.25s3.25-4.78,3.25-7.85C666.27,177.98,665.03,175.21,663.02,173.2L663.02,173.2z M660.63,162.2
			c1.54,0.44,3,1.07,4.35,1.85c1.39,0.8,2.67,1.77,3.81,2.88c0.22,0.22,0.56,0.25,0.81,0.1l5.15-2.98l0.03-0.02
			c0.29-0.16,0.63-0.19,0.94-0.11c0.32,0.08,0.6,0.29,0.78,0.59l0.02,0.04l3.63,6.28c0.17,0.3,0.21,0.65,0.12,0.97
			c-0.08,0.32-0.29,0.6-0.59,0.78l-0.03,0.02l-5.11,2.95c-0.27,0.15-0.39,0.46-0.32,0.75h0c0.19,0.76,0.33,1.54,0.43,2.34
			c0.09,0.78,0.14,1.58,0.14,2.39c0,0.81-0.05,1.61-0.14,2.39c-0.1,0.8-0.24,1.58-0.43,2.34c-0.08,0.32,0.08,0.63,0.36,0.77
			l5.11,2.95h0c0.3,0.17,0.51,0.46,0.59,0.78c0.09,0.32,0.05,0.67-0.12,0.97l-3.65,6.32l0,0c-0.17,0.3-0.46,0.51-0.78,0.59
			c-0.32,0.09-0.67,0.05-0.97-0.12l-0.04-0.02l-5.12-2.96c-0.27-0.15-0.6-0.1-0.81,0.1c-1.15,1.11-2.43,2.07-3.81,2.88
			c-1.36,0.79-2.83,1.42-4.38,1.86c-0.3,0.09-0.5,0.36-0.5,0.66v5.95c0,0.35-0.14,0.67-0.38,0.9c-0.23,0.23-0.55,0.37-0.9,0.37h-7.3
			c-0.35,0-0.67-0.14-0.9-0.37c-0.23-0.23-0.38-0.55-0.38-0.9v-5.95c0-0.32-0.22-0.59-0.52-0.66c-1.54-0.44-2.99-1.07-4.35-1.85
			c-1.39-0.8-2.67-1.77-3.81-2.88c-0.23-0.22-0.59-0.25-0.85-0.08l-5.12,2.96c-0.3,0.17-0.65,0.21-0.97,0.12
			c-0.32-0.08-0.6-0.29-0.78-0.59l-0.02-0.04l-3.63-6.28l0,0c-0.17-0.3-0.21-0.65-0.13-0.97c0.09-0.32,0.29-0.6,0.59-0.78l5.15-2.97
			c0.27-0.16,0.39-0.47,0.32-0.75h0c-0.19-0.76-0.33-1.54-0.43-2.34c-0.09-0.78-0.14-1.58-0.14-2.39c0-0.81,0.05-1.61,0.14-2.39
			c0.1-0.8,0.24-1.58,0.43-2.34c0.08-0.32-0.08-0.64-0.36-0.77l-5.11-2.95c-0.3-0.17-0.5-0.46-0.59-0.78
			c-0.08-0.32-0.05-0.67,0.13-0.97l0.02-0.04l3.63-6.28h0c0.18-0.3,0.46-0.51,0.78-0.59c0.32-0.08,0.67-0.05,0.97,0.12l0,0
			l5.16,2.98c0.28,0.16,0.62,0.11,0.83-0.11c1.14-1.1,2.42-2.06,3.8-2.86c1.36-0.79,2.83-1.42,4.38-1.86c0.3-0.09,0.5-0.36,0.5-0.66
			v-5.95c0-0.35,0.14-0.67,0.38-0.9c0.23-0.23,0.55-0.38,0.9-0.38h7.3c0.35,0,0.67,0.14,0.9,0.38c0.23,0.23,0.38,0.55,0.38,0.9v5.95
			C660.1,161.86,660.33,162.13,660.63,162.2z"/>
		<g>
			<path class="st3" d="M133.73,322.97h57.78c2.63,0,4.79-2.15,4.79-4.79v-43.87c0-2.63-2.15-4.79-4.79-4.79h-2.35v-2.23
				c0-0.72-0.59-1.32-1.32-1.32h-17.46c-0.72,0-1.32,0.59-1.32,1.32v2.23h-35.34c-2.63,0-4.79,2.15-4.79,4.79v43.87
				C128.95,320.82,131.1,322.97,133.73,322.97z"/>
			<path class="st4" d="M174.06,322.97h-36.51c-2.15,0-3.9-1.75-3.9-3.9V281.8c0-2.15,1.75-3.9,3.9-3.9h36.51
				c2.15,0,3.9,1.75,3.9,3.9v37.27C177.96,321.22,176.2,322.97,174.06,322.97z"/>
			<path class="st5" d="M139.5,322.97h53.35c2.63,0,5.75-2.15,6.92-4.79l16.82-37.75c1.17-2.63-0.02-4.79-2.65-4.79h-2.8l1.06-2.37
				c0.43-0.96-0.01-1.75-0.97-1.75h-19.47c-0.96,0-2.1,0.79-2.53,1.75l-1.06,2.37h-27.58c-2.63,0-5.75,2.15-6.92,4.79l-16.82,37.75
				C135.67,320.82,136.86,322.97,139.5,322.97z"/>
		</g>
		<g>
			<path class="st4" d="M368.24,45.3h107.33c2.99,0,5.44,2.45,5.44,5.44v22.44v1.66v14.29c0,0.25-0.14,0.47-0.38,0.56
				c-0.23,0.1-0.49,0.05-0.66-0.13l-9.28-9.27H368.24c-2.99,0-5.44-2.45-5.44-5.44V50.74C362.8,47.75,365.25,45.3,368.24,45.3z"/>
			<path class="st22" d="M384.2,75.67c6.8,0,12.34-5.54,12.34-12.34c0-6.79-5.54-12.34-12.34-12.34c-6.8,0-12.34,5.54-12.34,12.34
				C371.87,70.13,377.41,75.67,384.2,75.67z"/>
			<g>
				<path class="st4" d="M384.2,61.18c1.86,0,3.37-1.51,3.37-3.37c0-1.86-1.51-3.37-3.37-3.37c-1.86,0-3.37,1.51-3.37,3.37
					C380.83,59.66,382.35,61.18,384.2,61.18z"/>
				<path class="st4" d="M384.2,62.25L384.2,62.25c2.63,0,4.78,2.15,4.78,4.78v2.06v1.25v1.35c0,0.29-0.24,0.54-0.54,0.54h-8.49
					c-0.29,0-0.54-0.24-0.54-0.54v-1.35v-1.25v-2.06C379.42,64.4,381.58,62.25,384.2,62.25z"/>
			</g>
			<g>
				<g>
					<path class="st5" d="M414.86,62.2h24.52c0.62,0,1.13,0.51,1.13,1.13v0c0,0.62-0.5,1.12-1.13,1.12h-24.52
						c-0.62,0-1.13-0.51-1.13-1.12v0C413.74,62.71,414.24,62.2,414.86,62.2z"/>
					<path class="st5" d="M407.72,62.2h-3.29c-0.62,0-1.13,0.51-1.13,1.13v0c0,0.62,0.51,1.12,1.13,1.12h3.29
						c0.62,0,1.13-0.51,1.13-1.12v0C408.84,62.71,408.34,62.2,407.72,62.2z"/>
					<path class="st5" d="M404.43,55.29h34.96c0.62,0,1.13,0.51,1.13,1.13l0,0c0,0.62-0.5,1.13-1.13,1.13h-34.96
						c-0.62,0-1.13-0.51-1.13-1.13l0,0C403.3,55.8,403.81,55.29,404.43,55.29z"/>
					<path class="st5" d="M404.43,69.12h34.96c0.62,0,1.13,0.51,1.13,1.13l0,0c0,0.62-0.5,1.13-1.13,1.13h-34.96
						c-0.62,0-1.13-0.51-1.13-1.13l0,0C403.3,69.62,403.81,69.12,404.43,69.12z"/>
				</g>
			</g>
			<path class="st23" d="M460.12,75.67c6.8,0,12.34-5.54,12.34-12.34c0-6.79-5.54-12.34-12.34-12.34s-12.34,5.54-12.34,12.34
				C447.78,70.13,453.32,75.67,460.12,75.67z"/>
			<path class="st4" d="M464.76,68.14L464.76,68.14L464.76,68.14z M462.79,60.66c-0.68-0.68-1.63-1.11-2.67-1.11
				c-1.04,0-1.99,0.42-2.67,1.11c-0.68,0.68-1.11,1.63-1.11,2.67c0,1.04,0.42,1.99,1.11,2.67c0.68,0.68,1.63,1.11,2.67,1.11
				c1.04,0,1.99-0.42,2.67-1.11c0.68-0.68,1.11-1.63,1.11-2.67C463.9,62.29,463.48,61.34,462.79,60.66L462.79,60.66z M461.98,56.91
				c0.52,0.15,1.02,0.36,1.48,0.63c0.47,0.27,0.91,0.6,1.3,0.98c0.08,0.07,0.19,0.08,0.28,0.03l1.76-1.01l0.01-0.01
				c0.1-0.05,0.22-0.06,0.32-0.04c0.11,0.03,0.21,0.1,0.26,0.2l0.01,0.01l1.24,2.14c0.06,0.1,0.07,0.22,0.04,0.33
				c-0.03,0.11-0.1,0.21-0.2,0.26l-0.01,0.01l-1.74,1.01c-0.09,0.05-0.13,0.16-0.11,0.26l0,0c0.07,0.26,0.11,0.52,0.15,0.8
				c0.03,0.27,0.05,0.54,0.05,0.81c0,0.28-0.02,0.55-0.05,0.82c-0.03,0.27-0.08,0.54-0.15,0.8c-0.03,0.11,0.03,0.22,0.12,0.26
				l1.74,1.01l0,0c0.1,0.06,0.17,0.16,0.2,0.26c0.03,0.11,0.02,0.23-0.04,0.33l-1.24,2.15h0c-0.06,0.1-0.16,0.17-0.26,0.2
				c-0.11,0.03-0.23,0.02-0.33-0.04l-0.01-0.01l-1.74-1.01c-0.09-0.05-0.2-0.03-0.28,0.03c-0.39,0.38-0.83,0.71-1.3,0.98
				c-0.46,0.27-0.96,0.48-1.49,0.63c-0.1,0.03-0.17,0.12-0.17,0.22V72c0,0.12-0.05,0.23-0.13,0.31c-0.08,0.08-0.19,0.13-0.31,0.13
				h-2.49c-0.12,0-0.23-0.05-0.31-0.13c-0.08-0.08-0.13-0.19-0.13-0.31v-2.03c0-0.11-0.08-0.2-0.18-0.23
				c-0.52-0.15-1.02-0.36-1.48-0.63c-0.47-0.27-0.91-0.6-1.3-0.98c-0.08-0.08-0.2-0.08-0.29-0.03l-1.74,1.01
				c-0.1,0.06-0.22,0.07-0.33,0.04c-0.11-0.03-0.21-0.1-0.26-0.2l-0.01-0.01l-1.24-2.14h0c-0.06-0.1-0.07-0.22-0.04-0.33
				c0.03-0.11,0.1-0.2,0.2-0.26l1.76-1.01c0.09-0.05,0.13-0.16,0.11-0.26l0,0c-0.06-0.26-0.11-0.53-0.15-0.8
				c-0.03-0.27-0.05-0.54-0.05-0.82c0-0.28,0.02-0.55,0.05-0.81c0.03-0.27,0.08-0.54,0.15-0.8c0.03-0.11-0.03-0.22-0.12-0.26
				l-1.74-1.01c-0.1-0.06-0.17-0.16-0.2-0.26c-0.03-0.11-0.02-0.23,0.04-0.33l0.01-0.01l1.23-2.14h0c0.06-0.1,0.16-0.17,0.26-0.2
				c0.11-0.03,0.23-0.02,0.33,0.04l0,0l1.76,1.01c0.09,0.05,0.21,0.04,0.28-0.04c0.39-0.37,0.82-0.7,1.29-0.98
				c0.46-0.27,0.96-0.48,1.49-0.63c0.1-0.03,0.17-0.12,0.17-0.22v-2.03c0-0.12,0.05-0.23,0.13-0.31c0.08-0.08,0.19-0.13,0.31-0.13
				h2.49c0.12,0,0.23,0.05,0.31,0.13c0.08,0.08,0.13,0.19,0.13,0.31v2.03C461.8,56.79,461.87,56.89,461.98,56.91z"/>
		</g>
		<g>
			<rect x="157.21" y="425.76" class="st24" width="75.09" height="6.89"/>
			<path class="st3" d="M166.46,426.36c0.82,0,1.49-0.67,1.49-1.49c0-0.82-0.67-1.49-1.49-1.49h-53.04c-1.6,0-3.05,0.66-4.11,1.71
				l-0.01,0.01c-1.05,1.05-1.71,2.51-1.71,4.1c0,1.6,0.65,3.05,1.71,4.1c1.05,1.06,2.51,1.71,4.11,1.71h53.04
				c0.82,0,1.49-0.67,1.49-1.49c0-0.82-0.67-1.49-1.49-1.49h-2.43c-0.41-0.3-0.81-0.64-1.17-1.02c-0.68-0.71-1.17-1.53-1.09-2.35
				c0.09-0.95,0.7-1.72,1.4-2.32H166.46z"/>
			<path class="st5" d="M232.3,426.36c0.82,0,1.49-0.67,1.49-1.49c0-0.82-0.67-1.49-1.49-1.49h-66.52c-1.6,0-3.05,0.66-4.1,1.71
				l-0.01,0.01c-1.05,1.05-1.71,2.51-1.71,4.1c0,1.6,0.65,3.05,1.71,4.1c1.05,1.06,2.51,1.71,4.11,1.71h66.52
				c0.82,0,1.49-0.67,1.49-1.49c0-0.82-0.67-1.49-1.49-1.49h-66.52c-0.78,0-1.49-0.32-2.01-0.84c-0.52-0.51-0.84-1.22-0.84-2.01
				c0-0.78,0.32-1.49,0.83-2.01c0.52-0.51,1.23-0.83,2.01-0.83H232.3z"/>
			<rect x="115.75" y="412.6" class="st24" width="62.95" height="8.35"/>
			<path class="st25" d="M167.48,413.32c-1,0-1.81-0.81-1.81-1.8c0-1,0.81-1.81,1.81-1.81h48.88c1.94,0,3.7,0.79,4.98,2.07
				l0.01,0.01c1.28,1.28,2.07,3.04,2.07,4.98c0,1.94-0.79,3.7-2.07,4.98c-1.28,1.28-3.04,2.08-4.99,2.08h-48.88
				c-1,0-1.81-0.81-1.81-1.8c0-1,0.81-1.8,1.81-1.8h2.95c0.49-0.37,0.99-0.78,1.42-1.23c0.83-0.86,1.42-1.85,1.33-2.85
				c-0.11-1.15-0.85-2.09-1.7-2.82H167.48z"/>
			<path class="st26" d="M115.75,413.32c-1,0-1.81-0.81-1.81-1.8c0-1,0.81-1.81,1.81-1.81h52.57c1.94,0,3.7,0.79,4.98,2.07
				l0.01,0.01c1.28,1.28,2.07,3.04,2.07,4.98c0,1.94-0.79,3.7-2.07,4.98c-1.28,1.28-3.04,2.08-4.99,2.08h-52.57
				c-1,0-1.81-0.81-1.81-1.8c0-1,0.81-1.8,1.81-1.8h52.57c0.95,0,1.81-0.39,2.43-1.02c0.63-0.62,1.02-1.48,1.02-2.43
				c0-0.95-0.39-1.81-1.01-2.44c-0.63-0.62-1.49-1.01-2.44-1.01H115.75z"/>
			<rect x="162.56" y="398.22" class="st24" width="40.85" height="8.55"/>
			<path class="st20" d="M174.04,398.96c1.02,0,1.85-0.83,1.85-1.85c0-1.02-0.83-1.85-1.85-1.85h-30.12c-1.98,0-3.79,0.81-5.1,2.12
				l-0.01,0.01c-1.31,1.31-2.12,3.11-2.12,5.09s0.81,3.79,2.12,5.1c1.31,1.31,3.11,2.13,5.1,2.13h30.12c1.02,0,1.85-0.83,1.85-1.85
				c0-1.02-0.83-1.85-1.85-1.85h-3.02c-0.51-0.37-1.01-0.8-1.45-1.26c-0.85-0.88-1.46-1.89-1.36-2.92c0.11-1.17,0.86-2.14,1.74-2.88
				H174.04z"/>
			<path class="st8" d="M203.41,398.96c1.02,0,1.85-0.83,1.85-1.85c0-1.02-0.83-1.85-1.85-1.85h-30.22c-1.98,0-3.79,0.81-5.1,2.12
				l-0.01,0.01c-1.31,1.31-2.12,3.11-2.12,5.09s0.81,3.79,2.12,5.1c1.31,1.31,3.11,2.13,5.1,2.13h30.22c1.02,0,1.85-0.83,1.85-1.85
				c0-1.02-0.83-1.85-1.85-1.85h-30.22c-0.97,0-1.85-0.4-2.49-1.04c-0.64-0.64-1.04-1.52-1.04-2.49c0-0.97,0.4-1.85,1.03-2.49
				c0.64-0.64,1.52-1.04,2.5-1.04H203.41z"/>
		</g>
		<g>
			<path class="st25" d="M521.42,428.92h50.88c1.68,0,3.05,1.37,3.05,3.05l0,0c0,1.68-1.37,3.05-3.05,3.05h-50.88
				c-1.68,0-3.05-1.37-3.05-3.05l0,0C518.37,430.3,519.74,428.92,521.42,428.92z"/>
			<path class="st21" d="M523.12,428.92h47.46c0.95,0,1.72-0.78,1.72-1.72l0,0c0-0.95-0.78-1.72-1.72-1.72h-47.46
				c-0.95,0-1.72,0.77-1.72,1.72l0,0C521.4,428.15,522.18,428.92,523.12,428.92z"/>
			<path class="st26" d="M523.22,419.72h47.26c1.58,0,2.88,1.29,2.88,2.88l0,0c0,1.58-1.29,2.88-2.88,2.88h-47.26
				c-1.58,0-2.88-1.3-2.88-2.88l0,0C520.34,421.02,521.64,419.72,523.22,419.72z"/>
			<g>
				<path class="st22" d="M525.01,421.4l3.67-3.67c0.54-0.54,1.42-0.54,1.96,0l3.67,3.67c0.54,0.54,0.54,1.42,0,1.96l-3.67,3.67
					c-0.54,0.54-1.42,0.54-1.96,0l-3.67-3.67C524.47,422.82,524.47,421.94,525.01,421.4z"/>
				<path class="st22" d="M533.61,421.4l3.67-3.67c0.54-0.54,1.42-0.54,1.96,0l3.67,3.67c0.54,0.54,0.54,1.42,0,1.96l-3.67,3.67
					c-0.54,0.54-1.42,0.54-1.96,0l-3.67-3.67C533.07,422.82,533.07,421.94,533.61,421.4z"/>
				<path class="st22" d="M542.21,421.4l3.67-3.67c0.54-0.54,1.42-0.54,1.96,0l3.67,3.67c0.54,0.54,0.54,1.42,0,1.96l-3.67,3.67
					c-0.54,0.54-1.42,0.54-1.96,0l-3.67-3.67C541.67,422.82,541.67,421.94,542.21,421.4z"/>
				<path class="st22" d="M550.81,421.4l3.67-3.67c0.54-0.54,1.42-0.54,1.96,0l3.67,3.67c0.54,0.54,0.54,1.42,0,1.96l-3.67,3.67
					c-0.54,0.54-1.42,0.54-1.96,0l-3.67-3.67C550.27,422.82,550.27,421.94,550.81,421.4z"/>
				<path class="st22" d="M559.41,421.4l3.67-3.67c0.54-0.54,1.42-0.54,1.96,0l3.67,3.67c0.54,0.54,0.54,1.42,0,1.96l-3.67,3.67
					c-0.54,0.54-1.42,0.54-1.96,0l-3.67-3.67C558.87,422.82,558.87,421.94,559.41,421.4z"/>
			</g>
			<path class="st27" d="M519.22,419.72h55.14c0.8,0,1.46,0.65,1.46,1.45l0,0c0,0.8-0.66,1.46-1.46,1.46h-55.14
				c-0.8,0-1.46-0.66-1.46-1.46l0,0C517.76,420.38,518.41,419.72,519.22,419.72z"/>
			<path class="st25" d="M576.61,415.54L576.61,415.54l0,0.11v0l0,0c0,2.24-1.83,4.07-4.07,4.07h-51.37c-4.31,0-4.91-3.46-3.71-8.28
				c1.9-7.68,8.87-13.41,17.11-13.41h24.42C568.64,398.03,576.55,405.9,576.61,415.54z"/>
			<g>
				<path class="st26" d="M530.99,400.68L530.99,400.68c0.23,0.23,0.23,0.59,0,0.81l-1.53,1.53c-0.22,0.22-0.59,0.22-0.81,0h0
					c-0.22-0.22-0.22-0.59,0-0.81l1.53-1.53C530.4,400.46,530.77,400.46,530.99,400.68z"/>
				<path class="st26" d="M537.67,400.68L537.67,400.68c0.22,0.23,0.22,0.59,0,0.81l-1.53,1.53c-0.22,0.22-0.59,0.22-0.81,0l0,0
					c-0.22-0.22-0.22-0.59,0-0.81l1.53-1.53C537.08,400.46,537.45,400.46,537.67,400.68z"/>
				<path class="st26" d="M544.35,400.68L544.35,400.68c0.22,0.23,0.22,0.59,0,0.81l-1.53,1.53c-0.22,0.22-0.59,0.22-0.81,0h0
					c-0.22-0.22-0.22-0.59,0-0.81l1.53-1.53C543.76,400.46,544.13,400.46,544.35,400.68z"/>
				<path class="st26" d="M551.03,400.68L551.03,400.68c0.22,0.23,0.22,0.59,0,0.81l-1.53,1.53c-0.22,0.22-0.59,0.22-0.81,0h0
					c-0.22-0.22-0.22-0.59,0-0.81l1.53-1.53C550.44,400.46,550.81,400.46,551.03,400.68z"/>
				<path class="st26" d="M557.71,400.68L557.71,400.68c0.22,0.23,0.22,0.59,0,0.81l-1.53,1.53c-0.22,0.22-0.59,0.22-0.81,0h0
					c-0.22-0.22-0.22-0.59,0-0.81l1.53-1.53C557.13,400.46,557.49,400.46,557.71,400.68z"/>
				<path class="st26" d="M564.4,400.68L564.4,400.68c0.22,0.23,0.22,0.59,0,0.81l-1.53,1.53c-0.22,0.22-0.59,0.22-0.81,0l0,0
					c-0.22-0.22-0.22-0.59,0-0.81l1.53-1.53C563.81,400.46,564.17,400.46,564.4,400.68z"/>
				<path class="st26" d="M565.96,406L565.96,406c-0.23,0.22-0.23,0.59,0,0.81l1.53,1.53c0.22,0.22,0.59,0.22,0.81,0l0,0
					c0.22-0.22,0.22-0.59,0-0.81l-1.53-1.53C566.54,405.78,566.18,405.78,565.96,406z"/>
				<path class="st26" d="M559.27,406L559.27,406c-0.22,0.22-0.22,0.59,0,0.81l1.53,1.53c0.22,0.22,0.59,0.22,0.81,0l0,0
					c0.22-0.22,0.22-0.59,0-0.81l-1.53-1.53C559.86,405.78,559.5,405.78,559.27,406z"/>
				<path class="st26" d="M552.59,406L552.59,406c-0.23,0.22-0.23,0.59,0,0.81l1.53,1.53c0.22,0.22,0.59,0.22,0.81,0l0,0
					c0.22-0.22,0.22-0.59,0-0.81L553.4,406C553.18,405.78,552.82,405.78,552.59,406z"/>
				<path class="st26" d="M545.91,406L545.91,406c-0.23,0.22-0.23,0.59,0,0.81l1.53,1.53c0.22,0.22,0.59,0.22,0.81,0l0,0
					c0.22-0.22,0.22-0.59,0-0.81l-1.53-1.53C546.5,405.78,546.13,405.78,545.91,406z"/>
				<path class="st26" d="M539.23,406L539.23,406c-0.23,0.22-0.23,0.59,0,0.81l1.53,1.53c0.22,0.22,0.59,0.22,0.81,0l0,0
					c0.22-0.22,0.22-0.59,0-0.81l-1.53-1.53C539.82,405.78,539.45,405.78,539.23,406z"/>
				<path class="st26" d="M532.55,406L532.55,406c-0.22,0.22-0.22,0.59,0,0.81l1.53,1.53c0.22,0.22,0.59,0.22,0.81,0l0,0
					c0.22-0.22,0.22-0.59,0-0.81l-1.53-1.53C533.14,405.78,532.77,405.78,532.55,406z"/>
			</g>
		</g>
		<g>
			<path class="st5" d="M499.82,288.02h61.62c4.2,0,7.64-3.43,7.64-7.64V196.3c0-4.2-3.43-7.64-7.64-7.64h-61.62
				c-4.2,0-7.64,3.44-7.64,7.64v84.08C492.19,284.58,495.62,288.02,499.82,288.02z"/>
			<g>
				<path class="st21" d="M500.46,196.17h60.34c0.77,0,1.4,0.63,1.4,1.4v0c0,0.77-0.63,1.4-1.4,1.4h-60.34c-0.77,0-1.4-0.63-1.4-1.4
					v0C499.06,196.8,499.69,196.17,500.46,196.17z"/>
				<path class="st21" d="M500.46,204.95h60.34c0.77,0,1.4,0.63,1.4,1.4v0c0,0.77-0.63,1.4-1.4,1.4h-60.34c-0.77,0-1.4-0.63-1.4-1.4
					v0C499.06,205.58,499.69,204.95,500.46,204.95z"/>
				<path class="st21" d="M549.41,214.63h11.39c0.77,0,1.4,0.63,1.4,1.4v0c0,0.77-0.63,1.4-1.4,1.4h-11.39c-0.77,0-1.4-0.63-1.4-1.4
					v0C548.01,215.26,548.64,214.63,549.41,214.63z"/>
				<path class="st21" d="M549.41,224.56h11.39c0.77,0,1.4,0.63,1.4,1.4v0c0,0.77-0.63,1.4-1.4,1.4h-11.39c-0.77,0-1.4-0.63-1.4-1.4
					v0C548.01,225.19,548.64,224.56,549.41,224.56z"/>
				<path class="st21" d="M549.41,234.49h11.39c0.77,0,1.4,0.63,1.4,1.4v0c0,0.77-0.63,1.4-1.4,1.4h-11.39c-0.77,0-1.4-0.63-1.4-1.4
					v0C548.01,235.12,548.64,234.49,549.41,234.49z"/>
				<path class="st21" d="M549.41,244.42h11.39c0.77,0,1.4,0.63,1.4,1.4v0c0,0.77-0.63,1.4-1.4,1.4h-11.39c-0.77,0-1.4-0.63-1.4-1.4
					v0C548.01,245.04,548.64,244.42,549.41,244.42z"/>
				<path class="st21" d="M549.41,254.35h11.39c0.77,0,1.4,0.63,1.4,1.4v0c0,0.77-0.63,1.4-1.4,1.4h-11.39c-0.77,0-1.4-0.63-1.4-1.4
					v0C548.01,254.98,548.64,254.35,549.41,254.35z"/>
				<path class="st21" d="M549.41,264.27h11.39c0.77,0,1.4,0.63,1.4,1.4v0c0,0.77-0.63,1.4-1.4,1.4h-11.39c-0.77,0-1.4-0.63-1.4-1.4
					v0C548.01,264.9,548.64,264.27,549.41,264.27z"/>
				<path class="st21" d="M531.9,274.2h28.9c0.77,0,1.4,0.63,1.4,1.4v0c0,0.77-0.63,1.4-1.4,1.4h-28.9c-0.77,0-1.4-0.63-1.4-1.4v0
					C530.5,274.83,531.13,274.2,531.9,274.2z"/>
				<path class="st21" d="M534.77,264.27h8.53c0.77,0,1.4,0.63,1.4,1.4v0c0,0.77-0.63,1.4-1.4,1.4h-8.53c-0.77,0-1.4-0.63-1.4-1.4v0
					C533.37,264.9,534,264.27,534.77,264.27z"/>
				<path class="st21" d="M538.59,254.35h4.3c0.77,0,1.4,0.63,1.4,1.4v0c0,0.77-0.63,1.4-1.4,1.4h-4.3c-0.77,0-1.4-0.63-1.4-1.4v0
					C537.19,254.98,537.82,254.35,538.59,254.35z"/>
				<path class="st21" d="M541.58,244.42h3.15c0.77,0,1.4,0.63,1.4,1.4v0c0,0.77-0.63,1.4-1.4,1.4h-3.15c-0.77,0-1.4-0.63-1.4-1.4v0
					C540.18,245.04,540.81,244.42,541.58,244.42z"/>
			</g>
			<g>
				<path class="st4" d="M499.06,223.72h5.41v7.03v41.92v1.62c0,1.49-1.22,2.7-2.71,2.7h0c-1.49,0-2.7-1.22-2.7-2.7v-1.62v-41.92
					V223.72z"/>
				<path class="st4" d="M504.47,248.16v24.52v1.62c0,1.49-1.22,2.7-2.71,2.7h0c-1.49,0-2.7-1.22-2.7-2.7v-1.62v-24.52
					c0,0.67,0.55,1.22,1.22,1.22h2.97C503.92,249.37,504.47,247.49,504.47,248.16z"/>
				<path class="st15" d="M501.19,213.43c-0.15,0.32-2.13,8.42-2.13,10.29c0.88,2.15,4.39,1.57,5.41,0c0-1.88-1.98-9.97-2.13-10.29
					C502.11,212.93,501.42,212.93,501.19,213.43z"/>
				<path class="st8" d="M501.19,213.43c-0.05,0.1-0.27,0.95-0.55,2.12c0.34,0.16,0.73,0.25,1.13,0.25h0c0.4,0,0.79-0.09,1.13-0.25
					c-0.28-1.18-0.51-2.02-0.55-2.12C502.11,212.93,501.42,212.93,501.19,213.43z"/>
				<path class="st15" d="M503.25,271.48h-2.97c-0.67,0-1.22-0.55-1.22-1.22v2.57c0,0.67,0.55,1.22,1.22,1.22h2.97
					c0.67,0,1.22-0.55,1.22-1.22v-2.57C504.47,270.93,503.92,271.48,503.25,271.48z"/>
			</g>
			<path class="st4" d="M534.66,237.65L534.66,237.65L534.66,237.65z M531.11,224.12c-1.24-1.24-2.95-2-4.83-2
				c-1.89,0-3.6,0.77-4.83,2c-1.24,1.24-2,2.95-2,4.83c0,1.89,0.76,3.6,2,4.83c1.24,1.24,2.95,2,4.83,2c1.89,0,3.6-0.77,4.83-2
				c1.24-1.24,2-2.95,2-4.83C533.11,227.07,532.34,225.36,531.11,224.12L531.11,224.12z M529.63,217.35
				c0.95,0.27,1.84,0.66,2.68,1.14c0.85,0.49,1.64,1.09,2.35,1.77c0.14,0.13,0.34,0.15,0.5,0.06l3.18-1.83l0.02-0.01
				c0.18-0.1,0.39-0.12,0.58-0.07c0.19,0.05,0.37,0.18,0.48,0.36l0.01,0.02l2.23,3.87c0.11,0.19,0.13,0.4,0.08,0.6
				c-0.05,0.19-0.18,0.37-0.37,0.48l-0.02,0.01l-3.15,1.82c-0.17,0.1-0.24,0.29-0.2,0.46l0,0c0.12,0.47,0.21,0.95,0.27,1.44
				c0.06,0.48,0.09,0.97,0.09,1.47c0,0.5-0.03,0.99-0.09,1.47c-0.06,0.49-0.15,0.97-0.27,1.44c-0.05,0.19,0.05,0.39,0.22,0.48
				l3.15,1.82l0,0c0.19,0.11,0.31,0.28,0.37,0.48c0.05,0.2,0.03,0.41-0.08,0.6l-2.25,3.89l0,0c-0.11,0.19-0.28,0.31-0.48,0.36
				c-0.2,0.05-0.41,0.03-0.6-0.08l-0.02-0.01l-3.15-1.82c-0.17-0.09-0.37-0.06-0.5,0.06c-0.71,0.68-1.5,1.28-2.35,1.77
				c-0.84,0.49-1.74,0.87-2.7,1.15c-0.18,0.05-0.3,0.22-0.31,0.4v3.66c0,0.22-0.09,0.41-0.23,0.55c-0.14,0.14-0.34,0.23-0.55,0.23
				h-4.5c-0.22,0-0.41-0.09-0.55-0.23c-0.14-0.14-0.23-0.34-0.23-0.55v-3.66c0-0.2-0.14-0.36-0.32-0.41
				c-0.95-0.27-1.84-0.66-2.68-1.14c-0.85-0.49-1.64-1.09-2.35-1.77c-0.14-0.14-0.36-0.15-0.52-0.05l-3.15,1.82
				c-0.19,0.11-0.4,0.13-0.6,0.08c-0.2-0.05-0.37-0.18-0.48-0.36l-0.01-0.02l-2.23-3.87v0c-0.11-0.19-0.13-0.4-0.08-0.6
				c0.05-0.2,0.18-0.37,0.36-0.48l3.17-1.83c0.17-0.09,0.24-0.29,0.2-0.46l0,0c-0.12-0.47-0.2-0.95-0.26-1.44
				c-0.06-0.48-0.09-0.97-0.09-1.47c0-0.5,0.03-0.99,0.09-1.47c0.06-0.49,0.15-0.97,0.26-1.44c0.05-0.2-0.05-0.39-0.22-0.48
				l-3.15-1.82c-0.19-0.11-0.31-0.28-0.36-0.48c-0.05-0.2-0.03-0.41,0.08-0.6l0.01-0.02l2.23-3.87l0,0
				c0.11-0.19,0.28-0.31,0.48-0.36c0.2-0.05,0.41-0.03,0.6,0.07v0l3.17,1.83c0.17,0.1,0.38,0.06,0.51-0.07
				c0.7-0.68,1.49-1.27,2.34-1.76c0.84-0.48,1.74-0.87,2.7-1.15c0.18-0.05,0.3-0.22,0.3-0.4v-3.66c0-0.22,0.09-0.41,0.23-0.55
				c0.14-0.14,0.34-0.23,0.55-0.23h4.5c0.22,0,0.41,0.09,0.55,0.23c0.14,0.14,0.23,0.34,0.23,0.55v3.66
				C529.31,217.14,529.45,217.31,529.63,217.35z"/>
			<path class="st4" d="M523.3,265.44L523.3,265.44L523.3,265.44z M521.1,257.07c-0.77-0.76-1.82-1.24-2.99-1.24
				s-2.22,0.47-2.99,1.24c-0.77,0.76-1.24,1.82-1.24,2.99c0,1.17,0.47,2.22,1.24,2.99c0.76,0.77,1.82,1.24,2.99,1.24
				s2.22-0.47,2.99-1.24c0.77-0.76,1.24-1.82,1.24-2.99C522.34,258.89,521.86,257.83,521.1,257.07L521.1,257.07z M520.19,252.88
				c0.59,0.17,1.14,0.41,1.66,0.71c0.53,0.31,1.02,0.67,1.45,1.1c0.08,0.08,0.21,0.09,0.31,0.04l1.96-1.13l0.01-0.01
				c0.11-0.06,0.24-0.07,0.36-0.04c0.12,0.03,0.23,0.11,0.3,0.23l0.01,0.01l1.38,2.39c0.07,0.12,0.08,0.25,0.05,0.37
				c-0.03,0.12-0.11,0.23-0.23,0.29l-0.01,0.01l-1.95,1.13c-0.1,0.06-0.15,0.18-0.12,0.29l0,0c0.07,0.29,0.13,0.59,0.16,0.89
				c0.04,0.3,0.06,0.6,0.06,0.91s-0.02,0.61-0.06,0.91c-0.04,0.3-0.09,0.6-0.16,0.89c-0.03,0.12,0.03,0.24,0.14,0.29l1.95,1.13l0,0
				c0.12,0.07,0.19,0.17,0.23,0.3c0.03,0.12,0.02,0.25-0.05,0.37l-1.39,2.41l0,0c-0.07,0.12-0.17,0.19-0.3,0.23
				c-0.12,0.03-0.25,0.02-0.37-0.05l-0.01-0.01l-1.95-1.13c-0.1-0.06-0.23-0.04-0.31,0.04c-0.44,0.42-0.92,0.79-1.45,1.1
				c-0.52,0.3-1.08,0.54-1.67,0.71c-0.12,0.03-0.19,0.14-0.19,0.25v2.27c0,0.13-0.05,0.25-0.14,0.34s-0.21,0.14-0.34,0.14h-2.78
				c-0.13,0-0.26-0.06-0.34-0.14c-0.09-0.09-0.14-0.21-0.14-0.34v-2.27c0-0.12-0.08-0.22-0.2-0.25c-0.59-0.17-1.14-0.41-1.66-0.7
				c-0.53-0.31-1.02-0.67-1.45-1.1c-0.09-0.09-0.22-0.09-0.32-0.03l-1.95,1.13c-0.12,0.07-0.25,0.08-0.37,0.05
				c-0.12-0.03-0.23-0.11-0.3-0.23l-0.01-0.01l-1.38-2.4h0c-0.07-0.11-0.08-0.25-0.05-0.37c0.03-0.12,0.11-0.23,0.22-0.3l1.96-1.13
				c0.1-0.06,0.15-0.18,0.12-0.29l0,0c-0.07-0.29-0.13-0.59-0.16-0.89c-0.04-0.3-0.05-0.6-0.05-0.91s0.02-0.61,0.05-0.91
				c0.04-0.3,0.09-0.6,0.16-0.89c0.03-0.12-0.03-0.24-0.14-0.29l-1.95-1.13c-0.11-0.07-0.19-0.17-0.22-0.29
				c-0.03-0.12-0.02-0.25,0.05-0.37l0.01-0.01l1.38-2.4v0c0.07-0.12,0.17-0.19,0.3-0.23c0.12-0.03,0.25-0.02,0.37,0.05v0l1.96,1.13
				c0.11,0.06,0.24,0.04,0.32-0.04c0.43-0.42,0.92-0.79,1.45-1.09c0.52-0.3,1.08-0.54,1.67-0.71c0.11-0.03,0.19-0.14,0.19-0.25
				v-2.26c0-0.13,0.05-0.26,0.14-0.34c0.09-0.09,0.21-0.14,0.34-0.14h2.78c0.13,0,0.25,0.05,0.34,0.14
				c0.09,0.09,0.14,0.21,0.14,0.34v2.26C519.99,252.75,520.07,252.85,520.19,252.88z"/>
		</g>
		<g>
			<path class="st4" d="M212.75,175.87h23.33c1.52,0,2.76,1.24,2.76,2.76v23.33c0,1.52-1.24,2.76-2.76,2.76h-23.33
				c-1.52,0-2.76-1.24-2.76-2.76v-23.33C209.99,177.11,211.23,175.87,212.75,175.87z"/>
			<path class="st4" d="M212.75,214.47h23.33c1.52,0,2.76,1.24,2.76,2.76v23.33c0,1.52-1.24,2.76-2.76,2.76h-23.33
				c-1.52,0-2.76-1.24-2.76-2.76v-23.33C209.99,215.71,211.23,214.47,212.75,214.47z"/>
			<path class="st16" d="M209.08,171.69h23.33c1,0,1.92,0.41,2.58,1.07l0.05,0.06c0.63,0.66,1.02,1.55,1.02,2.52v23.33
				c0,1-0.41,1.91-1.07,2.58c-0.66,0.66-1.57,1.07-2.58,1.07h-23.33c-1,0-1.92-0.41-2.58-1.07l-0.05-0.06
				c-0.63-0.66-1.02-1.55-1.02-2.52v-23.33c0-1,0.41-1.91,1.07-2.57C207.17,172.1,208.08,171.69,209.08,171.69L209.08,171.69z
				 M232.41,173.47h-23.33c-0.51,0-0.98,0.21-1.32,0.55c-0.34,0.34-0.55,0.8-0.55,1.32v23.33c0,0.5,0.19,0.95,0.51,1.28l0.04,0.04
				c0.34,0.34,0.81,0.55,1.32,0.55h23.33c0.51,0,0.98-0.21,1.32-0.55c0.34-0.34,0.55-0.81,0.55-1.32v-23.33
				c0-0.5-0.19-0.95-0.51-1.28l-0.04-0.04C233.39,173.68,232.93,173.47,232.41,173.47z"/>
			<path class="st16" d="M209.08,210.29h23.33c1,0,1.92,0.41,2.58,1.07l0.05,0.06c0.63,0.66,1.02,1.55,1.02,2.52v23.33
				c0,1-0.41,1.91-1.07,2.57c-0.66,0.66-1.57,1.07-2.57,1.07h-23.33c-1,0-1.92-0.41-2.58-1.07l-0.05-0.06
				c-0.63-0.66-1.02-1.55-1.02-2.52v-23.33c0-1,0.41-1.91,1.07-2.57C207.17,210.7,208.08,210.29,209.08,210.29L209.08,210.29z
				 M232.41,212.07h-23.33c-0.51,0-0.98,0.21-1.32,0.55c-0.34,0.34-0.55,0.8-0.55,1.32v23.33c0,0.5,0.19,0.95,0.51,1.28l0.04,0.04
				c0.34,0.34,0.81,0.55,1.32,0.55h23.33c0.51,0,0.98-0.21,1.32-0.55c0.34-0.34,0.55-0.8,0.55-1.32v-23.33
				c0-0.5-0.19-0.95-0.51-1.28l-0.04-0.04C233.39,212.28,232.93,212.07,232.41,212.07z"/>
			<path class="st6" d="M212.35,219.52c-0.61-0.6-0.62-1.58-0.02-2.19c0.6-0.61,1.58-0.62,2.19-0.02l6.21,6.11l6.1-6.21
				c0.6-0.61,1.58-0.62,2.19-0.02c0.61,0.6,0.62,1.58,0.02,2.19l-6.11,6.21l6.21,6.1c0.61,0.6,0.62,1.58,0.02,2.19
				c-0.6,0.61-1.58,0.62-2.19,0.02l-6.21-6.11l-6.1,6.21c-0.6,0.61-1.58,0.62-2.19,0.02c-0.61-0.6-0.62-1.58-0.02-2.19l6.11-6.21
				L212.35,219.52z"/>
			<path class="st22" d="M213.23,188.71c-0.62-0.59-0.63-1.57-0.04-2.19c0.59-0.62,1.57-0.63,2.19-0.04l3.24,3.12l7.41-8.45
				c0.56-0.64,1.54-0.71,2.18-0.15c0.64,0.56,0.71,1.54,0.15,2.18l-8.53,9.73c-0.59,0.62-1.57,0.64-2.19,0.04L213.23,188.71z"/>
		</g>
		<g>
			<g>
				<path class="st5" d="M176.25,161.38h-4.88c-1.17,0-2.13-0.96-2.13-2.13v-4.88c0-1.18,0.96-2.13,2.13-2.13h4.88
					c1.17,0,2.13,0.96,2.13,2.13v4.88C178.38,160.42,177.42,161.38,176.25,161.38z"/>
				<path class="st5" d="M159.33,161.38h-4.88c-1.17,0-2.13-0.96-2.13-2.13v-4.88c0-1.18,0.96-2.13,2.13-2.13h4.88
					c1.18,0,2.13,0.96,2.13,2.13v4.88C161.46,160.42,160.5,161.38,159.33,161.38z"/>
				<path class="st5" d="M142.4,161.38h-4.88c-1.17,0-2.13-0.96-2.13-2.13v-4.88c0-1.18,0.96-2.13,2.13-2.13h4.88
					c1.17,0,2.13,0.96,2.13,2.13v4.88C144.54,160.42,143.58,161.38,142.4,161.38z"/>
				<path class="st5" d="M125.48,161.38h-4.88c-1.18,0-2.14-0.96-2.14-2.13v-4.88c0-1.18,0.96-2.13,2.14-2.13h4.88
					c1.17,0,2.13,0.96,2.13,2.13v4.88C127.61,160.42,126.65,161.38,125.48,161.38z"/>
				<path class="st5" d="M108.55,161.38h-4.88c-1.18,0-2.13-0.96-2.13-2.13v-4.88c0-1.18,0.96-2.13,2.13-2.13h4.88
					c1.17,0,2.13,0.96,2.13,2.13v4.88C110.69,160.42,109.73,161.38,108.55,161.38z"/>
				<path class="st5" d="M91.63,161.38h-4.88c-1.17,0-2.13-0.96-2.13-2.13v-4.88c0-1.18,0.96-2.13,2.13-2.13h4.88
					c1.18,0,2.13,0.96,2.13,2.13v4.88C93.76,160.42,92.8,161.38,91.63,161.38z"/>
				<path class="st5" d="M141.79,142.93h-4.88c-1.17,0-2.13-0.96-2.13-2.14v-4.88c0-1.17,0.96-2.13,2.13-2.13h4.88
					c1.17,0,2.13,0.96,2.13,2.13v4.88C143.92,141.97,142.96,142.93,141.79,142.93z"/>
				<path class="st5" d="M124.87,142.93h-4.88c-1.18,0-2.13-0.96-2.13-2.14v-4.88c0-1.17,0.96-2.13,2.13-2.13h4.88
					c1.17,0,2.13,0.96,2.13,2.13v4.88C127,141.97,126.04,142.93,124.87,142.93z"/>
				<path class="st5" d="M107.94,142.93h-4.88c-1.17,0-2.13-0.96-2.13-2.14v-4.88c0-1.17,0.96-2.13,2.13-2.13h4.88
					c1.18,0,2.13,0.96,2.13,2.13v4.88C110.07,141.97,109.12,142.93,107.94,142.93z"/>
				<path class="st5" d="M125.48,181.2h-4.88c-1.18,0-2.13-0.96-2.13-2.13v-4.88c0-1.18,0.96-2.13,2.13-2.13h4.88
					c1.17,0,2.13,0.96,2.13,2.13v4.88C127.61,180.24,126.65,181.2,125.48,181.2z"/>
				<path class="st5" d="M108.55,181.2h-4.88c-1.18,0-2.13-0.96-2.13-2.13v-4.88c0-1.18,0.96-2.13,2.13-2.13h4.88
					c1.17,0,2.13,0.96,2.13,2.13v4.88C110.69,180.24,109.73,181.2,108.55,181.2z"/>
			</g>
			<g>
				<g>
					<path class="st5" d="M475.31,125.27h-4.88c-1.18,0-2.13-0.96-2.13-2.13v-4.88c0-1.18,0.96-2.13,2.13-2.13h4.88
						c1.17,0,2.13,0.96,2.13,2.13v4.88C477.44,124.31,476.48,125.27,475.31,125.27z"/>
					<path class="st5" d="M458.39,125.27h-4.88c-1.17,0-2.13-0.96-2.13-2.13v-4.88c0-1.18,0.96-2.13,2.13-2.13h4.88
						c1.17,0,2.13,0.96,2.13,2.13v4.88C460.52,124.31,459.56,125.27,458.39,125.27z"/>
					<path class="st5" d="M441.46,125.27h-4.88c-1.17,0-2.13-0.96-2.13-2.13v-4.88c0-1.18,0.96-2.13,2.13-2.13h4.88
						c1.17,0,2.13,0.96,2.13,2.13v4.88C443.6,124.31,442.63,125.27,441.46,125.27z"/>
					<path class="st5" d="M424.54,125.27h-4.88c-1.17,0-2.13-0.96-2.13-2.13v-4.88c0-1.18,0.96-2.13,2.13-2.13h4.88
						c1.18,0,2.14,0.96,2.14,2.13v4.88C426.67,124.31,425.71,125.27,424.54,125.27z"/>
					<path class="st5" d="M407.61,125.27h-4.88c-1.18,0-2.14-0.96-2.14-2.13v-4.88c0-1.18,0.96-2.13,2.14-2.13h4.88
						c1.17,0,2.13,0.96,2.13,2.13v4.88C409.75,124.31,408.79,125.27,407.61,125.27z"/>
					<path class="st5" d="M457.77,106.82h-4.88c-1.17,0-2.13-0.96-2.13-2.13v-4.88c0-1.17,0.96-2.13,2.13-2.13h4.88
						c1.18,0,2.13,0.96,2.13,2.13v4.88C459.91,105.86,458.95,106.82,457.77,106.82z"/>
					<path class="st5" d="M440.85,106.82h-4.88c-1.17,0-2.13-0.96-2.13-2.13v-4.88c0-1.17,0.96-2.13,2.13-2.13h4.88
						c1.17,0,2.13,0.96,2.13,2.13v4.88C442.98,105.86,442.02,106.82,440.85,106.82z"/>
					<path class="st5" d="M423.92,106.82h-4.88c-1.18,0-2.14-0.96-2.14-2.13v-4.88c0-1.17,0.96-2.13,2.14-2.13h4.88
						c1.17,0,2.13,0.96,2.13,2.13v4.88C426.06,105.86,425.1,106.82,423.92,106.82z"/>
					<path class="st5" d="M441.46,145.09h-4.88c-1.17,0-2.13-0.96-2.13-2.13v-4.88c0-1.18,0.96-2.13,2.13-2.13h4.88
						c1.17,0,2.13,0.96,2.13,2.13v4.88C443.6,144.13,442.64,145.09,441.46,145.09z"/>
					<path class="st5" d="M424.54,145.09h-4.88c-1.17,0-2.13-0.96-2.13-2.13v-4.88c0-1.18,0.96-2.13,2.13-2.13h4.88
						c1.18,0,2.14,0.96,2.14,2.13v4.88C426.67,144.13,425.71,145.09,424.54,145.09z"/>
				</g>
			</g>
			<path class="st4" d="M136.44,72.31c0-0.73,0.59-1.33,1.33-1.33c0.73,0,1.33,0.59,1.33,1.33v5.97c0,0.73-0.6,1.33-1.33,1.33
				c-0.73,0-1.33-0.59-1.33-1.33V72.31L136.44,72.31z M127.4,77.15c-0.52-0.52-0.52-1.36,0-1.88c0.52-0.52,1.36-0.52,1.88,0
				l4.22,4.22c0.52,0.52,0.52,1.36,0,1.88c-0.52,0.52-1.36,0.52-1.88,0L127.4,77.15L127.4,77.15z M124.43,86.97
				c-0.73,0-1.33-0.59-1.33-1.33c0-0.73,0.6-1.33,1.33-1.33h5.97c0.73,0,1.33,0.59,1.33,1.33c0,0.73-0.6,1.33-1.33,1.33H124.43
				L124.43,86.97z M129.27,96.02c-0.52,0.52-1.36,0.52-1.88,0c-0.52-0.52-0.52-1.36,0-1.88l4.22-4.22c0.52-0.52,1.36-0.52,1.88,0
				c0.52,0.52,0.52,1.36,0,1.88L129.27,96.02L129.27,96.02z M139.09,98.98c0,0.73-0.6,1.33-1.33,1.33c-0.73,0-1.33-0.59-1.33-1.33
				v-5.97c0-0.73,0.59-1.33,1.33-1.33c0.73,0,1.33,0.59,1.33,1.33V98.98L139.09,98.98z M148.14,94.14c0.52,0.52,0.52,1.36,0,1.88
				c-0.52,0.52-1.36,0.52-1.88,0l-4.22-4.22c-0.52-0.52-0.52-1.36,0-1.88c0.52-0.52,1.36-0.52,1.88,0L148.14,94.14L148.14,94.14z
				 M151.1,84.32c0.73,0,1.33,0.59,1.33,1.33c0,0.73-0.59,1.33-1.33,1.33h-5.97c-0.73,0-1.33-0.59-1.33-1.33
				c0-0.73,0.59-1.33,1.33-1.33H151.1L151.1,84.32z M146.26,75.28c0.52-0.52,1.36-0.52,1.88,0c0.52,0.52,0.52,1.36,0,1.88
				l-4.22,4.22c-0.52,0.52-1.36,0.52-1.88,0c-0.52-0.52-0.52-1.36,0-1.88L146.26,75.28z"/>
			<path class="st4" d="M184.58,350.62c0-0.73,0.6-1.33,1.33-1.33c0.73,0,1.33,0.59,1.33,1.33v5.97c0,0.73-0.59,1.33-1.33,1.33
				c-0.73,0-1.33-0.59-1.33-1.33V350.62L184.58,350.62z M175.54,355.47c-0.52-0.52-0.52-1.36,0-1.88c0.52-0.52,1.36-0.52,1.88,0
				l4.22,4.22c0.52,0.52,0.52,1.36,0,1.88c-0.52,0.52-1.36,0.52-1.88,0L175.54,355.47L175.54,355.47z M172.57,365.29
				c-0.73,0-1.33-0.6-1.33-1.33c0-0.73,0.59-1.33,1.33-1.33h5.97c0.73,0,1.33,0.59,1.33,1.33c0,0.73-0.59,1.33-1.33,1.33H172.57
				L172.57,365.29z M177.41,374.33c-0.52,0.52-1.36,0.52-1.88,0c-0.52-0.52-0.52-1.36,0-1.88l4.22-4.22c0.52-0.52,1.36-0.52,1.88,0
				c0.52,0.52,0.52,1.36,0,1.88L177.41,374.33L177.41,374.33z M187.23,377.3c0,0.73-0.59,1.33-1.33,1.33
				c-0.73,0-1.33-0.59-1.33-1.33v-5.97c0-0.73,0.6-1.33,1.33-1.33c0.73,0,1.33,0.59,1.33,1.33V377.3L187.23,377.3z M196.28,372.45
				c0.52,0.52,0.52,1.36,0,1.88c-0.52,0.52-1.36,0.52-1.88,0l-4.22-4.22c-0.52-0.52-0.52-1.36,0-1.88c0.52-0.52,1.36-0.52,1.88,0
				L196.28,372.45L196.28,372.45z M199.24,362.63c0.73,0,1.33,0.59,1.33,1.33c0,0.73-0.59,1.33-1.33,1.33h-5.97
				c-0.73,0-1.33-0.6-1.33-1.33c0-0.73,0.59-1.33,1.33-1.33H199.24L199.24,362.63z M194.4,353.59c0.52-0.52,1.36-0.52,1.88,0
				c0.52,0.52,0.52,1.36,0,1.88l-4.22,4.22c-0.52,0.52-1.36,0.52-1.88,0c-0.52-0.52-0.52-1.36,0-1.88L194.4,353.59z"/>
			<path class="st4" d="M596.78,180.62c0-0.73,0.59-1.33,1.33-1.33c0.73,0,1.33,0.59,1.33,1.33v5.97c0,0.73-0.6,1.33-1.33,1.33
				c-0.73,0-1.33-0.59-1.33-1.33V180.62L596.78,180.62z M587.74,185.47c-0.52-0.52-0.52-1.36,0-1.88c0.52-0.52,1.36-0.52,1.88,0
				l4.22,4.22c0.52,0.52,0.52,1.36,0,1.88c-0.52,0.52-1.36,0.52-1.88,0L587.74,185.47L587.74,185.47z M584.77,195.29
				c-0.73,0-1.33-0.6-1.33-1.33c0-0.73,0.6-1.33,1.33-1.33h5.97c0.73,0,1.33,0.59,1.33,1.33c0,0.73-0.6,1.33-1.33,1.33H584.77
				L584.77,195.29z M589.62,204.33c-0.52,0.52-1.36,0.52-1.88,0c-0.52-0.52-0.52-1.36,0-1.88l4.22-4.22c0.52-0.52,1.36-0.52,1.88,0
				c0.52,0.52,0.52,1.36,0,1.88L589.62,204.33L589.62,204.33z M599.44,207.3c0,0.73-0.6,1.33-1.33,1.33c-0.73,0-1.33-0.59-1.33-1.33
				v-5.97c0-0.73,0.59-1.33,1.33-1.33c0.73,0,1.33,0.59,1.33,1.33V207.3L599.44,207.3z M608.48,202.45c0.52,0.52,0.52,1.36,0,1.88
				c-0.52,0.52-1.36,0.52-1.88,0l-4.22-4.22c-0.52-0.52-0.52-1.36,0-1.88c0.52-0.52,1.36-0.52,1.88,0L608.48,202.45L608.48,202.45z
				 M611.45,192.64c0.73,0,1.33,0.59,1.33,1.33c0,0.73-0.59,1.33-1.33,1.33h-5.97c-0.73,0-1.33-0.6-1.33-1.33
				c0-0.73,0.59-1.33,1.33-1.33H611.45L611.45,192.64z M606.6,183.59c0.52-0.52,1.36-0.52,1.88,0c0.52,0.52,0.52,1.36,0,1.88
				l-4.22,4.22c-0.52,0.52-1.36,0.52-1.88,0c-0.52-0.52-0.52-1.36,0-1.88L606.6,183.59z"/>
			<path class="st4" d="M84.23,281.94v2.15h2.15c0.9,0,1.63,0.74,1.63,1.63l0,0c0,0.9-0.73,1.63-1.63,1.63h-2.15v2.15
				c0,0.9-0.73,1.63-1.63,1.63l0,0c-0.9,0-1.63-0.74-1.63-1.63v-2.15h-2.15c-0.9,0-1.63-0.74-1.63-1.63l0,0
				c0-0.9,0.74-1.63,1.63-1.63h2.15v-2.15c0-0.9,0.73-1.63,1.63-1.63l0,0C83.49,280.31,84.23,281.04,84.23,281.94z"/>
			<path class="st4" d="M264.75,203.71v2.15h2.15c0.9,0,1.63,0.73,1.63,1.63l0,0c0,0.9-0.73,1.63-1.63,1.63h-2.15v2.15
				c0,0.9-0.73,1.63-1.63,1.63l0,0c-0.9,0-1.63-0.73-1.63-1.63v-2.15h-2.15c-0.9,0-1.63-0.73-1.63-1.63l0,0
				c0-0.9,0.74-1.63,1.63-1.63h2.15v-2.15c0-0.9,0.73-1.63,1.63-1.63l0,0C264.02,202.08,264.75,202.82,264.75,203.71z"/>
			<path class="st4" d="M290.14,54.51v2.42h2.42c1.01,0,1.84,0.83,1.84,1.84l0,0c0,1.01-0.83,1.84-1.84,1.84h-2.42v2.43
				c0,1.01-0.83,1.84-1.84,1.84l0,0c-1.01,0-1.84-0.83-1.84-1.84v-2.43h-2.43c-1.01,0-1.84-0.83-1.84-1.84l0,0
				c0-1.01,0.83-1.84,1.84-1.84h2.43v-2.42c0-1.01,0.83-1.84,1.84-1.84l0,0C289.31,52.67,290.14,53.49,290.14,54.51z"/>
			<path class="st4" d="M604.56,280.16v2.42h2.42c1.01,0,1.84,0.83,1.84,1.84l0,0c0,1.01-0.83,1.84-1.84,1.84h-2.42v2.42
				c0,1.01-0.83,1.84-1.84,1.84l0,0c-1.01,0-1.84-0.83-1.84-1.84v-2.42h-2.42c-1.01,0-1.84-0.83-1.84-1.84l0,0
				c0-1.01,0.83-1.84,1.84-1.84h2.42v-2.42c0-1.01,0.83-1.84,1.84-1.84l0,0C603.73,278.32,604.56,279.15,604.56,280.16z"/>
			<path class="st4" d="M539.87,358.39v2.42h2.42c1.01,0,1.84,0.83,1.84,1.84l0,0c0,1.01-0.83,1.84-1.84,1.84h-2.42v2.42
				c0,1.01-0.83,1.84-1.84,1.84l0,0c-1.01,0-1.84-0.83-1.84-1.84v-2.42h-2.43c-1.01,0-1.84-0.83-1.84-1.84l0,0
				c0-1.01,0.83-1.84,1.84-1.84h2.43v-2.42c0-1.01,0.83-1.84,1.84-1.84l0,0C539.04,356.55,539.87,357.38,539.87,358.39z"/>
		</g>
	</g>
</g>
</svg>
