<svg xmlns="http://www.w3.org/2000/svg" viewBox="0 0 800 800"><defs><style>.cls-1{fill:#98d3ea;}.cls-2{fill:#f2bf91;}.cls-3{fill:#67a2bf;}.cls-4{fill:#eceded;}.cls-11,.cls-5{fill:#fff;}.cls-6{fill:#76ba36;}.cls-7{fill:#ff473b;}.cls-8{fill:#ffc999;}.cls-9{fill:#fff88c;}.cls-10{fill:#e0b186;}.cls-11{opacity:0.2;}</style></defs><g id="OBJECTS"><rect class="cls-1" width="800" height="800"/><circle class="cls-1" cx="397.76" cy="400" r="380.54"/><path class="cls-2" d="M238.83,342.22l-62.59,61-46,123.14,74.43-4.3s17-1.23,24.36-12.89S238.83,342.22,238.83,342.22Z"/><rect class="cls-3" x="214.29" y="179.92" width="377.97" height="479.85" rx="4"/><rect class="cls-4" x="243.14" y="197.51" width="331.07" height="437.71"/><polyline class="cls-2" points="138.7 503.71 89.72 622.33 173.79 622.33 211.04 520.95 139.48 501.63"/><rect class="cls-5" x="238.83" y="204.46" width="328.89" height="430.76"/><rect class="cls-4" x="331.48" y="179.92" width="143.59" height="35.19"/><rect class="cls-4" x="319.01" y="277.28" width="222.13" height="49.91"/><rect class="cls-4" x="258.06" y="277.28" width="49.91" height="49.91"/><rect class="cls-4" x="319.01" y="338.64" width="222.13" height="49.91"/><rect class="cls-4" x="258.06" y="338.64" width="49.91" height="49.91"/><rect class="cls-4" x="319.01" y="400" width="222.13" height="49.91"/><rect class="cls-4" x="258.06" y="400" width="49.91" height="49.91"/><rect class="cls-4" x="319.01" y="461.36" width="222.13" height="49.91"/><rect class="cls-4" x="258.06" y="461.36" width="49.91" height="49.91"/><rect class="cls-4" x="319.01" y="522.72" width="222.13" height="49.91"/><rect class="cls-4" x="258.06" y="522.72" width="49.91" height="49.91"/><polygon class="cls-6" points="301.43 292.24 297.31 288.13 279.42 306.03 268.71 295.32 264.6 299.43 275.31 310.14 275.27 310.17 279.38 314.29 279.42 314.25 279.45 314.29 283.56 310.17 283.53 310.14 301.43 292.24"/><polygon class="cls-6" points="301.43 356.47 297.31 352.36 279.42 370.25 268.71 359.55 264.6 363.66 275.31 374.37 275.27 374.4 279.38 378.51 279.42 378.48 279.45 378.51 283.56 374.4 283.53 374.37 301.43 356.47"/><polygon class="cls-6" points="301.43 415.99 297.31 411.88 279.42 429.77 268.71 419.07 264.6 423.18 275.31 433.89 275.27 433.92 279.38 438.03 279.42 438 279.45 438.03 283.56 433.92 283.53 433.89 301.43 415.99"/><polygon class="cls-7" points="292.99 491.13 288.17 486.31 297.13 477.35 293.02 473.23 284.06 482.2 275.09 473.23 270.98 477.35 279.94 486.31 275.12 491.13 271.01 495.25 270.98 495.28 275.09 499.39 275.12 499.36 275.15 499.39 279.27 495.28 279.23 495.25 284.06 490.43 288.88 495.25 288.84 495.28 292.96 499.39 292.99 499.36 293.02 499.39 297.13 495.28 297.1 495.25 292.99 491.13"/><polygon class="cls-7" points="292.99 552.5 288.17 547.68 297.13 538.71 293.02 534.6 284.06 543.56 275.09 534.6 270.98 538.71 279.94 547.68 275.12 552.5 271.01 556.61 270.98 556.64 275.09 560.75 275.12 560.73 275.15 560.75 279.27 556.64 279.23 556.61 284.06 551.79 288.88 556.61 288.84 556.64 292.96 560.75 292.99 560.73 293.02 560.75 297.13 556.64 297.1 556.61 292.99 552.5"/><path class="cls-8" d="M214.29,473.23s5.32-9.41,24.54-48.28,0-46.44,0-46.44L187,440.09l-55.5,81.55S214.29,538.68,214.29,473.23Z"/><polygon class="cls-8" points="169.28 521.64 131.48 521.64 89.72 622.33 127.52 622.33 169.28 521.64"/><polygon class="cls-6" points="120.88 801.36 0 801.36 109.1 545.8 211.04 545.8 120.88 801.36"/><polygon class="cls-9" points="212.97 531.79 122.56 531.79 117.58 545.8 207.99 545.8 212.97 531.79"/><path class="cls-8" d="M420.8,427.74l101.9,38.54,56.46,117.91-74.43-4.3s-17-1.22-24.37-12.88c-5.59-8.87-31-74.82-45.83-110.7,0,0-15.79-8.08-18.24-14.76C413.69,434.45,420.8,427.74,420.8,427.74Z"/><path class="cls-4" d="M402.57,253.34a26.17,26.17,0,0,1-25.91-22.75H331.55V208.34L385,207.9a26.11,26.11,0,0,1,34.87-.29l55.3-.45v23.43H428.48A26.17,26.17,0,0,1,402.57,253.34Zm-64.25-29.52h44.89v3.39a19.36,19.36,0,0,0,38.72,0v-3.39h46.44V214l-51.22.42-1-1a19.34,19.34,0,0,0-27.39.23l-1,1-49.46.41Z"/><polygon class="cls-4" points="567.72 244.5 527.67 244.5 527.67 204.46 567.72 244.5"/><polygon class="cls-10" points="434.53 456.31 488.11 475.3 508.86 522.72 455.77 526.06 434.53 456.31"/><polygon class="cls-7" points="643.22 488.9 638.24 517.05 403.28 475.47 387.18 463.3 377.94 456.31 389.17 452.97 408.26 447.3 408.34 447.32 643.22 488.9"/><polygon class="cls-11" points="642.06 497.62 639.76 508.45 403.28 466.87 403.52 455.44 642.06 497.62"/><path class="cls-8" d="M500.72,584.19l-23.51-11.56L420.8,464s20.68-7.71,36.48,17.55l22.78,34.34,14.25,3.37,9-26.1,20.48,38.52Z"/><polygon class="cls-8" points="493.56 576.91 499.76 593.55 582.96 591.58 572.29 569.85 493.56 576.91"/><polygon class="cls-6" points="564.37 801.36 685.25 801.36 600.28 603.58 498.34 603.58 564.37 801.36"/><polygon class="cls-9" points="496.41 589.58 586.81 589.58 591.8 603.58 501.39 603.58 496.41 589.58"/><polygon class="cls-8" points="408.34 447.32 403.28 475.47 387.18 463.3 389.17 452.97 408.26 447.3 408.34 447.32"/></g></svg>