<?xml version="1.0" encoding="utf-8"?>
<!-- Generator: Adobe Illustrator 24.1.2, SVG Export Plug-In . SVG Version: 6.00 Build 0)  -->
<svg version="1.1" id="Layer_1" xmlns="http://www.w3.org/2000/svg" xmlns:xlink="http://www.w3.org/1999/xlink" x="0px" y="0px"
	 viewBox="0 0 800 800" style="enable-background:new 0 0 800 800;" xml:space="preserve">
<style type="text/css">
	.st0{fill:#7CEDAB;}
	.st1{fill:#F2BF91;}
	.st2{fill:#4289A5;}
	.st3{fill:#ECEDED;}
	.st4{fill:#FFFFFF;}
	.st5{fill:#76BA36;}
	.st6{fill:#FF473B;}
	.st7{fill:#FFC999;}
	.st8{fill:#FFF88C;}
	.st9{fill:#E0B186;}
	.st10{opacity:0.2;fill:#FFFFFF;enable-background:new    ;}
</style>
<g id="OBJECTS">
	<rect class="st0" width="800" height="800"/>
	<circle class="st0" cx="397.8" cy="400" r="380.5"/>
	<path class="st1" d="M238.8,342.2l-62.6,61l-46,123.1l74.4-4.3c0,0,17-1.2,24.4-12.9S238.8,342.2,238.8,342.2z"/>
	<path class="st2" d="M218.3,179.9h370c2.2,0,4,1.8,4,4v471.9c0,2.2-1.8,4-4,4h-370c-2.2,0-4-1.8-4-4V183.9
		C214.3,181.7,216.1,179.9,218.3,179.9z"/>
	<rect x="243.1" y="197.5" class="st3" width="331.1" height="437.7"/>
	<polyline class="st1" points="138.7,503.7 89.7,622.3 173.8,622.3 211,521 139.5,501.6 	"/>
	<rect x="238.8" y="204.5" class="st4" width="328.9" height="430.8"/>
	<rect x="331.5" y="179.9" class="st3" width="143.6" height="35.2"/>
	<rect x="319" y="277.3" class="st3" width="222.1" height="49.9"/>
	<rect x="258.1" y="277.3" class="st3" width="49.9" height="49.9"/>
	<rect x="319" y="338.6" class="st3" width="222.1" height="49.9"/>
	<rect x="258.1" y="338.6" class="st3" width="49.9" height="49.9"/>
	<rect x="319" y="400" class="st3" width="222.1" height="49.9"/>
	<rect x="258.1" y="400" class="st3" width="49.9" height="49.9"/>
	<rect x="319" y="461.4" class="st3" width="222.1" height="49.9"/>
	<rect x="258.1" y="461.4" class="st3" width="49.9" height="49.9"/>
	<rect x="319" y="522.7" class="st3" width="222.1" height="49.9"/>
	<rect x="258.1" y="522.7" class="st3" width="49.9" height="49.9"/>
	<polygon class="st5" points="301.4,292.2 297.3,288.1 279.4,306 268.7,295.3 264.6,299.4 275.3,310.1 275.3,310.2 279.4,314.3 
		279.4,314.3 279.5,314.3 283.6,310.2 283.5,310.1 	"/>
	<polygon class="st5" points="301.4,356.5 297.3,352.4 279.4,370.3 268.7,359.5 264.6,363.7 275.3,374.4 275.3,374.4 279.4,378.5 
		279.4,378.5 279.5,378.5 283.6,374.4 283.5,374.4 	"/>
	<polygon class="st5" points="301.4,416 297.3,411.9 279.4,429.8 268.7,419.1 264.6,423.2 275.3,433.9 275.3,433.9 279.4,438 
		279.4,438 279.5,438 283.6,433.9 283.5,433.9 	"/>
	<polygon class="st6" points="293,491.1 288.2,486.3 297.1,477.4 293,473.2 284.1,482.2 275.1,473.2 271,477.4 279.9,486.3 
		275.1,491.1 271,495.3 271,495.3 275.1,499.4 275.1,499.4 275.1,499.4 279.3,495.3 279.2,495.3 284.1,490.4 288.9,495.3 
		288.8,495.3 293,499.4 293,499.4 293,499.4 297.1,495.3 297.1,495.3 	"/>
	<polygon class="st6" points="293,552.5 288.2,547.7 297.1,538.7 293,534.6 284.1,543.6 275.1,534.6 271,538.7 279.9,547.7 
		275.1,552.5 271,556.6 271,556.6 275.1,560.8 275.1,560.7 275.1,560.8 279.3,556.6 279.2,556.6 284.1,551.8 288.9,556.6 
		288.8,556.6 293,560.8 293,560.7 293,560.8 297.1,556.6 297.1,556.6 	"/>
	<path class="st7" d="M214.3,473.2c0,0,5.3-9.4,24.5-48.3s0-46.4,0-46.4L187,440.1l-55.5,81.6C131.5,521.6,214.3,538.7,214.3,473.2z
		"/>
	<polygon class="st7" points="169.3,521.6 131.5,521.6 89.7,622.3 127.5,622.3 	"/>
	<polygon class="st5" points="120.9,801.4 0,801.4 109.1,545.8 211,545.8 	"/>
	<polygon class="st8" points="213,531.8 122.6,531.8 117.6,545.8 208,545.8 	"/>
	<path class="st7" d="M420.8,427.7l101.9,38.5l56.5,117.9l-74.4-4.3c0,0-17-1.2-24.4-12.9c-5.6-8.9-31-74.8-45.8-110.7
		c0,0-15.8-8.1-18.2-14.8C413.7,434.5,420.8,427.7,420.8,427.7z"/>
	<path class="st3" d="M402.6,253.3c-13.1,0-24.2-9.7-25.9-22.8h-45.1v-22.3l53.5-0.4c9.8-9,24.9-9.1,34.9-0.3l55.3-0.4v23.4h-46.7
		C426.8,243.6,415.7,253.3,402.6,253.3z M338.3,223.8h44.9v3.4c0,10.7,8.7,19.4,19.4,19.4c10.7,0,19.4-8.7,19.4-19.4v-3.4h46.4V214
		l-51.2,0.4l-1-1c-7.6-7.5-19.9-7.4-27.4,0.2c0,0,0,0,0,0l-1,1l-49.5,0.4L338.3,223.8z"/>
	<polygon class="st3" points="567.7,244.5 527.7,244.5 527.7,204.5 	"/>
	<polygon class="st9" points="434.5,456.3 488.1,475.3 508.9,522.7 455.8,526.1 	"/>
	<polygon class="st6" points="643.2,488.9 638.2,517 403.3,475.5 387.2,463.3 377.9,456.3 389.2,453 408.3,447.3 408.3,447.3 	"/>
	<polygon class="st10" points="642.1,497.6 639.8,508.5 403.3,466.9 403.5,455.4 	"/>
	<path class="st7" d="M500.7,584.2l-23.5-11.6L420.8,464c0,0,20.7-7.7,36.5,17.5l22.8,34.3l14.3,3.4l9-26.1l20.5,38.5L500.7,584.2z"
		/>
	<polygon class="st7" points="493.6,576.9 499.8,593.5 583,591.6 572.3,569.8 	"/>
	<polygon class="st5" points="564.4,801.4 685.3,801.4 600.3,603.6 498.3,603.6 	"/>
	<polygon class="st8" points="496.4,589.6 586.8,589.6 591.8,603.6 501.4,603.6 	"/>
	<polygon class="st7" points="408.3,447.3 403.3,475.5 387.2,463.3 389.2,453 408.3,447.3 	"/>
</g>
</svg>
