<?xml version="1.0" encoding="utf-8"?>
<!-- Generator: Adobe Illustrator 24.1.2, SVG Export Plug-In . SVG Version: 6.00 Build 0)  -->
<svg version="1.1" xmlns="http://www.w3.org/2000/svg" xmlns:xlink="http://www.w3.org/1999/xlink" x="0px" y="0px"
	 viewBox="0 0 750 500" style="enable-background:new 0 0 750 500;" xml:space="preserve">
<style type="text/css">
	.st0{display:none;}
	.st1{display:inline;fill:#FFFFFF;}
	.st2{fill-rule:evenodd;clip-rule:evenodd;fill:#DCD7EB;}
	.st3{fill-rule:evenodd;clip-rule:evenodd;fill:#C5EAD4;}
	.st4{fill-rule:evenodd;clip-rule:evenodd;fill:#A5CEB6;}
	.st5{fill-rule:evenodd;clip-rule:evenodd;fill:#FFFFFF;}
	.st6{fill-rule:evenodd;clip-rule:evenodd;fill:#A2DBBA;}
	.st7{fill-rule:evenodd;clip-rule:evenodd;fill:#CFE8D8;}
	.st8{fill-rule:evenodd;clip-rule:evenodd;fill:#BFBEE5;}
	.st9{fill-rule:evenodd;clip-rule:evenodd;fill:#9995C9;}
	.st10{fill-rule:evenodd;clip-rule:evenodd;fill:#55576D;}
	.st11{fill-rule:evenodd;clip-rule:evenodd;fill:#4B4C5B;}
	.st12{fill-rule:evenodd;clip-rule:evenodd;fill:#D6F2E1;}
	.st13{fill-rule:evenodd;clip-rule:evenodd;fill:#7A72B3;}
	.st14{fill-rule:evenodd;clip-rule:evenodd;fill:#63D691;}
	.st15{fill-rule:evenodd;clip-rule:evenodd;fill:#282A3A;}
	.st16{fill-rule:evenodd;clip-rule:evenodd;fill:#333345;}
	.st17{fill-rule:evenodd;clip-rule:evenodd;fill:#444354;}
	.st18{fill-rule:evenodd;clip-rule:evenodd;fill:#B86766;}
	.st19{fill-rule:evenodd;clip-rule:evenodd;fill:#01051A;}
	.st20{fill-rule:evenodd;clip-rule:evenodd;fill:#534E91;}
	.st21{fill-rule:evenodd;clip-rule:evenodd;fill:#E8685B;}
	.st22{fill-rule:evenodd;clip-rule:evenodd;fill:#3C8E5D;}
	.st23{fill-rule:evenodd;clip-rule:evenodd;fill:#B2DBC2;}
	.st24{fill-rule:evenodd;clip-rule:evenodd;fill:#F4AD85;}
	.st25{fill-rule:evenodd;clip-rule:evenodd;fill:#EF8C70;}
	.st26{fill-rule:evenodd;clip-rule:evenodd;fill:#393A49;}
	.st27{fill-rule:evenodd;clip-rule:evenodd;fill:#474756;}
	.st28{fill-rule:evenodd;clip-rule:evenodd;fill:#802A20;}
	.st29{fill-rule:evenodd;clip-rule:evenodd;fill:#DF4719;}
	.st30{fill-rule:evenodd;clip-rule:evenodd;fill:#C8421C;}
	.st31{fill-rule:evenodd;clip-rule:evenodd;fill:#A53B24;}
	.st32{fill-rule:evenodd;clip-rule:evenodd;fill:#C5421D;}
	.st33{fill-rule:evenodd;clip-rule:evenodd;fill:#F8CAB0;}
	.st34{fill-rule:evenodd;clip-rule:evenodd;fill:#EF92A3;}
	.st35{fill-rule:evenodd;clip-rule:evenodd;fill:#B6B5E2;}
	.st36{fill-rule:evenodd;clip-rule:evenodd;fill:#F0EEF6;}
	.st37{fill-rule:evenodd;clip-rule:evenodd;fill:#F3C4D2;}
	.st38{fill-rule:evenodd;clip-rule:evenodd;fill:#A4EAC1;}
	.st39{fill-rule:evenodd;clip-rule:evenodd;fill:#6FBC8E;}
	.st40{fill:#6354A1;}
	.st41{fill:#FFF8F8;}
	.st42{fill:#7D7DBC;}
	.st43{fill-rule:evenodd;clip-rule:evenodd;fill:#B4A7D0;}
</style>
<g id="BACKGROUND" class="st0">
	<rect class="st1" width="750" height="500"/>
</g>
<g id="OBJECTS">
	<g>
		<path class="st2" d="M144.05,45.35h103.48c6.21,0,11.29,5.08,11.29,11.29v46.57v3.44v29.64c0,0.52-0.3,0.97-0.78,1.16
			c-0.48,0.2-1.01,0.1-1.37-0.27l-19.24-19.24h-93.38c-6.21,0-11.29-5.08-11.29-11.29V56.64C132.76,50.43,137.84,45.35,144.05,45.35
			z"/>
		<path class="st3" d="M135.54,356.25H74.15h-1.6c-33.9,0-61.64,27.74-61.64,61.64l0,0c0,33.9,27.74,61.64,61.64,61.64H252.5h30.99
			h321.66c54.89,0,99.8-44.91,99.8-99.8v0c0-54.89-44.91-99.8-99.8-99.81l0,0c-23.21,0-42.2-18.99-42.2-42.2l0,0
			c0-23.21,18.99-42.2,42.2-42.2h50.79c24.13,0,43.87-19.74,43.87-43.87l0,0c0-24.13-19.74-43.87-43.87-43.87h-64.22
			c-9.39,0-17.08-7.69-17.08-17.08v0c0-9.39,7.69-17.08,17.08-17.08h11.32c6.48,0,11.79-5.3,11.79-11.79l0,0
			c0-6.48-5.31-11.79-11.79-11.79h-42.43c0,0-16.21,0-31.86,0c-15.64,0-17.39,18.48-56.91,18.48c-61.09,0-39.2,0-100.3,0
			c-8.46,0-15.38,6.92-15.38,15.38v0c0,8.46,6.92,15.38,15.38,15.38h9.27c12.26,0,22.29,10.03,22.29,22.29v0
			c0,12.26-10.03,22.29-22.29,22.29h-30.3c-60.03,0-68.51,15.69-79.03,46.89c-10.51,31.2-65.12,33.72-65.12,33.72H131.7
			c-18.47,0-33.59,15.12-33.59,33.59v0c0,18.47,15.11,33.59,33.59,33.59h3.84c17.77,0,32.31,14.54,32.31,32.31l0,0
			C167.85,341.71,153.31,356.25,135.54,356.25L135.54,356.25z M636.12,73.6c-6.51,0-11.79-5.28-11.79-11.79
			c0-6.51,5.28-11.79,11.79-11.79c6.51,0,11.79,5.28,11.79,11.79C647.91,68.33,642.63,73.6,636.12,73.6z"/>
		<g>
			<g>
				<path class="st4" d="M683.72,479.52c22.87-37.55,29.65-70.9,9.45-89.96c-22.44-21.18-74.09,10.9-125.62,89.96H683.72z"/>
				<path class="st5" d="M599.65,479.52c2.2-2.81,4.37-5.52,6.53-8.13c4.51,0.58,21.71,3,41.02,8.13h8.14
					c-20.73-6.15-40.6-9.19-47.49-10.14c8.12-9.72,15.91-18.14,23.2-25.38c5.57,0.19,30.77,1.38,50.89,8.22
					c0.58,0.2,1.2-0.11,1.4-0.69c0.2-0.57-0.11-1.2-0.69-1.4c-18.49-6.29-41.16-7.88-49.44-8.26c3.02-2.95,5.95-5.69,8.78-8.24
					c4.38-0.42,20.75-1.56,42.97,2.21c0.6,0.1,1.17-0.3,1.27-0.9c0.1-0.6-0.3-1.17-0.9-1.27c-18.97-3.22-33.78-2.9-40.63-2.46
					c22.88-20.13,38.2-27.16,38.33-27.21c0.82-0.39,1.17-1.38,0.78-2.2c-0.39-0.82-1.38-1.17-2.2-0.78
					c-0.08,0.04-6.82,3.13-18.01,11.02c2.51-4.91,6.11-11.72,7.22-12.75c0.45-0.41,0.47-1.11,0.06-1.55
					c-0.41-0.45-1.11-0.47-1.55-0.06c-1.71,1.58-7.6,13.18-9.61,17.18c-4.51,3.34-9.6,7.35-15.16,12.16l6.42-23.34
					c0.16-0.59-0.18-1.19-0.77-1.35c-0.59-0.16-1.19,0.18-1.35,0.77l-7.3,26.56c-3.8,3.38-7.8,7.11-11.96,11.21l6.46-27.44
					c0.14-0.59-0.22-1.19-0.81-1.33c-0.59-0.14-1.19,0.22-1.33,0.81l-7.28,30.91c-6.2,6.27-12.74,13.34-19.51,21.34l4.74-28.04
					c0.1-0.6-0.3-1.17-0.9-1.27c-0.6-0.1-1.17,0.3-1.27,0.9l-5.38,31.78c-2.9,3.5-5.83,7.15-8.8,10.98H599.65L599.65,479.52z
					 M595.07,479.52h-2.23l3.69-24.78c0.09-0.6,0.65-1.02,1.26-0.92c0.6,0.09,1.01,0.65,0.92,1.26L595.07,479.52z"/>
			</g>
			<g>
				<path class="st6" d="M481.51,451.51c-6.43-17.33-21.53-47.27-56.1-82.03c-54.68-54.98-90.55-118.57-61.4-143.42
					c28.61-24.39,108.48,56.97,150.51,220.39C501.45,449.55,490.57,451.12,481.51,451.51z"/>
				<path class="st5" d="M497.43,441.59c-1.76-0.54-6.49-1.74-13.16-1.48c-0.47,0.02-0.86-0.34-0.88-0.81
					c-0.02-0.47,0.35-0.86,0.81-0.88c5.84-0.22,10.3,0.64,12.67,1.27c-0.79-2.72-1.59-5.4-2.41-8.05
					c-2.83-0.79-11.96-3.3-15.46-3.98c-0.46-0.09-0.76-0.53-0.67-0.99c0.09-0.46,0.53-0.76,0.99-0.67
					c3.21,0.63,10.96,2.73,14.55,3.72c-1.53-4.95-3.09-9.77-4.68-14.49c-2.77-0.65-11.37-2.57-21.15-3.69
					c-0.46-0.05-0.8-0.47-0.74-0.94c0.05-0.46,0.47-0.8,0.93-0.74c8.86,1.02,16.78,2.69,20.33,3.49c-1.61-4.74-3.25-9.36-4.91-13.86
					c-3.79-0.89-16.16-3.66-30.19-5.28c-0.46-0.05-0.8-0.47-0.74-0.93c0.05-0.47,0.47-0.8,0.94-0.75
					c12.98,1.49,24.53,3.97,29.29,5.06c-2.2-5.9-4.44-11.59-6.7-17.09c-3.91-1.17-20.17-5.74-33.46-4.92
					c-0.47,0.03-0.87-0.32-0.9-0.79c-0.03-0.47,0.32-0.87,0.79-0.9c12.38-0.77,27.23,3.03,32.75,4.61
					c-2.8-6.73-5.65-13.15-8.52-19.29c-5.46-1.06-27.55-4.91-39.51-0.3c-0.44,0.17-0.92-0.05-1.09-0.49
					c-0.17-0.44,0.05-0.92,0.49-1.09c11.6-4.47,32.12-1.31,39.21-0.01c-3.07-6.48-6.16-12.64-9.27-18.49
					c-4.15-0.11-21.61-0.28-39.04,3.57c-0.45,0.1-0.91-0.19-1.01-0.64c-0.1-0.46,0.19-0.91,0.64-1.01
					c16.51-3.64,33.03-3.72,38.51-3.63c-1.85-3.44-3.7-6.78-5.55-10c-3.96-0.18-20.91-0.58-44.71,4.3c-0.46,0.09-0.9-0.2-1-0.66
					c-0.09-0.46,0.2-0.9,0.66-1c22.21-4.56,38.56-4.55,44.05-4.37c-4.41-7.6-8.82-14.62-13.17-21.06
					c-5.16,0.37-31.32,2.41-46.04,7.26c-0.44,0.15-0.92-0.09-1.07-0.54c-0.15-0.44,0.09-0.92,0.54-1.07
					c14.13-4.65,38.53-6.75,45.46-7.27c-2.54-3.72-5.06-7.26-7.55-10.61c-4.43,0.35-24.77,2.18-44.31,7.74
					c-0.45,0.13-0.91-0.13-1.04-0.58c-0.13-0.45,0.13-0.92,0.58-1.04c18.42-5.24,37.52-7.2,43.58-7.72
					c-5.84-7.76-11.49-14.51-16.79-20.34c-4.27-0.07-23.62-0.13-39.3,4.33c-0.45,0.13-0.91-0.13-1.04-0.58
					c-0.13-0.45,0.13-0.91,0.58-1.04c14.41-4.1,31.83-4.44,38.19-4.41c-2.2-2.37-4.34-4.59-6.41-6.65c-3.34-0.49-15.84-2-33,0.03
					c-0.46,0.05-0.88-0.27-0.94-0.74c-0.06-0.46,0.27-0.89,0.74-0.94c14.65-1.74,25.99-0.91,31.21-0.31
					c-16.75-16.31-28.21-22.28-28.3-22.33c-0.62-0.33-0.85-1.1-0.51-1.72c0.33-0.61,1.1-0.85,1.72-0.51
					c0.06,0.03,5.11,2.66,13.37,9.14c-1.74-3.86-4.22-9.22-5.03-10.05c-0.32-0.33-0.32-0.87,0.02-1.19
					c0.33-0.32,0.87-0.32,1.19,0.02c1.25,1.28,5.32,10.39,6.7,13.53c3.33,2.73,7.06,6,11.14,9.9l-4.01-18.13
					c-0.1-0.46,0.19-0.91,0.64-1.01c0.46-0.1,0.91,0.19,1.01,0.64l4.57,20.63c2.78,2.73,5.7,5.75,8.72,9.05l-3.89-21.27
					c-0.09-0.46,0.22-0.9,0.67-0.98c0.46-0.08,0.9,0.22,0.98,0.68l4.38,23.96c4.51,5.04,9.24,10.71,14.12,17.1l-2.55-21.66
					c-0.06-0.46,0.27-0.88,0.74-0.94c0.46-0.06,0.88,0.27,0.94,0.74l2.89,24.55c2.21,2.97,4.45,6.07,6.71,9.32l-1.9-19.42
					c-0.05-0.47,0.29-0.88,0.76-0.93c0.46-0.05,0.88,0.29,0.93,0.76l2.19,22.48c4.16,6.13,8.37,12.77,12.6,19.95l-0.42-18.6
					c-0.01-0.47,0.36-0.85,0.82-0.86c0.47-0.01,0.85,0.36,0.86,0.82l0.49,21.65c1.66,2.89,3.33,5.87,4.99,8.92l0.66-13.95
					c0.02-0.47,0.42-0.83,0.88-0.8c0.47,0.02,0.82,0.42,0.8,0.88l-0.79,16.75c3.07,5.75,6.14,11.81,9.17,18.18L469,339.7
					c0.04-0.47,0.44-0.81,0.91-0.77c0.47,0.04,0.81,0.44,0.77,0.91l-1.46,18.35c2.64,5.64,5.25,11.53,7.83,17.65l1.69-13.56
					c0.06-0.46,0.48-0.79,0.94-0.74c0.46,0.06,0.79,0.48,0.74,0.94l-2.06,16.5c2.23,5.41,4.44,11,6.61,16.79l2.92-11.88
					c0.11-0.45,0.57-0.73,1.02-0.62c0.45,0.11,0.73,0.57,0.62,1.02l-3.52,14.29c1.56,4.22,3.1,8.55,4.61,12.98l3.83-9.79
					c0.17-0.43,0.66-0.65,1.09-0.48c0.43,0.17,0.65,0.66,0.48,1.09l-4.57,11.65c1.39,4.11,2.75,8.3,4.1,12.58l2.85-6.23
					c0.19-0.43,0.7-0.61,1.12-0.42c0.42,0.19,0.61,0.7,0.42,1.12l-3.63,7.95c0.99,3.22,1.98,6.5,2.95,9.82l4.07-4.68
					c0.31-0.35,0.84-0.39,1.19-0.08c0.35,0.31,0.39,0.84,0.08,1.19l-4.78,5.49c0.79,2.72,1.56,5.48,2.33,8.26
					c-0.85,0.15-1.68,0.3-2.51,0.44C498.92,446.83,498.18,444.19,497.43,441.59z"/>
			</g>
			<path class="st4" d="M451.27,472.9c-0.39-1.75-0.78-3.48-1.2-5.19c-6.88-28.54-17.61-52.45-31.25-72.21
				c-14.76-21.39-32.92-37.91-53.28-50.18c-18.86-11.37-39.6-19.08-61.26-23.63c-23.23-4.87-47.54-6.1-71.73-4.3
				c-8.16,0.61-16.35,1.57-24.5,2.85c-8.25,1.3-16.44,2.94-24.51,4.88l0-0.01c-0.91,0.22-1.66,0.79-2.11,1.54
				c-0.46,0.74-0.63,1.66-0.41,2.57l0.07,0.23c0.81,3.14,18.32,70.38,60.78,127.18c4.14,5.54,8.53,10.99,13.16,16.27h4.75
				c-5.34-5.93-10.36-12.09-15.06-18.38c-3.09-4.13-6.04-8.32-8.87-12.53c10.96-7.83,84.27-42.64,92.56-46.57
				c12.17,8.14,24.55,17.21,36.88,27.31L263.08,472.9h7.42l97.53-47.89c9.62,7.99,19.2,16.62,28.63,25.92
				c-6.86,3.52-25.28,12.52-44.75,21.97h7.46c18.09-8.8,34.27-16.72,39.72-19.56c6.21,6.22,12.35,12.73,18.39,19.56h4.35
				c-6.78-7.76-13.69-15.12-20.69-22.12c1.07-5.9,7.12-41.04,4.97-66.16c3.41,4.08,6.68,8.37,9.79,12.88
				c3.8,5.51,7.37,11.34,10.69,17.52c-0.56,0.29-0.92,0.9-0.87,1.57c1.85,23.41-0.01,45.75-1.19,56.31h3.28
				c1.13-10.26,2.82-30.79,1.43-52.78c5.62,11.24,10.45,23.55,14.36,37c-0.71,0.2-1.22,0.86-1.19,1.63c0,0.04,0.24,6.22,0.19,14.15
				h3.26c0.02-2.82,0-5.43-0.03-7.61c0.27,1.07,0.54,2.16,0.8,3.24c0.35,1.44,0.69,2.9,1.01,4.37H451.27L451.27,472.9z
				 M184.98,330.38c4.19,0.96,21.46,5.16,46.24,14.67c-8.67,2.91-28.32,9.66-36.96,13.91C189.09,344.89,186.1,334.48,184.98,330.38
				L184.98,330.38z M195.4,362.03l0.04-0.02c9.97-4.98,36.59-13.8,40.56-15.11c12.35,4.89,26.35,11.04,41.39,18.67l-68.13,29.18
				C203.61,382.85,199.02,371.68,195.4,362.03L195.4,362.03z M210.65,397.71l70.5-30.19c14.01,7.26,28.86,15.8,44.06,25.79
				c-13.89,6.59-80.28,38.25-91.18,45.96C224.86,425.28,217.1,411.08,210.65,397.71L210.65,397.71z M403.2,381.24
				c-0.4,0.34-0.62,0.86-0.56,1.42c2.49,22.65-2.59,55.28-4.32,65.33c-9.3-9.13-18.74-17.61-28.21-25.48
				c9.95-32.92,8.41-58.31,7.81-64.59C386.96,364.67,395.43,372.42,403.2,381.24L403.2,381.24z M374.82,355.64
				c-0.24,0.33-0.36,0.74-0.3,1.18c0.01,0.08,3.67,26.76-7.14,63.43c-12.37-10.13-24.79-19.23-37-27.41
				c4.34-15.63,5.2-53.09,5.3-58.21c9.71,3.77,19.09,8.33,28.04,13.72C367.5,350.63,371.21,353.06,374.82,355.64L374.82,355.64z
				 M332.54,333.44c-0.07,0.17-0.1,0.36-0.11,0.55c0,0.12-0.63,39.98-4.93,56.94c-15.39-10.14-30.43-18.81-44.62-26.17
				c1.92-19.5-1.22-39.87-1.76-43.14c7.56,0.82,15.05,2,22.43,3.54C313.46,327.23,323.15,329.98,332.54,333.44L332.54,333.44z
				 M277.82,321.28c-0.01,0.14-0.01,0.29,0.02,0.43c0.01,0.06,3.7,21.04,1.92,41.44c-15.31-7.81-29.58-14.1-42.16-19.1
				c-0.12-10.65-2.55-21.41-2.99-23.26C249.08,319.81,263.57,319.93,277.82,321.28L277.82,321.28z M231.34,321.04
				c0.01,0.08,0.02,0.17,0.04,0.25c0.01,0.03,2.62,10.62,2.94,21.47c-22.83-8.88-39.65-13.38-46.39-15.03
				c6.82-1.56,13.72-2.89,20.66-3.99C216.1,322.55,223.7,321.65,231.34,321.04z"/>
			<g>
				<path class="st7" d="M459.35,460.3c-6.77-11.45-20.09-28.96-44.8-46.41c-41.95-29.61-72.84-68.83-57.12-92
					c15.14-22.32,74.59,19.68,121.33,125.19l-19.33,13.16L459.35,460.3z"/>
				<path class="st4" d="M367.75,331.83c-0.85-0.45-1.19-1.5-0.74-2.35c0.45-0.85,1.5-1.19,2.35-0.74
					c0.06,0.03,5.11,2.59,13.12,8.17l-4.83-8.76c-0.31-0.56-0.1-1.27,0.46-1.58c0.56-0.31,1.27-0.1,1.58,0.46l7.18,13.02
					c3.67,2.71,7.79,5.94,12.2,9.72l-3.96-11.37c-0.21-0.61,0.11-1.27,0.71-1.48c0.61-0.21,1.27,0.11,1.48,0.71l5.31,15.24
					c4.53,4.04,9.32,8.63,14.25,13.81l-3.07-10c-0.19-0.61,0.15-1.26,0.77-1.45c0.61-0.19,1.26,0.15,1.45,0.77l4.49,14.6
					c5.07,5.57,10.24,11.74,15.36,18.58l-1.88-9.86c-0.12-0.63,0.29-1.24,0.92-1.36c0.63-0.12,1.24,0.29,1.36,0.92l2.79,14.65
					c4.72,6.57,9.37,13.7,13.86,21.42l0.2-5.95c0.02-0.64,0.56-1.14,1.2-1.12c0.64,0.02,1.14,0.56,1.12,1.2l-0.33,9.71
					c3.34,5.97,6.58,12.27,9.65,18.93l0.44-5.93c0.05-0.64,0.61-1.12,1.25-1.07c0.64,0.05,1.12,0.61,1.07,1.25l-0.75,10.2
					c1.46,3.31,2.88,6.71,4.26,10.19l-2.96,2.01c-1.37-3.49-2.78-6.9-4.24-10.22c-2.64-1.14-9.04-3.76-12.31-3.72
					c-0.64,0.01-1.17-0.51-1.18-1.15c-0.01-0.64,0.51-1.17,1.15-1.18c2.89-0.03,7.68,1.66,10.96,2.97
					c-1.17-2.59-2.36-5.12-3.58-7.61c-2.73-0.87-9.51-2.81-14.81-2.59c-0.64,0.03-1.18-0.47-1.21-1.11
					c-0.03-0.64,0.47-1.18,1.11-1.21c4.55-0.19,10.04,1.09,13.5,2.07c-2.55-5.06-5.19-9.89-7.88-14.51
					c-4.17-0.34-17.45-1.28-23.52,0.04c-0.63,0.14-1.25-0.26-1.38-0.88c-0.14-0.63,0.26-1.25,0.88-1.38
					c5.7-1.25,17.18-0.61,22.58-0.21c-2.93-4.89-5.91-9.53-8.94-13.92c-4.12-0.44-17.64-1.63-28.02,0.44
					c-0.63,0.12-1.24-0.28-1.36-0.91c-0.12-0.63,0.28-1.24,0.91-1.36c9.34-1.86,21.12-1.16,26.74-0.66
					c-1.51-2.15-3.04-4.23-4.56-6.26c-4.16-0.7-18.38-2.68-33.71-0.3c-0.63,0.1-1.23-0.33-1.33-0.97c-0.1-0.63,0.33-1.23,0.97-1.33
					c13.42-2.08,26.03-0.89,32.05-0.06c-5.6-7.24-11.21-13.7-16.67-19.43c-5.2,0.42-25.42,2.21-35.37,5.15
					c-0.61,0.18-1.26-0.17-1.44-0.78c-0.18-0.61,0.17-1.26,0.78-1.44c9.21-2.72,26.8-4.46,33.95-5.08
					c-4.12-4.22-8.13-8.01-11.94-11.41c-4.94,0.89-23.19,4.22-27.57,5.29c-0.62,0.15-1.25-0.23-1.4-0.85
					c-0.15-0.62,0.23-1.25,0.85-1.41c4.02-0.98,19.31-3.79,25.9-4.99c-5.03-4.36-9.69-8.01-13.76-10.99
					c-4.61,1.14-15.71,3.9-18.42,4.78c-0.61,0.2-1.27-0.14-1.46-0.75c-0.2-0.61,0.14-1.27,0.75-1.46
					c2.42-0.78,11.38-3.03,16.66-4.35C373.22,334.61,367.81,331.86,367.75,331.83z"/>
			</g>
		</g>
		<g>
			<g>
				<g>
					<path class="st8" d="M131.64,308.2c-16.05-16.35-27.99,4.42-26.33,25.26c1.58,19.76,18.61,87.56,15.46,116.08h6.52
						C143.24,412.97,152.19,329.13,131.64,308.2z"/>
					<path class="st9" d="M124.89,449.54c15.53-57.65-4.13-137.34-4.2-137.61c-0.12-0.49-0.62-0.8-1.11-0.68
						c-0.49,0.12-0.8,0.62-0.68,1.11c0.07,0.27,19.75,80.05,4.1,137.17H124.89z"/>
				</g>
				<g>
					<path class="st9" d="M92.03,344.22c-16.92-8.96-21.18,10.59-14.59,26.77c5.47,13.41,29.61,53.07,38.74,78.55h8.6
						C125.52,414.33,112,354.8,92.03,344.22z"/>
					<path class="st8" d="M121.64,449.54c-5.6-47.63-37.27-99.39-37.38-99.58c-0.22-0.36-0.7-0.48-1.06-0.26
						c-0.36,0.22-0.48,0.69-0.26,1.06c0.11,0.19,31.58,51.62,37.17,98.78H121.64z"/>
				</g>
				<g>
					<path class="st5" d="M163.53,366.83c16.4-7.16,19,11.36,11.71,25.97c-4.93,9.89-22.69,35.21-34.65,56.74h-13.65
						C131.61,416.96,146.58,374.23,163.53,366.83z"/>
					<path class="st8" d="M131.82,449.54c11.64-39.47,38.45-76.67,38.56-76.82c0.23-0.32,0.68-0.4,1-0.17c0.32,0.23,0.4,0.68,0.17,1
						c-0.11,0.15-26.63,36.96-38.25,75.98H131.82z"/>
				</g>
			</g>
			<g>
				<path class="st10" d="M105.93,436.51h48.04c1.44,0,2.61,1.17,2.61,2.61v11.86c0,1.44-1.17,2.61-2.61,2.61h-48.04
					c-1.44,0-2.61-1.18-2.61-2.61v-11.86C103.32,437.68,104.49,436.51,105.93,436.51z"/>
				<polygon class="st10" points="114.17,446.16 145.73,446.16 153.97,453.59 147.24,479.52 129.95,479.52 112.66,479.52 
					105.93,453.59 				"/>
				<polygon class="st11" points="153.97,453.59 152.59,458.92 107.32,458.92 105.93,453.59 				"/>
			</g>
		</g>
		<path class="st2" d="M703.66,80.71L703.66,80.71L703.66,80.71z M699.75,65.83c-1.36-1.36-3.24-2.2-5.32-2.2s-3.96,0.84-5.32,2.2
			c-1.36,1.36-2.2,3.24-2.2,5.32c0,2.08,0.84,3.96,2.2,5.32c1.36,1.36,3.24,2.2,5.32,2.2s3.96-0.84,5.32-2.2
			c1.36-1.36,2.2-3.24,2.2-5.32C701.95,69.07,701.11,67.19,699.75,65.83L699.75,65.83z M698.13,58.37c1.04,0.3,2.03,0.72,2.95,1.26
			c0.94,0.54,1.81,1.2,2.59,1.95c0.15,0.15,0.38,0.17,0.55,0.07l3.49-2.02l0.02-0.01c0.2-0.11,0.43-0.13,0.64-0.07
			c0.21,0.06,0.41,0.2,0.53,0.4l0.01,0.02l2.46,4.26c0.12,0.21,0.14,0.44,0.08,0.66c-0.06,0.21-0.2,0.41-0.4,0.53l-0.02,0.02
			l-3.47,2c-0.18,0.1-0.26,0.32-0.22,0.51h0c0.13,0.52,0.23,1.05,0.29,1.59c0.06,0.53,0.1,1.07,0.1,1.62c0,0.55-0.03,1.09-0.1,1.62
			c-0.07,0.54-0.16,1.07-0.29,1.59c-0.05,0.21,0.05,0.43,0.24,0.52l3.46,2v0c0.21,0.12,0.35,0.31,0.4,0.53
			c0.06,0.22,0.03,0.45-0.08,0.66l-2.47,4.28h0c-0.12,0.21-0.31,0.34-0.53,0.4c-0.21,0.06-0.45,0.03-0.66-0.08l-0.02-0.01l-3.47-2
			c-0.18-0.1-0.41-0.07-0.55,0.07c-0.78,0.75-1.65,1.4-2.59,1.95c-0.92,0.53-1.92,0.96-2.97,1.26c-0.2,0.06-0.34,0.24-0.34,0.45
			v4.03c0,0.24-0.1,0.45-0.25,0.61c-0.16,0.16-0.37,0.25-0.61,0.25h-4.95c-0.24,0-0.45-0.1-0.61-0.25
			c-0.16-0.16-0.25-0.37-0.25-0.61v-4.03c0-0.22-0.15-0.4-0.35-0.45c-1.04-0.3-2.03-0.72-2.95-1.25c-0.94-0.54-1.81-1.2-2.58-1.95
			c-0.16-0.15-0.4-0.17-0.57-0.05l-3.47,2c-0.2,0.12-0.44,0.14-0.66,0.08c-0.21-0.06-0.41-0.2-0.53-0.4l-0.02-0.02l-2.46-4.26l0,0
			c-0.12-0.21-0.14-0.44-0.08-0.66c0.06-0.22,0.2-0.41,0.4-0.53l3.49-2.02c0.18-0.1,0.26-0.32,0.22-0.51l0,0
			c-0.13-0.52-0.22-1.05-0.29-1.59c-0.06-0.53-0.1-1.07-0.1-1.62c0-0.55,0.03-1.09,0.1-1.62c0.07-0.54,0.17-1.07,0.29-1.59
			c0.05-0.21-0.05-0.43-0.24-0.52l-3.47-2c-0.2-0.12-0.34-0.31-0.4-0.53c-0.06-0.22-0.03-0.45,0.08-0.66l0.01-0.03l2.46-4.26l0,0
			c0.12-0.21,0.31-0.34,0.53-0.4c0.21-0.06,0.45-0.03,0.66,0.08l0,0l3.49,2.02c0.19,0.11,0.42,0.07,0.56-0.08
			c0.77-0.74,1.64-1.4,2.58-1.94c0.92-0.53,1.92-0.96,2.97-1.26c0.2-0.06,0.34-0.24,0.34-0.44V53.9c0-0.24,0.1-0.45,0.25-0.61
			c0.16-0.16,0.37-0.25,0.61-0.25h4.95c0.24,0,0.45,0.1,0.61,0.25c0.16,0.16,0.25,0.37,0.25,0.61v4.03
			C697.77,58.14,697.93,58.33,698.13,58.37z"/>
		<g>
			<path class="st12" d="M109.38,133.16c16.97,0,30.73,13.76,30.73,30.73c0,16.97-13.76,30.73-30.73,30.73H46.86
				c-10.95,0-19.82-8.87-19.82-19.82c0-10.95,8.87-19.82,19.82-19.82c2.19,0,4.3,0.36,6.27,1.01c2.83-7.14,9.79-12.19,17.94-12.19
				c4.54,0,8.71,1.57,12.01,4.19C88.46,139.11,98.23,133.16,109.38,133.16z"/>
			<path class="st12" d="M50.03,202.14h4.86c0.89,0,1.62,0.73,1.62,1.62v4.86c0,0.89-0.73,1.62-1.62,1.62h-4.86
				c-0.89,0-1.62-0.73-1.62-1.62v-4.86C48.41,202.86,49.14,202.14,50.03,202.14z"/>
			<path class="st12" d="M66.64,202.14h4.86c0.89,0,1.62,0.73,1.62,1.62v4.86c0,0.89-0.73,1.62-1.62,1.62h-4.86
				c-0.89,0-1.62-0.73-1.62-1.62v-4.86C65.02,202.86,65.75,202.14,66.64,202.14z"/>
			<path class="st12" d="M83.25,202.14h4.86c0.89,0,1.62,0.73,1.62,1.62v4.86c0,0.89-0.73,1.62-1.62,1.62h-4.86
				c-0.89,0-1.62-0.73-1.62-1.62v-4.86C81.63,202.86,82.36,202.14,83.25,202.14z"/>
			<path class="st12" d="M99.86,202.14h4.86c0.89,0,1.62,0.73,1.62,1.62v4.86c0,0.89-0.73,1.62-1.62,1.62h-4.86
				c-0.89,0-1.62-0.73-1.62-1.62v-4.86C98.24,202.86,98.97,202.14,99.86,202.14z"/>
		</g>
		<path class="st13" d="M631.16,16.38c0-0.37,0.3-0.67,0.67-0.67c0.37,0,0.67,0.3,0.67,0.67v3.02c0,0.37-0.3,0.67-0.67,0.67
			c-0.37,0-0.67-0.3-0.67-0.67V16.38L631.16,16.38z M626.59,18.83c-0.26-0.26-0.26-0.69,0-0.95c0.26-0.26,0.69-0.26,0.95,0
			l2.13,2.13c0.26,0.26,0.26,0.69,0,0.95c-0.26,0.26-0.69,0.26-0.95,0L626.59,18.83L626.59,18.83z M625.09,23.8
			c-0.37,0-0.67-0.3-0.67-0.67c0-0.37,0.3-0.67,0.67-0.67h3.02c0.37,0,0.67,0.3,0.67,0.67c0,0.37-0.3,0.67-0.67,0.67H625.09
			L625.09,23.8z M627.54,28.38c-0.26,0.26-0.69,0.26-0.95,0c-0.26-0.26-0.26-0.69,0-0.95l2.14-2.14c0.26-0.26,0.69-0.26,0.95,0
			c0.26,0.26,0.26,0.69,0,0.95L627.54,28.38L627.54,28.38z M632.51,29.88c0,0.37-0.3,0.67-0.67,0.67c-0.37,0-0.67-0.3-0.67-0.67
			v-3.02c0-0.37,0.3-0.67,0.67-0.67c0.37,0,0.67,0.3,0.67,0.67V29.88L632.51,29.88z M637.08,27.43c0.26,0.26,0.26,0.69,0,0.95
			c-0.26,0.26-0.69,0.26-0.95,0L634,26.24c-0.26-0.26-0.26-0.69,0-0.95c0.26-0.26,0.69-0.26,0.95,0L637.08,27.43L637.08,27.43z
			 M638.58,22.46c0.37,0,0.67,0.3,0.67,0.67c0,0.37-0.3,0.67-0.67,0.67h-3.02c-0.37,0-0.67-0.3-0.67-0.67c0-0.37,0.3-0.67,0.67-0.67
			H638.58L638.58,22.46z M636.13,17.88c0.26-0.26,0.69-0.26,0.95,0c0.26,0.26,0.26,0.69,0,0.95l-2.14,2.13
			c-0.26,0.26-0.69,0.26-0.95,0c-0.26-0.26-0.26-0.69,0-0.95L636.13,17.88z"/>
		<path class="st14" d="M314.63,39.65c-0.61,0-1.11-0.71-1.11-1.59c0-0.88,0.5-1.59,1.11-1.59h52.05c0.61,0,1.11,0.71,1.11,1.59
			c0,0.88-0.5,1.59-1.11,1.59H314.63L314.63,39.65z M307.58,36.48c0.61,0,1.11,0.71,1.11,1.59c0,0.88-0.5,1.59-1.11,1.59h-4.34
			c-0.61,0-1.11-0.71-1.11-1.59c0-0.88,0.5-1.59,1.11-1.59H307.58z"/>
		<path class="st13" d="M717.06,225.52c0-0.37,0.3-0.67,0.67-0.67c0.37,0,0.67,0.3,0.67,0.67v3.02c0,0.37-0.3,0.67-0.67,0.67
			c-0.37,0-0.67-0.3-0.67-0.67V225.52L717.06,225.52z M712.48,227.97c-0.26-0.26-0.26-0.69,0-0.95c0.26-0.26,0.69-0.26,0.95,0
			l2.13,2.14c0.26,0.26,0.26,0.69,0,0.95c-0.26,0.26-0.69,0.26-0.95,0L712.48,227.97L712.48,227.97z M710.98,232.94
			c-0.37,0-0.67-0.3-0.67-0.67c0-0.37,0.3-0.67,0.67-0.67H714c0.37,0,0.67,0.3,0.67,0.67c0,0.37-0.3,0.67-0.67,0.67H710.98
			L710.98,232.94z M713.43,237.51c-0.26,0.26-0.69,0.26-0.95,0c-0.26-0.26-0.26-0.69,0-0.95l2.13-2.14c0.26-0.26,0.69-0.26,0.95,0
			c0.26,0.26,0.26,0.69,0,0.95L713.43,237.51L713.43,237.51z M718.4,239.02c0,0.37-0.3,0.67-0.67,0.67c-0.37,0-0.67-0.3-0.67-0.67
			V236c0-0.37,0.3-0.67,0.67-0.67c0.37,0,0.67,0.3,0.67,0.67V239.02L718.4,239.02z M722.98,236.56c0.26,0.26,0.26,0.69,0,0.95
			c-0.26,0.26-0.69,0.26-0.95,0l-2.13-2.14c-0.26-0.26-0.26-0.69,0-0.95c0.26-0.26,0.69-0.26,0.95,0L722.98,236.56L722.98,236.56z
			 M724.48,231.6c0.37,0,0.67,0.3,0.67,0.67c0,0.37-0.3,0.67-0.67,0.67h-3.02c-0.37,0-0.67-0.3-0.67-0.67c0-0.37,0.3-0.67,0.67-0.67
			H724.48L724.48,231.6z M722.03,227.02c0.26-0.26,0.69-0.26,0.95,0c0.26,0.26,0.26,0.69,0,0.95l-2.14,2.14
			c-0.26,0.26-0.69,0.26-0.95,0c-0.26-0.26-0.26-0.69,0-0.95L722.03,227.02z"/>
		<path class="st13" d="M190.34,265.13c0-0.37,0.3-0.67,0.67-0.67c0.37,0,0.67,0.3,0.67,0.67v3.02c0,0.37-0.3,0.67-0.67,0.67
			c-0.37,0-0.67-0.3-0.67-0.67V265.13L190.34,265.13z M185.76,267.58c-0.26-0.26-0.26-0.69,0-0.95c0.26-0.26,0.69-0.26,0.95,0
			l2.13,2.13c0.26,0.26,0.26,0.69,0,0.95c-0.26,0.26-0.69,0.26-0.95,0L185.76,267.58L185.76,267.58z M184.26,272.55
			c-0.37,0-0.67-0.3-0.67-0.67c0-0.37,0.3-0.67,0.67-0.67h3.02c0.37,0,0.67,0.3,0.67,0.67c0,0.37-0.3,0.67-0.67,0.67H184.26
			L184.26,272.55z M186.71,277.13c-0.26,0.26-0.69,0.26-0.95,0c-0.26-0.26-0.26-0.69,0-0.95l2.14-2.14c0.26-0.26,0.69-0.26,0.95,0
			c0.26,0.26,0.26,0.69,0,0.95L186.71,277.13L186.71,277.13z M191.68,278.63c0,0.37-0.3,0.67-0.67,0.67c-0.37,0-0.67-0.3-0.67-0.67
			v-3.02c0-0.37,0.3-0.67,0.67-0.67c0.37,0,0.67,0.3,0.67,0.67V278.63L191.68,278.63z M196.25,276.18c0.26,0.26,0.26,0.69,0,0.95
			c-0.26,0.26-0.69,0.26-0.95,0l-2.14-2.13c-0.26-0.26-0.26-0.69,0-0.95c0.26-0.26,0.69-0.26,0.95,0L196.25,276.18L196.25,276.18z
			 M197.76,271.21c0.37,0,0.67,0.3,0.67,0.67c0,0.37-0.3,0.67-0.67,0.67h-3.02c-0.37,0-0.67-0.3-0.67-0.67
			c0-0.37,0.3-0.67,0.67-0.67H197.76L197.76,271.21z M195.3,266.63c0.26-0.26,0.69-0.26,0.95,0c0.26,0.26,0.26,0.69,0,0.95
			l-2.13,2.13c-0.26,0.26-0.69,0.26-0.95,0c-0.26-0.26-0.26-0.69,0-0.95L195.3,266.63z"/>
		<path class="st14" d="M43.2,313.29c-0.61,0-1.11-0.71-1.11-1.59c0-0.88,0.5-1.59,1.11-1.59h52.05c0.61,0,1.11,0.71,1.11,1.59
			c0,0.88-0.5,1.59-1.11,1.59H43.2L43.2,313.29z M36.15,310.11c0.61,0,1.11,0.71,1.11,1.59c0,0.88-0.5,1.59-1.11,1.59h-4.33
			c-0.61,0-1.11-0.71-1.11-1.59c0-0.88,0.5-1.59,1.11-1.59H36.15z"/>
		<g>
			<path class="st9" d="M152.12,41.13H255.6c6.21,0,11.29,5.08,11.29,11.29v46.57v3.44v29.64c0,0.52-0.3,0.97-0.78,1.16
				c-0.48,0.2-1,0.1-1.37-0.27l-19.24-19.24h-93.38c-6.21,0-11.29-5.08-11.29-11.29V52.42C140.83,46.21,145.91,41.13,152.12,41.13z"
				/>
			<path class="st5" d="M226.6,52.87v3.64c0.36,0.09,0.68,0.28,0.94,0.54c0.26,0.25,0.44,0.58,0.54,0.94h8.31
				c4.89,0,9.33,2,12.55,5.22c3.22,3.22,5.22,7.66,5.22,12.55c0,4.89-2,9.33-5.22,12.55c-3.22,3.22-7.66,5.22-12.55,5.22h-0.8
				c-0.09,0.36-0.28,0.68-0.54,0.94l0,0c-0.25,0.25-0.58,0.44-0.94,0.54v4.49c0,0.43-0.18,0.83-0.46,1.12
				c-0.29,0.29-0.68,0.46-1.12,0.46h-11.46c-0.43,0-0.83-0.18-1.12-0.46c-0.29-0.29-0.46-0.68-0.46-1.12v-4.49
				c-0.36-0.09-0.68-0.28-0.93-0.54l0,0c-0.25-0.25-0.44-0.58-0.54-0.94h-8.05c-0.09,0.36-0.28,0.68-0.54,0.94l0,0
				c-0.25,0.25-0.58,0.44-0.94,0.54v3.64c0,1.26-0.51,2.4-1.34,3.23c-0.83,0.83-1.97,1.34-3.23,1.34h-4.68
				c-1.26,0-2.4-0.51-3.23-1.34c-0.83-0.83-1.34-1.97-1.34-3.23v-4.14v-7.13c0-1.26,0.51-2.4,1.34-3.23
				c0.83-0.83,1.97-1.34,3.23-1.34h4.68c1.26,0,2.4,0.51,3.23,1.34c0.83,0.83,1.34,1.97,1.34,3.23V91c0.36,0.09,0.68,0.28,0.94,0.54
				c0.25,0.26,0.44,0.58,0.54,0.94h8.05c0.09-0.36,0.28-0.68,0.54-0.94l0.03-0.03c0.25-0.24,0.56-0.42,0.9-0.51v-4.48
				c0-0.44,0.18-0.83,0.46-1.11c0.29-0.29,0.68-0.46,1.12-0.46h11.46c0.43,0,0.83,0.18,1.12,0.46c0.29,0.28,0.46,0.68,0.46,1.11V91
				c0.36,0.09,0.68,0.28,0.94,0.54c0.25,0.26,0.44,0.58,0.54,0.94h0.8c4.6,0,8.78-1.88,11.81-4.91c3.03-3.03,4.91-7.21,4.91-11.81
				c0-4.6-1.88-8.78-4.91-11.81c-3.03-3.03-7.21-4.91-11.81-4.91h-8.31c-0.09,0.36-0.28,0.68-0.54,0.94
				c-0.25,0.26-0.58,0.45-0.94,0.54v3.64c0,1.26-0.51,2.4-1.34,3.23c-0.83,0.83-1.97,1.34-3.23,1.34h-4.68
				c-1.26,0-2.4-0.51-3.22-1.34c-0.83-0.83-1.34-1.97-1.34-3.23V52.87c0-1.26,0.51-2.4,1.34-3.23c0.83-0.83,1.97-1.34,3.22-1.34
				h4.68c1.26,0,2.4,0.51,3.23,1.34C226.08,50.47,226.6,51.62,226.6,52.87L226.6,52.87z M207.45,97.38
				c-0.09,0.12-0.19,0.23-0.3,0.33c-0.83,0.83-1.97,1.34-3.23,1.34h-4.68c-1.26,0-2.4-0.51-3.23-1.34c-0.11-0.11-0.21-0.22-0.3-0.33
				v1.25c0,0.97,0.4,1.85,1.04,2.49c0.64,0.64,1.52,1.03,2.49,1.03h4.68c0.97,0,1.85-0.4,2.49-1.03c0.64-0.64,1.04-1.52,1.04-2.49
				V97.38L207.45,97.38z M195.71,94.49c0,0.97,0.4,1.85,1.04,2.49c0.64,0.64,1.52,1.04,2.49,1.04h4.68c0.97,0,1.85-0.4,2.49-1.04
				c0.53-0.53,0.89-1.22,1-2c-0.35-0.1-0.66-0.28-0.9-0.53l-0.03-0.03c-0.36-0.37-0.57-0.87-0.57-1.42c0-0.57,0.23-1.08,0.6-1.46
				c0.26-0.25,0.58-0.44,0.94-0.54v-3.64c0-0.97-0.4-1.85-1.04-2.49c-0.64-0.64-1.52-1.04-2.49-1.04h-4.68
				c-0.97,0-1.85,0.4-2.49,1.04c-0.64,0.64-1.04,1.52-1.04,2.49V94.49L195.71,94.49z M222.07,93c0,0.57-0.23,1.08-0.6,1.46v0
				c-0.16,0.16-0.34,0.29-0.54,0.39c0.05,0.01,0.09,0.02,0.14,0.02h11.46c0.05,0,0.1-0.01,0.14-0.02c-0.2-0.1-0.38-0.23-0.54-0.39
				l-0.03-0.03c-0.36-0.37-0.57-0.87-0.57-1.42c0-0.57,0.23-1.08,0.6-1.46c0.26-0.25,0.58-0.44,0.94-0.54v-4.48
				c0-0.15-0.06-0.28-0.16-0.38c-0.1-0.1-0.23-0.16-0.38-0.16h-11.46c-0.15,0-0.28,0.06-0.38,0.16c-0.1,0.1-0.16,0.23-0.16,0.38V91
				c0.36,0.09,0.68,0.28,0.94,0.54C221.84,91.91,222.07,92.43,222.07,93L222.07,93z M198.6,58.51c0-0.57-0.23-1.08-0.6-1.46h0
				c-0.37-0.37-0.89-0.6-1.46-0.6c-0.57,0-1.08,0.23-1.46,0.6c-0.37,0.37-0.6,0.89-0.6,1.46c0,0.57,0.23,1.08,0.6,1.46
				c0.37,0.37,0.89,0.6,1.46,0.6c0.55,0,1.06-0.22,1.43-0.57l0.03-0.03C198.37,59.59,198.6,59.08,198.6,58.51L198.6,58.51z
				 M204.62,58.51c0-0.57-0.23-1.08-0.6-1.46c-0.37-0.37-0.89-0.6-1.46-0.6c-0.57,0-1.08,0.23-1.46,0.6
				c-0.37,0.37-0.6,0.89-0.6,1.46c0,0.57,0.23,1.08,0.6,1.46h0c0.37,0.37,0.89,0.6,1.46,0.6c0.57,0,1.08-0.23,1.46-0.6
				C204.39,59.59,204.62,59.08,204.62,58.51L204.62,58.51z M210.64,58.51c0-0.57-0.23-1.08-0.6-1.46l0,0
				c-0.37-0.37-0.89-0.6-1.46-0.6c-0.57,0-1.08,0.23-1.46,0.6c-0.37,0.37-0.6,0.89-0.6,1.46c0,0.57,0.23,1.08,0.6,1.46
				c0.37,0.37,0.89,0.6,1.46,0.6c0.55,0,1.06-0.22,1.43-0.57l0.03-0.03C210.41,59.59,210.64,59.08,210.64,58.51L210.64,58.51z
				 M225.56,60.5c-0.36-0.09-0.68-0.28-0.93-0.54h0c-0.37-0.37-0.6-0.89-0.6-1.46c0-0.57,0.23-1.08,0.6-1.46
				c0.25-0.26,0.58-0.44,0.94-0.54v-3.64c0-0.97-0.4-1.85-1.04-2.49c-0.64-0.64-1.52-1.04-2.49-1.04h-4.68
				c-0.97,0-1.85,0.4-2.49,1.04c-0.64,0.64-1.04,1.52-1.04,2.49v11.27c0,0.97,0.4,1.85,1.04,2.49c0.64,0.64,1.52,1.03,2.49,1.03
				h4.68c0.97,0,1.85-0.4,2.49-1.03c0.64-0.64,1.04-1.52,1.04-2.49V60.5L225.56,60.5z M220.53,95.8v3.67c0,0.15,0.06,0.28,0.16,0.38
				c0.1,0.1,0.23,0.16,0.38,0.16h11.46c0.15,0,0.28-0.06,0.38-0.16c0.1-0.1,0.16-0.23,0.16-0.38V95.8c-0.17,0.06-0.35,0.1-0.54,0.1
				h-11.46C220.88,95.9,220.7,95.87,220.53,95.8z"/>
			<path class="st5" d="M155.5,52.31c0-1.66,1.06-3.14,2.62-3.69c0.42-0.15,0.85-0.22,1.3-0.22h22.66c2.15,0,3.92,1.76,3.92,3.92
				V99.2c0,2.15-1.76,3.92-3.92,3.92h-22.66c-0.44,0-0.88-0.08-1.3-0.22c-1.56-0.55-2.62-2.03-2.62-3.69V52.31L155.5,52.31z
				 M179.13,51.11v0.16c0,0.88-0.72,1.61-1.61,1.61h-13.55c-0.89,0-1.61-0.72-1.61-1.61v-0.16c-0.02-0.02-0.05-0.03-0.08-0.03h-2.86
				c-0.67,0-1.24,0.56-1.24,1.24V99.2c0,0.67,0.56,1.24,1.24,1.24h22.66c0.67,0,1.24-0.56,1.24-1.24V52.31
				c0-0.67-0.56-1.24-1.24-1.24h-2.86C179.18,51.07,179.15,51.09,179.13,51.11z"/>
			<path class="st5" d="M159.65,81.37v3.9l22.19-22.19v-3.9L159.65,81.37L159.65,81.37z M159.65,90.28l22.19-22.19v6.49
				l-22.19,22.19c0-0.02,0-0.03,0-0.05V90.28z"/>
		</g>
		<path class="st13" d="M198.59,157.39c0-0.37,0.3-0.67,0.67-0.67c0.37,0,0.67,0.3,0.67,0.67v3.02c0,0.37-0.3,0.67-0.67,0.67
			c-0.37,0-0.67-0.3-0.67-0.67V157.39L198.59,157.39z M194.02,159.84c-0.26-0.26-0.26-0.69,0-0.95c0.26-0.26,0.69-0.26,0.95,0
			l2.14,2.14c0.26,0.26,0.26,0.69,0,0.95c-0.26,0.26-0.69,0.26-0.95,0L194.02,159.84L194.02,159.84z M192.52,164.81
			c-0.37,0-0.67-0.3-0.67-0.67c0-0.37,0.3-0.67,0.67-0.67h3.02c0.37,0,0.67,0.3,0.67,0.67c0,0.37-0.3,0.67-0.67,0.67H192.52
			L192.52,164.81z M194.97,169.39c-0.26,0.26-0.69,0.26-0.95,0c-0.26-0.26-0.26-0.69,0-0.95l2.14-2.14c0.26-0.26,0.69-0.26,0.95,0
			c0.26,0.26,0.26,0.69,0,0.95L194.97,169.39L194.97,169.39z M199.94,170.89c0,0.37-0.3,0.67-0.67,0.67c-0.37,0-0.67-0.3-0.67-0.67
			v-3.02c0-0.37,0.3-0.67,0.67-0.67c0.37,0,0.67,0.3,0.67,0.67V170.89L199.94,170.89z M204.51,168.44c0.26,0.26,0.26,0.69,0,0.95
			c-0.26,0.26-0.69,0.26-0.95,0l-2.14-2.14c-0.26-0.26-0.26-0.69,0-0.95c0.26-0.26,0.69-0.26,0.95,0L204.51,168.44L204.51,168.44z
			 M206.01,163.47c0.37,0,0.67,0.3,0.67,0.67c0,0.37-0.3,0.67-0.67,0.67h-3.02c-0.37,0-0.67-0.3-0.67-0.67
			c0-0.37,0.3-0.67,0.67-0.67H206.01L206.01,163.47z M203.56,158.89c0.26-0.26,0.69-0.26,0.95,0c0.26,0.26,0.26,0.69,0,0.95
			l-2.14,2.14c-0.26,0.26-0.69,0.26-0.95,0c-0.26-0.26-0.26-0.69,0-0.95L203.56,158.89z"/>
		<path class="st2" d="M75.98,69.07c-1.5-1.5-3.29-2.71-5.29-3.53c-1.92-0.79-4.02-1.23-6.22-1.23c-2.2,0-4.3,0.44-6.22,1.23
			c-2,0.83-3.79,2.04-5.29,3.53c-1.5,1.5-2.71,3.29-3.53,5.29c-0.8,1.92-1.23,4.02-1.23,6.22c0,2.2,0.44,4.3,1.23,6.22
			c0.83,2,2.04,3.79,3.53,5.29c1.5,1.5,3.29,2.7,5.28,3.53c1.92,0.8,4.02,1.24,6.22,1.24c2.2,0,4.3-0.44,6.22-1.23
			c2-0.83,3.79-2.04,5.29-3.53c1.5-1.5,2.71-3.29,3.53-5.29c0.79-1.92,1.23-4.02,1.23-6.22c0-2.2-0.44-4.3-1.23-6.22
			C78.68,72.36,77.47,70.57,75.98,69.07L75.98,69.07z M70.12,66.93c1.8,0.75,3.43,1.84,4.79,3.21c1.36,1.36,2.46,2.99,3.21,4.79
			c0.72,1.74,1.12,3.65,1.12,5.65c0,2.01-0.4,3.91-1.12,5.65c-0.75,1.8-1.84,3.43-3.21,4.79c-1.36,1.36-2.99,2.46-4.79,3.21
			c-1.74,0.72-3.65,1.12-5.65,1.12c-2,0-3.91-0.4-5.65-1.12c-1.8-0.75-3.43-1.84-4.79-3.21c-1.36-1.36-2.46-2.99-3.21-4.79
			c-0.72-1.74-1.12-3.65-1.12-5.65c0-2,0.4-3.91,1.12-5.65c0.75-1.8,1.84-3.43,3.21-4.79c1.36-1.37,2.99-2.46,4.79-3.21
			c1.74-0.72,3.65-1.12,5.65-1.12C66.47,65.81,68.38,66.21,70.12,66.93L70.12,66.93z M71.92,54.95c1.02,0.29,2.02,0.65,3,1.07
			c0.99,0.42,1.96,0.9,2.88,1.44c0.94,0.54,1.85,1.14,2.71,1.8c0.87,0.66,1.7,1.36,2.48,2.11c0.28,0.27,0.62,0.42,0.97,0.46
			c0.36,0.05,0.74-0.03,1.06-0.22c2.39-1.38,4.9-2.75,7.24-4.18c0.11-0.06,0.23-0.09,0.35-0.11c0.13-0.02,0.27-0.01,0.4,0.03
			c0.13,0.04,0.26,0.1,0.37,0.18c0.1,0.08,0.2,0.18,0.26,0.3c1.74,2.64,3.49,6.04,5.1,8.84c0.07,0.12,0.11,0.25,0.13,0.38
			c0.02,0.13,0.01,0.28-0.03,0.41c-0.04,0.13-0.1,0.26-0.18,0.37c-0.08,0.1-0.18,0.19-0.3,0.26c-2.15,1.42-4.92,2.84-7.2,4.16
			c-0.33,0.19-0.58,0.48-0.72,0.81c-0.05,0.11-0.09,0.23-0.11,0.36l-0.15,0.05l0.17,0.67c0.13,0.53,0.25,1.06,0.34,1.58
			c0.09,0.51,0.18,1.05,0.24,1.61c0.07,0.54,0.12,1.08,0.15,1.62c0.03,0.52,0.05,1.07,0.05,1.64s-0.02,1.12-0.05,1.63
			c-0.03,0.53-0.08,1.08-0.15,1.62c-0.07,0.56-0.15,1.09-0.24,1.6c-0.1,0.53-0.21,1.06-0.34,1.58c-0.1,0.39-0.05,0.78,0.11,1.12
			c0.16,0.34,0.42,0.62,0.77,0.8l6.38,3.68l0,0l0.76,0.44c0.12,0.07,0.22,0.16,0.3,0.26c0.08,0.11,0.14,0.23,0.18,0.37
			c0.04,0.14,0.05,0.28,0.03,0.41c-0.02,0.13-0.06,0.26-0.13,0.38l-4.72,8.18l0,0l-0.38,0.66c-0.07,0.12-0.16,0.22-0.26,0.3
			c-0.11,0.08-0.23,0.14-0.37,0.18c-0.14,0.04-0.28,0.05-0.41,0.03c-0.13-0.02-0.25-0.06-0.37-0.13c-2.28-1.43-4.86-2.8-7.22-4.16
			c-0.34-0.19-0.7-0.26-1.05-0.22c-0.36,0.04-0.71,0.2-0.98,0.46l0,0c-0.78,0.75-1.61,1.46-2.48,2.12c-0.87,0.65-1.77,1.25-2.71,1.8
			c-0.93,0.54-1.9,1.02-2.9,1.45c-0.98,0.42-2,0.78-3.05,1.08c-0.37,0.11-0.68,0.33-0.89,0.61c-0.22,0.29-0.34,0.65-0.34,1.03
			l0,8.32c0,0.14-0.03,0.27-0.08,0.39c-0.05,0.12-0.13,0.24-0.23,0.34c-0.09,0.1-0.21,0.17-0.34,0.23
			c-0.12,0.05-0.25,0.08-0.39,0.08H59.36c-0.14,0-0.27-0.03-0.39-0.08c-0.13-0.05-0.24-0.13-0.34-0.23c-0.1-0.1-0.17-0.21-0.23-0.34
			c-0.05-0.12-0.08-0.25-0.08-0.39v-8.32c0-0.4-0.14-0.76-0.37-1.06c-0.23-0.3-0.57-0.52-0.94-0.61c-1.02-0.29-2.02-0.65-3-1.07
			c-0.99-0.42-1.96-0.9-2.88-1.44c-0.94-0.54-1.85-1.14-2.71-1.8c-0.87-0.66-1.7-1.36-2.48-2.11c-0.29-0.28-0.65-0.43-1.03-0.47
			c-0.38-0.03-0.77,0.06-1.1,0.27l-7.12,4.11c-0.12,0.07-0.25,0.11-0.38,0.13c-0.13,0.02-0.27,0.01-0.41-0.03
			c-0.13-0.04-0.26-0.1-0.37-0.18c-0.1-0.08-0.19-0.18-0.26-0.3c-1.69-2.95-3.41-5.89-5.1-8.84c-0.07-0.12-0.11-0.25-0.13-0.38
			c-0.02-0.13-0.01-0.27,0.03-0.41c0.04-0.13,0.1-0.26,0.18-0.37c0.08-0.11,0.18-0.2,0.29-0.26l7.21-4.16
			c0.33-0.19,0.58-0.48,0.72-0.81c0.04-0.09,0.07-0.18,0.09-0.27l0.19-0.04l-0.19-0.77c-0.13-0.53-0.25-1.06-0.34-1.58
			c-0.09-0.51-0.18-1.05-0.24-1.61c-0.07-0.55-0.12-1.09-0.15-1.62c-0.03-0.52-0.05-1.07-0.05-1.63s0.02-1.11,0.05-1.63
			c0.03-0.53,0.08-1.07,0.15-1.62c0.07-0.57,0.15-1.1,0.24-1.61c0.1-0.52,0.21-1.05,0.34-1.58c0.1-0.39,0.05-0.79-0.11-1.13
			c-0.16-0.34-0.42-0.62-0.77-0.8l-7.14-4.12c-0.12-0.07-0.22-0.16-0.3-0.26c-0.08-0.1-0.14-0.23-0.18-0.37
			c-0.04-0.14-0.05-0.28-0.03-0.41c0.02-0.13,0.06-0.26,0.13-0.38c1.74-2.59,3.49-6.05,5.1-8.84c0.07-0.12,0.16-0.22,0.26-0.3
			c0.11-0.08,0.23-0.14,0.37-0.18c0.14-0.04,0.28-0.05,0.41-0.03c0.13,0.02,0.25,0.06,0.38,0.13l7.21,4.16
			c0.34,0.2,0.72,0.27,1.08,0.22c0.36-0.05,0.71-0.22,0.97-0.48c0.78-0.75,1.61-1.46,2.47-2.11c0.86-0.64,1.76-1.24,2.7-1.79
			c0.93-0.54,1.9-1.02,2.9-1.45c0.98-0.42,2-0.78,3.05-1.08c0.37-0.11,0.68-0.33,0.89-0.61c0.22-0.29,0.34-0.65,0.34-1.03l0-8.32
			c0-0.14,0.03-0.27,0.08-0.39c0.05-0.12,0.13-0.24,0.23-0.33c0.09-0.1,0.21-0.17,0.34-0.23c0.12-0.05,0.25-0.08,0.39-0.08h10.21
			c0.14,0,0.27,0.03,0.39,0.08c0.13,0.05,0.24,0.13,0.34,0.23c0.19,0.19,0.3,0.45,0.3,0.73v8.32c0,0.4,0.14,0.77,0.37,1.06
			C71.21,54.64,71.54,54.86,71.92,54.95L71.92,54.95z M75.51,54.64c1.05,0.45,2.07,0.96,3.04,1.52c1,0.58,1.96,1.21,2.87,1.9
			c0.91,0.69,1.79,1.44,2.61,2.23c0.03,0.03,0.07,0.05,0.11,0.05c0.04,0.01,0.09,0,0.12-0.02c2.42-1.4,4.85-2.79,7.27-4.2
			c0.29-0.16,0.6-0.25,0.91-0.29c0.32-0.04,0.65-0.01,0.96,0.07c0.32,0.09,0.62,0.23,0.89,0.44c0.26,0.2,0.48,0.45,0.65,0.74
			c1.76,2.84,3.42,5.93,5.11,8.84c0.17,0.29,0.27,0.61,0.32,0.94c0.04,0.34,0.02,0.67-0.07,0.99c-0.08,0.32-0.23,0.62-0.44,0.89
			c-0.2,0.26-0.45,0.48-0.74,0.65c-2.32,1.43-4.83,2.79-7.21,4.16c-0.04,0.02-0.07,0.05-0.08,0.09c-0.02,0.04-0.02,0.09-0.01,0.13
			l0.17,0.67l-0.01,0c0.07,0.33,0.14,0.66,0.2,1c0.11,0.58,0.19,1.14,0.26,1.7c0.07,0.55,0.12,1.12,0.15,1.71
			c0.04,0.59,0.05,1.16,0.05,1.72c0,0.56-0.02,1.14-0.05,1.72c-0.04,0.59-0.09,1.16-0.15,1.71c-0.07,0.56-0.16,1.12-0.26,1.7
			c-0.11,0.57-0.23,1.13-0.36,1.67c-0.01,0.04-0.01,0.09,0.01,0.13c0.02,0.04,0.05,0.08,0.09,0.1c2.65,1.41,5.34,3.08,7.95,4.59
			l-0.09,0.12l0.08,0.1c0.2,0.27,0.35,0.57,0.44,0.89c0.08,0.32,0.11,0.65,0.07,0.99c-0.04,0.32-0.15,0.64-0.32,0.94l-5.48,9.5
			l-0.1-0.06c-0.05,0.05-0.11,0.1-0.17,0.14c-0.27,0.2-0.57,0.35-0.89,0.44c-0.32,0.08-0.65,0.11-0.99,0.07
			c-0.31-0.04-0.63-0.14-0.91-0.3c-2.4-1.27-4.87-2.81-7.24-4.18c-0.04-0.02-0.08-0.03-0.12-0.02c-0.04,0.01-0.09,0.02-0.12,0.05
			c-0.83,0.8-1.7,1.54-2.61,2.23c-0.91,0.69-1.87,1.32-2.87,1.9c-0.99,0.57-2.01,1.08-3.07,1.53c-1.05,0.45-2.13,0.83-3.23,1.15
			c-0.04,0.01-0.08,0.04-0.11,0.07c-0.03,0.04-0.04,0.08-0.04,0.12v8.32c0,0.34-0.07,0.67-0.19,0.97c-0.13,0.31-0.32,0.59-0.55,0.82
			c-0.23,0.23-0.51,0.42-0.82,0.55c-0.3,0.13-0.63,0.19-0.97,0.19H59.36c-0.34,0-0.67-0.07-0.97-0.19
			c-0.31-0.13-0.59-0.32-0.82-0.55c-0.23-0.23-0.42-0.51-0.55-0.82c-0.13-0.3-0.19-0.63-0.19-0.97v-8.32c0-0.05-0.01-0.09-0.04-0.13
			c-0.03-0.03-0.07-0.06-0.11-0.07l-0.03-0.01c-1.11-0.32-2.18-0.7-3.21-1.14c-1.05-0.45-2.07-0.96-3.05-1.52
			c-1-0.58-1.96-1.21-2.87-1.9c-0.91-0.69-1.79-1.44-2.62-2.23c-0.03-0.03-0.08-0.05-0.12-0.06c-0.04,0-0.09,0.01-0.13,0.03
			l-7.2,4.16c-0.3,0.17-0.62,0.27-0.94,0.31c-0.33,0.04-0.67,0.02-0.99-0.07c-0.32-0.09-0.62-0.23-0.89-0.44
			c-0.25-0.19-0.47-0.43-0.64-0.72c-1.89-3.04-3.68-6.38-5.49-9.5l0.1-0.06c-0.02-0.08-0.03-0.16-0.04-0.24
			c-0.04-0.33-0.02-0.67,0.07-0.99c0.09-0.32,0.23-0.62,0.44-0.89c0.2-0.26,0.45-0.48,0.74-0.65l7.21-4.16
			c0.04-0.02,0.07-0.06,0.08-0.09c0.02-0.04,0.02-0.09,0.01-0.13l-0.19-0.76l0.01,0c-0.06-0.3-0.13-0.6-0.18-0.9
			c-0.11-0.58-0.19-1.14-0.26-1.7c-0.07-0.55-0.12-1.12-0.15-1.71c-0.04-0.59-0.05-1.16-0.05-1.72c0-0.56,0.02-1.14,0.05-1.72
			c0.04-0.59,0.09-1.16,0.15-1.71c0.07-0.55,0.15-1.12,0.26-1.7c0.11-0.57,0.23-1.13,0.36-1.67c0.01-0.04,0-0.09-0.01-0.13
			c-0.02-0.04-0.05-0.07-0.09-0.09l-7.2-4.15c-0.3-0.17-0.55-0.39-0.74-0.65c-0.21-0.27-0.35-0.57-0.44-0.89
			c-0.08-0.32-0.11-0.65-0.07-0.99c0.04-0.31,0.14-0.63,0.3-0.92c1.71-3.18,3.68-6.38,5.5-9.52l0.1,0.06
			c0.05-0.05,0.11-0.1,0.17-0.14c0.27-0.2,0.57-0.35,0.89-0.44c0.32-0.08,0.65-0.11,0.99-0.07c0.32,0.04,0.64,0.14,0.94,0.31
			l0.53,0.31l0,0.01l6.68,3.86c0.04,0.02,0.09,0.03,0.13,0.02c0.04-0.01,0.08-0.03,0.11-0.06l0.02-0.02
			c0.82-0.79,1.69-1.53,2.61-2.22c0.91-0.69,1.87-1.32,2.85-1.89c0.99-0.57,2.01-1.08,3.06-1.53c1.05-0.45,2.13-0.83,3.23-1.15
			c0.04-0.01,0.08-0.04,0.11-0.07c0.03-0.04,0.04-0.08,0.04-0.12v-8.32c0-0.34,0.07-0.67,0.19-0.97c0.13-0.31,0.32-0.59,0.55-0.82
			c0.23-0.23,0.51-0.42,0.82-0.55c0.3-0.12,0.63-0.19,0.97-0.19h10.21c0.34,0,0.67,0.07,0.97,0.19c0.31,0.13,0.59,0.32,0.83,0.55
			c0.46,0.46,0.75,1.09,0.75,1.79v8.32c0,0.05,0.02,0.09,0.04,0.13c0.03,0.03,0.07,0.06,0.11,0.07l0.03,0.01
			C73.4,53.82,74.48,54.2,75.51,54.64z"/>
		<g>
			<g>
				<path class="st14" d="M332.79,147.6c0,0-6.76,2.23-10.46,11.98c-3.7,9.74-12.58,40.45-14.78,49.06
					c-2.2,8.61,7.1,45.09,18.43,64.4l14.39-0.28c0,0-14.85-48.58-15.54-53.27c-0.69-4.69,12.54-32.3,12.54-32.3
					C340.91,173.42,340.41,159.75,332.79,147.6z"/>
				<path class="st15" d="M368.83,150.98l-1.74,0.15l-1.11,0.78l-1.02-0.89l-1.71-0.33l-9.69-9.68l-22.58,9.14l-2.35,24.27
					c0.41,24.27,3.35,63.29,3.25,65.16c-0.1,1.87-4.27,14.83-6.84,22.7l35.19,1.8l34.94,1.79c-1.76-8.1-4.58-21.41-4.48-23.28
					c0.1-1.87,7.26-40.38,10.15-64.47l0.15-24.39l-21.53-11.4L368.83,150.98z"/>
				<path class="st15" d="M378.19,385.17c-1.55,10.23-11.55,77.3-12.33,80.89c-0.79,3.58-2.82,2.74-6.46,2.52
					c-3.64-0.22-4.27-0.26-6.61-0.41c-2.34-0.14-2.7-1.79-2.65-4.04c0.06-2.24,4.35-85.37,4.47-94.85c0.12-9.48,4.63-62.1,4.68-82.8
					l-9.17,6.97c0,0,2.07-1.69,4.78-4.43l0.01-5.19l4.48,0.23c4.29-5.2,8.42-11.88,8.3-18.17c12.39-0.04,20.77-2.53,25.67-4.65
					c0.11,1.57,0.14,3.24,0.36,4.93C396.78,289.84,385.75,335.12,378.19,385.17z"/>
				<path class="st16" d="M350.7,452.6c0.3-5.93,0.69-13.65,1.11-22.01c4.38,2.73,10.12,6.61,11.25,8.81
					c1.88,3.65,1.37,9.61,0,12.49C362.11,453.9,355.7,453.94,350.7,452.6L350.7,452.6z M353.99,385.39
					c0.35-7.8,0.38-12.3,0.62-16.12l3.5-55.18c9.38-9.65,20.84,11.57,19.68,25.56c-0.69,8.26-6.34,46.7-7.54,51.11
					C369.32,394.22,360.79,392.06,353.99,385.39z"/>
				<path class="st17" d="M326.81,258.83c-1.81,11.35-4.39,26.27-6.1,32.8c0,0-5.87,50.27-6.88,59.01
					c-1.01,8.73-2.83,14.17,7.45,26.27c10.28,12.11,54.45,65.66,57.55,67.48c3.1,1.82,9.65-6.89,10-15.28c0,0,0.09-4.01-2.2-6.06
					c-2.29-2.05-38.7-61.52-41.73-65.15c-3.02-3.63-2.13-5.67-0.69-9.98c1.45-4.31,9.99-33.05,17.92-53.73
					c0,0,5.79-15.33,5.54-28.31C357.11,265.91,343.59,264.15,326.81,258.83z"/>
				<path class="st15" d="M326.81,258.83c-1.51,9.47-3.56,21.42-5.18,28.92c1.74-2.94,4.35-6.76,6.93-8.32
					c4.45-2.69,11.13-5.09,16.95-2.5c5.82,2.59,6.68,14.12,2.74,28.54c-3.94,14.41-11.65,48.15-12.41,51.52
					c-0.77,3.36,0.94,0.38,2.83,1.54c1.88,1.15,31.2,54.47,36.56,59.84c5.36,5.37,3.18,15.21-3.33,18.71
					c2.91,3.1,5.08,6.23,6.95,7.33c1.87,1.1,9.65-6.89,10-15.28c0,0,0.09-4.01-2.2-6.06c-2.29-2.05-38.7-61.52-41.73-65.15
					c-3.02-3.63-2.13-5.67-0.69-9.98c1.45-4.31,9.99-33.05,17.92-53.73c0,0,5.79-15.33,5.55-28.31
					C357.11,265.91,343.59,264.15,326.81,258.83z"/>
				<path class="st18" d="M393.75,266.51c-5.3,1.79-16.5,4.82-33.85,4.15c-17.63-1.13-28.52-5.46-33.51-7.72
					c-0.47-0.21-0.48-0.64-0.28-1.82c0.29-1.72,0.56-3.37,0.81-4.91c0.21-1.29,0.48-1.38,0.8-1.23c3.44,1.63,13.7,6.53,32.59,7.74
					c18.5,0.71,29.2-2.72,32.97-4.27c0.25-0.1,0.82-0.46,0.91,1.16c0.08,1.37,0.17,2.84,0.26,4.35
					C394.56,265.73,394.37,266.3,393.75,266.51z"/>
				<path class="st15" d="M343.93,259.43l-0.66-0.12c-0.32-0.06-0.62,0.16-0.66,0.48l-1.17,8.51c-0.04,0.32,0.18,0.64,0.5,0.69
					l0.66,0.12c0.32,0.06,0.62-0.16,0.66-0.48l1.17-8.51C344.48,259.8,344.25,259.49,343.93,259.43z"/>
				<path class="st5" d="M353.74,260.98l13.01,0.67c0.49,0.03,0.86,0.54,0.83,1.15l-0.45,8.8c-0.03,0.61-0.46,1.09-0.94,1.06
					l-13.01-0.67c-0.49-0.03-0.86-0.54-0.83-1.15l0.45-8.8C352.82,261.43,353.25,260.95,353.74,260.98L353.74,260.98z
					 M355.25,263.59c-0.26-0.01-0.49,0.24-0.51,0.58l-0.24,4.76c-0.02,0.33,0.19,0.61,0.45,0.62l9.72,0.5
					c0.26,0.01,0.49-0.24,0.51-0.58l0.24-4.76c0.02-0.33-0.18-0.61-0.45-0.62L355.25,263.59z"/>
				<path class="st15" d="M376.66,261.11l0.67-0.06c0.32-0.03,0.6,0.22,0.61,0.54l0.29,8.59c0.01,0.32-0.24,0.61-0.57,0.64
					l-0.67,0.05c-0.32,0.03-0.6-0.22-0.61-0.54l-0.29-8.59C376.08,261.42,376.34,261.13,376.66,261.11z"/>
				<path class="st19" d="M387.93,260.47l0.67-0.09c0.32-0.05,0.62,0.18,0.66,0.5l0.92,6.6c0.04,0.32-0.18,0.62-0.5,0.66l-0.67,0.09
					c-0.32,0.04-0.62-0.18-0.66-0.5l-0.92-6.6C387.39,260.81,387.61,260.51,387.93,260.47z"/>
				<path class="st19" d="M332.93,257.65l-0.65-0.16c-0.31-0.08-0.63,0.12-0.71,0.43l-1.59,6.47c-0.08,0.31,0.12,0.64,0.43,0.71
					l0.65,0.16c0.31,0.08,0.63-0.12,0.71-0.43l1.59-6.47C333.43,258.05,333.24,257.73,332.93,257.65z"/>
				<polygon class="st13" points="368.09,157.34 368.42,160.28 369.53,232.6 360.91,250.95 354.21,231.82 362.71,159.98 
					363.34,157.1 365.62,158.99 				"/>
				<path class="st20" d="M368.09,157.34l0.33,2.94l1.11,72.33l-8.62,18.34c0,0,5.33-15.9,5.63-18.39
					c0.31-2.49,0.94-71.39,0.13-72.07c-0.81-0.68-2.5-0.71-2.5-0.71l1.14-1.05l0.32,0.26L368.09,157.34z"/>
				<path class="st14" d="M352.21,243.79l2.07-102.44c0,0,0.02-0.65-0.35-0.91l-21.13,7.15c-0.42,0.15-4.56,1.81-5.38,8.51
					c-0.87,7.06,2.95,81.14,2.83,83.4c-0.12,2.25-4.31,14.96-6.88,22.82c-2.57,7.86-3.33,10.85-3.47,12.12
					c-0.15,1.26,1.56,2.14,2.72,2.68c1.16,0.54,23.47-9.77,26.48-14.53C352.09,257.84,352.21,243.79,352.21,243.79z"/>
				<path class="st21" d="M367.5,122.38L367.5,122.38c5.85,0.3,10.39,5.33,10.09,11.19l-0.44,8.64c-0.3,5.85-5.33,10.39-11.19,10.09
					l0,0c-5.85-0.3-10.39-5.33-10.09-11.19l0.44-8.64C356.61,126.62,361.65,122.07,367.5,122.38z"/>
				<path class="st15" d="M363.92,151.14l1.04-0.12c0,0,0.19,0.23,0.2,0.6c0.01,0.37-0.02,1.47-0.02,1.47l-0.8,0.24
					c0,0-1.56-0.04-1.55-0.1C362.81,153.17,363.92,151.14,363.92,151.14z"/>
				<path class="st15" d="M368.12,151.36l-1.02-0.23c0,0-0.21,0.21-0.26,0.58c-0.05,0.37-0.13,1.46-0.13,1.46l0.77,0.32
					c0,0,1.56,0.13,1.55,0.06C369.02,153.49,368.12,151.36,368.12,151.36z"/>
				<path class="st13" d="M362.71,159.98l-1.96-5.78c2.05-2,8.36-1.68,10.2,0.52l-2.54,5.55
					C366.86,159.71,364.32,159.58,362.71,159.98z"/>
				<path class="st20" d="M361.53,156.51l-0.78-2.3c0.74-0.72,2.03-1.14,3.46-1.28L361.53,156.51L361.53,156.51z M365.99,152.89
					c2.05,0.11,4.06,0.74,4.97,1.83l-2.54,5.55c-0.6-0.22-1.35-0.37-2.13-0.45c0.44-0.37,1.03-0.88,1.05-1.01
					c0.04-0.21,0.25-5.08,0.08-5.17L365.99,152.89z"/>
				<path class="st11" d="M377.24,140.55c0,0,0.93-0.11,1.23,0.06s1.27,2.41,1.88,3.52c0,0,0.56,0.92,0.04,2.38
					c-0.52,1.46-6.94,13.38-6.94,13.38s-0.45,0.63-1.08-0.04c-0.63-0.67-5.28-8.73-5.28-8.73l10.09-9.6L377.24,140.55z"/>
				<path class="st14" d="M370.29,244.71l8.42-102.11c0,0,0.05-0.65,0.44-0.87l20.29,9.28c0.4,0.19,4.35,2.26,4.49,9.02
					c0.14,7.11-11.23,80.42-11.35,82.67c-0.11,2.25,2.76,15.33,4.51,23.41c1.76,8.08,2.2,11.14,2.21,12.41
					c0.01,1.27-1.77,1.97-2.98,2.39c-1.21,0.42-22.35-12.12-24.85-17.16C368.97,258.7,370.29,244.71,370.29,244.71z"/>
				<path class="st22" d="M401.29,182.57c-3.33,24.09-8.63,58.6-8.71,60.13c-0.11,2.25,2.76,15.33,4.51,23.41
					c1.76,8.08,2.2,11.14,2.21,12.41c0.01,1.27-1.77,1.97-2.98,2.39c-0.55,0.19-5.21-2.3-10.37-5.54c3.26-3.2,6.44-7.39,6.26-9.63
					c-0.26-3.27-2.95-20.45-3.68-20.83c-0.73-0.39-2.53,0.09-1.84-0.69c0.69-0.77,2.48-2.78,2.83-5.95
					c0.34-3.17,5.05-47.26,6.42-53.94C397.31,177.64,399.54,178.67,401.29,182.57z"/>
				<path class="st11" d="M355.96,139.46c0,0-0.91-0.21-1.23-0.06c-0.32,0.14-1.51,2.27-2.23,3.31c0,0-0.65,0.86-0.28,2.36
					c0.37,1.51,5.53,14.02,5.53,14.02s0.38,0.67,1.08,0.07c0.7-0.6,6.14-8.14,6.14-8.14l-9.06-10.59L355.96,139.46z"/>
				<path class="st22" d="M379.16,141.74l6.39,2.92c1.23,3.69,5.46,16.52,5.23,16.94c-0.28,0.49-7.76,1.57-7.76,1.57
					s5.53,2.98,5.71,3.15c0.18,0.17,0.48,0.47,0.31,1.41c-0.15,0.82-14.71,59.2-18.54,74.53l8.22-99.66
					C378.71,142.6,378.76,141.96,379.16,141.74z"/>
				<path class="st3" d="M380.02,161.19l7.31,3.48c0,0,0.74,0.51,0.64,1.08c-0.09,0.57-17.2,73.15-17.2,73.15l6.36-77.08
					L380.02,161.19z"/>
				<path class="st23" d="M373.07,210.79l4.04-48.97l0.46-0.1c-1.83,19.94-4.5,49.13-4.5,49.13L373.07,210.79z"/>
				<path class="st5" d="M379.16,141.74l4.74,1.81c0,0,0.33,0.12,0.42,0.58c0.08,0.46,4.68,15.09,4.78,15.6
					c0.1,0.51-0.27,1.03-1.01,1.25c-0.74,0.21-11.12,2.89-11.12,2.89l1.63-21.51C378.59,142.36,378.7,141.73,379.16,141.74z"/>
				<path class="st23" d="M379.14,141.74l4.17,1.6c0,0-3.02-0.74-3.37-0.73c-0.36,0.02-0.65,0.23-0.7,0.93
					c-0.02,0.25-0.82,9.05-1.84,20.21l-0.44,0.11l1.64-21.51C378.58,142.36,378.68,141.73,379.14,141.74z"/>
				<path class="st22" d="M353.91,140.44l-6.66,2.25c-1.6,3.54-7.13,15.87-6.93,16.32c0.23,0.52,7.56,2.35,7.56,2.35
					s-5.8,2.4-6,2.55c-0.2,0.15-0.53,0.42-0.45,1.37c0.07,0.83,8.58,60.39,10.82,76.04l2.02-99.98
					C354.27,141.35,354.28,140.7,353.91,140.44z"/>
				<path class="st3" d="M351.07,159.7l-7.63,2.72c0,0-0.78,0.44-0.75,1.01c0.03,0.57,9.63,74.53,9.63,74.53l1.56-77.33
					L351.07,159.7z"/>
				<path class="st23" d="M352.9,209.76l0.99-49.12l-0.45-0.15c-0.22,20.02-0.55,49.33-0.55,49.33L352.9,209.76z"/>
				<path class="st5" d="M353.91,140.44l-4.9,1.32c0,0-0.34,0.08-0.47,0.53c-0.13,0.45-6.2,14.53-6.35,15.03
					c-0.15,0.5,0.17,1.06,0.88,1.35c0.71,0.29,10.77,4.01,10.77,4.01l0.57-21.56C354.41,141.12,354.37,140.48,353.91,140.44z"/>
				<path class="st23" d="M353.93,140.44l-4.31,1.16c0,0,3.08-0.43,3.43-0.38c0.35,0.05,0.63,0.3,0.61,1
					c-0.01,0.25-0.11,9.09-0.23,20.29l0.43,0.16l0.57-21.56C354.42,141.12,354.38,140.48,353.93,140.44z"/>
				<path class="st5" d="M333.65,183.42l8.53,0.44c0.42,0.02,0.74,0.38,0.72,0.8l0,0c-0.02,0.42-0.38,0.74-0.8,0.72l-8.54-0.44
					c-0.42-0.02-0.74-0.38-0.72-0.8l0,0C332.88,183.72,333.24,183.4,333.65,183.42z"/>
				<g>
					<path class="st15" d="M363.39,82.29c0-0.03-0.77-10.49,9.9-8.02l-0.19,0.83c-9.55-2.21-8.86,7.11-8.86,7.14L363.39,82.29z"/>
					<path class="st15" d="M376.81,75.23c0.03,0,10.45,0.05,7.59,10.03l-0.82-0.23c2.55-8.89-6.76-8.94-6.79-8.94L376.81,75.23z"/>
					<path class="st15" d="M375.13,73.9c4.75,0.65,8.07,5.03,7.42,9.77c-0.65,4.75-5.03,8.06-9.77,7.41
						c-4.75-0.65-8.07-5.03-7.41-9.77C366.01,76.57,370.39,73.25,375.13,73.9z"/>
				</g>
				<g>
					<path class="st21" d="M348.99,106.65c-0.15,0-0.3,0-0.44,0.01h0l0,0c-2.7,0.19-5.01,2.22-5.45,5.01
						c-0.51,3.24,1.71,6.28,4.95,6.79c3.24,0.51,6.28-1.71,6.79-4.95c0.3-1.88-0.33-3.7-1.54-4.99c-0.09,1.76-0.66,3.87-2.91,3.78
						l0.53-3.38C351.13,107.55,349.94,106.74,348.99,106.65z"/>
					<path class="st21" d="M391.48,112.48c0.14,0.04,0.28,0.08,0.42,0.13l0,0l0,0c2.55,0.91,4.23,3.49,3.9,6.29
						c-0.39,3.26-3.34,5.59-6.6,5.2c-3.26-0.38-5.59-3.34-5.21-6.6c0.22-1.9,1.32-3.47,2.83-4.39c-0.39,1.72-0.41,3.91,1.78,4.43
						l0.4-3.4C389.18,112.77,390.54,112.31,391.48,112.48z"/>
				</g>
				<path class="st24" d="M374.27,80.16L374.27,80.16c-11.09-1.52-21.4,6.3-22.92,17.39l-2.52,18.33
					c-1.52,11.09,6.3,21.4,17.39,22.92l0,0c11.08,1.52,21.4-6.3,22.92-17.39l2.52-18.33C393.18,91.99,385.36,81.68,374.27,80.16z"/>
				<path class="st25" d="M356.79,134.91c2.68,2.02,5.89,3.41,9.43,3.89l0,0c11.08,1.52,21.4-6.3,22.92-17.39l2.52-18.33
					c0.39-2.8,0.17-5.56-0.54-8.13c-1.83-1.23-3.95-2.26-6.41-3.01l-3.44,4.21c0,0,6.01,1.53,5.24,9.24
					c-0.77,7.71-2.27,17.47-2.27,17.47s-0.14,3.67-2.98,4.15c-2.84,0.48-6.35-1.05-6.35-1.05l-18.59,0.25L356.79,134.91z"/>
				<path class="st5" d="M373.4,126.22c-0.44,2.87-3.13,4.85-6,4.41c-2.88-0.44-4.85-3.13-4.41-6l0.01,0
					c0.08-0.49,0.54-0.84,1.04-0.76l8.59,1.32C373.12,125.26,373.47,125.72,373.4,126.22L373.4,126.22z"/>
				<g>
					<path class="st21" d="M380.28,121.21c-1.46-0.23-2.83,0.77-3.06,2.23c-0.23,1.46,0.77,2.83,2.23,3.06
						c1.46,0.23,2.83-0.77,3.06-2.23C382.74,122.81,381.74,121.44,380.28,121.21z"/>
					<path class="st21" d="M357.54,117.65c-1.46-0.23-2.83,0.77-3.06,2.23c-0.23,1.46,0.77,2.83,2.23,3.06
						c1.46,0.23,2.83-0.77,3.06-2.23C360,119.25,359,117.88,357.54,117.65z"/>
				</g>
				<path class="st15" d="M361.16,115.28c0.07-0.5-0.06-0.99-0.36-1.39c-0.3-0.4-0.75-0.66-1.24-0.73c-0.5-0.07-0.99,0.06-1.39,0.37
					c-0.4,0.3-0.66,0.75-0.73,1.24c-0.05,0.4-0.42,0.67-0.82,0.62c-0.4-0.05-0.67-0.42-0.62-0.82c0.12-0.88,0.58-1.67,1.29-2.2
					c0.7-0.54,1.59-0.77,2.47-0.65c0.88,0.12,1.67,0.58,2.2,1.29c0.54,0.71,0.77,1.59,0.65,2.47c-0.06,0.4-0.42,0.67-0.82,0.62
					C361.39,116.04,361.11,115.68,361.16,115.28L361.16,115.28z M381.93,118.13c0.07-0.5-0.06-1-0.37-1.39
					c-0.3-0.4-0.75-0.66-1.24-0.73c-0.5-0.07-0.99,0.06-1.39,0.37c-0.4,0.3-0.66,0.75-0.73,1.24c-0.05,0.4-0.42,0.67-0.81,0.62
					c-0.4-0.05-0.67-0.42-0.62-0.82c0.12-0.88,0.58-1.67,1.29-2.2c0.71-0.53,1.59-0.77,2.47-0.65c0.88,0.12,1.67,0.58,2.2,1.29
					c0.53,0.71,0.77,1.59,0.65,2.47c-0.05,0.4-0.42,0.67-0.82,0.62C382.15,118.89,381.87,118.53,381.93,118.13L381.93,118.13z
					 M383.45,111.63c-1.43-0.94-3.28-1.4-4.92-0.7c-0.37,0.16-0.79-0.02-0.95-0.38c-0.16-0.36,0.02-0.79,0.38-0.95
					c2.02-0.86,4.54-0.4,6.3,0.84c0.33,0.22,0.41,0.67,0.19,1C384.23,111.77,383.78,111.86,383.45,111.63L383.45,111.63z
					 M357.72,108.1c-0.38,0.13-0.79-0.07-0.92-0.45c-0.13-0.38,0.07-0.79,0.45-0.91c2.03-0.72,4.58-0.48,6.29,0.89
					c0.31,0.25,0.36,0.7,0.11,1.02c-0.25,0.31-0.71,0.36-1.02,0.11C361.26,107.64,359.34,107.58,357.72,108.1z"/>
				<path class="st15" d="M349.3,112.49c0,0,1.71-1.02,2.42-6.17c0.71-5.15,0.53-3.89,0.9-6.58c0.37-2.69,2.88-7.14,8.34-6.39
					c5.45,0.75,11.29,1.55,11.29,1.55s5.84,0.8,11.3,1.55c5.46,0.75,6.68,5.71,6.31,8.4c-0.37,2.69-0.19,1.42-0.9,6.58
					s0.66,6.59,0.66,6.59c0.56-4.09,2.03-5.52,2.03-5.52s0.75-5.47,1.41-10.25c0.66-4.78,0.19-11.39-5.48-16.66
					c-3.67-3.41-8.33-5.5-13.19-6.17c-4.86-0.67-9.92,0.09-14.37,2.39c-6.88,3.55-9.11,9.79-9.77,14.57
					c-0.66,4.78-1.41,10.25-1.41,10.25S349.86,108.4,349.3,112.49z"/>
				<path class="st26" d="M355.86,94.44c1.28-0.88,2.96-1.38,5.09-1.09c5.45,0.75,11.29,1.55,11.29,1.55l9.02,1.24l0,0
					c11.33-2.64,5.4-11.34,5.37-11.38c-3.51-2.93-7.81-4.74-12.26-5.35c-4.86-0.67-9.92,0.09-14.37,2.39
					c-3.09,1.59-5.24,3.73-6.73,6.03C352.65,91.69,355.86,94.44,355.86,94.44z"/>
				<path class="st27" d="M385.18,83.64c-2-1.41-4.2-2.5-6.51-3.25c-2.44,9.66-16.03,7.97-21.44,3.16c-0.54,0.41-1.04,0.85-1.5,1.29
					C360.39,94.14,382.23,93.13,385.18,83.64z"/>
				<path class="st15" d="M348.84,106.62c0,0-0.85,6.2-1.53,11.13c-0.68,4.93,5.45,17.95,10.44,20.46c4.98,2.51,6.82,2.65,8.17,2.83
					c1.35,0.19,3.15,0.55,8.63-0.53c5.48-1.08,14.89-11.96,15.57-16.9c0.68-4.93,1.53-11.13,1.53-11.13l-2.56-2.02
					c-0.38,2.8-0.98,9.06-1.68,12.58c-0.72,3.63-3.52,3.59-7.23,4.06c-2.65,0.33-5.5,7.15-7.55,6.87c-2.06-0.28-3.22-1.25-3.76-1.56
					c-0.54-0.32-1.7-0.48-1.7-0.48s-1.16-0.15-1.77,0.01c-0.61,0.16-1.98,0.77-4.04,0.49c-2.06-0.28-2.97-7.62-5.42-8.65
					c-3.44-1.45-6.16-2.17-5.87-5.85c0.28-3.58,1.39-9.77,1.78-12.57L348.84,106.62z"/>
				<path class="st15" d="M368.56,122.74c0.53-0.47,1.31-0.95,2.26-0.82c1.75,0.24,2.11,0.29,2.84,0.39c0.73,0.1,1.8,0.75,2.91,2.5
					c1.11,1.74,1.78,1.79,2.96,1.95c1.18,0.16,1.49,0.2,1.94,0.27c0.45,0.06,0.31,0.55-0.3,1.12c-0.61,0.57-1.49,1.7-3.9,1.37
					c-2.41-0.33-3.98-0.55-5.44-0.75c-1.47-0.2-2.55-1.46-3.17-2.36c-0.2-0.29-0.36-0.54-0.5-0.74c-0.19,0.16-0.42,0.36-0.68,0.58
					c-0.84,0.7-2.23,1.62-3.69,1.42c-1.47-0.2-3.03-0.42-5.44-0.75c-2.41-0.33-2.96-1.66-3.39-2.37c-0.43-0.71-0.44-1.22,0.01-1.16
					c0.45,0.06,0.76,0.1,1.94,0.27c1.18,0.16,1.84,0.3,3.38-1.08c1.54-1.38,2.74-1.72,3.48-1.62c0.73,0.1,1.09,0.15,2.84,0.39
					C367.55,121.47,368.18,122.14,368.56,122.74z"/>
				<path class="st14" d="M399.44,151.01c0,0,5.79,3.23,8.25,8.47c2.46,5.23,13.33,27.73,15.59,31.45c2.25,3.72,4.24,2.06,6.46,0.31
					c2.22-1.74,24.48-21.52,24.48-21.52s0.73-0.48,1.03,0.63c0.3,1.11,3.38,10.08,4.21,12.7c0.83,2.62-1.51,4.12-4.06,7.13
					c-2.56,3.01-23.83,20.97-27.07,23.43c-3.24,2.45-8.64,2.32-14.1-2.77c-5.46-5.09-18.46-20.7-18.46-20.7
					S391.88,166.38,399.44,151.01z"/>
				<path class="st22" d="M450.84,172.73c2.04-1.81,3.38-3,3.38-3s0.73-0.48,1.03,0.63c0.3,1.11,3.38,10.08,4.21,12.7
					c0.83,2.62-1.51,4.12-4.06,7.13c-2.56,3.01-23.83,20.97-27.07,23.43c-3.24,2.45-8.64,2.32-14.1-2.77
					c-5.46-5.09-18.46-20.7-18.46-20.7s-0.16-0.96-0.35-2.62c0.21-1.42,0.39-2.52,0.53-3.22c1.37-6.68,3.6-5.65,5.35-1.76
					c1.75,3.89,11.18,23.51,15.37,27.19c4.2,3.68,7.28,3.25,9.42,2.05c2.14-1.2,19.95-16.44,22.69-23.46
					C450.4,184.18,450.79,177.48,450.84,172.73z"/>
				<path class="st28" d="M398.57,454.08l7.14-12.37c0.57-0.99,0.23-2.27-0.76-2.85l-3.07-1.77c-0.99-0.57-2.27-0.23-2.85,0.76
					l-7.14,12.37c-0.57,0.99-0.23,2.27,0.76,2.85l3.07,1.77C396.71,455.41,397.99,455.07,398.57,454.08z"/>
				<path class="st29" d="M383.58,473.39c0,0-0.88,0.44-2.29-0.38c-5.47-3.16,2.56-10.92,2.67-15.47
					c0.09-3.83-1.19-10.93-6.09-13.86c0,0-2.77-1.6-0.77-5.07c2-3.46,2.46-4.26,3.14-5.45c0.69-1.19,2.67-2.68,4.47-2.04
					c0,0,1.32-2.28,2.03-3.51c0.71-1.24,1.99-2.88,5.41-0.9c3.42,1.97,10.79,6.23,11.66,6.73c0.87,0.5,1.7,1.46,1.57,2.2
					c0,0,1.02,0.91,1.06,1.13c0.04,0.22-0.94,3.05-1.77,4.09c-0.83,1.04-4.18,3.28-4.18,3.28s-0.73,0.72-1.78,0.11
					c0,0-0.97-0.49-1.68,0.73c-0.71,1.23-1.16,4.2-1.16,4.61c0,0.41,0.2,0.73,0.82,1.09c0.62,0.36,0.27,3.87-1.56,7.5
					C393.3,461.81,383.58,473.39,383.58,473.39z"/>
				<path class="st30" d="M384.72,431.14c0,0,1.32-2.28,2.03-3.52c0.71-1.24,1.99-2.88,5.41-0.9c3.42,1.97,10.79,6.23,11.66,6.73
					c0.87,0.5,1.7,1.46,1.57,2.2c0,0,1.02,0.91,1.06,1.13c0.04,0.22-0.94,3.05-1.77,4.09c-0.83,1.04-4.18,3.28-4.18,3.28
					s-0.73,0.72-1.78,0.11c0,0-0.97-0.49-1.68,0.73c-0.71,1.23-1.16,4.2-1.16,4.61c0,0.41,0.2,0.73,0.82,1.09
					c0.62,0.36,0.27,3.87-1.56,7.5c-1.17,2.31-5.53,7.84-8.55,11.56c-2.99-2.81-2.62-5.88-1.19-8.35c1.74-3.01,3.29-5.71,7.67-13.29
					c4.37-7.58-0.54-12.46-3.5-14.17C386.61,432.23,384.72,431.14,384.72,431.14z"/>
				<path class="st31" d="M386.45,475.05l13.11-22.7c0.25-0.43,0.1-0.98-0.33-1.22l-1.32-0.76c-0.43-0.25-0.98-0.1-1.23,0.33
					l-13.11,22.7c-0.25,0.43-0.1,0.98,0.33,1.22l1.32,0.76C385.66,475.63,386.21,475.48,386.45,475.05z"/>
				<path class="st28" d="M397.97,455.1l10.28-17.8c0.25-0.43,0.1-0.98-0.33-1.22l-1.32-0.76c-0.43-0.25-0.98-0.1-1.22,0.33
					l-10.28,17.8c-0.25,0.43-0.1,0.98,0.33,1.23l1.32,0.76C397.18,455.68,397.72,455.53,397.97,455.1z"/>
				<g>
					<path class="st29" d="M349.31,456.9c0,0,0.83-2.6,1.96-2.6c1.14,0,6.59,0,7.66,0c1.07,0,4.89,0.96,4.89,4.08
						c0,0,2.42,2.07,2.84,2.57c0.42,0.5,0.77,1.02,0.77,2.75c0,1.73,0,8.38,0,9.63s0.34,6.14-8.13,6.14c-8.47,0-13.52,0-16.15,0
						c-2.63,0-4.65-2.31-4.65-4.51c0-2.19,0.45-4.41,3.29-8.47c2.84-4.06,4.89-7.07,4.89-7.07S347.96,457.51,349.31,456.9z"/>
					<path class="st32" d="M359.08,454.31c1.22,0.07,4.75,1.08,4.75,4.08c0,0,2.42,2.07,2.84,2.57c0.42,0.5,0.77,1.02,0.77,2.75
						c0,1.73,0,8.38,0,9.63s0.34,6.14-8.13,6.14h-2.12l0.88-4.9c0,0,3.59-10.52,3.94-14.8
						C362.36,455.52,359.11,454.32,359.08,454.31z"/>
					<path class="st31" d="M338.44,474.53h28.73c0.72,0,1.31,0.59,1.31,1.31v2.37c0,0.72-0.59,1.31-1.31,1.31h-28.73
						c-0.72,0-1.31-0.59-1.31-1.31v-2.37C337.13,475.12,337.72,474.53,338.44,474.53z"/>
					<path class="st28" d="M359.05,475.84v2.37c0,0.61-0.42,1.12-0.98,1.27c-0.11,0.03-0.22,0.04-0.33,0.04h9.43
						c0.72,0,1.31-0.59,1.31-1.31v-2.37c0-0.64-0.47-1.18-1.08-1.29c-0.07-0.01-0.15-0.02-0.23-0.02h-9.43
						C358.46,474.53,359.05,475.12,359.05,475.84z"/>
				</g>
				<path class="st33" d="M368.41,116.01c0,0-2.23,2.12-2.68,2.93c-0.45,0.81,1.54,1.59,2.16,1.28c0.62-0.31,0.92-2.01,1.27-3.2
					C369.51,115.83,368.78,115.71,368.41,116.01z"/>
				<path class="st22" d="M325.05,244.17c-1.76,2.18-4.15,6.85-7.92,1.8c-3.77-5.05-8.5-22.17-8.5-22.17
					c2.36,12.39,7.47,29.18,13.59,42.06c0.33-1.05,0.71-2.23,1.14-3.54c2.57-7.86,6.77-20.57,6.88-22.82c0-0.08,0-0.24,0-0.49
					c-2.79-9.48-5.13-17.72-5.4-19.52c-0.27-1.84,1.61-7.23,3.99-13.09c-0.35-8.08-0.71-16.61-0.99-24.34
					c-0.05-0.33-0.1-0.66-0.15-0.98c-0.7-4.62-1.24-7.73-1.36-7c-0.14,0.84-0.17,5.51-0.14,10.92c0.04,7.75,0.18,17.02,0.23,18.79
					c0.09,3-2.74,13.23-3.6,13.83c-0.86,0.6-3.55,0.64-2.65,1.16c0.9,0.51,3.34,1.76,3.68,3.08c0.34,1.33,3.81,13.4,4.07,15.28
					C328.17,239.04,326.8,241.99,325.05,244.17z"/>
				<path class="st22" d="M328.83,206.41c0.28,6.4,0.55,12.5,0.78,17.7c0,0,0.55-1.98,1.07-4.79c0.66-3.53,1.27-8.36,0.7-12.17
					c-0.17-1.16-0.43-2.95-0.73-5.1c-0.42-3.05-0.94-6.82-1.47-10.61c-0.46-3.27-0.92-6.55-1.34-9.36
					C328.13,189.79,328.48,198.33,328.83,206.41z"/>
			</g>
			<g>
				<g>
					<path class="st15" d="M450.46,53.16H627.9c16.26,0,29.57,13.31,29.57,29.57v367.21c0,16.26-13.31,29.57-29.57,29.57H450.46
						c-16.27,0-29.57-13.31-29.57-29.57V82.73C420.88,66.47,434.19,53.16,450.46,53.16z"/>
					<path class="st15" d="M440.73,53.16h177.45c16.26,0,29.57,13.31,29.57,29.57v367.21c0,16.26-13.31,29.57-29.57,29.57H440.73
						c-16.27,0-29.57-13.31-29.57-29.57V82.73C411.16,66.47,424.46,53.16,440.73,53.16z"/>
					<path class="st11" d="M440.73,57.86c-13.67,0-24.87,11.2-24.87,24.87v367.21c0,13.67,11.2,24.87,24.87,24.87h177.45
						c13.67,0,24.87-11.2,24.87-24.87V82.73c0-13.67-11.2-24.87-24.87-24.87H440.73z"/>
					<path class="st5" d="M440.73,67.26c-8.48,0-15.47,6.99-15.47,15.47v367.21c0,8.48,6.99,15.47,15.47,15.47h177.45
						c8.48,0,15.47-6.99,15.47-15.47V82.73c0-8.48-6.99-15.47-15.47-15.47H440.73z"/>
					<path class="st11" d="M529.45,81.37h-53.05c-3.74,0-6.79-3.06-6.79-6.8v-2.61c-0.89-2.72-3.46-4.7-6.46-4.7l6.46-2.36v-2.47
						h59.84h59.84v2.47l6.46,2.36c-3.01,0-5.57,1.98-6.46,4.7v2.61c0,3.74-3.06,6.8-6.79,6.8H529.45z"/>
					<path class="st15" d="M516.09,72.03c-1.03,0-1.87-0.83-1.87-1.87s0.84-1.87,1.87-1.87h34.54c1.03,0,1.87,0.83,1.87,1.87
						s-0.83,1.87-1.87,1.87H516.09L516.09,72.03z M509.86,68.3c1.03,0,1.87,0.83,1.87,1.87s-0.84,1.87-1.87,1.87h-1.59
						c-1.03,0-1.87-0.83-1.87-1.87s0.84-1.87,1.87-1.87H509.86z"/>
					<g>
						<g>
							<path class="st2" d="M611.57,439.01h-12.44c-0.6,0-1.15,0.25-1.55,0.64l0,0c-0.4,0.4-0.64,0.95-0.64,1.55l0,12.71
								c-0.01,0.37,0.04,0.57,0.45,0.72c0.66,0.29,0.68,0.05,0.89-0.36l0.02-0.04c0.19-0.33,0.92-1.54,2.04-2.36
								c0.59-0.44,1.3-0.76,2.09-0.76h0.97v0.81c0,0.5,0.2,0.95,0.53,1.28c0.33,0.33,0.78,0.53,1.28,0.53H612
								c0.54,0,1.03,0.23,1.45,0.53c0.76,0.56,1.27,1.36,1.44,1.65l0.03,0.06c0.21,0.42,0.38,0.58,0.92,0.35
								c0.42-0.18,0.44-0.36,0.43-0.69c0.09-3.07,0-6.37,0-9.45c0-0.5-0.2-0.95-0.53-1.28c-0.33-0.33-0.78-0.53-1.28-0.53h-0.68
								v-3.18c0-0.6-0.25-1.15-0.64-1.55C612.73,439.25,612.18,439.01,611.57,439.01L611.57,439.01z M600.88,446.89h-0.75
								c-0.23,0-0.42-0.19-0.42-0.42s0.19-0.42,0.42-0.42h0.75c0.23,0,0.42,0.19,0.42,0.42S601.12,446.89,600.88,446.89
								L600.88,446.89z M602.49,446.04h6.87c0.23,0,0.42,0.19,0.42,0.42s-0.19,0.42-0.42,0.42h-6.87c-0.23,0-0.42-0.19-0.42-0.42
								S602.25,446.04,602.49,446.04L602.49,446.04z M609.82,442.78h0.75c0.23,0,0.42,0.19,0.42,0.42c0,0.23-0.19,0.42-0.42,0.42
								h-0.75c-0.23,0-0.42-0.19-0.42-0.42C609.4,442.97,609.59,442.78,609.82,442.78L609.82,442.78z M608.22,443.62h-8.08
								c-0.23,0-0.42-0.19-0.42-0.42c0-0.23,0.19-0.42,0.42-0.42h8.08c0.23,0,0.42,0.19,0.42,0.42
								C608.65,443.43,608.46,443.62,608.22,443.62L608.22,443.62z M604.81,451.11h6.77c0.61,0,1.16-0.25,1.55-0.65
								c0.4-0.4,0.64-0.95,0.64-1.55v-3.12h0.68c0.11,0,0.21,0.04,0.28,0.12c0.07,0.08,0.12,0.18,0.12,0.29v7.43
								c-0.18-0.17-0.37-0.34-0.58-0.49c-0.63-0.46-1.39-0.81-2.28-0.81h-6.79c-0.11,0-0.21-0.04-0.28-0.12
								c-0.07-0.07-0.12-0.17-0.12-0.28V451.11L604.81,451.11z M599.14,440.42h12.44c0.22,0,0.41,0.09,0.56,0.23
								c0.14,0.14,0.23,0.34,0.23,0.56v3.89v3.83c0,0.22-0.09,0.41-0.23,0.56c-0.14,0.14-0.34,0.23-0.56,0.23h-7.47h-1.67
								c-1.13,0-2.11,0.44-2.92,1.04c-0.44,0.33-0.83,0.7-1.16,1.06v-10.6c0-0.22,0.09-0.41,0.23-0.56
								C598.72,440.51,598.92,440.42,599.14,440.42z"/>
							<path class="st2" d="M554.27,432.75c-1.41,0-2.69,0.57-3.62,1.5c-0.93,0.93-1.5,2.21-1.5,3.62c0,1.42,0.57,2.7,1.5,3.62
								l0.04,0.04c0.92,0.9,2.19,1.46,3.58,1.46c1.41,0,2.69-0.57,3.62-1.5l0,0c0.93-0.93,1.5-2.21,1.5-3.62
								c0-1.41-0.57-2.69-1.5-3.62C556.97,433.33,555.68,432.75,554.27,432.75L554.27,432.75z M548.57,451.11l0-0.02l0-0.02v-0.45
								c0-1.55,0.63-2.96,1.64-3.99l0.04-0.03c1.03-1.03,2.46-1.67,4.02-1.67c1.57,0,2.99,0.64,4.03,1.67
								c1.03,1.03,1.67,2.46,1.67,4.03v0.45v0.03v0.02v3.63c0,0.08-0.03,0.16-0.08,0.21l0,0c-0.05,0.05-0.12,0.09-0.21,0.09h-10.81
								c-0.08,0-0.16-0.03-0.21-0.09c-0.05-0.05-0.09-0.13-0.09-0.21V451.11L548.57,451.11z M547.16,451.08v0.02v3.63
								c0,0.47,0.19,0.89,0.5,1.2l0,0c0.31,0.31,0.74,0.5,1.2,0.5h10.81c0.47,0,0.89-0.19,1.2-0.5l0,0c0.31-0.31,0.5-0.74,0.5-1.2
								v-3.63v-0.03v-0.02v-0.45c0-1.96-0.8-3.73-2.09-5.02c-1.29-1.29-3.07-2.09-5.02-2.09c-1.96,0-3.73,0.8-5.02,2.09l-0.04,0.04
								c-1.26,1.28-2.05,3.05-2.05,4.98v0.45V451.08L547.16,451.08z M551.65,435.25c0.67-0.67,1.6-1.09,2.62-1.09
								c1.03,0,1.95,0.42,2.62,1.09c0.67,0.67,1.09,1.6,1.09,2.62c0,1.03-0.42,1.95-1.09,2.62l0,0c-0.67,0.67-1.6,1.08-2.62,1.08
								c-1.01,0-1.92-0.4-2.59-1.05l-0.03-0.04c-0.67-0.67-1.09-1.6-1.09-2.62C550.56,436.85,550.97,435.92,551.65,435.25z"/>
							<path class="st2" d="M499.51,439.73c-0.45,0.15-0.88,0.35-1.28,0.58c-0.41,0.24-0.79,0.51-1.15,0.82l-1.45-0.84l-0.07-0.04
								c-0.24-0.12-0.51-0.14-0.75-0.08c-0.27,0.07-0.51,0.25-0.66,0.51l-1.32,2.3c-0.15,0.26-0.18,0.55-0.11,0.82
								c0.07,0.27,0.24,0.51,0.5,0.66l1.45,0.83c-0.03,0.14-0.05,0.28-0.07,0.43c-0.04,0.33-0.07,0.66-0.07,0.97
								c0,0.32,0.02,0.65,0.07,0.98c0.02,0.15,0.04,0.29,0.07,0.43l-1.45,0.84c-0.26,0.15-0.44,0.39-0.51,0.66
								c-0.07,0.27-0.04,0.56,0.11,0.82l1.32,2.29c0.15,0.26,0.39,0.44,0.66,0.51c0.27,0.07,0.56,0.04,0.82-0.11l1.45-0.84
								c0.35,0.31,0.74,0.58,1.15,0.82c0.4,0.23,0.83,0.43,1.28,0.58v1.67c0,0.3,0.12,0.57,0.32,0.76c0.19,0.2,0.47,0.32,0.77,0.32
								h2.65c0.3,0,0.57-0.12,0.77-0.32l0.06-0.07c0.16-0.19,0.26-0.43,0.26-0.7v-1.67c0.45-0.15,0.88-0.35,1.28-0.58
								c0.41-0.24,0.79-0.51,1.15-0.82l1.45,0.84l0.07,0.03c0.24,0.12,0.51,0.14,0.75,0.07c0.27-0.07,0.51-0.25,0.66-0.5l1.33-2.3
								c0.15-0.26,0.18-0.55,0.11-0.82c-0.07-0.27-0.25-0.51-0.5-0.66l-1.45-0.84c0.03-0.14,0.05-0.28,0.07-0.43
								c0.04-0.33,0.07-0.66,0.07-0.98c0-0.32-0.02-0.65-0.07-0.98c-0.02-0.15-0.04-0.29-0.07-0.43l1.45-0.84
								c0.26-0.15,0.43-0.39,0.5-0.66c0.07-0.27,0.04-0.56-0.11-0.82l-1.33-2.29c-0.15-0.26-0.39-0.43-0.66-0.51
								c-0.27-0.07-0.56-0.04-0.82,0.11l-1.45,0.84c-0.35-0.31-0.74-0.58-1.15-0.82c-0.4-0.23-0.83-0.43-1.28-0.58v-1.67
								c0-0.29-0.12-0.57-0.32-0.76c-0.2-0.2-0.47-0.32-0.77-0.32h-2.65c-0.3,0-0.57,0.12-0.77,0.32l-0.06,0.07
								c-0.16,0.19-0.26,0.43-0.26,0.7V439.73L499.51,439.73z M498.93,441.53c0.44-0.25,0.91-0.45,1.41-0.59
								c0.32-0.06,0.57-0.35,0.57-0.69v-1.87h2v1.87c0,0.31,0.21,0.6,0.53,0.68c0.52,0.14,1.01,0.34,1.46,0.6
								c0.46,0.26,0.88,0.59,1.24,0.96c0.22,0.23,0.58,0.29,0.86,0.12l1.62-0.93l1,1.73l-1.58,0.91c-0.29,0.15-0.46,0.49-0.37,0.82
								c0.07,0.26,0.12,0.52,0.16,0.77c0.03,0.25,0.05,0.51,0.05,0.79c0,0.28-0.02,0.55-0.05,0.79c-0.03,0.25-0.09,0.51-0.16,0.77
								l0,0c-0.08,0.3,0.05,0.63,0.33,0.79l1.62,0.93l-1,1.73l-1.62-0.94c-0.27-0.16-0.62-0.12-0.85,0.11
								c-0.37,0.38-0.8,0.7-1.26,0.97c-0.44,0.25-0.91,0.45-1.41,0.59c-0.33,0.06-0.57,0.35-0.57,0.69v1.87h-2v-1.87
								c0-0.31-0.21-0.6-0.53-0.68c-0.52-0.14-1.01-0.34-1.46-0.6c-0.46-0.26-0.87-0.59-1.24-0.96c-0.22-0.23-0.58-0.29-0.86-0.13
								l-1.62,0.94l-1-1.73l1.56-0.9c0.31-0.14,0.48-0.49,0.39-0.83c-0.07-0.26-0.13-0.52-0.16-0.77c-0.03-0.25-0.05-0.51-0.05-0.79
								c0-0.28,0.02-0.55,0.05-0.79c0.03-0.25,0.09-0.51,0.16-0.77l0,0c0.08-0.3-0.05-0.63-0.33-0.79l-1.62-0.93l1-1.74l1.62,0.93
								c0.27,0.16,0.62,0.12,0.85-0.11C498.05,442.13,498.47,441.8,498.93,441.53L498.93,441.53z M501.92,442.94
								c1.02,0,1.94,0.4,2.62,1.06l0.04,0.04c0.68,0.68,1.1,1.62,1.1,2.66c0,1.04-0.42,1.98-1.1,2.66l0,0
								c-0.68,0.68-1.62,1.1-2.66,1.1c-1.04,0-1.98-0.42-2.66-1.11c-0.68-0.68-1.1-1.62-1.1-2.66c0-1.04,0.42-1.98,1.1-2.66
								C499.93,443.36,500.88,442.94,501.92,442.94L501.92,442.94z M500.25,445.04c0.43-0.43,1.02-0.69,1.67-0.69
								c0.64,0,1.21,0.25,1.64,0.66l0.03,0.03c0.43,0.43,0.69,1.02,0.69,1.67c0,0.65-0.26,1.24-0.69,1.67l0,0
								c-0.43,0.42-1.01,0.69-1.67,0.69c-0.65,0-1.24-0.26-1.67-0.69c-0.43-0.43-0.69-1.01-0.69-1.67
								C499.56,446.06,499.82,445.47,500.25,445.04z"/>
							<path class="st2" d="M444.42,444.34c-1.22,1.22-1.83,2.81-1.83,4.41c0,1.6,0.61,3.2,1.83,4.41l0.04,0.04
								c1.21,1.19,2.79,1.79,4.37,1.79c1.38,0,2.75-0.45,3.89-1.36l2.61,2.61c0.28,0.28,0.72,0.28,1,0c0.28-0.27,0.28-0.72,0-1
								l-2.61-2.61c0.9-1.13,1.36-2.51,1.36-3.89c0-1.6-0.61-3.19-1.83-4.41c-1.22-1.22-2.82-1.83-4.41-1.83
								C447.24,442.51,445.64,443.12,444.42,444.34L444.42,444.34L444.42,444.34z M452.26,452.15l-0.01,0.01l-0.01,0.01
								c-0.94,0.93-2.17,1.4-3.4,1.4c-1.22,0-2.44-0.46-3.38-1.38l-0.03-0.04c-0.94-0.94-1.41-2.18-1.41-3.41
								c0-1.24,0.47-2.48,1.41-3.42c0.94-0.94,2.18-1.41,3.42-1.41c1.24,0,2.47,0.47,3.42,1.42c0.94,0.94,1.41,2.18,1.41,3.41
								C453.66,449.98,453.2,451.21,452.26,452.15z"/>
						</g>
						<path class="st34" d="M597.42,443.08c2.04,0,3.7-1.66,3.7-3.7c0-2.04-1.66-3.7-3.7-3.7c-2.04,0-3.7,1.66-3.7,3.7
							C593.72,441.42,595.38,443.08,597.42,443.08z"/>
						<path class="st5" d="M597.85,441.14h-0.72v-2.74c-0.26,0.25-0.58,0.43-0.94,0.55v-0.66c0.19-0.06,0.4-0.18,0.62-0.35
							c0.22-0.17,0.37-0.37,0.46-0.61h0.59V441.14z"/>
						<g>
							<path class="st2" d="M439.24,75.15c-0.35,0-0.63-0.28-0.63-0.62c0-0.34,0.28-0.63,0.63-0.63h13.67
								c0.35,0,0.62,0.28,0.62,0.63c0,0.34-0.28,0.62-0.62,0.62H439.24L439.24,75.15z M439.24,84.12c-0.35,0-0.63-0.28-0.63-0.62
								c0-0.35,0.28-0.63,0.63-0.63h13.67c0.35,0,0.62,0.28,0.62,0.63c0,0.34-0.28,0.62-0.62,0.62H439.24L439.24,84.12z
								 M439.24,79.64c-0.35,0-0.63-0.28-0.63-0.63c0-0.34,0.28-0.62,0.63-0.62h13.67c0.35,0,0.62,0.28,0.62,0.62
								c0,0.35-0.28,0.63-0.62,0.63H439.24z"/>
							<path class="st2" d="M619.73,75.09L619.73,75.09L619.73,75.09z M603.3,75.78h8.03v6.46h-8.03c-0.18,0-0.34-0.07-0.46-0.19
								c-0.12-0.12-0.19-0.28-0.19-0.46v-5.17c0-0.18,0.07-0.34,0.19-0.46C602.96,75.85,603.12,75.78,603.3,75.78L603.3,75.78z
								 M618.39,74.53h-15.1c-0.52,0-1,0.21-1.34,0.56c-0.34,0.34-0.56,0.82-0.56,1.34v5.17c0,0.52,0.21,1,0.56,1.34
								c0.34,0.34,0.82,0.56,1.34,0.56h15.1c0.5,0,0.96-0.2,1.3-0.52l0.04-0.04c0.34-0.34,0.56-0.82,0.56-1.34v-5.17
								c0-0.52-0.21-0.99-0.56-1.34C619.39,74.74,618.91,74.53,618.39,74.53z"/>
						</g>
					</g>
				</g>
				<path class="st13" d="M561.06,328.66v7.31c0.75,0.11,1.41,0.46,1.92,0.97c0.51,0.51,0.86,1.18,0.97,1.92h16.21
					c9.17,0,17.51,3.75,23.55,9.79c6.04,6.05,9.8,14.38,9.8,23.55c0,9.17-3.75,17.51-9.8,23.55c-6.04,6.05-14.38,9.8-23.55,9.8h-1.9
					c-0.11,0.75-0.46,1.41-0.97,1.92c-0.51,0.51-1.18,0.86-1.92,0.97v8.92c0,0.7-0.29,1.33-0.75,1.79l0,0
					c-0.46,0.46-1.09,0.74-1.79,0.74H551c-0.7,0-1.33-0.28-1.79-0.75l0,0c-0.46-0.46-0.74-1.1-0.74-1.79v-8.92
					c-0.75-0.11-1.41-0.46-1.92-0.97c-0.51-0.51-0.86-1.18-0.97-1.92h-16.09c-0.11,0.75-0.46,1.41-0.97,1.92
					c-0.51,0.51-1.18,0.86-1.92,0.97v7.31c0,2.26-0.92,4.32-2.42,5.81c-1.49,1.49-3.55,2.42-5.81,2.42H463.7
					c-2.26,0-4.32-0.92-5.81-2.42c-1.49-1.49-2.41-3.55-2.41-5.81v-7.89v-13.57c0-2.26,0.92-4.32,2.41-5.81
					c1.49-1.49,3.55-2.42,5.81-2.42h54.65c2.26,0,4.32,0.93,5.81,2.42c1.49,1.49,2.42,3.55,2.42,5.81v7.31
					c0.75,0.11,1.41,0.46,1.92,0.97c0.51,0.51,0.86,1.18,0.97,1.92h16.09c0.11-0.74,0.46-1.41,0.97-1.92
					c0.51-0.51,1.18-0.86,1.92-0.97v-8.92c0-0.7,0.28-1.33,0.74-1.79c0.46-0.46,1.09-0.74,1.79-0.74h21.83
					c0.7,0,1.33,0.28,1.79,0.74l0.03,0.03c0.44,0.46,0.72,1.08,0.72,1.76v8.92c0.75,0.11,1.41,0.46,1.92,0.97
					c0.51,0.51,0.86,1.18,0.97,1.92h1.9c8.89,0,16.96-3.63,22.82-9.49c5.86-5.85,9.49-13.93,9.49-22.82
					c0-8.88-3.63-16.96-9.49-22.82c-5.86-5.86-13.93-9.49-22.82-9.49h-16.21c-0.11,0.75-0.46,1.41-0.97,1.92
					c-0.51,0.51-1.18,0.86-1.92,0.97v7.31c0,2.26-0.92,4.32-2.41,5.81c-1.49,1.49-3.55,2.41-5.81,2.41h-54.65
					c-2.26,0-4.32-0.92-5.81-2.41c-1.49-1.49-2.41-3.55-2.41-5.81v-21.46c0-2.26,0.93-4.32,2.41-5.81c1.49-1.49,3.55-2.41,5.81-2.41
					h54.65c2.26,0,4.32,0.92,5.81,2.41C560.13,324.35,561.06,326.4,561.06,328.66L561.06,328.66z M525.54,411.88
					c-0.38,0.67-0.84,1.28-1.38,1.82c-1.49,1.49-3.55,2.42-5.81,2.42H463.7c-2.26,0-4.32-0.92-5.81-2.42
					c-0.54-0.54-1-1.15-1.38-1.82v3.9c0,1.97,0.81,3.77,2.11,5.07c1.3,1.3,3.1,2.11,5.07,2.11h54.65c1.97,0,3.77-0.81,5.07-2.11
					c1.3-1.3,2.11-3.1,2.11-5.07V411.88L525.54,411.88z M456.52,407.89c0,1.97,0.81,3.77,2.11,5.07c1.3,1.3,3.1,2.11,5.07,2.11
					h54.65c1.97,0,3.77-0.81,5.07-2.11c1.18-1.18,1.95-2.75,2.09-4.5c-0.74-0.12-1.39-0.47-1.9-0.97c-0.62-0.62-1.01-1.49-1.01-2.44
					c0-0.95,0.39-1.82,1.01-2.44c0.51-0.51,1.18-0.86,1.92-0.97v-7.31c0-1.97-0.81-3.77-2.11-5.07c-1.3-1.3-3.1-2.11-5.07-2.11
					H463.7c-1.97,0-3.77,0.81-5.07,2.11c-1.3,1.3-2.11,3.1-2.11,5.07V407.89L456.52,407.89z M552.44,405.05
					c0,0.95-0.39,1.82-1.01,2.44c-0.45,0.45-1.02,0.77-1.66,0.92c0.05,0.08,0.11,0.15,0.18,0.21v0c0.27,0.27,0.65,0.44,1.06,0.44
					h21.83c0.41,0,0.79-0.17,1.06-0.44l0,0c0.06-0.06,0.12-0.14,0.18-0.21c-0.64-0.15-1.21-0.48-1.66-0.92
					c-0.63-0.62-1.01-1.49-1.01-2.44c0-0.95,0.39-1.82,1.01-2.44c0.51-0.51,1.18-0.86,1.92-0.97v-8.92c0-0.4-0.16-0.77-0.42-1.03
					l-0.02-0.02c-0.27-0.27-0.65-0.44-1.06-0.44H551c-0.41,0-0.78,0.17-1.06,0.44c-0.27,0.27-0.44,0.65-0.44,1.06v8.92
					c0.75,0.11,1.41,0.46,1.92,0.97C552.05,403.23,552.44,404.09,552.44,405.05L552.44,405.05z M462.02,339.39
					c0-0.95-0.39-1.82-1.01-2.44c-0.63-0.63-1.49-1.01-2.44-1.01c-0.95,0-1.82,0.39-2.44,1.01c-0.62,0.62-1.01,1.49-1.01,2.44
					c0,0.95,0.39,1.82,1.01,2.44c0.63,0.62,1.49,1.01,2.44,1.01c0.95,0,1.82-0.39,2.44-1.01
					C461.64,341.21,462.02,340.35,462.02,339.39L462.02,339.39z M473.49,339.39c0-0.95-0.39-1.82-1.01-2.44
					c-0.62-0.63-1.49-1.01-2.44-1.01c-0.95,0-1.82,0.39-2.44,1.01c-0.62,0.62-1.01,1.49-1.01,2.44c0,0.95,0.39,1.82,1.01,2.44
					c0.62,0.62,1.49,1.01,2.44,1.01c0.95,0,1.82-0.39,2.44-1.01C473.1,341.21,473.49,340.35,473.49,339.39L473.49,339.39z
					 M484.95,339.39c0-0.95-0.39-1.82-1.01-2.44c-0.63-0.63-1.49-1.01-2.44-1.01c-0.95,0-1.82,0.39-2.44,1.01
					c-0.63,0.62-1.01,1.49-1.01,2.44c0,0.95,0.39,1.82,1.01,2.44c0.63,0.62,1.49,1.01,2.44,1.01c0.95,0,1.82-0.39,2.44-1.01
					C484.56,341.21,484.95,340.35,484.95,339.39L484.95,339.39z M560.02,342.81c-0.75-0.11-1.41-0.46-1.92-0.97
					c-0.63-0.62-1.01-1.49-1.01-2.44c0-0.95,0.39-1.82,1.01-2.44c0.51-0.51,1.18-0.86,1.92-0.97v-7.31c0-1.98-0.81-3.77-2.11-5.07
					c-1.3-1.3-3.1-2.11-5.07-2.11h-54.65c-1.98,0-3.77,0.81-5.07,2.11c-1.3,1.3-2.11,3.1-2.11,5.07v21.46
					c0,1.98,0.81,3.77,2.11,5.07c1.3,1.3,3.1,2.11,5.07,2.11h54.65c1.98,0,3.77-0.81,5.07-2.11c1.3-1.3,2.11-3.1,2.11-5.07V342.81
					L560.02,342.81z M549.5,409.61v7.77c0,0.41,0.17,0.79,0.44,1.06v0c0.27,0.27,0.65,0.44,1.06,0.44h21.83
					c0.41,0,0.79-0.17,1.06-0.44l0,0c0.27-0.27,0.44-0.65,0.44-1.06v-7.77c-0.42,0.31-0.94,0.49-1.5,0.49H551
					C550.44,410.11,549.93,409.92,549.5,409.61z"/>
				<path class="st2" d="M439.94,290.66h179.03c3.82,0,6.94,3.12,6.94,6.94v3.7c0,3.81-3.12,6.94-6.94,6.94H439.94
					c-3.82,0-6.94-3.12-6.94-6.94v-3.7C433,293.79,436.12,290.66,439.94,290.66z"/>
				<path class="st2" d="M436.47,276.34h136.16c1.91,0,3.47,1.56,3.47,3.47v1.85c0,1.91-1.56,3.47-3.47,3.47H436.47
					c-1.91,0-3.47-1.56-3.47-3.47v-1.85C433,277.9,434.56,276.34,436.47,276.34z"/>
				<path class="st2" d="M622.43,276.34h-34.88c-1.91,0-3.47,1.56-3.47,3.47v1.85c0,1.91,1.56,3.47,3.47,3.47h34.88
					c1.91,0,3.47-1.56,3.47-3.47v-1.85C625.9,277.9,624.34,276.34,622.43,276.34z"/>
				<path class="st14" d="M447.05,132.95h34.11c4.64,0,8.44,3.8,8.44,8.44v34.11c0,4.64-3.8,8.44-8.44,8.44h-34.11
					c-4.64,0-8.44-3.8-8.44-8.44v-34.11C438.61,136.74,442.41,132.95,447.05,132.95z"/>
				<path class="st35" d="M577.74,132.95h34.11c4.64,0,8.44,3.8,8.44,8.44v34.11c0,4.64-3.8,8.44-8.44,8.44h-34.11
					c-4.64,0-8.44-3.8-8.44-8.44v-34.11C569.31,136.74,573.1,132.95,577.74,132.95z"/>
				<path class="st36" d="M512.39,132.95h34.12c4.64,0,8.44,3.8,8.44,8.44v34.11c0,4.64-3.8,8.44-8.44,8.44h-34.12
					c-4.64,0-8.43-3.8-8.43-8.44v-34.11C503.96,136.74,507.75,132.95,512.39,132.95z"/>
				<path class="st37" d="M479.72,201.9h34.11c4.64,0,8.44,3.8,8.44,8.44v34.11c0,4.64-3.79,8.44-8.44,8.44h-34.11
					c-4.64,0-8.44-3.8-8.44-8.44v-34.11C471.28,205.7,475.08,201.9,479.72,201.9z"/>
				<path class="st38" d="M545.07,201.9h34.11c4.64,0,8.44,3.8,8.44,8.44v34.11c0,4.64-3.8,8.44-8.44,8.44h-34.11
					c-4.64,0-8.44-3.8-8.44-8.44v-34.11C536.63,205.7,540.43,201.9,545.07,201.9z"/>
				<path class="st2" d="M436.47,93.17h136.16c1.91,0,3.47,1.56,3.47,3.47v1.85c0,1.91-1.56,3.47-3.47,3.47H436.47
					c-1.91,0-3.47-1.56-3.47-3.47v-1.85C433,94.73,434.56,93.17,436.47,93.17z"/>
				<path class="st2" d="M622.43,93.17h-34.88c-1.91,0-3.47,1.56-3.47,3.47v1.85c0,1.91,1.56,3.47,3.47,3.47h34.88
					c1.91,0,3.47-1.56,3.47-3.47v-1.85C625.9,94.73,624.34,93.17,622.43,93.17z"/>
				<path class="st2" d="M622.43,111.32H486.27c-1.91,0-3.47,1.56-3.47,3.47v1.85c0,1.91,1.56,3.47,3.47,3.47h136.16
					c1.91,0,3.47-1.56,3.47-3.47v-1.85C625.9,112.88,624.34,111.32,622.43,111.32z"/>
				<path class="st2" d="M436.47,111.32h34.88c1.91,0,3.47,1.56,3.47,3.47v1.85c0,1.91-1.56,3.47-3.47,3.47h-34.88
					c-1.91,0-3.47-1.56-3.47-3.47v-1.85C433,112.88,434.56,111.32,436.47,111.32z"/>
				<path class="st39" d="M564.94,218.12c0.72,0.22,1.4,0.51,2.03,0.88c0.65,0.37,1.24,0.82,1.78,1.32l1.35-0.78
					c0.21-0.12,0.45-0.15,0.67-0.09c0.22,0.06,0.42,0.2,0.54,0.41l1.93,3.34l0.02,0.04c0.1,0.2,0.12,0.42,0.07,0.63
					c-0.06,0.22-0.2,0.42-0.41,0.54l-1.35,0.78c0.07,0.29,0.12,0.59,0.16,0.89c0.06,0.44,0.09,0.87,0.09,1.31
					c0,0.44-0.03,0.87-0.09,1.31c-0.04,0.3-0.1,0.6-0.16,0.89l1.32,0.76c0.03,0.01,0.05,0.03,0.08,0.05
					c0.18,0.12,0.31,0.31,0.36,0.51c0.05,0.2,0.04,0.42-0.06,0.62c-0.01,0.03-0.03,0.06-0.05,0.08l-1.91,3.31
					c-0.12,0.21-0.32,0.35-0.54,0.41c-0.22,0.06-0.46,0.03-0.67-0.09l-1.35-0.78c-0.54,0.51-1.14,0.95-1.78,1.32
					c-0.63,0.37-1.31,0.66-2.03,0.88v1.56c0,0.24-0.1,0.47-0.26,0.63c-0.16,0.16-0.38,0.26-0.62,0.26h-3.85
					c-0.24,0-0.47-0.1-0.63-0.26c-0.16-0.16-0.26-0.38-0.26-0.63v-1.56c-0.72-0.22-1.4-0.51-2.03-0.88
					c-0.65-0.37-1.24-0.82-1.78-1.32l-1.35,0.78c-0.21,0.12-0.45,0.15-0.67,0.09c-0.22-0.06-0.42-0.2-0.54-0.41l-1.93-3.34
					c-0.12-0.21-0.15-0.45-0.09-0.67c0.06-0.22,0.2-0.42,0.41-0.54l0.03-0.02l1.32-0.76c-0.07-0.29-0.12-0.59-0.16-0.89
					c-0.06-0.44-0.09-0.87-0.09-1.31c0-0.44,0.03-0.87,0.09-1.31c0.04-0.3,0.1-0.6,0.16-0.89c-0.11-0.07-1.35-0.78-1.35-0.78
					c-0.21-0.12-0.35-0.32-0.41-0.54c-0.06-0.22-0.03-0.46,0.09-0.67l1.91-3.31c0.01-0.03,0.03-0.05,0.05-0.08
					c0.12-0.19,0.31-0.31,0.51-0.37c0.2-0.05,0.42-0.04,0.62,0.06c0.03,0.01,0.06,0.03,0.09,0.05l1.32,0.76
					c0.54-0.51,1.14-0.95,1.78-1.32c0.63-0.37,1.31-0.66,2.03-0.88v-1.56c0-0.24,0.1-0.47,0.26-0.63c0.16-0.16,0.38-0.26,0.63-0.26
					h3.85c0.24,0,0.47,0.1,0.62,0.26c0.16,0.16,0.26,0.38,0.26,0.63V218.12L564.94,218.12z M566.45,219.9
					c-0.66-0.38-1.37-0.67-2.11-0.87c-0.25-0.04-0.44-0.25-0.44-0.51v-1.8h-3.54v1.8h0c0,0.23-0.16,0.44-0.39,0.5
					c-0.76,0.2-1.49,0.49-2.16,0.88c-0.68,0.39-1.3,0.87-1.84,1.43c-0.16,0.17-0.43,0.22-0.64,0.1l-1.56-0.9l-1.78,3.07l1.53,0.88
					c0.22,0.11,0.33,0.36,0.26,0.6c-0.1,0.37-0.18,0.76-0.23,1.15c-0.05,0.38-0.08,0.77-0.08,1.17c0,0.41,0.03,0.8,0.08,1.17
					c0.05,0.39,0.13,0.77,0.23,1.15c0.06,0.22-0.03,0.47-0.24,0.59l-1.56,0.9l1.77,3.07l1.56-0.9c0.2-0.12,0.46-0.09,0.63,0.09
					c0.55,0.56,1.17,1.04,1.85,1.44c0.66,0.38,1.37,0.68,2.11,0.87c0.25,0.04,0.44,0.25,0.44,0.51v1.8h3.54v-1.8h0
					c0-0.23,0.16-0.44,0.39-0.5c0.76-0.2,1.49-0.5,2.16-0.88c0.68-0.39,1.31-0.88,1.85-1.44c0.16-0.16,0.42-0.21,0.63-0.09l1.56,0.9
					l1.77-3.07l-1.56-0.9c-0.2-0.12-0.3-0.36-0.24-0.59c0.1-0.37,0.18-0.76,0.23-1.15c0.05-0.38,0.08-0.77,0.08-1.17
					c0-0.41-0.03-0.8-0.08-1.17c-0.05-0.39-0.13-0.76-0.23-1.13c-0.07-0.23,0.02-0.48,0.23-0.61l1.56-0.9l-1.77-3.07l-1.53,0.89
					c-0.2,0.13-0.48,0.11-0.65-0.07C567.75,220.78,567.13,220.29,566.45,219.9L566.45,219.9z M562.12,222.47
					c-1.36,0-2.59,0.55-3.48,1.44c-0.89,0.89-1.44,2.12-1.44,3.48c0,1.36,0.55,2.59,1.44,3.48c0.89,0.89,2.12,1.44,3.48,1.44
					c1.36,0,2.59-0.55,3.48-1.44c0.89-0.89,1.44-2.12,1.44-3.48c0-1.36-0.55-2.59-1.44-3.48
					C564.71,223.03,563.48,222.47,562.12,222.47L562.12,222.47z M564.87,224.65c-0.7-0.7-1.67-1.14-2.74-1.14s-2.04,0.43-2.74,1.14
					c-0.7,0.7-1.14,1.67-1.14,2.74c0,1.07,0.43,2.04,1.14,2.74c0.7,0.7,1.67,1.14,2.74,1.14s2.04-0.43,2.74-1.14
					c0.7-0.7,1.14-1.67,1.14-2.74C566.01,226.32,565.57,225.35,564.87,224.65z"/>
				<path class="st5" d="M454.93,149.43h18.34c0.77,0,1.48,0.32,1.99,0.83c0.51,0.51,0.83,1.21,0.83,1.99v12.38
					c0,0.77-0.32,1.48-0.83,1.98v0c-0.51,0.51-1.21,0.83-1.99,0.83h-18.34c-0.77,0-1.47-0.32-1.98-0.83l0,0
					c-0.51-0.51-0.83-1.21-0.83-1.98v-12.38c0-0.77,0.32-1.48,0.83-1.99l0.03-0.03C453.48,149.74,454.18,149.43,454.93,149.43
					L454.93,149.43z M474.85,151.45l-10.4,9.26l-0.01,0l0,0.01l-0.01,0.01l0,0l-0.01,0.01c-0.02,0.01-0.03,0.03-0.05,0.04l0,0
					l-0.01,0.01l0,0l-0.01,0.01l0,0l-0.01,0l0,0l-0.01,0l0,0l-0.01,0l0,0l-0.01,0l0,0l-0.01,0l0,0l-0.01,0l0,0l0,0l-0.01,0l-0.01,0
					l0,0l-0.01,0h0l-0.01,0h0l-0.01,0h0l-0.01,0h0h0l-0.01,0l-0.01,0h0l-0.01,0h0l-0.01,0l0,0h-0.01h0l-0.01,0h0h-0.01h0h-0.01h0
					h-0.01h0l-0.01,0h0h-0.01l0,0l-0.01,0h0l-0.01,0h0l-0.01,0l-0.01,0h0h0l-0.01,0h0l-0.01,0h0l-0.01,0h0l-0.01,0l0,0l-0.01,0
					l-0.01,0l0,0l0,0l-0.01,0l0,0l-0.01,0l0,0l-0.01,0l0,0l-0.01,0l0,0l-0.01,0l0,0l-0.01,0l0,0l-0.01-0.01l0,0l-0.01-0.01l0,0
					c-0.02-0.01-0.04-0.02-0.05-0.04l-0.01-0.01l0,0l-0.01-0.01l-0.01-0.01l-0.01,0l0-0.01l-10.4-9.25
					c-0.12,0.24-0.19,0.51-0.19,0.8v12.38c0,0.49,0.2,0.93,0.52,1.25c0.32,0.32,0.76,0.52,1.25,0.52h18.34
					c0.49,0,0.93-0.2,1.25-0.52h0c0.32-0.32,0.52-0.76,0.52-1.25v-12.38C475.05,151.96,474.98,151.69,474.85,151.45L474.85,151.45z
					 M464.1,159.62l10.03-8.92c-0.25-0.14-0.55-0.22-0.86-0.22h-18.34c-0.31,0-0.6,0.08-0.86,0.22L464.1,159.62z"/>
				<path class="st40" d="M529.45,164c0.4,0,0.73-0.33,0.73-0.73v-3.01c0-0.4-0.32-0.73-0.73-0.73c-0.4,0-0.73,0.32-0.73,0.73v3.01
					C528.73,163.67,529.05,164,529.45,164z"/>
				<path class="st40" d="M537.77,153.36h-3.43v-3.54c0-2.44-2.19-4.43-4.88-4.43c-2.69,0-4.88,1.99-4.88,4.43v3.54h-3.44
					c-0.4,0-0.73,0.33-0.73,0.73v9.28c0,3.75,3.05,6.8,6.8,6.8h4.48c3.75,0,6.8-3.05,6.8-6.8v-9.28
					C538.5,153.69,538.17,153.36,537.77,153.36z M526.02,149.83c0-1.64,1.54-2.97,3.43-2.97s3.43,1.33,3.43,2.97v3.54h-6.86V149.83z
					 M537.04,163.37c0,2.95-2.4,5.35-5.35,5.35h-4.48c-2.95,0-5.35-2.4-5.35-5.35v-8.56h15.18V163.37z"/>
				<g>
					<g>
						<path class="st41" d="M504.33,230.52c-1.16-1.16-2.55-2.02-4.06-2.55c1.62-1.11,2.68-2.98,2.68-5.09
							c0-3.4-2.77-6.17-6.17-6.17s-6.17,2.77-6.17,6.17c0,2.11,1.06,3.97,2.68,5.09c-1.51,0.52-2.89,1.38-4.06,2.55
							c-2.02,2.02-3.13,4.7-3.13,7.55h1.67c0-4.97,4.04-9.01,9.01-9.01s9.01,4.04,9.01,9.01h1.67
							C507.46,235.22,506.34,232.54,504.33,230.52z M496.78,227.4c-2.48,0-4.51-2.02-4.51-4.51c0-2.48,2.02-4.51,4.51-4.51
							s4.51,2.02,4.51,4.51C501.28,225.37,499.26,227.4,496.78,227.4z"/>
					</g>
				</g>
				<g>
					<path class="st42" d="M598.46,159.56h-14.24c-0.41,0-0.74-0.33-0.74-0.74s0.33-0.74,0.74-0.74h14.24
						c0.41,0,0.74,0.33,0.74,0.74S598.86,159.56,598.46,159.56z"/>
					<path class="st42" d="M594.53,163.49c-0.19,0-0.38-0.07-0.52-0.22c-0.29-0.29-0.29-0.75,0-1.04l3.41-3.41l-3.41-3.41
						c-0.29-0.29-0.29-0.75,0-1.04c0.29-0.29,0.75-0.29,1.04,0l3.93,3.93c0.29,0.29,0.29,0.75,0,1.04l-3.93,3.93
						C594.91,163.42,594.72,163.49,594.53,163.49z"/>
					<path class="st42" d="M595.27,169.63c-4.47,0-8.41-2.69-10.05-6.85c-0.15-0.38,0.04-0.81,0.42-0.95
						c0.38-0.15,0.81,0.04,0.96,0.42c1.41,3.59,4.82,5.91,8.68,5.91c5.14,0,9.33-4.18,9.33-9.33c0-5.14-4.18-9.33-9.33-9.33
						c-3.86,0-7.27,2.32-8.68,5.91c-0.15,0.38-0.58,0.56-0.96,0.42c-0.38-0.15-0.56-0.58-0.42-0.95c1.64-4.16,5.58-6.85,10.05-6.85
						c5.96,0,10.8,4.85,10.8,10.8C606.07,164.78,601.22,169.63,595.27,169.63z"/>
				</g>
			</g>
		</g>
		<path class="st43" d="M714.66,137.86c-1.5-1.5-3.29-2.7-5.29-3.53c-1.92-0.79-4.02-1.23-6.22-1.23c-2.2,0-4.3,0.44-6.22,1.24
			c-2,0.83-3.79,2.03-5.29,3.53c-1.5,1.5-2.71,3.29-3.53,5.29c-0.79,1.92-1.23,4.02-1.23,6.22c0,2.2,0.44,4.3,1.23,6.22
			c0.83,2,2.04,3.79,3.53,5.29c1.5,1.5,3.29,2.71,5.29,3.53c1.92,0.8,4.02,1.24,6.22,1.24c2.2,0,4.3-0.44,6.22-1.23
			c2-0.83,3.79-2.04,5.29-3.53c1.5-1.5,2.71-3.29,3.53-5.29c0.79-1.92,1.23-4.02,1.23-6.22c0-2.2-0.44-4.3-1.23-6.22
			C717.37,141.15,716.16,139.35,714.66,137.86L714.66,137.86z M708.8,135.71c1.8,0.75,3.43,1.84,4.79,3.21
			c1.36,1.37,2.46,2.99,3.21,4.79c0.72,1.74,1.12,3.64,1.12,5.65c0,2-0.4,3.91-1.12,5.65c-0.75,1.8-1.85,3.43-3.21,4.79
			c-1.36,1.37-2.99,2.46-4.79,3.21c-1.74,0.72-3.65,1.12-5.65,1.12c-2,0-3.91-0.4-5.65-1.12c-1.8-0.75-3.43-1.84-4.8-3.21
			c-1.36-1.36-2.46-2.99-3.21-4.79c-0.72-1.74-1.12-3.65-1.12-5.65c0-2.01,0.4-3.91,1.12-5.65c0.75-1.8,1.84-3.43,3.21-4.79
			c1.37-1.36,2.99-2.46,4.79-3.21c1.74-0.72,3.65-1.12,5.65-1.12C705.16,134.6,707.07,134.99,708.8,135.71L708.8,135.71z
			 M710.6,123.74c1.02,0.29,2.02,0.65,3,1.07c0.99,0.42,1.96,0.9,2.88,1.44c0.94,0.54,1.85,1.15,2.71,1.8
			c0.87,0.66,1.7,1.36,2.48,2.12c0.28,0.27,0.62,0.42,0.97,0.46c0.36,0.04,0.73-0.03,1.06-0.22c2.39-1.38,4.9-2.75,7.24-4.18
			c0.11-0.06,0.23-0.09,0.35-0.11c0.13-0.02,0.27,0,0.4,0.03c0.13,0.04,0.26,0.1,0.37,0.18c0.1,0.08,0.19,0.18,0.26,0.3
			c1.74,2.64,3.49,6.04,5.1,8.84c0.07,0.12,0.11,0.25,0.13,0.37c0.02,0.14,0.01,0.28-0.03,0.41c-0.04,0.13-0.1,0.26-0.18,0.37
			c-0.08,0.1-0.18,0.2-0.3,0.26c-2.15,1.42-4.92,2.84-7.2,4.16c-0.33,0.19-0.58,0.48-0.72,0.81c-0.05,0.12-0.08,0.23-0.11,0.35
			l-0.15,0.05l0.17,0.67c0.13,0.53,0.24,1.06,0.34,1.58c0.09,0.51,0.17,1.05,0.24,1.61c0.07,0.54,0.12,1.09,0.15,1.62
			c0.03,0.52,0.05,1.07,0.05,1.64c0,0.57-0.02,1.11-0.05,1.63c-0.03,0.53-0.08,1.08-0.15,1.62c-0.07,0.56-0.15,1.09-0.24,1.61
			c-0.1,0.53-0.21,1.05-0.34,1.58c-0.1,0.39-0.05,0.79,0.11,1.12c0.16,0.34,0.42,0.62,0.77,0.8l6.37,3.68l0,0l0.75,0.44
			c0.12,0.07,0.22,0.16,0.3,0.26c0.08,0.11,0.14,0.23,0.18,0.37c0.04,0.14,0.05,0.28,0.03,0.41c-0.02,0.13-0.06,0.26-0.13,0.38
			l-4.72,8.18l0,0l-0.38,0.66c-0.07,0.12-0.16,0.22-0.26,0.3c-0.11,0.08-0.23,0.14-0.37,0.18c-0.14,0.04-0.27,0.05-0.41,0.03
			c-0.13-0.02-0.25-0.06-0.37-0.13c-2.28-1.43-4.86-2.8-7.22-4.16c-0.34-0.19-0.7-0.26-1.05-0.22c-0.36,0.04-0.71,0.2-0.98,0.46l0,0
			c-0.78,0.75-1.61,1.46-2.48,2.12c-0.87,0.65-1.77,1.25-2.71,1.8c-0.93,0.54-1.9,1.02-2.9,1.45c-0.98,0.42-2,0.78-3.05,1.08
			c-0.37,0.11-0.68,0.33-0.89,0.61c-0.22,0.29-0.34,0.65-0.34,1.03l0,8.32c0,0.14-0.03,0.27-0.08,0.39
			c-0.05,0.12-0.13,0.24-0.22,0.34c-0.1,0.1-0.21,0.18-0.34,0.23c-0.12,0.05-0.25,0.08-0.39,0.08h-10.21
			c-0.14,0-0.27-0.03-0.39-0.08c-0.13-0.05-0.24-0.13-0.34-0.23c-0.1-0.1-0.18-0.21-0.23-0.34c-0.05-0.12-0.08-0.25-0.08-0.39v-8.32
			c0-0.4-0.14-0.76-0.37-1.06c-0.23-0.3-0.57-0.52-0.94-0.61c-1.02-0.29-2.02-0.65-3-1.07c-0.99-0.42-1.96-0.9-2.88-1.44
			c-0.94-0.54-1.84-1.14-2.71-1.8c-0.87-0.66-1.7-1.36-2.48-2.12c-0.29-0.28-0.65-0.43-1.02-0.47c-0.38-0.03-0.77,0.06-1.09,0.27
			l-7.12,4.11c-0.12,0.07-0.25,0.11-0.38,0.13c-0.14,0.02-0.28,0.01-0.41-0.03c-0.13-0.04-0.26-0.1-0.37-0.18
			c-0.1-0.08-0.19-0.18-0.26-0.3c-1.69-2.95-3.41-5.89-5.1-8.84c-0.07-0.12-0.11-0.25-0.13-0.38c-0.02-0.13-0.01-0.27,0.03-0.41
			c0.04-0.13,0.1-0.26,0.18-0.37c0.08-0.11,0.18-0.19,0.29-0.26l7.21-4.16c0.33-0.19,0.58-0.48,0.72-0.81
			c0.04-0.09,0.07-0.18,0.09-0.27l0.19-0.04l-0.19-0.76c-0.13-0.53-0.24-1.06-0.34-1.58c-0.09-0.51-0.17-1.05-0.24-1.61
			c-0.07-0.54-0.12-1.09-0.15-1.62c-0.03-0.52-0.05-1.07-0.05-1.64s0.02-1.12,0.05-1.64c0.03-0.53,0.08-1.07,0.15-1.62
			c0.07-0.56,0.15-1.1,0.24-1.61c0.1-0.53,0.21-1.05,0.34-1.58c0.1-0.39,0.05-0.79-0.11-1.13c-0.16-0.34-0.43-0.62-0.77-0.8
			l-7.14-4.12c-0.12-0.07-0.22-0.16-0.3-0.26c-0.08-0.1-0.14-0.23-0.18-0.37c-0.04-0.14-0.05-0.28-0.03-0.41
			c0.02-0.13,0.06-0.26,0.13-0.38c1.74-2.59,3.49-6.05,5.1-8.84c0.07-0.12,0.16-0.22,0.26-0.3c0.11-0.08,0.23-0.14,0.37-0.18
			c0.14-0.04,0.28-0.05,0.41-0.03c0.12,0.02,0.25,0.06,0.38,0.13l7.21,4.16c0.34,0.2,0.72,0.26,1.08,0.21
			c0.36-0.05,0.71-0.21,0.97-0.48c0.78-0.75,1.61-1.46,2.47-2.11c0.86-0.65,1.76-1.24,2.7-1.79c0.93-0.54,1.9-1.02,2.9-1.45
			c0.98-0.42,2-0.78,3.05-1.08c0.37-0.11,0.68-0.33,0.89-0.61c0.22-0.29,0.34-0.65,0.34-1.03l0-8.32c0-0.14,0.03-0.27,0.08-0.39
			c0.05-0.12,0.13-0.24,0.23-0.33c0.1-0.1,0.21-0.18,0.34-0.23c0.12-0.05,0.25-0.08,0.39-0.08h10.21c0.14,0,0.27,0.03,0.39,0.08
			c0.13,0.05,0.24,0.13,0.34,0.23c0.19,0.19,0.3,0.45,0.3,0.73v8.32c0,0.4,0.14,0.76,0.37,1.06
			C709.89,123.43,710.22,123.65,710.6,123.74L710.6,123.74z M714.19,123.42c1.05,0.45,2.07,0.96,3.04,1.52
			c1,0.58,1.96,1.21,2.87,1.9c0.91,0.69,1.79,1.44,2.62,2.23c0.03,0.03,0.07,0.05,0.11,0.05c0.04,0.01,0.09,0,0.12-0.02
			c2.42-1.4,4.85-2.79,7.27-4.2c0.29-0.16,0.6-0.25,0.91-0.29c0.32-0.04,0.65-0.01,0.95,0.07c0.32,0.09,0.62,0.23,0.89,0.44
			c0.26,0.2,0.48,0.45,0.65,0.74c1.76,2.85,3.42,5.93,5.1,8.84c0.17,0.3,0.28,0.62,0.32,0.94c0.04,0.34,0.02,0.67-0.07,0.99
			c-0.08,0.32-0.23,0.62-0.44,0.89c-0.2,0.26-0.45,0.48-0.74,0.65c-2.32,1.43-4.83,2.79-7.21,4.16c-0.04,0.02-0.06,0.06-0.08,0.09
			c-0.02,0.04-0.02,0.09-0.01,0.13l0.17,0.67l-0.01,0c0.07,0.33,0.14,0.66,0.2,0.99c0.11,0.58,0.19,1.14,0.26,1.7
			c0.07,0.55,0.12,1.12,0.15,1.71c0.03,0.59,0.05,1.16,0.05,1.72c0,0.56-0.02,1.14-0.05,1.72c-0.04,0.59-0.09,1.16-0.15,1.71
			c-0.07,0.56-0.16,1.12-0.26,1.7c-0.1,0.57-0.22,1.13-0.36,1.67c-0.01,0.05,0,0.09,0.02,0.13c0.02,0.04,0.05,0.08,0.09,0.1
			c2.65,1.41,5.34,3.08,7.95,4.59l-0.09,0.12l0.08,0.1c0.2,0.27,0.35,0.57,0.44,0.89c0.09,0.32,0.11,0.65,0.07,0.99
			c-0.04,0.32-0.15,0.65-0.32,0.94l-5.49,9.5l-0.1-0.06c-0.05,0.05-0.11,0.1-0.17,0.14c-0.27,0.2-0.57,0.35-0.89,0.44
			c-0.32,0.08-0.65,0.11-0.99,0.07c-0.31-0.04-0.63-0.14-0.91-0.3c-2.4-1.27-4.87-2.81-7.24-4.18c-0.03-0.02-0.08-0.03-0.12-0.02
			c-0.04,0.01-0.09,0.02-0.12,0.05c-0.83,0.8-1.7,1.54-2.61,2.23c-0.91,0.69-1.87,1.32-2.87,1.9c-0.98,0.57-2.01,1.08-3.06,1.53
			c-1.05,0.45-2.13,0.83-3.23,1.15c-0.04,0.01-0.08,0.04-0.1,0.07c-0.03,0.04-0.04,0.08-0.04,0.12v8.32c0,0.34-0.07,0.67-0.2,0.97
			c-0.13,0.31-0.32,0.59-0.55,0.82c-0.23,0.23-0.51,0.42-0.82,0.55c-0.3,0.13-0.63,0.19-0.97,0.19h-10.21
			c-0.34,0-0.67-0.07-0.97-0.19c-0.31-0.13-0.59-0.32-0.82-0.55c-0.23-0.23-0.42-0.51-0.55-0.82c-0.13-0.3-0.2-0.63-0.2-0.97v-8.32
			c0-0.05-0.01-0.09-0.04-0.13c-0.03-0.03-0.07-0.06-0.11-0.07l-0.03-0.01c-1.11-0.32-2.18-0.7-3.21-1.14
			c-1.05-0.45-2.07-0.96-3.05-1.52c-1-0.58-1.96-1.21-2.87-1.9c-0.91-0.69-1.79-1.44-2.62-2.23c-0.03-0.03-0.08-0.05-0.12-0.06
			c-0.04,0-0.09,0.01-0.13,0.03l-7.2,4.16c-0.3,0.17-0.61,0.27-0.94,0.31c-0.33,0.04-0.67,0.02-0.99-0.07
			c-0.32-0.09-0.62-0.23-0.89-0.44c-0.25-0.19-0.47-0.44-0.64-0.72c-1.89-3.04-3.68-6.38-5.49-9.5l0.1-0.06
			c-0.02-0.08-0.03-0.16-0.04-0.24c-0.04-0.34-0.02-0.67,0.07-0.99c0.08-0.32,0.23-0.62,0.44-0.89c0.2-0.26,0.45-0.48,0.74-0.65
			l7.21-4.16c0.04-0.02,0.06-0.05,0.08-0.09c0.02-0.04,0.02-0.09,0.01-0.13l-0.19-0.76l0.01,0c-0.07-0.3-0.13-0.6-0.18-0.9
			c-0.11-0.58-0.19-1.14-0.26-1.7c-0.07-0.55-0.12-1.12-0.15-1.71c-0.03-0.59-0.05-1.16-0.05-1.72s0.02-1.14,0.05-1.72
			c0.03-0.59,0.09-1.16,0.15-1.71c0.07-0.55,0.15-1.12,0.26-1.7c0.1-0.57,0.22-1.13,0.36-1.67c0.01-0.04,0-0.09-0.01-0.13
			c-0.02-0.04-0.05-0.07-0.09-0.09l-7.2-4.16c-0.3-0.17-0.55-0.39-0.74-0.65c-0.2-0.27-0.35-0.57-0.44-0.89
			c-0.09-0.32-0.11-0.65-0.07-0.99c0.04-0.32,0.14-0.63,0.3-0.92c1.71-3.18,3.68-6.38,5.5-9.52l0.1,0.06
			c0.05-0.05,0.11-0.1,0.17-0.14c0.27-0.2,0.57-0.35,0.89-0.44c0.32-0.08,0.65-0.11,0.99-0.07c0.33,0.04,0.64,0.14,0.94,0.31
			l0.53,0.31l0,0.01l6.68,3.86c0.04,0.02,0.09,0.03,0.13,0.03c0.04-0.01,0.08-0.03,0.11-0.06l0.02-0.02
			c0.82-0.79,1.69-1.53,2.61-2.22c0.91-0.69,1.87-1.32,2.85-1.89c0.98-0.57,2.01-1.08,3.06-1.53c1.05-0.45,2.13-0.83,3.23-1.15
			c0.04-0.01,0.08-0.04,0.11-0.07c0.03-0.04,0.04-0.08,0.04-0.12v-8.32c0-0.34,0.07-0.67,0.2-0.97c0.13-0.31,0.32-0.59,0.55-0.82
			c0.23-0.23,0.51-0.42,0.82-0.55c0.3-0.13,0.63-0.19,0.97-0.19h10.21c0.34,0,0.67,0.07,0.97,0.19c0.31,0.13,0.59,0.32,0.82,0.55
			c0.46,0.46,0.75,1.1,0.75,1.79v8.32c0,0.05,0.02,0.09,0.04,0.13c0.03,0.03,0.07,0.06,0.11,0.07l0.03,0.01
			C712.09,122.6,713.16,122.98,714.19,123.42z"/>
	</g>
</g>
<g id="DESIGNED_BY_FREEPIK">
</g>
</svg>
