<svg xmlns="http://www.w3.org/2000/svg" xmlns:xlink="http://www.w3.org/1999/xlink" viewBox="0 0 240 240"><defs><style>.cls-1{isolation:isolate;}.cls-2{fill:#ed641e;}.cls-3,.cls-9{opacity:0.45;}.cls-3{fill:url(#Degradado_sin_nombre_10);}.cls-4{fill:#6f87ed;}.cls-5{fill:#ff8482;}.cls-6{fill:#ff5b59;}.cls-7{fill:#fff;}.cls-10,.cls-8{fill:#fdb193;}.cls-9{fill:url(#Degradado_sin_nombre_11);}.cls-10{opacity:0.46;mix-blend-mode:multiply;}.cls-11{fill:#fdd5c5;}.cls-12{fill:#ff6a68;}.cls-13{fill:#25110d;}.cls-14{fill:#9e4415;}</style><linearGradient id="Degradado_sin_nombre_10" x1="118.83" y1="187.7" x2="120.97" y2="104.85" gradientUnits="userSpaceOnUse"><stop offset="0" stop-color="#730300"/><stop offset="0.21" stop-color="#730300" stop-opacity="0.79"/><stop offset="0.89" stop-color="#730300" stop-opacity="0"/></linearGradient><linearGradient id="Degradado_sin_nombre_11" x1="118.37" y1="207.62" x2="117.94" y2="116.66" gradientUnits="userSpaceOnUse"><stop offset="0" stop-color="#fffcd8"/><stop offset="0.21" stop-color="#fffcd8" stop-opacity="0.79"/><stop offset="0.89" stop-color="#fffcd8" stop-opacity="0"/></linearGradient></defs><g class="cls-1"><g id="OBJECTS"><path class="cls-2" d="M200.73,135.36c-1.34-8.12-5.61-14.36-10-19.53-.06-.07-.11-.14-.17-.2a23,23,0,0,1-5.47-15.75c.78-17.4-5.71-46.9-41.46-63a34,34,0,0,0-9.9-3c-.59-.23-1.18-.46-1.78-.66a46,46,0,0,0-6.35-1.71,47.6,47.6,0,0,0-9-.85h0a22.66,22.66,0,0,0-4.78.53C93.34,35.22,92.67,48.41,92.67,48.41c-29.85,2.73-38,34.07-37.18,51.47A23,23,0,0,1,50,115.63l-.17.2a44.63,44.63,0,0,0-8.78,14.69,48.51,48.51,0,0,0-3.27,17.77c0,32.32,37.84,59.49,82.5,59.49S202,191.16,202,145.27A41,41,0,0,0,200.73,135.36Z"/><path class="cls-3" d="M200.73,135.36c-1.34-8.12-5.61-14.36-10-19.53-.06-.07-.11-.14-.17-.2a23,23,0,0,1-5.47-15.75c.78-17.4-5.71-46.9-41.46-63a34,34,0,0,0-9.9-3c-.59-.23-1.18-.46-1.78-.66a46,46,0,0,0-6.35-1.71,47.6,47.6,0,0,0-9-.85h0a22.66,22.66,0,0,0-4.78.53C93.34,35.22,92.67,48.41,92.67,48.41c-29.85,2.73-38,34.07-37.18,51.47A23,23,0,0,1,50,115.63l-.17.2a44.63,44.63,0,0,0-8.78,14.69,48.51,48.51,0,0,0-3.27,17.77c0,32.32,37.84,59.49,82.5,59.49S202,191.16,202,145.27A41,41,0,0,0,200.73,135.36Z"/><path class="cls-4" d="M164,190.69c-25.32-10.19-33.66-22.86-31.5-41.08H104.6c2.16,18.22-6.18,30.89-31.5,41.08S44.38,212,44.38,212v28H192.67V212S189.28,200.88,164,190.69Z"/><path class="cls-5" d="M145.17,180.45c-10.69-8.3-14.22-18.24-12.72-30.84H104.6c1.5,12.6-2,22.54-12.72,30.84h0a12.66,12.66,0,0,0,12.66,12.66h28a12.66,12.66,0,0,0,12.66-12.66Z"/><path class="cls-6" d="M118,178.77a43.09,43.09,0,0,0,20.33-5.12c-5.28-6.83-6.94-14.7-5.83-24H104.6c1.13,9.53-.62,17.53-6.16,24.46A42.94,42.94,0,0,0,118,178.77Z"/><path class="cls-7" d="M93.09,185.82a12.65,12.65,0,0,0,11.45,7.29h28A12.65,12.65,0,0,0,144,185.82Z"/><path class="cls-5" d="M82.14,116.51c4.67,8.93,2.71,19.17-4.37,22.87s-16.6-.54-21.27-9.46-2.71-19.17,4.37-22.87S77.48,107.58,82.14,116.51Z"/><path class="cls-6" d="M78.05,133.56c0-.37-.1-.68-.14-1a5.27,5.27,0,0,1,.11.63,13.31,13.31,0,0,0-.77-4.47,21.67,21.67,0,0,0-17.82-16.64,46.68,46.68,0,0,1,14.39,13c-5.08-2.07-12.93,2.32-12.93,2.32,9.32-2.47,13.56-.43,15.5,1.94A21.14,21.14,0,0,1,78.05,133.56Z"/><path class="cls-2" d="M75.89,134.87l24.92-8L93.89,86.92l-19.2-2.33c-13.68,31.15,1.2,50.28,1.2,50.28"/><path class="cls-5" d="M153.75,116.51c-4.67,8.93-2.71,19.17,4.37,22.87s16.6-.54,21.27-9.46,2.71-19.17-4.37-22.87S158.42,107.58,153.75,116.51Z"/><path class="cls-6" d="M157.84,133.56c0-.37.1-.68.14-1,0,.25-.09.46-.11.63a13.31,13.31,0,0,1,.77-4.47,21.67,21.67,0,0,1,17.82-16.64,46.8,46.8,0,0,0-14.39,13c5.08-2.07,12.93,2.32,12.93,2.32-9.32-2.47-13.55-.43-15.5,1.94A21.14,21.14,0,0,0,157.84,133.56Z"/><path class="cls-2" d="M160,134.87l-24.93-8L142,86.92l19.2-2.33c13.68,31.15-1.19,50.28-1.19,50.28"/><path class="cls-8" d="M104.9,65.72A29.92,29.92,0,0,0,75,95.33l-.3,28.52c0,26.08,19.37,47.23,43.26,47.23s43.25-21.15,43.25-47.23l-.08-30.26a28,28,0,0,0-27.94-27.87Z"/><path class="cls-9" d="M104.9,65.72A29.92,29.92,0,0,0,75,95.33l-.3,28.52c0,26.08,19.37,47.23,43.26,47.23s43.25-21.15,43.25-47.23l-.08-30.26a28,28,0,0,0-27.94-27.87Z"/><path class="cls-10" d="M109.52,145.56s8.92,3.87,14.6-.82C124.12,144.74,117.63,154.93,109.52,145.56Z"/><path class="cls-10" d="M161.12,93.59a28,28,0,0,0-27.94-27.87H104.9A29.92,29.92,0,0,0,75,95.33l-.2,18.75a50.25,50.25,0,0,0,28.53-31.6s21.9,25.5,57.85,31.71Z"/><path class="cls-2" d="M165.5,51.24a78.9,78.9,0,0,0-13.08-9.66v.13c-.59-.36-1.17-.73-1.78-1.08a99,99,0,0,0-8.81-4.53,31.92,31.92,0,0,0-8.08-2.25c-.59-.23-1.18-.46-1.78-.66a46,46,0,0,0-6.35-1.71c-.58-.11-1.16-.2-1.74-.29l-.25,0S98.86,41.48,96,58.12L79.7,62.36,69.32,75l4,32.26a55.16,55.16,0,0,0,26.11-36.2c11.26,13.42,48.17,35.39,61.74,37l23.13-21.36A62.44,62.44,0,0,0,165.5,51.24Z"/><path class="cls-11" d="M118,163.43A49.92,49.92,0,0,1,79.7,145.91c7.26,15,21.66,25.17,38.25,25.17s31-10.21,38.24-25.17A49.92,49.92,0,0,1,118,163.43Z"/><path class="cls-12" d="M124.12,124.55c0,4.09-2.76,7.41-6.18,7.41s-6.17-3.32-6.17-7.41,2.76-9.21,6.17-9.21S124.12,120.46,124.12,124.55Z"/><path class="cls-13" d="M140.21,111.39c0,3.4-1.15,6.15-2.57,6.15s-2.56-2.75-2.56-6.15,1.14-6.14,2.56-6.14S140.21,108,140.21,111.39Z"/><path class="cls-14" d="M149.73,104.67c.33-.19-13.89-9.18-22.67-8.86-.11.15.18-7.84,11.82-3.66C150.17,96.81,149.63,104.8,149.73,104.67Z"/><path class="cls-13" d="M95.68,111.39c0,3.4,1.15,6.15,2.57,6.15s2.56-2.75,2.56-6.15-1.14-6.14-2.56-6.14S95.68,108,95.68,111.39Z"/><path class="cls-14" d="M84.86,104.67c-.33-.19,13.89-9.18,22.67-8.86.11.15-.17-7.84-11.82-3.66C84.42,96.81,85,104.8,84.86,104.67Z"/><path class="cls-12" d="M92.1,132.26a1.25,1.25,0,0,1-.5-.11,1.15,1.15,0,0,1-.53-1.52l3.59-7.42a1.13,1.13,0,1,1,2,1l-3.58,7.42A1.15,1.15,0,0,1,92.1,132.26Z"/><path class="cls-12" d="M84.93,132.26a1.25,1.25,0,0,1-.5-.11,1.14,1.14,0,0,1-.52-1.52l3.58-7.42a1.14,1.14,0,1,1,2.05,1L86,131.62A1.13,1.13,0,0,1,84.93,132.26Z"/><path class="cls-12" d="M143.11,132.26a1.15,1.15,0,0,1-1-.64l-3.59-7.42a1.14,1.14,0,0,1,2.05-1l3.59,7.42a1.15,1.15,0,0,1-.53,1.52A1.25,1.25,0,0,1,143.11,132.26Z"/><path class="cls-12" d="M150.28,132.26a1.13,1.13,0,0,1-1-.64l-3.59-7.42a1.14,1.14,0,0,1,2.05-1l3.58,7.42a1.13,1.13,0,0,1-.53,1.52A1.17,1.17,0,0,1,150.28,132.26Z"/><path class="cls-12" d="M107.79,140.52a16.55,16.55,0,0,1-1.49-1.07,1.22,1.22,0,1,1,1.52-1.9c.41.33,10.17,8,17.12,1a1.22,1.22,0,0,1,1.72,1.72C120.59,146.35,112.38,143.52,107.79,140.52Z"/></g></g></svg>