<?xml version="1.0" encoding="utf-8"?>
<!-- Generator: Adobe Illustrator 24.1.2, SVG Export Plug-In . SVG Version: 6.00 Build 0)  -->
<svg version="1.1" id="Layer_1" xmlns="http://www.w3.org/2000/svg" xmlns:xlink="http://www.w3.org/1999/xlink" x="0px" y="0px"
	 viewBox="0 0 240 240" style="enable-background:new 0 0 240 240;" xml:space="preserve">
<style type="text/css">
	.st0{fill:#7CEDAB;}
	.st1{fill:#ED641E;}
	.st2{opacity:0.45;fill:url(#SVGID_1_);enable-background:new    ;}
	.st3{fill:#6F87ED;}
	.st4{fill:#FF8482;}
	.st5{fill:#FF5B59;}
	.st6{fill:#FFFFFF;}
	.st7{fill:#FDB193;}
	.st8{opacity:0.45;fill:url(#SVGID_2_);enable-background:new    ;}
	.st9{opacity:0.46;fill:#FDB193;enable-background:new    ;}
	.st10{fill:#FDD5C5;}
	.st11{fill:#FF6A68;}
	.st12{fill:#25110D;}
	.st13{fill:#9E4415;}
</style>
<rect class="st0" width="240" height="240"/>
<g>
	<g id="OBJECTS">
		<path class="st1" d="M200.7,135.4c-1.3-8.1-5.6-14.4-10-19.5c-0.1-0.1-0.1-0.1-0.2-0.2c-3.7-4.4-5.7-10-5.5-15.8
			c0.8-17.4-5.7-46.9-41.5-63c-3.1-1.5-6.5-2.5-9.9-3c-0.6-0.2-1.2-0.5-1.8-0.7c-2.1-0.7-4.2-1.3-6.3-1.7c-3-0.6-6-0.9-9-0.9l0,0
			c-1.6,0-3.2,0.2-4.8,0.5c-18.5,4-19.2,17.2-19.2,17.2c-29.8,2.7-38,34.1-37.2,51.5c0.2,5.8-1.8,11.4-5.5,15.7l-0.2,0.2
			c-3.8,4.3-6.8,9.3-8.8,14.7c-2.2,5.7-3.3,11.7-3.3,17.8c0,32.3,37.8,59.5,82.5,59.5s81.7-16.6,81.7-62.5
			C202,141.9,201.6,138.6,200.7,135.4z"/>
		
			<linearGradient id="SVGID_1_" gradientUnits="userSpaceOnUse" x1="118.8353" y1="52.2999" x2="120.9752" y2="135.1499" gradientTransform="matrix(1 0 0 -1 0 240)">
			<stop  offset="0" style="stop-color:#730300"/>
			<stop  offset="0.21" style="stop-color:#730300;stop-opacity:0.79"/>
			<stop  offset="0.89" style="stop-color:#730300;stop-opacity:0"/>
		</linearGradient>
		<path class="st2" d="M200.7,135.4c-1.3-8.1-5.6-14.4-10-19.5c-0.1-0.1-0.1-0.1-0.2-0.2c-3.7-4.4-5.7-10-5.5-15.8
			c0.8-17.4-5.7-46.9-41.5-63c-3.1-1.5-6.5-2.5-9.9-3c-0.6-0.2-1.2-0.5-1.8-0.7c-2.1-0.7-4.2-1.3-6.3-1.7c-3-0.6-6-0.9-9-0.9l0,0
			c-1.6,0-3.2,0.2-4.8,0.5c-18.5,4-19.2,17.2-19.2,17.2c-29.8,2.7-38,34.1-37.2,51.5c0.2,5.8-1.8,11.4-5.5,15.7l-0.2,0.2
			c-3.8,4.3-6.8,9.3-8.8,14.7c-2.2,5.7-3.3,11.7-3.3,17.8c0,32.3,37.8,59.5,82.5,59.5s81.7-16.6,81.7-62.5
			C202,141.9,201.6,138.6,200.7,135.4z"/>
		<path class="st3" d="M164,190.7c-25.3-10.2-33.7-22.9-31.5-41.1h-27.9c2.2,18.2-6.2,30.9-31.5,41.1S44.4,212,44.4,212v28h148.3
			v-28C192.7,212,189.3,200.9,164,190.7z"/>
		<path class="st4" d="M145.2,180.4c-10.7-8.3-14.2-18.2-12.7-30.8h-27.8c1.5,12.6-2,22.5-12.7,30.8l0,0c0,7,5.7,12.7,12.7,12.7l0,0
			h28C139.5,193.1,145.2,187.4,145.2,180.4C145.2,180.4,145.2,180.4,145.2,180.4L145.2,180.4z"/>
		<path class="st5" d="M118,178.8c7.1,0,14.1-1.8,20.3-5.1c-5.3-6.8-6.9-14.7-5.8-24h-27.9c1.1,9.5-0.6,17.5-6.2,24.5
			C104.5,177.2,111.2,178.8,118,178.8z"/>
		<path class="st6" d="M93.1,185.8c2.1,4.4,6.5,7.3,11.4,7.3h28c4.9,0,9.4-2.8,11.5-7.3H93.1z"/>
		<path class="st4" d="M82.1,116.5c4.7,8.9,2.7,19.2-4.4,22.9s-16.6-0.5-21.3-9.5s-2.7-19.2,4.4-22.9S77.5,107.6,82.1,116.5z"/>
		<path class="st5" d="M78.1,133.6c0-0.4-0.1-0.7-0.1-1c0,0.2,0.1,0.4,0.1,0.6c0-1.5-0.3-3-0.8-4.5c-2-8.7-9-15.3-17.8-16.6
			c5.7,3.3,10.6,7.7,14.4,13c-5.1-2.1-12.9,2.3-12.9,2.3c9.3-2.5,13.6-0.4,15.5,1.9C77.1,130.7,77.6,132.1,78.1,133.6z"/>
		<path class="st1" d="M75.9,134.9l24.9-8l-6.9-39.9l-19.2-2.3C61,115.7,75.9,134.9,75.9,134.9"/>
		<path class="st4" d="M153.8,116.5c-4.7,8.9-2.7,19.2,4.4,22.9s16.6-0.5,21.3-9.5s2.7-19.2-4.4-22.9S158.4,107.6,153.8,116.5z"/>
		<path class="st5" d="M157.8,133.6c0-0.4,0.1-0.7,0.1-1c0,0.3-0.1,0.5-0.1,0.6c0-1.5,0.3-3,0.8-4.5c2-8.7,9-15.3,17.8-16.6
			c-5.7,3.3-10.6,7.7-14.4,13c5.1-2.1,12.9,2.3,12.9,2.3c-9.3-2.5-13.6-0.4-15.5,1.9C158.8,130.7,158.2,132.1,157.8,133.6z"/>
		<path class="st1" d="M160,134.9l-24.9-8l6.9-39.9l19.2-2.3C174.9,115.7,160,134.9,160,134.9"/>
		<path class="st7" d="M104.9,65.7c-16.4,0-29.7,13.2-29.9,29.6l-0.3,28.5c0,26.1,19.4,47.2,43.3,47.2s43.3-21.1,43.3-47.2
			l-0.1-30.3c-0.1-15.4-12.6-27.8-27.9-27.9H104.9z"/>
		
			<linearGradient id="SVGID_2_" gradientUnits="userSpaceOnUse" x1="118.3822" y1="32.3801" x2="117.9522" y2="123.34" gradientTransform="matrix(1 0 0 -1 0 240)">
			<stop  offset="0" style="stop-color:#FFFCD8"/>
			<stop  offset="0.21" style="stop-color:#FFFCD8;stop-opacity:0.79"/>
			<stop  offset="0.89" style="stop-color:#FFFCD8;stop-opacity:0"/>
		</linearGradient>
		<path class="st8" d="M104.9,65.7c-16.4,0-29.7,13.2-29.9,29.6l-0.3,28.5c0,26.1,19.4,47.2,43.3,47.2s43.3-21.1,43.3-47.2
			l-0.1-30.3c-0.1-15.4-12.6-27.8-27.9-27.9H104.9z"/>
		<path class="st9" d="M109.5,145.6c0,0,8.9,3.9,14.6-0.8C124.1,144.7,117.6,154.9,109.5,145.6z"/>
		<path class="st9" d="M161.1,93.6c-0.1-15.4-12.6-27.8-27.9-27.9h-28.3c-16.4,0-29.7,13.2-29.9,29.6l-0.2,18.8
			c13.7-5.8,24.2-17.4,28.5-31.6c0,0,21.9,25.5,57.8,31.7L161.1,93.6z"/>
		<path class="st1" d="M165.5,51.2c-4-3.7-8.4-6.9-13.1-9.7v0.1c-0.6-0.4-1.2-0.7-1.8-1.1c-2.9-1.7-5.8-3.2-8.8-4.5
			c-2.6-1.1-5.3-1.9-8.1-2.3c-0.6-0.2-1.2-0.5-1.8-0.7c-2.1-0.7-4.2-1.3-6.3-1.7c-0.6-0.1-1.2-0.2-1.7-0.3h-0.3
			c0,0-24.8,10.3-27.6,26.9l-16.3,4.2L69.3,75l4,32.3c13.4-7.8,22.9-21,26.1-36.2c11.3,13.4,48.2,35.4,61.7,37l23.1-21.4
			C182.1,73.1,175.5,60.7,165.5,51.2z"/>
		<path class="st10" d="M118,163.4c-14.7,0.1-28.7-6.3-38.3-17.5c7.3,15,21.7,25.2,38.3,25.2s31-10.2,38.2-25.2
			C146.7,157.1,132.7,163.5,118,163.4z"/>
		<path class="st11" d="M124.1,124.6c0,4.1-2.8,7.4-6.2,7.4s-6.2-3.3-6.2-7.4s2.8-9.2,6.2-9.2S124.1,120.5,124.1,124.6z"/>
		<path class="st12" d="M140.2,111.4c0,3.4-1.1,6.2-2.6,6.2s-2.6-2.8-2.6-6.2s1.1-6.1,2.6-6.1S140.2,108,140.2,111.4z"/>
		<path class="st13" d="M149.7,104.7c0.3-0.2-13.9-9.2-22.7-8.9c-0.1,0.2,0.2-7.8,11.8-3.7C150.2,96.8,149.6,104.8,149.7,104.7z"/>
		<path class="st12" d="M95.7,111.4c0,3.4,1.2,6.2,2.6,6.2s2.6-2.8,2.6-6.2s-1.1-6.1-2.6-6.1S95.7,108,95.7,111.4z"/>
		<path class="st13" d="M84.9,104.7c-0.3-0.2,13.9-9.2,22.7-8.9c0.1,0.2-0.2-7.8-11.8-3.7C84.4,96.8,85,104.8,84.9,104.7z"/>
		<path class="st11" d="M92.1,132.3c-0.2,0-0.3,0-0.5-0.1c-0.6-0.3-0.8-1-0.5-1.5l3.6-7.4c0.2-0.6,0.8-0.9,1.4-0.7
			c0.6,0.2,0.9,0.8,0.7,1.4c0,0.1-0.1,0.2-0.1,0.3l-3.6,7.4C92.9,132,92.5,132.2,92.1,132.3z"/>
		<path class="st11" d="M84.9,132.3c-0.2,0-0.3,0-0.5-0.1c-0.6-0.3-0.8-1-0.5-1.5l3.6-7.4c0.3-0.6,1-0.8,1.5-0.5s0.8,1,0.5,1.5
			l-3.5,7.4C85.8,132,85.4,132.3,84.9,132.3z"/>
		<path class="st11" d="M143.1,132.3c-0.4,0-0.8-0.3-1-0.6l-3.6-7.4c-0.3-0.6,0-1.2,0.5-1.5c0.6-0.3,1.2,0,1.5,0.5l0,0l3.6,7.4
			c0.3,0.6,0,1.2-0.5,1.5C143.5,132.2,143.3,132.3,143.1,132.3z"/>
		<path class="st11" d="M150.3,132.3c-0.4,0-0.8-0.3-1-0.6l-3.6-7.4c-0.3-0.6,0-1.2,0.5-1.5c0.6-0.3,1.2,0,1.5,0.5l0,0l3.6,7.4
			c0.3,0.6,0,1.2-0.5,1.5c0,0,0,0,0,0C150.6,132.2,150.5,132.3,150.3,132.3z"/>
		<path class="st11" d="M107.8,140.5c-0.5-0.3-1-0.7-1.5-1.1c-0.6-0.4-0.7-1.1-0.3-1.7c0.4-0.6,1.1-0.7,1.7-0.3
			c0.1,0,0.1,0.1,0.1,0.1c0.4,0.3,10.2,8,17.1,1c0.5-0.4,1.3-0.4,1.7,0.1c0.4,0.5,0.4,1.1,0,1.6
			C120.6,146.4,112.4,143.5,107.8,140.5z"/>
	</g>
</g>
</svg>
