<?xml version="1.0" encoding="utf-8"?>
<!-- Generator: Adobe Illustrator 24.1.2, SVG Export Plug-In . SVG Version: 6.00 Build 0)  -->
<svg version="1.1" id="Layer_1" xmlns="http://www.w3.org/2000/svg" xmlns:xlink="http://www.w3.org/1999/xlink" x="0px" y="0px"
	 viewBox="0 0 799.9 799.9" style="enable-background:new 0 0 799.9 799.9;" xml:space="preserve">
<style type="text/css">
	.st0{fill:#7CEDAB;}
	.st1{fill:#74C193;}
	.st2{fill:#B4FCD1;}
	.st3{fill-rule:evenodd;clip-rule:evenodd;fill:#B4FCD1;}
	.st4{fill:none;stroke:#83C6AF;stroke-width:2.4;stroke-miterlimit:22.93;}
	.st5{fill:none;stroke:#D9ECFA;stroke-width:2.4;stroke-miterlimit:22.93;}
	.st6{fill:none;stroke:#99E0FD;stroke-width:2.4;stroke-miterlimit:22.93;}
	.st7{fill-rule:evenodd;clip-rule:evenodd;fill:#74C193;}
	.st8{fill:#5E9173;}
	.st9{fill-rule:evenodd;clip-rule:evenodd;fill:#628D81;}
	.st10{fill-rule:evenodd;clip-rule:evenodd;fill:#F1F1F1;}
	.st11{fill-rule:evenodd;clip-rule:evenodd;fill:#FFFFFF;}
	.st12{fill-rule:evenodd;clip-rule:evenodd;fill:#E4E4E4;}
	.st13{fill-rule:evenodd;clip-rule:evenodd;fill:#D8AD8D;}
	.st14{fill-rule:evenodd;clip-rule:evenodd;fill:#3E6357;}
	.st15{fill-rule:evenodd;clip-rule:evenodd;fill:#7CAA9F;}
	.st16{fill-rule:evenodd;clip-rule:evenodd;fill:#EAC2A3;}
	.st17{fill-rule:evenodd;clip-rule:evenodd;fill:#D39F25;}
	.st18{fill-rule:evenodd;clip-rule:evenodd;fill:#4E4E4E;}
	.st19{fill:#D39F25;}
	.st20{fill-rule:evenodd;clip-rule:evenodd;fill:#C49571;}
	.st21{fill-rule:evenodd;clip-rule:evenodd;fill:#EABAAA;}
	.st22{fill:#EEBF2F;}
	.st23{fill-rule:evenodd;clip-rule:evenodd;fill:#7F7F7F;}
	.st24{fill-rule:evenodd;clip-rule:evenodd;fill:#CACACA;}
	.st25{fill:none;stroke:#E4E4E4;stroke-width:2.4;stroke-miterlimit:22.93;}
	.st26{fill:#E4E4E4;}
	.st27{fill-rule:evenodd;clip-rule:evenodd;fill:#7592A8;}
	.st28{fill-rule:evenodd;clip-rule:evenodd;fill:#9FBDD1;}
	.st29{fill-rule:evenodd;clip-rule:evenodd;fill:#A73B4F;}
	.st30{fill-rule:evenodd;clip-rule:evenodd;fill:#992F43;}
	.st31{fill-rule:evenodd;clip-rule:evenodd;fill:#EEBF2F;}
</style>
<g id="BACKGROUND">
	<rect class="st0" width="799.9" height="799.9"/>
	<rect x="441.7" y="260.6" class="st1" width="326" height="18.2"/>
	<rect x="441.7" y="242.4" class="st2" width="326" height="18.2"/>
	<polygon class="st3" points="689.6,351.8 698.3,351.8 708.3,260.6 679.7,260.6 	"/>
	<polygon class="st3" points="511.1,351.8 519.8,351.8 529.7,260.6 501.1,260.6 	"/>
	<rect x="482.9" y="92.9" class="st1" width="25.2" height="149.5"/>
	<rect x="492.3" y="113.1" class="st2" width="6.4" height="119.1"/>
	<rect x="508.1" y="120.1" class="st2" width="30.4" height="122.3"/>
	<line class="st4" x1="515.6" y1="177.4" x2="515.6" y2="229.5"/>
	<line class="st4" x1="523" y1="177.4" x2="523" y2="229.5"/>
	<line class="st4" x1="530.4" y1="177.4" x2="530.4" y2="229.5"/>
	<rect x="515.5" y="133" class="st4" width="14.9" height="38.5"/>
	
		<rect x="557.7" y="121" transform="matrix(0.948 -0.3181 0.3181 0.948 -28.5842 189.1922)" class="st1" width="14.4" height="122.3"/>
	<path class="st3" d="M548.3,132.4c1.9-0.7,4.1,0.4,4.7,2.3c0.7,1.9-0.4,4.1-2.3,4.7c-1.9,0.7-4.1-0.4-4.7-2.3c0,0,0,0,0,0
		C545.3,135.2,546.3,133.1,548.3,132.4C548.3,132.4,548.3,132.4,548.3,132.4z"/>
	
		<rect x="564.3" y="144.8" transform="matrix(0.948 -0.3181 0.3181 0.948 -31.2898 190.6187)" class="st2" width="7.4" height="92.5"/>
	
		<rect x="577.8" y="149.4" transform="matrix(0.948 -0.3181 0.3181 0.948 -31.9525 196.2865)" class="st2" width="14.4" height="93.1"/>
	<line class="st4" x1="572.8" y1="159.8" x2="597.2" y2="232.2"/>
	
		<rect x="590.9" y="136.4" transform="matrix(0.948 -0.3181 0.3181 0.948 -29.5713 199.19)" class="st1" width="8.4" height="107.4"/>
	<line class="st5" x1="584" y1="144" x2="576.1" y2="146.7"/>
	<line class="st5" x1="585.6" y1="148.7" x2="577.6" y2="151.4"/>
	<line class="st6" x1="614.6" y1="235.1" x2="606.6" y2="237.8"/>
	<path class="st3" d="M605.5,166.2l23,69.2l-10.3,3.4l-23-69.2c-0.9-2.8,0.6-5.9,3.4-6.8l0,0C601.5,161.9,604.5,163.4,605.5,166.2z"
		/>
	<path class="st7" d="M607.5,165.2l24,72.4l-2.1,0.7l-23.9-72.1c-1-2.8-4-4.4-6.8-3.4l0,0c-2.8,0.9-4.4,4-3.4,6.8l23.9,72.1
		l-2.1,0.7L593,170c-1.3-4,0.9-8.3,4.8-9.6l0,0C601.9,159,606.2,161.2,607.5,165.2C607.5,165.2,607.5,165.2,607.5,165.2z"/>
	<path class="st3" d="M641.9,187.6h92.2v-17.1h-92.2c-4.7,0-8.5,3.8-8.5,8.5l0,0C633.4,183.8,637.2,187.6,641.9,187.6z"/>
	<path class="st7" d="M641.4,191.1h97.5v-3.5h-97c-4.7,0-8.5-3.8-8.5-8.5l0,0c0-4.7,3.8-8.5,8.5-8.5h97V167h-97.5
		c-6.6,0-12,5.4-12,12l0,0C629.4,185.6,634.7,191.1,641.4,191.1z"/>
	<path class="st3" d="M754.6,208.6h-97.8v-14.5h97.8c4,0,7.2,3.3,7.3,7.3l0,0C761.8,205.3,758.6,208.6,754.6,208.6z"/>
	<path class="st7" d="M755,211.6H652.7v-3h101.9c4,0,7.2-3.3,7.3-7.3l0,0c0-4-3.3-7.2-7.3-7.3H652.7v-3H755
		c5.6,0,10.2,4.6,10.2,10.2l0,0C765.2,207,760.7,211.6,755,211.6z"/>
	<path class="st3" d="M728.9,213.8h-90.2v10.9h90.2c3,0,5.4-2.4,5.5-5.5l0,0C734.4,216.3,731.9,213.8,728.9,213.8z"/>
	<path class="st7" d="M729.3,211.6h-93.6v2.2h93.3c3,0,5.5,2.5,5.5,5.5l0,0c0,3-2.4,5.4-5.5,5.5h-93.3v2.3h93.6
		c4.3,0,7.7-3.4,7.7-7.7l0,0C737,215,733.5,211.6,729.3,211.6z"/>
	<path class="st3" d="M733.8,229.2h-90.2v10.9h90.2c3,0,5.5-2.5,5.5-5.5l0,0C739.2,231.7,736.8,229.2,733.8,229.2z"/>
	<path class="st7" d="M734.1,227h-93.6v2.3h93.3c3,0,5.5,2.4,5.5,5.5l0,0c0,3-2.4,5.5-5.5,5.5h-93.3v2.2h93.6c4.2,0,7.7-3.5,7.7-7.7
		l0,0C741.8,230.5,738.4,227,734.1,227z"/>
	<polygon class="st7" points="751.5,200.2 743.4,200.2 743.4,208.6 743.4,217 747.5,212.2 751.5,217 	"/>
	<rect x="32.2" y="260.6" class="st1" width="326" height="18.2"/>
	<rect x="32.2" y="242.4" class="st2" width="326" height="18.2"/>
	<polygon class="st3" points="280.1,351.8 288.9,351.8 298.8,260.6 270.2,260.6 	"/>
	<polygon class="st3" points="101.6,351.8 110.3,351.8 120.3,260.6 91.7,260.6 	"/>
	<path class="st3" d="M189.8,213.7h-113v23.8h113c6.6,0,11.9-5.4,11.9-11.9l0,0C201.7,219.1,196.4,213.7,189.8,213.7z"/>
	<path class="st7" d="M190.5,208.8H70.1v4.9h119.7c6.6,0,11.9,5.4,11.9,11.9l0,0c0,6.6-5.4,11.9-11.9,11.9H70.1v4.9h120.4
		c9.3,0,16.8-7.5,16.8-16.8l0,0C207.3,216.4,199.8,208.8,190.5,208.8z"/>
	<path class="st3" d="M61.7,193h115.1v13.1H61.7c-3.6,0-6.6-2.9-6.6-6.6l0,0C55.1,196,58,193,61.7,193z"/>
	<path class="st7" d="M61.3,190.3h119.2v2.7H61.7c-3.6,0-6.6,3-6.6,6.6l0,0c0,3.6,2.9,6.6,6.6,6.6h118.8v2.7H61.3
		c-5.1,0-9.3-4.2-9.3-9.3l0,0C52,194.4,56.2,190.3,61.3,190.3z"/>
	<path class="st3" d="M176.1,164.4H74.2v21.5h101.9c5.9,0,10.7-4.8,10.8-10.8l0,0C186.9,169.2,182.1,164.4,176.1,164.4z"/>
	<path class="st7" d="M176.8,160H68.2v4.4h108c5.9,0,10.7,4.8,10.8,10.8l0,0c0,5.9-4.8,10.7-10.8,10.8h-108v4.4h108.6
		c8.4,0,15.1-6.8,15.1-15.2l0,0C191.9,166.8,185.1,160,176.8,160z"/>
	<polygon class="st7" points="71.2,196.2 81.5,196.2 81.5,203.4 76.4,200.4 71.2,203.4 	"/>
	<rect x="207.3" y="88.6" class="st1" width="26.1" height="153.8"/>
	<rect x="214.1" y="97.8" class="st2" width="12.5" height="15.4"/>
	<rect x="214.1" y="119" class="st2" width="12.5" height="15.4"/>
	<rect x="214.1" y="140.3" class="st2" width="12.5" height="15.4"/>
	<rect x="214.1" y="163.7" class="st2" width="12.5" height="68"/>
	<rect x="233.4" y="132.9" class="st2" width="15.7" height="109.5"/>
	<rect x="233.4" y="145" class="st1" width="15.7" height="8.4"/>
	
		<rect x="261.3" y="132.6" transform="matrix(0.9763 -0.2163 0.2163 0.9763 -34.1395 62.6339)" class="st2" width="15.7" height="109.5"/>
	
		<rect x="264.4" y="156.3" transform="matrix(0.9763 -0.2163 0.2163 0.9763 -34.1353 62.6329)" class="st1" width="9.4" height="61.9"/>
	
		<rect x="279.4" y="151.1" transform="matrix(0.9763 -0.2163 0.2163 0.9763 -35.7519 66.4845)" class="st1" width="13" height="91"/>
	
		<rect x="282" y="170.8" transform="matrix(0.9763 -0.2163 0.2163 0.9763 -35.7506 66.4867)" class="st2" width="7.8" height="51.5"/>
	<rect y="652.7" class="st8" width="799.9" height="147.2"/>
</g>
<g id="OBJECTS">
	<path class="st9" d="M411.1,521.5L411.1,521.5c-8.1,21.3,2.5,45.9,24,53.4l141.6,49.4c64.6,22.5,62.9-46.5,22.7-64.9l-134.9-61.9
		C443.9,488,419.2,500.2,411.1,521.5z"/>
	<path class="st9" d="M382.4,521.5L382.4,521.5c8.1,21.4-2.7,45.3-24,53.4l-122.3,46.5c-51.2,19.5-80.6-47.7-30.4-69.7l123.3-54.2
		C349.8,488.3,374.3,500.2,382.4,521.5z"/>
	<path class="st9" d="M326.2,498.5c13.4,42.8-36.6,102.5-69.9,123.5l274.2,0.8c-34.4-31.2-78-80.6-61.5-123.6
		C432.2,483.7,364.1,479.5,326.2,498.5z"/>
	<rect y="614.9" class="st8" width="799.9" height="111"/>
	<polygon class="st10" points="265.7,623 390.6,636.6 294.3,748.8 143.5,711 	"/>
	<polygon class="st11" points="290.8,689.4 499.4,689.4 484.2,614.9 306.1,614.9 	"/>
	<path class="st12" d="M464.9,635.9h-66c0-1,0-2.1,0-3.1h65.5C464.5,633.8,464.7,634.9,464.9,635.9z"/>
	<path class="st12" d="M389,635.9h-66c0.2-1,0.4-2.1,0.6-3.1H389C389,633.8,389,634.9,389,635.9z"/>
	<path class="st12" d="M468.6,656.5H399v-3.1h69L468.6,656.5z"/>
	<path class="st12" d="M388.5,656.5h-69.6c0.2-1,0.4-2.1,0.6-3.1h69C388.6,654.4,388.5,655.4,388.5,656.5z"/>
	<path class="st12" d="M472.3,677h-73.2c0-1,0-2.1,0-3.1h72.7C471.9,675,472.1,676,472.3,677z"/>
	<path class="st12" d="M388.1,677h-73.2c0.2-1,0.4-2.1,0.6-3.1h72.6C388.1,675,388.1,676,388.1,677z"/>
	<path class="st13" d="M357,402.6h82.4v112.1c0,37.8-82.4,42.2-82.4,0V402.6z"/>
	<path class="st13" d="M352.3,404.5h83.2v112.9c0,20-26.9,30.2-50.3,55.6c-19.3-30.2-32.9-35.4-32.9-55.6V404.5z"/>
	<polygon class="st14" points="365.9,523.9 385.3,573.1 335.5,523.6 	"/>
	<polygon class="st15" points="348.6,487.1 330.1,539.8 365.9,523.9 353.6,491.1 	"/>
	<polygon class="st14" points="416.9,531.7 385.2,573 446,540.5 	"/>
	<polygon class="st15" points="450.3,497 451.6,553.5 416.9,531.7 442.1,496.9 	"/>
	<path class="st16" d="M444.5,305.7c158.3,45.9,33.5,236.3-60.6,209S286.2,259.9,444.5,305.7z"/>
	<path class="st17" d="M489.2,330.5c16.8,26.2,16.7,63.1,16.2,87c-0.7,34.6-4.8,30.5,13.8,9.3c18.6-21.2,21.1-134.9-61-158.7
		S319,315.8,317.6,363.5s1.7,37.2,18.6,5.6C379.8,287.9,433.8,351.4,489.2,330.5z"/>
	<path class="st16" d="M525.3,407.1c5.4,3,4.2,15.5-2.6,27.9s-16.7,20.2-22.1,17.3s-4.2-15.5,2.6-27.9S519.9,404.1,525.3,407.1z"/>
	<path class="st16" d="M322,348.2c-6.1-0.4-11.8,10.8-12.7,25s3.4,26,9.5,26.4s11.8-10.8,12.7-25S328.2,348.6,322,348.2z"/>
	<path class="st17" d="M495.1,292c22.3,6.7,42.2,7.4,48.1-19.7c9.8,7.3,7.4,51.1-39.3,48.5S455.4,301.6,495.1,292z"/>
	<path class="st17" d="M477.5,280.2c23.1-2.7,41.6-10.1,36.1-37.3c11.9,2.7,27.3,43.9-16.6,60.1S445,304.9,477.5,280.2z"/>
	<path class="st18" d="M435.1,411.6c4.3,17.6,31,24,41.5,13.3C463.8,427.4,446.3,422.6,435.1,411.6z"/>
	<path class="st18" d="M395,400c-13.1,12.5-39,3.7-42.1-11C362.3,398,379.7,403.3,395,400z"/>
	<path class="st19" d="M440.9,397.8c-2,0-3.6-1.6-3.6-3.6c0-2,1.6-3.6,3.6-3.6c6.2,0.1,12.3,1,18.3,2.7c6.5,1.8,12.9,4.2,18.9,7.3
		c1.8,0.9,2.5,3.1,1.6,4.8s-3.1,2.5-4.8,1.6l0,0c-5.6-2.9-11.5-5.2-17.5-6.8C451.9,398.7,446.4,397.9,440.9,397.8z"/>
	<path class="st19" d="M401.4,379.1c1.7,1,2.2,3.3,1.2,5c-1,1.7-3.3,2.2-5,1.2c0,0,0,0-0.1,0c-4.7-2.9-9.8-5.2-15.1-6.8
		c-6-1.8-12.2-3-18.5-3.6c-2-0.3-3.4-2.1-3.1-4.1c0.3-1.9,1.9-3.2,3.8-3.1c6.7,0.6,13.4,1.9,19.9,3.9
		C390.4,373.3,396.1,375.9,401.4,379.1z"/>
	<path class="st20" d="M414.6,434.7c9.3,26.5-17.7,27.1-25.6,14.9C400.6,454.4,417.4,454.5,414.6,434.7z"/>
	<path class="st21" d="M456.5,435.2c9.2,3.6,14.7,11.6,12.3,18s-11.9,8.5-21.2,5s-14.7-11.6-12.3-18S447.2,431.6,456.5,435.2z"/>
	<path class="st21" d="M365.2,409.6c-9.7-1.9-18.7,2-20,8.6s5.5,13.6,15.3,15.5s18.6-2,20-8.6S374.9,411.5,365.2,409.6z"/>
	<path class="st20" d="M429.5,474.6c-3.8,11.7-66.4-6.8-63.5-18.4C385,465.2,411.3,472.9,429.5,474.6z"/>
	<path class="st20" d="M408.7,487.2c-1.9,5.9-33.3-3.4-31.8-9.2C386.4,482.5,399.5,486.4,408.7,487.2z"/>
	<path class="st15" d="M297.1,642l-83.7-13.1c-70.1-11-39-99.3,13.4-70.8l80.3,43.8C279.2,610.2,282.8,623.3,297.1,642z"/>
	<path class="st13" d="M305.8,577.7c11.5-2.3,23.2-3.7,29.5,3.2s12.9,31,0.9,29.5c-4.5-0.5-27.6,21.9-33.3,17.3
		C293.4,620,302.2,583.1,305.8,577.7z"/>
	
		<rect x="318.7" y="534.1" transform="matrix(0.97 -0.2433 0.2433 0.97 -132.8358 96.3447)" class="st22" width="10" height="103.7"/>
	<polygon class="st23" points="338.9,646.7 341.1,635 331.5,637.5 	"/>
	<path class="st11" d="M315.9,534.5l-9.7,2.4C305.3,532.9,314.9,530.5,315.9,534.5z"/>
	<path class="st16" d="M297.5,644.5c-11.5,0.6-27.5-1.7-32.7-11.2s-4-22.4,0.3-28.1s1.1-17.2,10.6-20.7s13.8-14.6,23.8-11.8
		s28.4,14.3,32.1,22.1s8.6,22.4,3.7,25.2s-7.4,5.9-12.3,1s-6.9-8.8-6.7-11.3s-18.6-14.3-12-8s23.2,24.1,27,28.1s-2.9,12.9-10.6,11.5
		S308.7,647.1,297.5,644.5z"/>
	<path class="st13" d="M297.5,644.5h-0.4c-12.3-9.3-23.5-22.4-19.1-18.7c8,6.8,16.3,13.2,25,19.2C301.1,645.2,299.3,645,297.5,644.5
		z"/>
	<path class="st13" d="M317.8,641.2c-1.6,0.1-3.1,0.5-4.5,1.1c-7.4-4.6-17.6-13.9-29-31.6C288.9,617.8,303.3,635.4,317.8,641.2z"/>
	<path class="st24" d="M480.1,633.4c2.5,0,4.6-0.7,4.6-1.5s-2.1-1.5-4.6-1.5s-4.6,0.7-4.6,1.5S477.6,633.4,480.1,633.4z"/>
	<path class="st25" d="M480.2,632c0.8-6.3,6.5-10.7,12.8-9.8c6.3,0.8,10.7,6.5,9.8,12.8s-6.5,10.7-12.8,9.8c-0.3,0-0.6-0.1-0.8-0.1"
		/>
	<path class="st16" d="M520.3,600.8c-23.4,2.5-88.5,13.2-102.1,14.9s-33,7.5-35.3,11.5s0.1,7.4,3.4,8.1s12.8,0.4,12.8,0.4
		s3,4.3,26.8,4.3s38.7,1.7,60.4,1.3s28.5,0.4,31.1-4.7s17.3,0.4,51.7-8.7S562.9,600.4,520.3,600.8z"/>
	<path class="st13" d="M398.8,635.7h0.3c0.2,0.2,0.4,0.4,0.7,0.6c-2.9-10.8,47.3-12.9,52.2-12.9
		C411.2,620.9,391.9,628.7,398.8,635.7z"/>
	<path class="st15" d="M521.7,636.3l71.6-1.3c62.8-1.2,40.2-94-13.7-69l-79.4,36.9C522.8,601.4,527.9,622.5,521.7,636.3z"/>
	<rect x="290.8" y="689.4" class="st26" width="208.6" height="13.5"/>
	<path class="st24" d="M488.2,684.7c2.5,0,4.6-0.7,4.6-1.5s-2-1.5-4.6-1.5s-4.6,0.7-4.6,1.5S485.7,684.7,488.2,684.7z"/>
	<path class="st25" d="M488.3,683.3c0.8-6.3,6.5-10.7,12.8-9.8c6.3,0.8,10.7,6.5,9.8,12.8s-6.5,10.7-12.8,9.8
		c-0.3,0-0.6-0.1-0.8-0.1"/>
	<path class="st24" d="M486.8,658.6c2.5,0,4.6-0.7,4.6-1.5s-2-1.5-4.6-1.5s-4.6,0.7-4.6,1.5S484.2,658.6,486.8,658.6z"/>
	<path class="st25" d="M486.8,657.1c0.8-6.3,6.5-10.7,12.8-9.8c6.3,0.8,10.7,6.5,9.8,12.8s-6.5,10.7-12.8,9.8
		c-0.3,0-0.6-0.1-0.8-0.1"/>
	<path class="st27" d="M715,733l-9.3-27c-3.1-9-6.2-18-9.3-27c-3.6-10.4-17.2-18.9-30.3-18.9l-58.1,0.3c-19.3,0.1-38.7,0.2-58.1,0.3
		c-13,0.1-24.8,8.8-26.3,19.4c-1.2,9.1-2.4,18.2-3.7,27.3c-1.2,9.1-2.4,18.2-3.7,27.3c-1.4,10.6,10.9,19.1,27.5,18.9l73.8-0.7
		l73.8-0.7C708,752.2,718.6,743.5,715,733z"/>
	<path class="st28" d="M715,726.2l-9.3-27c-3.1-9-6.2-18-9.3-27c-3.6-10.5-17.2-18.9-30.3-18.9l-58.1,0.3
		c-19.3,0.1-38.7,0.2-58.1,0.3c-13,0.1-24.8,8.8-26.3,19.4c-1.2,9.1-2.4,18.2-3.7,27.3s-2.4,18.2-3.7,27.3
		c-1.4,10.7,10.9,19.2,27.5,19l73.8-0.7l73.8-0.7C708,745.3,718.6,736.7,715,726.2z"/>
	<path class="st11" d="M702,738.5c-4-13-7.9-26.1-11.9-39.2c-4-13.1-7.9-26.1-11.9-39.2c-0.1-0.2-0.3-0.3-0.5-0.3l-68.3,0.4
		l-68.3,0.3c-0.2,0-0.3,0.1-0.4,0.3c-1.2,13.2-2.4,26.4-3.6,39.6s-2.4,26.4-3.6,39.6c0,0.2,0.2,0.3,0.4,0.3l83.8-0.8l83.9-0.8
		C701.9,738.8,702.1,738.7,702,738.5z"/>
	<path class="st27" d="M703.1,707.3c-1.8-5.3-3.6-10.7-5.3-16.1c-0.4-0.8-1.2-1.2-2-1.2l0,0c-0.9,0-1.5,0.5-1.3,1.2
		c1.7,5.4,3.5,10.7,5.2,16.1c0.4,0.7,1.2,1.2,2,1.1l0,0C702.7,708.5,703.3,708,703.1,707.3z"/>
	<path class="st27" d="M533.6,700.5c0.2-1.9-1.8-3.4-4.4-3.4s-4.9,1.6-5.1,3.4s1.7,3.4,4.4,3.4S533.4,702.4,533.6,700.5z"/>
	<path class="st12" d="M678.5,730l-53.9,0.5l-53.9,0.5c0-2.5,0-5,0-7.5l52.9-0.4l53-0.5C677.3,725,677.9,727.5,678.5,730z"/>
	<path class="st12" d="M675.8,719.5l-60.9,0.5l-60.9,0.5c0.1-0.9,0.1-1.7,0.1-2.6l60.5-0.5l60.5-0.5
		C675.4,717.8,675.6,718.7,675.8,719.5z"/>
	<path class="st12" d="M674.4,713.7l-36.6,0.3c-12.2,0.1-24.4,0.2-36.6,0.3c-0.1-0.9-0.1-1.7-0.2-2.6l36.4-0.3
		c12.1-0.1,24.2-0.2,36.3-0.3C673.9,712,674.2,712.8,674.4,713.7z"/>
	<path class="st12" d="M672.9,707.8l-36.1,0.3l-36.1,0.3c-0.1-0.8-0.1-1.7-0.2-2.6c12-0.1,23.9-0.2,35.8-0.3
		c11.9-0.1,23.9-0.2,35.8-0.3C672.5,706.1,672.7,707,672.9,707.8z"/>
	<path class="st12" d="M671.4,702l-35.5,0.3l-35.5,0.3c-0.1-0.9-0.1-1.7-0.2-2.6l35.3-0.3c11.8-0.1,23.5-0.2,35.3-0.3
		C671,700.3,671.2,701.1,671.4,702z"/>
	<path class="st12" d="M669.9,696.1l-57.4,0.4c-19.1,0.1-38.3,0.3-57.4,0.4c0-0.9,0.1-1.7,0.1-2.6l57-0.4l57-0.4
		C669.5,694.4,669.7,695.3,669.9,696.1z"/>
	<path class="st12" d="M668.4,690.3l-56.5,0.4l-56.5,0.4c0.1-0.9,0.1-1.7,0.1-2.6c18.7-0.1,37.4-0.2,56.1-0.4l56.1-0.4
		C668,688.6,668.2,689.4,668.4,690.3z"/>
	<path class="st12" d="M666.9,684.4l-34,0.2l-33.9,0.2c-0.1-0.9-0.1-1.7-0.2-2.6l33.7-0.2l33.7-0.2
		C666.5,682.7,666.7,683.6,666.9,684.4z"/>
	<path class="st12" d="M665.5,678.6c-11.1,0.1-22.3,0.1-33.4,0.2l-33.4,0.2c-0.1-0.8-0.1-1.7-0.2-2.6l33.2-0.2l33.2-0.2
		C665,676.9,665.2,677.7,665.5,678.6z"/>
	<path class="st12" d="M664,672.7l-32.9,0.2l-32.9,0.2c-0.1-0.9-0.1-1.7-0.2-2.6l32.6-0.2l32.6-0.2C663.5,671,663.8,671.9,664,672.7
		z"/>
	<path class="st12" d="M662.5,666.9l-53,0.3l-53,0.3c0-0.9,0.1-1.7,0.1-2.6l52.6-0.3l52.6-0.3C662.1,665.2,662.3,666,662.5,666.9z"
		/>
	<path class="st12" d="M594.3,714.3l-40,0.3c0.2-4.8,0.4-9.6,0.6-14.4l38.6-0.3C593.8,704.8,594,709.5,594.3,714.3z"/>
	<path class="st12" d="M592.7,684.9l-37.1,0.2c0.2-4.8,0.5-9.6,0.7-14.4l35.6-0.2C592.2,675.3,592.4,680.1,592.7,684.9z"/>
	<path class="st29" d="M65.8,680.4c-1.7,13.9-3.4,27.8-5.1,41.7c28.7-2.1,57.2-4.3,85.5-6.4c28.1-2.1,56-4.3,83.8-6.4
		c-1.5-10.2-3-20.4-4.6-30.5s-3.1-20.4-4.6-30.6c-0.5-3.1-0.9-6.3-1.4-9.5c-1-6.9-2-13.8-3.1-20.8H85.3c-6.6,0-12.8,6.8-13.8,15.1
		l0,0L65.8,680.4z"/>
	<path class="st11" d="M74.4,732.6h149.2l-0.2-21H76.5c-5.4,0-10.3,4.7-11,10.5S68.9,732.6,74.4,732.6z"/>
	<path class="st30" d="M229.6,737.2H73.4c-8.1,0-13.8-6.8-12.8-15.1l0,0c1-8.3,8.1-15.1,15.8-15.1h153.1v4.5c-25.6,0-50.6,0-76.2,0
		H76.5c-5.4,0-10.3,4.7-11,10.5s3.4,10.5,8.9,10.5h79.4h75.7L229.6,737.2z"/>
	<path class="st28" d="M56,660.1l-4.2,34.4c23.7-1.8,47.2-3.5,70.6-5.3c23.2-1.8,46.3-3.5,69.2-5.3c-1.2-8.4-2.5-16.8-3.8-25.2
		c-1.3-8.4-2.5-16.8-3.8-25.2c-0.4-2.6-0.8-5.2-1.2-7.8c-0.9-5.7-1.7-11.4-2.6-17.2H72.2c-5.4,0-10.5,5.6-11.4,12.5l0,0L56,660.1z"
		/>
	<path class="st11" d="M63.2,703.2h123.3l-0.2-17.3H62.9C51.1,685.8,52.2,703.2,63.2,703.2z"/>
	<path class="st27" d="M191.3,707h-129c-16,0-17.1-25,2.5-25h126.5v3.7h-63H64.9c-14.5,0-12.7,17.3-1.7,17.3h65.6h62.6L191.3,707z"
		/>
	<polygon class="st29" points="784.9,724.3 777.6,730.3 707.3,662.7 714.6,656.7 	"/>
	<polygon class="st23" points="703.7,652.7 707.3,662.7 714.6,656.7 	"/>
	<path class="st11" d="M777.6,730.3l7.3-6C787.7,727,780.4,733,777.6,730.3z"/>
	<polygon class="st31" points="748.7,726.5 740.1,730.8 688.4,652.4 697.1,648.1 	"/>
	<polygon class="st23" points="687.4,642.1 688.4,652.4 697.1,648.1 	"/>
	<path class="st11" d="M740.1,730.8l8.7-4.3C750.8,729.6,742.2,733.9,740.1,730.8z"/>
</g>
</svg>
