<svg xmlns="http://www.w3.org/2000/svg" viewBox="0 0 799.92 799.92"><defs><style>.cls-1{fill:#cce4f5;}.cls-2,.cls-8{fill:#bdd8eb;}.cls-3,.cls-4{fill:#d9ecfa;}.cls-11,.cls-12,.cls-13,.cls-14,.cls-15,.cls-16,.cls-17,.cls-18,.cls-19,.cls-20,.cls-22,.cls-23,.cls-25,.cls-26,.cls-27,.cls-29,.cls-30,.cls-31,.cls-32,.cls-33,.cls-4,.cls-8{fill-rule:evenodd;}.cls-27,.cls-5,.cls-6,.cls-7{fill:none;stroke-miterlimit:22.93;stroke-width:2.4px;}.cls-5{stroke:#bdd8eb;}.cls-6{stroke:#d9ecfa;}.cls-7{stroke:#99e0fd;}.cls-13,.cls-9{fill:#fff;}.cls-9{opacity:0.2;}.cls-10{fill:#c0a274;}.cls-11{fill:#628d81;}.cls-12{fill:#f1f1f1;}.cls-14,.cls-28{fill:#e4e4e4;}.cls-15{fill:#d8ad8d;}.cls-16{fill:#3e6357;}.cls-17{fill:#7caa9f;}.cls-18{fill:#eac2a3;}.cls-19,.cls-21{fill:#d39f25;}.cls-20{fill:#4e4e4e;}.cls-22{fill:#c49571;}.cls-23{fill:#eabaaa;}.cls-24,.cls-33{fill:#eebf2f;}.cls-25{fill:#7f7f7f;}.cls-26{fill:#cacaca;}.cls-27{stroke:#e4e4e4;}.cls-29{fill:#7592a8;}.cls-30{fill:#9fbdd1;}.cls-31{fill:#a73b4f;}.cls-32{fill:#992f43;}</style></defs><g id="BACKGROUND"><rect class="cls-1" width="799.92" height="799.92"/><rect class="cls-2" x="441.67" y="260.61" width="326.05" height="18.18"/><rect class="cls-3" x="441.67" y="242.42" width="326.05" height="18.18"/><polygon class="cls-4" points="689.6 351.77 698.33 351.77 708.26 260.61 679.66 260.61 689.6 351.77"/><polygon class="cls-4" points="511.06 351.77 519.79 351.77 529.73 260.61 501.13 260.61 511.06 351.77"/><rect class="cls-2" x="482.9" y="92.9" width="25.23" height="149.5"/><rect class="cls-3" x="492.34" y="113.05" width="6.35" height="119.08"/><rect class="cls-3" x="508.13" y="120.11" width="30.43" height="122.29"/><line class="cls-5" x1="515.62" y1="177.4" x2="515.62" y2="229.52"/><line class="cls-5" x1="523.01" y1="177.4" x2="523.01" y2="229.52"/><line class="cls-5" x1="530.4" y1="177.4" x2="530.4" y2="229.52"/><rect class="cls-5" x="515.45" y="132.98" width="14.94" height="38.52"/><rect class="cls-2" x="557.74" y="120.99" width="14.43" height="122.29" transform="translate(-28.59 189.17) rotate(-18.55)"/><path class="cls-4" d="M548.26,132.4a3.72,3.72,0,1,1-2.34,4.7A3.71,3.71,0,0,1,548.26,132.4Z"/><rect class="cls-3" x="564.26" y="144.87" width="7.43" height="92.52" transform="translate(-31.3 190.6) rotate(-18.55)"/><rect class="cls-3" x="577.78" y="149.46" width="14.43" height="93.06" transform="translate(-31.96 196.27) rotate(-18.55)"/><line class="cls-5" x1="572.84" y1="159.78" x2="597.15" y2="232.2"/><rect class="cls-2" x="590.88" y="136.45" width="8.39" height="107.41" transform="translate(-29.58 199.17) rotate(-18.55)"/><line class="cls-6" x1="584.02" y1="144.03" x2="576.07" y2="146.7"/><line class="cls-6" x1="585.6" y1="148.73" x2="577.64" y2="151.4"/><line class="cls-7" x1="614.59" y1="235.14" x2="606.64" y2="237.81"/><path class="cls-4" d="M605.5,166.24l23,69.22-10.27,3.4-22.95-69.21a5.42,5.42,0,0,1,3.43-6.84h0A5.43,5.43,0,0,1,605.5,166.24Z"/><path class="cls-8" d="M607.51,165.24l24,72.42-2.1.7L605.5,166.24a5.43,5.43,0,0,0-6.84-3.43h0a5.42,5.42,0,0,0-3.43,6.84l23.91,72.11-2.1.7L593,170a7.65,7.65,0,0,1,4.84-9.64h0A7.65,7.65,0,0,1,607.51,165.24Z"/><path class="cls-4" d="M641.89,187.6h92.19V170.52H641.89a8.56,8.56,0,0,0-8.54,8.54h0A8.56,8.56,0,0,0,641.89,187.6Z"/><path class="cls-8" d="M641.37,191.1H738.9v-3.5h-97a8.56,8.56,0,0,1-8.54-8.54h0a8.56,8.56,0,0,1,8.54-8.54h97V167H641.37a12.08,12.08,0,0,0-12,12h0A12.08,12.08,0,0,0,641.37,191.1Z"/><path class="cls-4" d="M754.58,208.59H656.8V194.08h97.78a7.27,7.27,0,0,1,7.25,7.25h0A7.27,7.27,0,0,1,754.58,208.59Z"/><path class="cls-8" d="M755,211.57H652.7v-3H754.58a7.27,7.27,0,0,0,7.25-7.26h0a7.27,7.27,0,0,0-7.25-7.25H652.7v-3H755a10.26,10.26,0,0,1,10.23,10.23h0A10.26,10.26,0,0,1,755,211.57Z"/><path class="cls-4" d="M728.93,213.81H638.72v10.93h90.21a5.48,5.48,0,0,0,5.46-5.46h0A5.48,5.48,0,0,0,728.93,213.81Z"/><path class="cls-8" d="M729.25,211.57H635.64v2.24h93.29a5.48,5.48,0,0,1,5.46,5.47h0a5.48,5.48,0,0,1-5.46,5.46H635.64V227h93.61a7.72,7.72,0,0,0,7.71-7.7h0A7.73,7.73,0,0,0,729.25,211.57Z"/><path class="cls-4" d="M733.79,229.23h-90.2v10.93h90.2a5.48,5.48,0,0,0,5.46-5.47h0A5.47,5.47,0,0,0,733.79,229.23Z"/><path class="cls-8" d="M734.12,227H640.5v2.25h93.29a5.47,5.47,0,0,1,5.46,5.46h0a5.48,5.48,0,0,1-5.46,5.47H640.5v2.24h93.62a7.73,7.73,0,0,0,7.7-7.71h0A7.73,7.73,0,0,0,734.12,227Z"/><polygon class="cls-8" points="751.51 200.22 743.43 200.22 743.43 208.59 743.43 216.96 747.47 212.21 751.51 216.96 751.51 200.22"/><rect class="cls-2" x="32.2" y="260.61" width="326.05" height="18.18"/><rect class="cls-3" x="32.2" y="242.42" width="326.05" height="18.18"/><polygon class="cls-4" points="280.13 351.77 288.85 351.77 298.79 260.61 270.19 260.61 280.13 351.77"/><polygon class="cls-4" points="101.59 351.77 110.32 351.77 120.26 260.61 91.66 260.61 101.59 351.77"/><path class="cls-4" d="M189.8,213.7h-113v23.84h113a12,12,0,0,0,11.92-11.92h0A12,12,0,0,0,189.8,213.7Z"/><path class="cls-8" d="M190.52,208.81H70.11v4.89H189.8a12,12,0,0,1,11.92,11.92h0a12,12,0,0,1-11.92,11.92H70.11v4.88H190.52a16.85,16.85,0,0,0,16.8-16.8h0A16.86,16.86,0,0,0,190.52,208.81Z"/><path class="cls-4" d="M61.67,193H176.75v13.15H61.67a6.59,6.59,0,0,1-6.57-6.57h0A6.59,6.59,0,0,1,61.67,193Z"/><path class="cls-8" d="M61.27,190.28H180.46V193H61.67a6.59,6.59,0,0,0-6.57,6.58h0a6.59,6.59,0,0,0,6.57,6.57H180.46v2.69H61.27A9.29,9.29,0,0,1,52,199.55h0A9.29,9.29,0,0,1,61.27,190.28Z"/><path class="cls-4" d="M176.12,164.37H74.23v21.5H176.12a10.78,10.78,0,0,0,10.75-10.75h0A10.78,10.78,0,0,0,176.12,164.37Z"/><path class="cls-8" d="M176.77,160H68.16v4.41h108a10.78,10.78,0,0,1,10.75,10.75h0a10.78,10.78,0,0,1-10.75,10.75h-108v4.41H176.77a15.2,15.2,0,0,0,15.15-15.16h0A15.2,15.2,0,0,0,176.77,160Z"/><polygon class="cls-8" points="71.17 196.19 81.54 196.19 81.54 203.43 76.36 200.38 71.17 203.43 71.17 196.19"/><rect class="cls-2" x="207.32" y="88.62" width="26.05" height="153.8"/><rect class="cls-3" x="214.07" y="97.77" width="12.54" height="15.39"/><rect class="cls-3" x="214.07" y="119.02" width="12.54" height="15.39"/><rect class="cls-3" x="214.07" y="140.26" width="12.54" height="15.39"/><rect class="cls-3" x="214.07" y="163.66" width="12.54" height="68.04"/><rect class="cls-3" x="233.37" y="132.93" width="15.68" height="109.5"/><rect class="cls-2" x="233.37" y="144.97" width="15.68" height="8.43"/><rect class="cls-3" x="261.28" y="132.53" width="15.68" height="109.5" transform="translate(-34.14 62.66) rotate(-12.49)"/><rect class="cls-2" x="264.41" y="156.3" width="9.42" height="61.94" transform="translate(-34.14 62.65) rotate(-12.49)"/><rect class="cls-2" x="279.4" y="151.06" width="13.03" height="91.03" transform="translate(-35.76 66.51) rotate(-12.49)"/><rect class="cls-3" x="282" y="170.83" width="7.83" height="51.5" transform="translate(-35.75 66.5) rotate(-12.49)"/><rect class="cls-9" width="799.92" height="799.92"/><rect class="cls-10" y="652.68" width="799.92" height="147.24"/></g><g id="OBJECTS"><path class="cls-11" d="M411.14,521.49h0c-8.1,21.3,2.48,45.94,24,53.44l141.6,49.41c64.62,22.55,62.88-46.46,22.7-64.91L464.57,497.5C443.87,488,419.24,500.2,411.14,521.49Z"/><path class="cls-11" d="M382.38,521.49h0a41.54,41.54,0,0,1-24,53.44L236.05,621.45c-51.22,19.47-80.57-47.67-30.41-69.73l123.3-54.22C349.8,488.33,374.28,500.2,382.38,521.49Z"/><path class="cls-11" d="M326.18,498.55c13.44,42.79-36.63,102.55-69.88,123.52l274.24.75c-34.38-31.22-78-80.62-61.54-123.64C432.23,483.67,364.08,479.51,326.18,498.55Z"/><rect class="cls-10" y="614.92" width="799.92" height="111.03"/><polygon class="cls-12" points="265.69 623.02 390.57 636.56 294.27 748.76 143.5 711 265.69 623.02"/><polygon class="cls-13" points="290.82 689.38 499.44 689.38 484.17 614.92 306.1 614.92 290.82 689.38"/><path class="cls-14" d="M464.88,635.91h-66c0-1,0-2.09,0-3.14h65.47C464.5,633.82,464.69,634.87,464.88,635.91Z"/><path class="cls-14" d="M389,635.91H323c.22-1,.42-2.09.63-3.14H389C389,633.82,389,634.87,389,635.91Z"/><path class="cls-14" d="M468.59,656.48H399v-3.14H468Z"/><path class="cls-14" d="M388.53,656.48H318.92c.2-1,.41-2.09.63-3.14h69C388.56,654.39,388.54,655.44,388.53,656.48Z"/><path class="cls-14" d="M472.29,677.05H399.06c0-1,0-2.09,0-3.14h72.68C471.93,675,472.12,676,472.29,677.05Z"/><path class="cls-14" d="M388.09,677.05H314.87c.22-1,.43-2.09.63-3.14h72.65C388.13,675,388.12,676,388.09,677.05Z"/><path class="cls-15" d="M357,402.64h82.43V514.72c0,37.83-82.43,42.18-82.43,0Z"/><path class="cls-15" d="M352.31,404.51h83.17V517.4c0,20-26.94,30.18-50.28,55.56-19.3-30.15-32.89-35.4-32.89-55.56Z"/><polygon class="cls-16" points="365.89 523.94 385.29 573.14 335.49 523.6 365.89 523.94"/><polygon class="cls-17" points="348.59 487.14 330.06 539.84 365.89 523.94 353.57 491.11 348.59 487.14"/><polygon class="cls-16" points="416.94 531.68 385.17 572.99 446.03 540.5 416.94 531.68"/><polygon class="cls-17" points="450.26 497.05 451.61 553.46 416.94 531.68 442.14 496.93 450.26 497.05"/><path class="cls-18" d="M444.46,305.7C602.71,351.56,478,542,383.89,514.74S286.21,259.85,444.46,305.7Z"/><path class="cls-19" d="M489.23,330.54c16.77,26.18,16.69,63.12,16.2,87-.71,34.64-4.76,30.47,13.81,9.3s21.08-134.95-61-158.73S319,315.83,317.63,363.55s1.67,37.18,18.6,5.58C379.78,287.85,433.82,351.41,489.23,330.54Z"/><path class="cls-18" d="M525.3,407.1c5.39,2.95,4.22,15.45-2.61,27.93s-16.74,20.2-22.13,17.25-4.22-15.46,2.62-27.93S519.92,404.15,525.3,407.1Z"/><path class="cls-18" d="M322,348.19c-6.13-.39-11.83,10.81-12.73,25s3.35,26,9.48,26.4,11.83-10.8,12.72-25S328.16,348.58,322,348.19Z"/><path class="cls-19" d="M495.07,292c22.28,6.74,42.16,7.43,48.08-19.74,9.84,7.26,7.4,51.11-39.3,48.47S455.35,301.63,495.07,292Z"/><path class="cls-19" d="M477.54,280.18c23.11-2.74,41.6-10.07,36.15-37.34,11.92,2.72,27.25,43.87-16.61,60.15S445,304.93,477.54,280.18Z"/><path class="cls-20" d="M435.08,411.64c4.33,17.59,31,24,41.45,13.27C463.78,427.37,446.27,422.57,435.08,411.64Z"/><path class="cls-20" d="M395,400c-13.07,12.54-39,3.7-42.12-11C362.33,398,379.69,403.27,395,400Z"/><path class="cls-21" d="M440.85,397.77a3.61,3.61,0,1,1,0-7.22,72.23,72.23,0,0,1,18.29,2.66,99,99,0,0,1,18.89,7.33,3.6,3.6,0,0,1-3.24,6.44,91,91,0,0,0-17.55-6.82A64.65,64.65,0,0,0,440.85,397.77Z"/><path class="cls-21" d="M401.36,379.1a3.61,3.61,0,1,1-3.83,6.12,64.83,64.83,0,0,0-15.15-6.77,91.58,91.58,0,0,0-18.48-3.61,3.61,3.61,0,0,1,.7-7.18,99.28,99.28,0,0,1,19.89,3.91A72.28,72.28,0,0,1,401.36,379.1Z"/><path class="cls-22" d="M414.58,434.7c9.28,26.46-17.74,27.12-25.59,14.86C400.62,454.43,417.4,454.52,414.58,434.7Z"/><path class="cls-23" d="M456.45,435.21c9.24,3.59,14.73,11.63,12.28,18s-11.94,8.55-21.18,5-14.73-11.62-12.27-17.95S447.22,431.63,456.45,435.21Z"/><path class="cls-23" d="M365.16,409.59c-9.72-1.89-18.66,2-20,8.65s5.54,13.6,15.27,15.49,18.65-2,19.95-8.65S374.89,411.48,365.16,409.59Z"/><path class="cls-22" d="M429.53,474.6c-3.83,11.71-66.43-6.8-63.51-18.41C385,465.2,411.26,472.86,429.53,474.6Z"/><path class="cls-22" d="M408.69,487.22c-1.92,5.86-33.27-3.41-31.81-9.22C386.38,482.51,399.54,486.35,408.69,487.22Z"/><path class="cls-17" d="M297.07,642l-83.74-13.12c-70.15-11-39-99.35,13.39-70.79L307,601.87C279.24,610.18,282.84,623.28,297.07,642Z"/><path class="cls-15" d="M305.79,577.74c11.47-2.3,23.23-3.73,29.54,3.15s12.9,31,.86,29.54c-4.51-.54-27.61,21.91-33.31,17.27C293.39,620,302.21,583.12,305.79,577.74Z"/><rect class="cls-24" x="318.71" y="534.12" width="9.97" height="103.7" transform="translate(-132.86 96.38) rotate(-14.08)"/><polygon class="cls-25" points="338.93 646.68 341.15 635.04 331.48 637.47 338.93 646.68"/><path class="cls-13" d="M315.91,534.46l-9.67,2.43C305.25,532.94,314.91,530.45,315.91,534.46Z"/><path class="cls-18" d="M297.48,644.55c-11.47.57-27.53-1.72-32.69-11.18s-4-22.37.29-28.1,1.14-17.21,10.6-20.65,13.77-14.63,23.81-11.76,28.38,14.34,32.11,22.08,8.6,22.37,3.73,25.24-7.4,5.88-12.27,1-6.94-8.76-6.66-11.34-18.64-14.33-12-8,23.23,24.09,26.95,28.11-2.86,12.9-10.61,11.47S308.66,647.13,297.48,644.55Z"/><path class="cls-15" d="M297.48,644.55l-.38,0c-12.34-9.35-23.53-22.37-19.12-18.66a306.34,306.34,0,0,0,25,19.19A20.37,20.37,0,0,1,297.48,644.55Z"/><path class="cls-15" d="M317.81,641.24a17,17,0,0,0-4.54,1.07c-7.35-4.56-17.61-13.93-29-31.6C288.94,617.84,303.29,635.43,317.81,641.24Z"/><path class="cls-26" d="M480.08,633.44c2.51,0,4.57-.67,4.57-1.48s-2.06-1.47-4.57-1.47-4.58.66-4.58,1.47S477.56,633.44,480.08,633.44Z"/><path class="cls-27" d="M480.17,632a11.42,11.42,0,1,1,9,12.66"/><path class="cls-18" d="M520.34,600.84c-23.4,2.55-88.48,13.19-102.09,14.89s-33,7.52-35.3,11.48.14,7.42,3.4,8.08,12.76.43,12.76.43,3,4.25,26.8,4.25,38.71,1.7,60.4,1.28,28.5.42,31.05-4.68,17.25.43,51.68-8.67S562.87,600.42,520.34,600.84Z"/><path class="cls-15" d="M398.77,635.73h.34a2.77,2.77,0,0,0,.68.56c-2.9-10.8,47.3-12.88,52.24-12.88C411.19,620.92,391.93,628.74,398.77,635.73Z"/><path class="cls-17" d="M521.68,636.27l71.57-1.35c62.85-1.2,40.19-94-13.68-69l-79.41,36.94C522.77,601.43,527.93,622.53,521.68,636.27Z"/><rect class="cls-28" x="290.82" y="689.38" width="208.62" height="13.45"/><path class="cls-26" d="M488.18,684.74c2.52,0,4.57-.66,4.57-1.47s-2.05-1.47-4.57-1.47-4.57.66-4.57,1.47S485.66,684.74,488.18,684.74Z"/><path class="cls-27" d="M488.27,683.27a11.42,11.42,0,1,1,9,12.66"/><path class="cls-26" d="M486.75,658.56c2.52,0,4.57-.66,4.57-1.47s-2.05-1.48-4.57-1.48-4.57.67-4.57,1.48S484.23,658.56,486.75,658.56Z"/><path class="cls-27" d="M486.84,657.09a11.42,11.42,0,1,1,9,12.66"/><path class="cls-29" d="M715,733l-9.28-26.95q-4.65-13.47-9.29-27c-3.61-10.44-17.22-18.93-30.27-18.87l-58.11.29c-19.34.1-38.74.18-58.09.27-13,.07-24.83,8.79-26.26,19.36q-1.83,13.65-3.65,27.29t-3.66,27.3c-1.42,10.57,10.93,19.09,27.49,18.93l73.77-.69,73.8-.7C708,752.15,718.61,743.48,715,733Z"/><path class="cls-30" d="M715,726.21l-9.28-27q-4.65-13.47-9.29-27c-3.61-10.45-17.22-18.94-30.27-18.87l-58.11.29c-19.34.1-38.74.18-58.09.27-13,.06-24.83,8.78-26.26,19.36-1.22,9.09-2.43,18.21-3.65,27.29s-2.44,18.21-3.66,27.29C515,738.51,527.33,747,543.89,746.87l73.77-.7,73.8-.69C708,745.32,718.61,736.66,715,726.21Z"/><path class="cls-13" d="M702.05,738.55q-5.94-19.56-11.9-39.17t-11.91-39.19a.48.48,0,0,0-.45-.26l-68.34.36-68.33.35a.36.36,0,0,0-.37.29q-1.79,19.8-3.59,39.59t-3.58,39.58c0,.16.15.28.4.27l83.85-.77,83.87-.76C701.91,738.83,702.1,738.71,702.05,738.55Z"/><path class="cls-29" d="M703.09,707.34q-2.67-8-5.32-16.07a2.09,2.09,0,0,0-2-1.16h0c-.9,0-1.45.53-1.25,1.17,1.71,5.37,3.47,10.72,5.2,16.09a2.14,2.14,0,0,0,2,1.14h0C702.72,708.51,703.3,708,703.09,707.34Z"/><path class="cls-29" d="M533.62,700.54c.19-1.88-1.77-3.38-4.38-3.36s-4.9,1.56-5.13,3.43,1.72,3.38,4.38,3.36S533.44,702.41,533.62,700.54Z"/><path class="cls-14" d="M678.49,730l-53.91.47-53.89.47c0-2.49,0-5,0-7.5l52.91-.44,53-.46C677.25,725,677.87,727.5,678.49,730Z"/><path class="cls-14" d="M675.85,719.52l-60.91.52-60.89.5c.06-.87.1-1.73.12-2.59l60.5-.5,60.52-.5C675.4,717.8,675.62,718.67,675.85,719.52Z"/><path class="cls-14" d="M674.36,713.68l-36.61.29q-18.29.13-36.58.3c-.09-.87-.13-1.73-.21-2.58l36.38-.29q18.17-.15,36.35-.3C673.94,712,674.15,712.82,674.36,713.68Z"/><path class="cls-14" d="M672.88,707.81l-36.08.29-36.07.28c-.06-.85-.13-1.71-.17-2.58q17.93-.12,35.84-.27t35.84-.27C672.45,706.11,672.65,707,672.88,707.81Z"/><path class="cls-14" d="M671.39,702l-35.53.28-35.55.26c-.06-.86-.12-1.72-.16-2.58l35.29-.26q17.64-.12,35.3-.27C671,700.26,671.18,701.11,671.39,702Z"/><path class="cls-14" d="M669.89,696.12l-57.38.42q-28.69.21-57.38.4c0-.86.06-1.72.12-2.59l57-.39,57-.4C669.48,694.41,669.68,695.26,669.89,696.12Z"/><path class="cls-14" d="M668.44,690.27l-56.53.4-56.53.38c.06-.86.08-1.73.12-2.59q28.05-.16,56.14-.38l56.13-.38C668,688.56,668.21,689.42,668.44,690.27Z"/><path class="cls-14" d="M666.94,684.42l-34,.23-33.92.22c-.07-.86-.13-1.71-.19-2.58l33.7-.22,33.7-.22C666.5,682.71,666.73,683.56,666.94,684.42Z"/><path class="cls-14" d="M665.47,678.57q-16.71.09-33.41.21l-33.41.21c-.06-.85-.12-1.71-.19-2.58l33.16-.2L664.8,676C665,676.86,665.24,677.71,665.47,678.57Z"/><path class="cls-14" d="M664,672.72l-32.87.2-32.86.2c-.07-.87-.13-1.73-.19-2.58l32.64-.2,32.64-.19C663.53,671,663.76,671.86,664,672.72Z"/><path class="cls-14" d="M662.47,666.87l-53,.31-53,.29c0-.87.06-1.73.12-2.59l52.63-.29,52.64-.3C662.06,665.16,662.27,666,662.47,666.87Z"/><path class="cls-14" d="M594.31,714.32l-40,.32c.21-4.79.41-9.59.64-14.38l38.56-.29Q593.92,707.16,594.31,714.32Z"/><path class="cls-14" d="M592.71,684.92l-37.06.24c.2-4.79.45-9.59.66-14.39l35.63-.21C592.21,675.35,592.44,680.14,592.71,684.92Z"/><path class="cls-31" d="M65.75,680.4q-2.55,20.83-5.12,41.69,43-3.2,85.49-6.41,42.15-3.2,83.77-6.44-2.26-15.27-4.56-30.54t-4.56-30.56q-.71-4.71-1.42-9.45c-1-6.92-2-13.84-3.1-20.77H85.35c-6.57,0-12.76,6.8-13.78,15.11h0Z"/><path class="cls-13" d="M74.43,732.59H223.67l-.21-21H76.52c-5.37,0-10.33,4.72-11,10.49S68.89,732.59,74.43,732.59Z"/><path class="cls-32" d="M229.55,737.19H73.43c-8.06,0-13.81-6.8-12.8-15.1h0c1-8.31,8.14-15.12,15.82-15.12h153.1v4.53c-25.62,0-50.63,0-76.24,0l-76.79,0c-5.37,0-10.33,4.72-11,10.49s3.36,10.51,8.9,10.51l79.4,0,75.72,0Z"/><path class="cls-30" d="M56,660.06,51.79,694.5q35.54-2.65,70.61-5.3,34.82-2.64,69.2-5.32-1.87-12.61-3.77-25.22t-3.76-25.24c-.39-2.6-.79-5.21-1.18-7.82-.85-5.71-1.69-11.42-2.56-17.15H72.21c-5.43,0-10.54,5.62-11.38,12.48h0Z"/><path class="cls-13" d="M63.19,703.17H186.46l-.18-17.35H62.93C51.08,685.82,52.22,703.17,63.19,703.17Z"/><path class="cls-29" d="M191.32,707h-129c-16,0-17.08-25,2.49-25H191.32v3.74l-63,0-63.43,0c-14.46,0-12.69,17.35-1.72,17.35l65.58,0,62.55,0Z"/><polygon class="cls-31" points="784.93 724.29 777.6 730.28 707.3 662.69 714.63 656.69 784.93 724.29"/><polygon class="cls-25" points="703.68 652.68 707.3 662.69 714.63 656.69 703.68 652.68"/><path class="cls-13" d="M777.6,730.29l7.33-6C787.69,727,780.4,733,777.6,730.29Z"/><polygon class="cls-33" points="748.74 726.48 740.09 730.81 688.44 652.43 697.09 648.1 748.74 726.48"/><polygon class="cls-25" points="687.41 642.14 688.44 652.43 697.09 648.1 687.41 642.14"/><path class="cls-13" d="M740.09,730.81l8.65-4.33C750.77,729.56,742.15,733.94,740.09,730.81Z"/></g></svg>