<?xml version="1.0" encoding="utf-8"?>
<!-- Generator: Adobe Illustrator 24.1.2, SVG Export Plug-In . SVG Version: 6.00 Build 0)  -->
<svg version="1.1" id="Layer_1" xmlns="http://www.w3.org/2000/svg" xmlns:xlink="http://www.w3.org/1999/xlink" x="0px" y="0px"
	 viewBox="0 0 242.5 242.5" style="enable-background:new 0 0 242.5 242.5;" xml:space="preserve">
<style type="text/css">
	.st0{fill:#7CEDAB;}
	.st1{fill:#1D7C77;}
	.st2{fill:#FFFDFA;}
	.st3{opacity:0.14;}
	.st4{opacity:0.7;fill:#FCEEE5;enable-background:new    ;}
	.st5{fill:#4E180B;}
	.st6{fill:#FFBA94;}
	.st7{opacity:0.32;}
	.st8{fill:#FF806D;}
	.st9{opacity:0.57;fill:#FF806D;enable-background:new    ;}
	.st10{fill:#FFFFFF;}
	.st11{opacity:0.46;fill:#FF806D;enable-background:new    ;}
</style>
<rect class="st0" width="242.5" height="242.5"/>
<g id="OBJECTS">
	<path class="st1" d="M231,285.4H11.5l0,0v-42.8c0-28.2,22.8-51,51-51c0,0,0,0,0,0h117.2c28.3,0,51.3,22.9,51.3,51.2V285.4
		L231,285.4z"/>
	<path class="st2" d="M83.2,190.5h73.5l0,0v21.6c0,12.9-10.4,23.3-23.3,23.3l0,0h-26c-13.4,0-24.2-10.8-24.2-24.2L83.2,190.5
		L83.2,190.5L83.2,190.5z"/>
	<g class="st3">
		<path class="st4" d="M143.3,270.3c-0.2,0-0.4-0.1-0.6-0.2c-0.4-0.3-0.5-0.9-0.3-1.3l5.2-7.8c0.3-0.4,0.9-0.6,1.3-0.3
			c0.4,0.3,0.5,0.9,0.3,1.3l-5.2,7.8C143.9,270.1,143.6,270.3,143.3,270.3z"/>
		<path class="st4" d="M179.7,246.8c-0.4,0-0.7-0.2-0.9-0.5l-4.3-8.3c-0.2-0.5-0.1-1.1,0.4-1.3c0.5-0.2,1.1,0,1.3,0.4l4.3,8.2
			c0.2,0.5,0.1,1.1-0.4,1.3C180,246.7,179.9,246.8,179.7,246.8z"/>
		<path class="st4" d="M114.2,256.5c-0.4,0-0.7-0.2-0.9-0.6l-4-8.4c-0.2-0.5,0-1.1,0.5-1.3c0.5-0.2,1.1,0,1.3,0.5l4,8.4
			c0.2,0.5,0,1.1-0.5,1.3c0,0,0,0,0,0C114.5,256.4,114.3,256.5,114.2,256.5z"/>
		<path class="st4" d="M202.7,237c-0.9,0-1.7-0.7-1.7-1.7c0-0.9,0.7-1.7,1.7-1.7s1.7,0.7,1.7,1.7C204.4,236.3,203.6,237,202.7,237z
			 M202.7,235c-0.2,0-0.3,0.1-0.3,0.3c0,0.4,0.7,0.4,0.7,0C203.1,235.2,202.9,235,202.7,235z"/>
		<path class="st4" d="M148.4,237c-0.9,0-1.7-0.7-1.7-1.7c0-0.9,0.7-1.7,1.7-1.7c0.9,0,1.7,0.7,1.7,1.7
			C150.1,236.3,149.3,237,148.4,237z M148.4,235c-0.2,0-0.3,0.1-0.3,0.3c0,0.4,0.7,0.4,0.7,0C148.8,235.2,148.6,235,148.4,235z"/>
		<path class="st4" d="M174.2,209.7c-0.9,0-1.7-0.7-1.7-1.7c0-0.9,0.7-1.7,1.7-1.7c0.9,0,1.7,0.7,1.7,1.7
			C175.9,209,175.1,209.7,174.2,209.7z M174.2,207.7c-0.2,0-0.3,0.1-0.3,0.3c0,0.4,0.7,0.4,0.7,0
			C174.6,207.9,174.4,207.7,174.2,207.7z"/>
		<path class="st4" d="M194.5,272.6c-0.9,0-1.7-0.7-1.7-1.7s0.7-1.7,1.7-1.7s1.7,0.7,1.7,1.7c0,0,0,0,0,0
			C196.2,271.9,195.4,272.6,194.5,272.6z M194.5,270.6c-0.2,0-0.3,0.1-0.3,0.3c0,0.4,0.7,0.4,0.7,0
			C194.9,270.8,194.7,270.6,194.5,270.6z"/>
		<path class="st4" d="M100.1,279.5c-0.9,0-1.7-0.7-1.7-1.7s0.7-1.7,1.7-1.7c0.9,0,1.7,0.7,1.7,1.7S101,279.5,100.1,279.5z
			 M100.1,277.5c-0.2,0-0.3,0.2-0.3,0.3c0,0.4,0.7,0.4,0.7,0C100.4,277.6,100.3,277.5,100.1,277.5L100.1,277.5z"/>
		<path class="st4" d="M30.2,274.5c-0.5,0-1-0.4-1-1c0-0.2,0.1-0.4,0.2-0.6l5.2-7.8c0.3-0.5,0.9-0.6,1.4-0.3
			c0.5,0.3,0.6,0.9,0.3,1.4l-5.2,7.8C30.8,274.4,30.5,274.5,30.2,274.5z"/>
		<path class="st4" d="M65.5,239.8c-0.4,0-0.7-0.2-0.9-0.5l-4.3-8.2c-0.3-0.5-0.1-1.1,0.4-1.3c0,0,0,0,0,0c0.5-0.2,1.1-0.1,1.3,0.4
			l4.3,8.2c0.2,0.5,0,1.1-0.4,1.3C65.8,239.8,65.7,239.8,65.5,239.8z"/>
		<path class="st4" d="M72.4,212.5c-0.3,0-0.6-0.1-0.8-0.4c-0.3-0.4-0.2-1.1,0.2-1.4l0,0l7.5-5.6c0.4-0.3,1.1-0.2,1.4,0.2
			c0.3,0.4,0.2,1.1-0.2,1.4c0,0,0,0,0,0l-7.5,5.6C72.8,212.4,72.6,212.5,72.4,212.5z"/>
		<path class="st4" d="M89.6,241.2c-0.9,0-1.7-0.7-1.7-1.7s0.7-1.7,1.7-1.7c0.9,0,1.6,0.7,1.7,1.6C91.3,240.4,90.6,241.2,89.6,241.2
			C89.7,241.2,89.6,241.2,89.6,241.2z M89.6,239.2c-0.2,0-0.3,0.1-0.3,0.3c0,0.4,0.7,0.4,0.7,0C90,239.4,89.8,239.2,89.6,239.2z"/>
		<path class="st4" d="M35.3,241.2c-0.9,0-1.7-0.7-1.7-1.6c0-0.9,0.7-1.7,1.6-1.7c0.9,0,1.7,0.7,1.7,1.6
			C37,240.4,36.3,241.2,35.3,241.2C35.4,241.2,35.3,241.2,35.3,241.2z M35.3,239.2c-0.2,0-0.3,0.1-0.3,0.3c0,0.4,0.7,0.4,0.7,0
			C35.7,239.4,35.5,239.2,35.3,239.2z"/>
		<path class="st4" d="M73.4,271.3c-0.9,0-1.7-0.7-1.7-1.7c0-0.9,0.7-1.7,1.7-1.7c0.9,0,1.7,0.7,1.7,1.7
			C75.1,270.6,74.4,271.3,73.4,271.3z M73.4,269.3c-0.2,0-0.3,0.1-0.3,0.3c0,0.4,0.7,0.4,0.7,0C73.8,269.5,73.6,269.3,73.4,269.3z"
			/>
	</g>
	<path class="st5" d="M168.4,45.7c-3.7-5.8-10.1-9.3-16.9-9.3h-7c-0.6-1.9-1.3-3.8-2.2-5.5c-3.8-8-11.1-13.8-19.8-15.6
		c-25.2-4.9-32.8,16-50.2,29.5c-30,23.3-6.7,63.9-0.4,63.4v6.3c-0.1,11.3,8.9,20.5,20.2,20.6l58.5,0.6c11.3,0.1,20.5-8.9,20.6-20.2
		c0,0,0,0,0,0l0.1-9.9l10-21.6C185.4,68.3,179.3,52.2,168.4,45.7z"/>
	<path class="st6" d="M165.5,94.9h-3l0.1-8.5c0-2.2-0.2-4.3-0.6-6.4c-2.9-13.9-15-23.8-29.2-24h-1.7c-0.8,0-1.5-0.1-2.3-0.1l-16-0.2
		c-0.8,0-1.6,0-2.3,0.1h-0.2C96,55.5,83.5,65.4,80.5,79.4c-0.9,3-1.4,6.1-1.4,9.2V94h-2.4C70,94,64.4,99.7,64.4,107v2.9
		c0,7.3,5.3,13.3,12.1,13.3h2.3l-0.2,20.5c-0.1,10.9,5.1,21.1,13.9,27.4V190c0.3,15.4,13.1,27.5,28.4,27.2
		c14.9-0.3,26.9-12.3,27.2-27.2v-19c7.8-5.9,12.6-14.9,13.2-24.7c0,0,0,0,0-0.1c0.5-2.2,0.8-4.4,0.8-6.7l0.2-15.3h3
		c6.7,0.1,12.2-5.8,12.3-13.1v-2.9C177.6,100.9,172.2,94.9,165.5,94.9z"/>
	<g class="st7">
		
			<image style="overflow:visible;enable-background:new    ;" width="85" height="79" xlink:href="F6D1E76C.png"  transform="matrix(1.3325 0 0 1.3325 84.6128 65.322)">
		</image>
	</g>
	<g class="st7">
		
			<image style="overflow:visible;enable-background:new    ;" width="86" height="79" xlink:href="F6D1E76B.png"  transform="matrix(1.3325 0 0 1.3325 36.6427 63.9895)">
		</image>
	</g>
	<path class="st8" d="M73.6,112.5c-0.3,0-0.6-0.1-0.8-0.3c-0.4-0.4-0.3-1,0.1-1.4l2.8-2.4l-4.2-5c-0.4-0.4-0.3-1,0.1-1.4
		c0,0,0,0,0,0c0.4-0.4,1-0.3,1.4,0.1l5.5,6.5l-4.4,3.7C74.1,112.4,73.9,112.5,73.6,112.5z"/>
	<path class="st8" d="M168.7,115.2c-0.2,0-0.5-0.1-0.7-0.3l-4.2-3.8l5.7-6.4c0.4-0.4,1-0.4,1.4-0.1c0.4,0.4,0.4,1,0.1,1.4l0,0
		l-4.4,4.9l2.8,2.5c0.4,0.4,0.4,1,0.1,1.4C169.2,115.1,169,115.2,168.7,115.2z"/>
	<path class="st9" d="M124.1,152.9c-0.3,0-0.5-0.1-0.7-0.3c-1.9-1.9-4.7-2.4-7.1-1.3c-0.5,0.2-1.1-0.1-1.3-0.6c-0.2-0.5,0-1,0.5-1.2
		c3.2-1.4,7-0.7,9.4,1.8c0.4,0.4,0.4,1-0.1,1.4C124.5,152.9,124.3,153,124.1,152.9L124.1,152.9z"/>
	<path class="st5" d="M94.9,88c1.4,0.2,2.9,0,4.3-0.5c1.5-0.4,3-0.7,4.3-0.9s2.8-0.5,4.3-0.6c1.4-0.1,2.8-0.4,4.1-1.1
		c1-0.7,1.3-2.1-0.4-3.6s-5.1-2.7-9.5-1.9c-4.3,0.8-7.2,3.2-8.1,5.1C93,86.4,93.7,87.7,94.9,88z"/>
	<path class="st5" d="M152.2,88.3c-1.4,0.3-2.9,0.4-4.3,0.1c-1.5-0.2-3-0.3-4.4-0.4c-1.3-0.1-2.9-0.1-4.4-0.1
		c-1.4,0.1-2.9-0.1-4.2-0.5c-1.1-0.6-1.5-2-0.1-3.6s4.8-3.3,9.2-3.1s7.6,2.2,8.7,4C153.8,86.4,153.3,87.8,152.2,88.3z"/>
	<path class="st5" d="M106.1,102.3c0.8,1.7,0,3.6-1.6,4.4c-1.7,0.8-3.6,0-4.4-1.6c-0.8-1.7,0-3.6,1.6-4.4
		C103.3,100,105.3,100.7,106.1,102.3z"/>
	<path class="st8" d="M106.6,108.8c-0.2,0-0.3,0-0.5-0.1c-1.9-1.1-4.2-1.1-6.1-0.1c-0.5,0.3-1.1,0.2-1.4-0.3
		c-0.3-0.5-0.2-1.1,0.3-1.4c2.5-1.5,5.6-1.5,8.1,0c0.5,0.2,0.7,0.8,0.4,1.3C107.3,108.6,107,108.8,106.6,108.8L106.6,108.8z"/>
	<path class="st5" d="M142.1,102.7c0.8,1.7,0,3.6-1.6,4.4c-1.7,0.8-3.6,0-4.4-1.6c-0.8-1.7,0-3.6,1.6-4.4
		C139.4,100.3,141.3,101,142.1,102.7C142.1,102.7,142.1,102.7,142.1,102.7z"/>
	<path class="st8" d="M142.6,109.2c-0.2,0-0.3,0-0.5-0.1c-1.9-1.1-4.2-1.1-6.1-0.1c-0.5,0.3-1.1,0.2-1.4-0.3
		c-0.3-0.5-0.2-1.1,0.3-1.4c2.5-1.4,5.6-1.4,8.1,0c0.5,0.3,0.7,0.8,0.4,1.3C143.3,108.9,143,109.2,142.6,109.2z"/>
	<path class="st10" d="M103.9,121.2c5.5,1.8,11.3,2.9,17.1,3.1c8.4,0.1,3.8,14.9-8.9,15.4S96.9,120.6,103.9,121.2z"/>
	<path class="st10" d="M140.6,119.2c-7.5,0-14-5.4-15.3-12.8l0,0c-1.5-8.5,4.1-16.6,12.6-18.1s16.6,4.1,18.1,12.6
		c1.5,8.5-4.1,16.6-12.6,18.1c0,0,0,0,0,0C142.4,119.1,141.5,119.2,140.6,119.2z M127.2,106c1.3,7.4,8.4,12.3,15.8,11
		c7.4-1.3,12.3-8.4,11-15.8c-1.3-7.4-8.4-12.3-15.8-11c0,0,0,0,0,0c-7.3,1.3-12.3,8.2-11,15.6C127.2,105.9,127.3,106,127.2,106
		L127.2,106z"/>
	<path class="st6" d="M119.7,89v14.7h3.3c2.8,0,5,2.2,5,5v1.5c0,3.9-3.1,7-7,7h-6"/>
	<path class="st8" d="M121,118.2h-6c-0.6,0-1-0.4-1-1s0.4-1,1-1l0,0h6c3.3,0,6-2.7,6-6v-1.4c0-2.2-1.8-4-4-4h-4.4V89
		c0.1-0.6,0.6-1,1.1-0.9c0.5,0.1,0.8,0.4,0.9,0.9v13.7h2.3c3.3,0,6,2.7,6,6v1.5C129.1,114.7,125.5,118.2,121,118.2
		C121.1,118.2,121.1,118.2,121,118.2z"/>
	<path class="st10" d="M100.7,120.1c-7.5,0-14-5.4-15.3-12.8l0,0c-1.5-8.5,4.1-16.6,12.6-18.1c8.5-1.5,16.6,4.1,18.1,12.6
		c1.5,8.5-4.1,16.5-12.6,18.1C102.5,120,101.6,120.1,100.7,120.1z M87.4,106.9c1.3,7.4,8.4,12.3,15.8,10.9
		c7.4-1.3,12.3-8.4,10.9-15.8c-1.3-7.4-8.4-12.3-15.8-10.9c0,0,0,0,0,0c-7.3,1.3-12.3,8.2-11,15.6C87.3,106.8,87.3,106.9,87.4,106.9
		L87.4,106.9z"/>
	<path class="st10" d="M126.6,100.6h-11.3c-0.6,0-1-0.4-1-1s0.4-1,1-1h11.3c0.6,0,1,0.4,1,1S127.1,100.6,126.6,100.6z"/>
	<path class="st11" d="M78.5,143.8c-0.1,14.6,9.2,27.7,23.2,32.2c5.3,10.2,18,14.2,28.2,8.8c3.8-2,6.9-5.1,8.9-8.9
		c12.8-4.4,21.7-16.1,22.5-29.6c-3.3,13.7-15.6,23.3-29.6,23.2l-22.5-0.2c-16.6-0.2-30-13.8-29.8-30.4c0,0,0,0,0,0l0.1-15.4h-0.7
		L78.5,143.8z"/>
</g>
</svg>
