<?xml version="1.0" standalone="no"?>
<!DOCTYPE svg PUBLIC "-//W3C//DTD SVG 20010904//EN"
 "http://www.w3.org/TR/2001/REC-SVG-20010904/DTD/svg10.dtd">
<svg version="1.0" xmlns="http://www.w3.org/2000/svg"
 width="512.000000pt" height="512.000000pt" viewBox="0 0 512.000000 512.000000"
 preserveAspectRatio="xMidYMid meet">
<metadata>
Created by potrace 1.11, written by Peter Selinger 2001-2013
</metadata>
<g transform="translate(0.000000,512.000000) scale(0.100000,-0.100000)"
fill="#000000" stroke="none">
<path d="M654 4866 c-17 -8 -44 -31 -60 -52 l-29 -37 -3 -1172 -2 -1172 23
-34 c12 -18 38 -44 56 -56 l34 -23 1887 0 1887 0 34 23 c18 12 44 38 56 56
l23 34 0 1167 0 1167 -30 41 c-57 78 127 72 -1967 72 -1562 -1 -1883 -3 -1909
-14z"/>
<path d="M1120 1880 l0 -40 -440 0 -440 0 0 -160 0 -160 120 0 120 0 0 -640 0
-640 160 0 160 0 0 640 0 640 160 0 160 0 0 -160 0 -160 80 0 80 0 0 -319 0
-318 -32 -7 c-43 -9 -97 -52 -114 -92 -9 -21 -14 -70 -14 -129 l0 -95 640 0
640 0 0 96 c0 110 -14 151 -66 190 -31 24 -49 31 -81 33 -10 1 -13 72 -13 321
l0 320 80 0 80 0 0 160 0 160 200 0 200 0 0 -160 0 -160 80 0 80 0 0 -319 0
-319 -35 -6 c-47 -9 -102 -59 -115 -104 -5 -20 -10 -76 -10 -124 l0 -88 640 0
640 0 0 88 c0 48 -4 103 -10 121 -14 48 -57 90 -107 103 l-43 10 0 319 0 319
80 0 80 0 0 160 0 160 160 0 160 0 0 -640 0 -640 160 0 160 0 0 640 0 640 80
0 80 0 0 160 0 160 -400 0 -400 0 0 40 0 40 -640 0 -640 0 0 -40 0 -40 -200 0
-200 0 0 40 0 40 -640 0 -640 0 0 -40z m960 -1000 l0 -320 -320 0 -320 0 0
320 0 320 320 0 320 0 0 -320z m1680 0 l0 -320 -320 0 -320 0 0 320 0 320 320
0 320 0 0 -320z"/>
</g>
</svg>
