<?xml version="1.0" standalone="no"?>
<!DOCTYPE svg PUBLIC "-//W3C//DTD SVG 20010904//EN"
 "http://www.w3.org/TR/2001/REC-SVG-20010904/DTD/svg10.dtd">
<svg version="1.0" xmlns="http://www.w3.org/2000/svg"
 width="700.000000pt" height="700.000000pt" viewBox="0 0 700.000000 700.000000"
 preserveAspectRatio="xMidYMid meet">
<metadata>
Created by potrace 1.11, written by Peter Selinger 2001-2013
</metadata>
<g transform="translate(0.000000,700.000000) scale(0.100000,-0.100000)"
fill="#000000" stroke="none">
<path d="M895 6651 c-57 -26 -101 -78 -117 -136 -11 -42 -14 -315 -13 -1615
l1 -1565 22 -42 c26 -50 80 -96 131 -112 50 -14 5108 -16 5161 -1 48 13 106
63 132 113 l22 42 0 1585 -1 1585 -20 40 c-27 51 -68 90 -115 109 -33 14 -306
16 -2600 16 -2475 0 -2564 -1 -2603 -19z"/>
<path d="M1540 2620 c-5 -3 -10 -28 -12 -55 l-3 -50 -597 0 -598 0 0 -217 c0
-167 3 -218 13 -219 6 0 80 -1 162 -2 l150 -2 1 -860 c1 -473 2 -866 3 -872 1
-10 51 -13 216 -13 118 0 215 3 216 8 7 51 2 1729 -5 1734 -5 3 92 6 217 6
l227 0 0 -219 0 -219 110 0 110 0 0 -438 0 -438 -31 -2 c-73 -6 -155 -75 -178
-151 -6 -21 -11 -93 -11 -160 l0 -121 875 0 875 0 0 23 c5 234 -5 293 -61 346
-31 30 -89 59 -125 64 l-29 4 -1 436 -1 437 111 0 111 0 -2 219 -2 219 274 0
275 0 0 -219 0 -218 108 -3 107 -3 2 -420 c0 -231 -1 -427 -3 -436 -3 -10 -15
-16 -29 -16 -30 -1 -102 -37 -127 -66 -47 -54 -58 -95 -58 -234 l0 -133 876 0
875 0 -2 127 c-2 71 -7 143 -13 161 -20 69 -102 134 -181 146 -19 3 -20 15
-23 439 l-2 437 67 1 c38 0 87 0 110 -1 l42 -1 0 118 c0 65 0 164 1 220 l0
101 225 0 c168 0 223 -3 218 -11 -8 -12 -12 -1702 -5 -1725 3 -9 56 -12 221
-12 l216 0 -1 873 -1 874 103 1 c57 0 107 3 112 5 4 3 6 101 4 219 l-3 213
-542 0 -542 0 -5 55 -5 55 -870 0 -870 0 -5 -55 -5 -55 -270 0 -270 0 -2 40
c-1 22 -2 47 -2 55 -1 13 -104 15 -867 15 -476 0 -870 -2 -874 -5z m1304
-1420 l0 -434 -434 0 -435 0 -3 437 -2 437 375 2 c206 2 403 1 437 -2 l62 -5
0 -435z m2296 3 l0 -438 -435 0 c-239 0 -436 2 -436 5 -3 14 -5 856 -1 863 2
4 199 7 438 7 l434 0 0 -437z"/>
</g>
</svg>
